<svg width="323" height="475" viewBox="0 0 323 475" fill="none" xmlns="http://www.w3.org/2000/svg">
<mask id="mask0_380_7264" style="mask-type:alpha" maskUnits="userSpaceOnUse" x="0" y="0" width="323" height="475">
<rect width="323" height="475" rx="10" fill="url(#paint0_linear_380_7264)"/>
</mask>
<g mask="url(#mask0_380_7264)">
<path d="M99.6871 317.938C45.2434 361.782 74.6671 449.362 116.2 466.389C135.716 477.563 125.708 487.672 131.212 516.937C136.717 546.201 220.784 579.19 318.362 474.37C415.941 369.55 326.369 189.707 304.351 173.744C282.334 157.782 249.921 147.711 210.276 161.506C182.754 171.084 164.739 191.303 162.237 222.696C159.735 254.089 167.742 263.134 99.6871 317.938Z" fill="url(#paint1_linear_380_7264)"/>
<path d="M34.248 172.816L33.4829 172.172L32.2962 173.582L34.1252 173.808L34.248 172.816ZM55.56 182.32L56.287 181.633L55.56 182.32ZM58.44 217.744L59.2899 218.271L58.44 217.744ZM44.904 229.264L45.3277 230.17L45.3339 230.167L44.904 229.264ZM2.136 230.416L1.83223 231.369L1.84042 231.371L1.84865 231.374L2.136 230.416ZM-14.856 221.776L-15.7306 221.291L-16.1463 222.041L-15.4688 222.566L-14.856 221.776ZM-6.792 207.232L-6.14786 206.467L-7.07734 205.684L-7.66656 206.747L-6.792 207.232ZM6.456 214.576L6.12409 215.519L6.13449 215.523L6.14496 215.526L6.456 214.576ZM38.28 213.136L38.8632 213.948L38.867 213.946L38.28 213.136ZM38.568 190.96L37.9646 191.757L37.9765 191.766L37.9888 191.775L38.568 190.96ZM12.936 186.928H11.936V187.928H12.936V186.928ZM12.936 174.112L12.1708 173.468L11.936 173.747V174.112H12.936ZM35.832 146.896L36.5972 147.54L37.9801 145.896H35.832V146.896ZM-9.96 146.896H-10.96V147.896H-9.96V146.896ZM-9.96 131.2V130.2H-10.96V131.2H-9.96ZM58.728 131.2H59.728V130.2H58.728V131.2ZM58.728 143.728L59.4931 144.372L59.728 144.093V143.728H58.728ZM34.1252 173.808C43.28 174.941 50.1412 178.039 54.833 183.007L56.287 181.633C51.1869 176.233 43.84 172.995 34.3708 171.824L34.1252 173.808ZM54.833 183.007C59.5371 187.987 61.904 194.214 61.904 201.76H63.904C63.904 193.754 61.3749 187.021 56.287 181.633L54.833 183.007ZM61.904 201.76C61.904 207.437 60.4643 212.581 57.5901 217.217L59.2899 218.271C62.3678 213.307 63.904 207.795 63.904 201.76H61.904ZM57.5901 217.217C54.7327 221.826 50.3816 225.548 44.4741 228.361L45.3339 230.167C51.5224 227.22 56.1953 223.262 59.2899 218.271L57.5901 217.217ZM44.4803 228.358C38.6958 231.064 31.5537 232.44 23.016 232.44V234.44C31.7583 234.44 39.2082 233.032 45.3277 230.17L44.4803 228.358ZM23.016 232.44C15.9107 232.44 9.04769 231.445 2.42335 229.458L1.84865 231.374C8.66431 233.419 15.7213 234.44 23.016 234.44V232.44ZM2.43977 229.463C-4.09088 227.381 -9.64599 224.551 -14.2432 220.986L-15.4688 222.566C-10.658 226.297 -4.88512 229.227 1.83223 231.369L2.43977 229.463ZM-13.9814 222.261L-5.91743 207.717L-7.66656 206.747L-15.7306 221.291L-13.9814 222.261ZM-7.43614 207.997C-3.68276 211.158 0.843214 213.661 6.12409 215.519L6.78791 213.633C1.70079 211.843 -2.60524 209.45 -6.14786 206.467L-7.43614 207.997ZM6.14496 215.526C11.5256 217.287 17.0546 218.168 22.728 218.168V216.168C17.2654 216.168 11.9464 215.321 6.76704 213.626L6.14496 215.526ZM22.728 218.168C29.4733 218.168 34.8895 216.801 38.8632 213.948L37.6968 212.324C34.1825 214.847 29.2307 216.168 22.728 216.168V218.168ZM38.867 213.946C42.9639 210.975 45.04 206.932 45.04 201.904H43.04C43.04 206.284 41.2761 209.729 37.693 212.326L38.867 213.946ZM45.04 201.904C45.04 196.896 43.0747 192.935 39.1472 190.145L37.9888 191.775C41.3573 194.169 43.04 197.504 43.04 201.904H45.04ZM39.1714 190.163C35.3642 187.281 29.6307 185.928 22.152 185.928V187.928C29.4573 187.928 34.6678 189.263 37.9646 191.757L39.1714 190.163ZM22.152 185.928H12.936V187.928H22.152V185.928ZM13.936 186.928V174.112H11.936V186.928H13.936ZM13.7012 174.756L36.5972 147.54L35.0668 146.252L12.1708 173.468L13.7012 174.756ZM35.832 145.896H-9.96V147.896H35.832V145.896ZM-8.96 146.896V131.2H-10.96V146.896H-8.96ZM-9.96 132.2H58.728V130.2H-9.96V132.2ZM57.728 131.2V143.728H59.728V131.2H57.728ZM57.9629 143.084L33.4829 172.172L35.0131 173.46L59.4931 144.372L57.9629 143.084Z" fill="white" fill-opacity="0.2"/>
<g opacity="0.7">
<path d="M485.66 391.675C487.646 393.86 485.263 396.044 483.873 397.633C482.284 399.42 480.696 401.803 478.114 400.81C476.724 400.214 475.533 398.824 474.54 397.633C473.745 396.838 472.951 396.044 472.355 395.25C471.362 396.64 470.171 398.03 468.781 399.023C469.774 400.611 470.568 402.2 471.561 403.789C472.554 405.377 473.348 406.966 472.554 408.753C470.767 412.526 465.008 413.321 461.632 412.725C461.036 412.725 460.639 412.129 460.44 411.534C459.646 408.753 459.249 406.172 459.447 403.392C456.866 403.789 454.086 403.789 451.107 402.994C450.511 404.782 449.915 406.569 449.32 408.356C448.923 409.548 448.525 411.335 447.532 412.129C444.951 414.115 440.185 410.143 438.199 408.952C437.405 408.555 437.206 407.562 437.603 406.768C439.192 403.987 440.781 401.009 442.766 398.427C437.405 393.661 435.022 385.916 437.405 378.767C438.199 376.186 439.589 374.001 441.178 372.413C436.213 358.909 428.667 349.377 416.554 341.434C416.355 341.434 416.355 341.235 416.156 341.037C413.178 342.625 409.603 343.42 405.632 343.023C405.234 343.023 404.837 342.824 404.639 342.625C404.44 348.384 404.043 353.945 403.447 359.703C403.447 360.696 402.454 361.292 401.66 361.292C401.263 361.888 400.667 362.484 399.674 362.484C385.972 362.682 372.27 362.682 358.567 362.682C358.567 374.399 358.965 385.916 360.156 397.633C368.695 406.37 370.681 423.647 372.468 434.371C372.468 434.768 372.468 435.165 372.27 435.363C379.021 439.136 384.78 444.498 388.156 451.449C388.752 452.839 387.958 454.03 386.766 454.229C387.56 455.42 386.965 457.406 384.979 457.406C361.546 458.2 336.723 458.399 313.291 456.016C311.503 455.817 311.305 453.434 313.092 453.037C315.078 446.087 319.049 440.725 324.014 436.753C321.83 425.434 322.227 410.541 329.177 401.207C328.979 401.009 328.581 400.611 328.581 400.214C328.383 387.704 328.78 374.994 329.574 362.285C321.433 362.285 313.489 362.285 305.347 362.285C294.028 362.285 282.51 362.484 270.993 362.682C271.588 373.604 271.588 384.725 270.794 395.647C284.099 401.803 285.688 422.853 286.482 436.753C293.234 441.321 297.801 448.073 298 456.81C298 459.193 295.021 459.591 294.028 458.2C293.631 458.399 293.234 458.598 292.837 458.598C270 458.796 247.163 458.995 224.524 458.598C223.333 458.598 223.134 457.406 223.531 456.612C223.531 456.413 223.531 456.413 223.531 456.215C223.928 447.278 228.694 440.725 235.446 436.356C233.063 423.25 237.829 406.966 248.156 399.023C248.553 386.909 246.765 375.193 246.964 363.079C235.049 363.079 223.134 362.881 211.418 361.888C209.631 361.689 209.631 359.306 211.418 359.108C211.616 359.108 211.815 359.108 212.014 359.108C212.014 358.909 211.815 358.909 211.815 358.711C211.418 351.959 211.219 345.008 210.822 338.257C207.248 338.852 204.07 338.654 200.893 337.462C196.723 343.817 192.354 349.774 189.177 356.725C186.396 362.682 184.808 368.838 183.219 374.994C183.815 375.789 183.616 377.179 182.623 377.576C182.425 378.966 182.028 380.157 181.63 381.548C188.184 383.931 192.155 391.08 191.957 398.03C195.531 397.633 200.297 398.626 200.694 402.796C201.091 407.76 194.737 408.158 191.361 407.76C190.567 407.76 189.772 407.76 188.978 407.562C186.992 410.541 184.411 412.924 181.233 414.711C183.219 416.299 183.616 420.073 182.822 422.257C182.028 424.441 179.843 426.03 177.659 426.229C172.893 426.427 171.9 421.661 172.496 417.888C169.914 418.285 167.332 418.285 164.751 417.69C164.552 417.69 164.155 417.491 163.957 417.491C163.758 418.881 164.354 420.073 163.957 421.463C163.758 422.654 162.964 423.647 161.971 424.441C158.992 426.626 155.417 425.434 152.439 424.243C151.843 424.044 151.247 423.448 151.446 422.654C152.24 419.477 153.034 416.101 154.226 412.924C154.226 412.725 154.425 412.725 154.425 412.725C149.46 408.356 146.878 402.002 148.467 394.853C149.261 391.477 150.85 388.895 153.034 386.909C153.034 386.909 153.034 386.909 153.034 386.711C152.836 385.718 152.836 384.526 152.836 383.533C152.836 382.54 152.637 381.548 153.034 380.555C153.034 380.356 153.233 380.157 153.432 379.959C154.623 357.32 166.141 332.696 185.403 319.788C184.808 317.803 184.411 316.015 184.212 314.029C182.623 298.739 196.921 291.391 210.226 291.59C210.226 285.632 210.028 279.873 210.028 273.916C210.028 272.724 211.021 271.731 212.212 271.93C219.361 271.93 226.311 271.93 233.46 272.129C234.056 267.363 234.652 262.398 235.645 257.632C228.694 258.228 226.311 245.32 227.503 239.958C229.29 231.419 238.028 225.66 246.368 228.838C248.95 224.667 251.929 220.894 255.702 217.518C270.198 204.213 291.844 202.426 310.51 202.029C328.184 201.632 348.043 205.206 359.362 220.1C361.149 222.483 362.738 225.263 364.128 228.043C366.114 226.852 369.291 227.845 371.674 228.639C376.241 230.228 380.213 233.802 381.603 238.37C384.185 246.114 378.624 255.249 370.482 254.058C371.078 260.611 371.475 267.164 372.071 273.32C381.206 273.32 390.341 273.519 399.277 273.519C400.27 273.519 401.064 274.114 401.263 274.909C401.858 275.107 402.454 275.703 402.653 276.696C403.249 282.256 403.844 287.817 404.241 293.377C416.951 293.774 427.674 303.902 428.667 316.81V317.008C450.114 322.171 463.618 346.597 465.603 367.25C465.802 367.25 465.802 367.25 466.001 367.448C475.334 371.618 477.916 379.76 476.327 387.108C477.916 387.902 479.504 388.697 480.894 389.491C482.483 389.888 484.469 390.484 485.66 391.675ZM482.483 394.257C483.277 394.058 483.079 393.86 482.086 393.661C481.291 393.065 480.1 392.668 479.306 392.271C478.114 391.675 476.724 390.881 475.533 390.285C475.135 391.477 474.54 392.47 473.944 393.463C474.937 394.455 476.128 395.448 477.121 396.441C477.916 397.037 478.71 398.228 479.901 397.831C480.497 397.434 481.291 396.243 481.689 395.845C481.887 395.051 482.086 394.654 482.483 394.257ZM470.369 391.477C474.142 384.725 473.348 375.789 465.206 370.427C465.008 370.427 465.008 370.427 464.809 370.427C464.213 370.626 463.618 370.626 463.22 370.228C454.681 369.831 444.355 370.824 441.178 380.356C438.398 388.101 443.164 396.838 450.908 399.221C455.873 400.81 460.639 400.016 464.213 397.831C464.015 396.64 465.405 395.647 466.398 396.243C467.788 395.051 468.979 393.661 469.774 392.271C469.972 392.072 470.171 391.675 470.369 391.477ZM468.781 408.158C469.376 407.363 469.178 407.165 468.781 406.37C467.986 404.583 466.795 402.994 466.001 401.406C464.809 402.2 463.419 402.796 461.83 403.193C462.029 405.576 462.426 407.76 463.22 409.945C464.412 409.945 465.405 409.945 466.596 409.548C467.192 409.151 468.185 408.753 468.781 408.158ZM444.157 370.427C449.121 367.051 455.674 365.86 461.83 366.852C461.235 361.689 460.043 356.725 458.256 351.959C459.447 351.164 458.653 349.377 457.263 349.576C455.674 346.001 453.887 342.427 451.504 339.249C449.518 336.271 447.334 333.689 444.951 331.505C445.547 330.909 446.142 330.313 446.738 329.916C447.731 328.923 446.341 327.136 445.149 327.93C444.355 328.526 443.561 329.122 442.766 329.718C438.398 325.746 433.433 322.569 428.469 318.994C428.469 327.335 424.695 336.072 418.142 340.64C421.121 342.03 423.901 343.618 426.483 345.604C426.284 345.803 426.086 346.001 425.887 346.2C425.49 346.796 426.086 347.987 426.88 347.391C427.277 347.193 427.476 346.994 427.873 346.597C431.249 349.377 434.227 352.753 436.809 356.328C435.22 357.32 436.213 360.101 438.398 359.703C438.596 359.703 438.795 359.703 438.993 359.505C441.178 362.682 442.965 366.455 444.157 370.427ZM445.944 408.555C446.539 406.569 447.334 404.385 447.93 402.399C446.738 402.002 445.745 401.406 444.752 400.611C443.561 402.994 442.171 405.179 440.979 407.562C441.972 408.158 442.766 408.555 443.759 409.151C443.958 409.349 444.951 410.143 445.348 410.143C445.547 409.945 445.745 408.952 445.944 408.555ZM407.617 339.647C421.121 339.448 428.071 323.561 424.1 311.646C421.121 302.512 413.178 297.547 404.44 295.363C405.433 309.462 405.433 323.959 404.837 338.058C405.83 337.859 407.419 338.455 407.617 339.647ZM399.873 358.313C400.071 358.313 400.071 358.313 400.27 358.512C399.475 331.902 398.483 304.895 398.681 278.086C353.801 277.689 308.922 277.292 264.042 276.895C252.723 276.696 241.602 276.696 230.283 276.497C225.12 276.497 217.772 274.114 214.198 279.079C212.808 281.263 213.999 288.81 214.396 292.781C214.595 293.178 214.595 293.575 214.396 293.973C214.396 294.171 214.396 294.171 214.396 294.171C214.794 315.817 215.588 337.661 214.992 359.306V359.505C244.978 357.519 275.56 358.909 305.546 358.711C337.121 358.711 368.497 358.313 399.873 358.313ZM370.085 251.675C375.844 251.675 379.816 246.313 378.426 240.554C377.83 237.774 376.043 235.391 373.66 233.802C372.667 233.206 366.312 229.632 365.518 231.419L365.319 231.618C368.099 237.972 369.291 244.724 370.085 251.675ZM302.369 272.724C324.213 272.923 346.057 272.923 367.901 273.121C366.511 257.433 366.511 239.164 358.17 225.263C347.844 208.384 326.397 205.206 308.326 206.001C306.34 206.001 304.354 206.199 302.369 206.199C303.759 227.447 306.142 251.873 302.369 272.724ZM357.773 395.647C357.177 392.668 356.582 389.689 356.184 386.512C348.44 387.108 340.099 388.101 332.355 387.108C332.156 391.278 331.759 395.25 331.362 399.42C334.539 396.243 338.709 393.86 344.071 393.065C349.83 392.271 354.199 393.264 357.773 395.647ZM355.589 363.079C348.241 363.079 340.695 363.079 333.347 363.079C333.347 364.469 333.149 365.661 333.149 367.051C340.496 366.455 347.844 366.257 355.192 366.654C355.589 365.462 355.589 364.271 355.589 363.079ZM355.787 383.335C355.589 381.349 355.39 379.363 355.39 377.377C348.241 378.37 340.298 377.576 332.95 377.179C332.752 379.959 332.752 382.54 332.553 385.321C340.099 383.533 348.241 383.533 355.787 383.335ZM355.39 374.597C355.39 373.008 355.39 371.42 355.39 369.831C348.043 369.633 340.695 369.235 333.347 369.037C333.347 371.023 333.149 372.81 333.149 374.796C340.298 374.597 348.241 373.604 355.39 374.597ZM316.667 453.434C339.106 451.846 362.738 452.442 385.178 453.633C368.497 431.392 330.766 424.64 316.667 453.434ZM326.993 435.562C338.709 428.214 354.993 428.016 368.298 433.775C366.114 419.675 363.532 393.463 344.071 397.434C326.794 400.81 326.397 421.264 326.993 435.562ZM301.177 272.724C298 251.476 299.588 228.043 299.191 206.596C283.106 207.788 266.822 211.164 255.503 223.277C243.191 236.781 240.212 255.249 236.241 272.327C257.886 272.327 279.532 272.526 301.177 272.724ZM293.234 454.626C293.432 454.626 293.432 454.626 293.631 454.825C291.248 438.541 270.993 435.165 257.29 435.562C242.794 435.959 230.68 442.512 226.51 456.612C247.56 455.023 268.411 454.626 289.461 454.825C289.659 454.626 290.056 454.626 290.454 454.626C291.447 454.626 292.241 454.626 293.234 454.626ZM282.51 435.165C281.517 422.058 280.127 401.406 265.432 399.221C246.17 396.243 238.425 419.874 238.028 435.562C250.936 428.612 269.404 428.612 282.51 435.165ZM268.61 395.448C268.411 393.86 268.411 392.072 268.212 390.285C262.851 390.285 257.489 390.285 252.127 389.888C251.929 392.668 251.531 395.25 251.134 397.831C254.709 395.845 258.68 394.654 263.248 394.654C265.234 394.853 267.021 395.051 268.61 395.448ZM268.212 387.902C268.014 385.519 268.014 383.136 268.014 380.952C262.851 380.952 257.687 380.952 252.524 380.555C252.524 383.136 252.524 385.718 252.524 388.299C257.489 387.902 262.851 387.902 268.212 387.902ZM267.617 377.774C267.617 376.186 267.617 374.597 267.418 373.008C262.056 372.413 256.695 372.214 251.333 371.817C251.531 373.803 251.73 375.987 251.929 378.172C257.29 377.576 262.453 377.576 267.617 377.774ZM267.617 369.831C267.617 367.845 267.617 365.661 267.617 363.675C261.858 363.874 256.099 363.874 250.141 363.874C250.539 365.86 250.936 367.845 251.333 369.831C256.695 369.037 262.255 369.235 267.617 369.831ZM244.78 231.816C239.616 230.426 234.652 232.809 232.269 237.774C231.077 240.157 230.68 242.937 230.879 245.717C230.879 247.107 231.276 248.299 231.673 249.689C232.07 250.483 232.269 251.277 232.666 252.072C234.056 252.866 235.446 253.462 236.836 254.256C238.425 246.313 241.007 238.767 244.78 231.816ZM211.219 336.469C210.822 322.767 210.623 309.065 210.623 295.363C199.701 297.349 187.985 299.136 188.382 313.831C188.779 326.342 199.304 335.874 211.219 336.469ZM196.127 406.37C197.12 405.973 198.51 404.583 198.51 403.392C198.311 400.611 194.538 401.009 192.552 401.009C192.354 402.2 191.957 403.193 191.559 404.385C191.361 404.782 191.162 405.179 190.964 405.576C191.361 405.775 191.957 405.973 192.354 406.37C193.545 406.768 194.935 406.768 196.127 406.37ZM192.552 344.81C194.538 342.03 196.723 339.448 199.106 337.065C193.347 334.086 188.978 328.526 186.396 322.171C181.829 327.136 177.659 332.1 173.886 337.065C179.843 340.441 185.801 342.824 192.552 344.81C192.354 344.81 192.354 344.81 192.552 344.81ZM186.198 406.37C191.361 398.427 188.581 389.094 180.24 385.321C180.042 385.321 180.042 385.321 179.843 385.321C171.105 384.328 157.8 383.931 153.034 393.264C148.666 402.2 155.02 411.732 163.758 414.115C172.098 416.299 181.63 413.321 186.198 406.37ZM183.815 361.094C185.602 356.526 187.786 352.157 190.368 347.987C184.013 346.001 178.056 343.023 172.496 339.249C168.921 344.611 165.744 349.973 163.361 355.93C170.311 356.725 177.659 358.512 183.815 361.094ZM181.035 420.668C181.233 419.08 180.042 417.69 179.843 416.299C178.254 416.895 176.666 417.491 175.077 417.888C174.879 420.271 174.879 423.448 177.46 423.846C179.247 424.243 180.836 422.456 181.035 420.668ZM180.042 374.796C180.637 371.42 181.63 367.845 182.822 364.469C176.07 363.079 169.12 361.094 162.368 358.711C160.779 362.881 159.389 367.25 158.396 371.817C165.545 372.81 172.694 374.001 180.042 374.796ZM179.049 381.349C179.049 380.356 179.247 379.363 179.446 378.37C172.297 378.172 164.552 376.782 157.999 374.2C157.602 376.782 157.205 379.165 156.808 381.945C156.808 382.739 156.212 383.136 155.815 383.335C155.815 383.533 155.815 383.732 155.815 383.931C155.815 384.526 155.815 384.923 155.815 385.519C161.772 381.548 170.51 380.555 177.659 382.143C177.857 381.548 178.254 381.15 179.049 381.15C178.85 381.349 179.049 381.349 179.049 381.349ZM161.574 420.867C161.772 419.477 161.375 418.285 161.574 417.094C159.588 416.299 157.602 415.307 155.815 413.917C155.417 416.697 155.02 419.477 154.425 422.456C157.205 423.448 161.375 424.441 161.574 420.867Z" fill="#222221"/>
<path d="M400.468 358.512C400.27 358.512 400.27 358.313 400.071 358.313C368.695 358.313 337.319 358.711 305.943 358.711C275.957 358.909 245.375 357.519 215.389 359.505V359.306C215.985 337.661 215.191 315.817 214.794 294.171V293.973C214.992 293.576 214.992 293.178 214.794 292.781C214.396 289.008 213.205 281.263 214.595 279.079C217.971 274.114 225.319 276.299 230.68 276.497C241.999 276.696 253.12 276.696 264.439 276.895C309.319 277.292 354.199 277.689 399.078 278.086C398.681 304.696 399.674 331.902 400.468 358.512ZM380.61 297.944C381.603 295.76 382 293.576 381.802 291.193C381.603 290.001 380.411 289.604 379.617 290.001C379.419 289.604 379.021 289.207 378.227 289.207C330.369 289.802 281.915 288.412 234.056 291.788H233.858C233.262 290.795 231.475 291.193 231.475 292.583C231.475 294.568 231.077 297.15 232.269 298.937C232.467 299.334 233.262 299.334 233.46 298.937L233.659 299.136C232.865 299.533 233.063 301.122 234.255 301.122C282.51 303.108 330.964 301.519 379.021 299.533C379.816 299.334 380.213 298.739 380.61 297.944C380.411 297.944 380.61 297.944 380.61 297.944ZM379.816 310.455C380.014 309.065 380.213 307.278 379.22 306.285C379.22 306.086 379.021 306.086 379.021 306.086C378.823 305.491 378.426 304.895 377.631 304.895C329.972 306.682 282.312 306.483 234.85 307.476C233.858 307.476 233.659 308.469 233.858 309.065C233.262 311.051 233.063 313.831 233.858 315.817C233.858 316.015 234.056 316.015 234.056 316.214C233.858 316.611 234.056 317.405 234.85 317.405C259.872 319.987 285.688 319.193 310.908 318.994C332.156 318.796 356.78 320.781 377.83 316.413C378.823 316.214 379.021 315.42 378.823 314.625C378.823 314.625 378.823 314.625 379.021 314.625C379.419 313.235 379.617 312.044 379.816 310.455ZM376.837 337.859C379.816 335.874 381.206 331.306 378.624 328.526C376.241 325.945 372.667 326.342 369.887 328.129C367.106 329.122 365.518 332.498 366.908 335.476C368.497 338.852 373.66 339.845 376.837 337.859ZM350.227 338.257C353.603 337.264 355.986 333.689 354.596 330.313C353.404 327.335 349.433 325.349 346.454 326.54C343.674 327.533 341.886 330.909 342.482 333.888C343.078 337.462 346.851 339.25 350.227 338.257ZM336.128 327.93C336.128 327.335 335.73 326.937 335.333 326.54C335.135 325.945 334.738 325.547 333.943 325.547C301.773 324.157 268.014 322.966 235.843 325.15C235.049 325.15 234.652 325.945 234.85 326.54C233.46 328.725 233.858 332.696 234.652 334.682C234.85 334.881 235.049 335.278 235.248 335.278C235.248 335.675 235.248 335.874 235.645 336.072C267.418 340.838 301.177 340.64 332.752 337.065C333.347 337.065 333.745 336.668 333.943 336.271C334.34 336.271 334.936 336.072 334.936 335.476C335.532 332.895 336.128 330.512 336.128 327.93Z" fill="#F9EA9B"/>
<path d="M381.603 290.994C381.802 293.377 381.405 295.561 380.412 297.746C380.213 298.54 379.816 299.136 378.823 299.136C330.766 301.122 282.114 302.71 234.057 300.724C232.865 300.724 232.667 299.136 233.461 298.739C233.659 298.54 233.858 298.54 234.057 298.54C282.312 297.746 330.369 297.746 378.625 295.561C378.823 294.171 378.823 292.781 378.823 291.59C378.625 291.59 378.426 291.788 378.228 291.788C330.369 292.384 281.915 294.965 234.057 292.781C234.057 294.767 234.255 296.951 233.262 298.54C233.064 298.937 232.269 298.937 232.071 298.54C230.879 296.753 231.276 294.37 231.276 292.185C231.276 290.795 233.064 290.597 233.659 291.391H233.858C281.716 288.015 330.171 289.405 378.029 288.809C378.625 288.809 379.022 289.207 379.419 289.604C380.412 289.405 381.603 289.802 381.603 290.994Z" fill="#222221"/>
<path d="M379.219 306.285C380.013 307.476 379.815 309.263 379.815 310.455C379.616 311.845 379.418 313.235 378.623 314.427C378.623 314.427 378.623 314.427 378.425 314.427C378.623 315.221 378.425 316.015 377.432 316.214C356.581 320.583 331.956 318.597 310.509 318.795C285.289 318.994 259.672 319.788 234.452 317.207C233.658 317.207 233.459 316.412 233.658 316.015C233.459 316.015 233.459 315.817 233.459 315.618C232.665 313.831 232.864 310.852 233.459 308.866C233.261 308.271 233.459 307.278 234.452 307.278C282.112 306.086 329.772 306.483 377.233 304.696C378.028 304.696 378.425 305.292 378.623 305.888C379.02 306.086 379.219 306.086 379.219 306.285ZM377.035 313.632C376.836 312.441 377.035 311.448 377.035 310.256C377.035 309.462 376.836 308.668 376.836 307.873C330.368 310.455 282.907 312.242 236.438 309.661C236.438 311.448 236.24 314.029 235.247 315.618C259.474 314.625 283.899 315.817 308.325 315.618C320.637 315.42 332.751 315.221 345.063 314.824C355.389 314.228 366.51 312.441 377.035 313.632Z" fill="#222221"/>
<path d="M378.823 291.788C378.823 293.178 378.823 294.568 378.624 295.76C330.369 297.944 282.312 297.746 234.056 298.739C233.857 298.739 233.659 298.739 233.46 298.937L233.262 298.739C234.255 297.15 234.056 294.965 234.056 292.98C281.914 295.164 330.369 292.582 378.227 291.987C378.426 291.987 378.624 291.788 378.823 291.788Z" fill="#FBF5CC"/>
<path d="M376.838 310.256C376.838 311.448 376.838 312.441 376.838 313.632C366.313 312.639 355.193 314.228 344.668 314.625C332.356 315.022 320.242 315.419 307.93 315.419C283.703 315.817 259.277 314.427 234.852 315.419C235.844 313.831 236.242 311.249 236.043 309.462C282.71 311.845 329.973 310.256 376.441 307.675C376.838 308.668 376.838 309.462 376.838 310.256Z" fill="#FBF5CC"/>
<path d="M367.901 273.122C346.057 272.923 324.213 272.923 302.369 272.724C306.142 251.873 303.759 227.448 302.369 206.398C304.355 206.199 306.341 206.199 308.327 206.199C326.398 205.603 347.845 208.582 358.171 225.462C366.511 239.164 366.511 257.433 367.901 273.122ZM349.036 249.49C353.206 249.49 355.589 244.923 353.802 241.348C353.008 239.362 351.22 238.171 349.433 237.774C345.66 236.384 341.688 239.561 341.291 243.334C340.894 246.909 344.667 250.285 348.043 249.292C348.44 249.49 348.837 249.49 349.036 249.49ZM317.263 259.618C317.461 258.824 316.667 258.029 316.071 258.426C315.277 258.625 314.483 259.221 313.887 259.816C313.093 259.221 312.298 258.625 311.504 258.029C310.908 257.632 310.114 258.625 310.71 259.022C311.305 259.618 311.901 260.412 312.497 261.008C311.305 262.001 310.114 262.994 308.724 263.788C308.128 264.185 308.525 265.575 309.32 265.178C310.908 264.582 312.497 263.788 313.887 262.795C313.887 262.795 314.086 262.795 314.086 262.597C314.483 262.994 314.88 263.59 315.476 263.987C316.667 264.98 318.454 263.192 317.263 262.199C316.866 261.802 316.469 261.604 316.071 261.207C316.667 261.008 317.064 260.412 317.263 259.618ZM315.674 241.547C316.866 242.143 318.454 240.554 317.263 239.561C316.469 238.965 315.674 238.37 314.681 237.972C315.078 237.575 315.476 236.979 315.674 236.582C316.27 235.391 314.88 234.398 313.887 235.192C313.291 235.589 312.894 236.185 312.497 236.781C311.703 236.384 310.908 235.788 309.915 235.788C309.32 235.788 308.922 236.582 309.32 236.979C309.717 237.774 310.511 238.171 311.305 238.767C310.312 239.958 309.32 241.348 308.724 242.54C308.327 243.334 309.32 244.128 309.915 243.533C311.107 242.54 312.1 241.15 313.093 240.157L313.291 239.958C313.688 240.355 314.681 240.951 315.674 241.547ZM315.476 216.923C316.468 217.32 317.263 215.93 316.866 215.135C316.27 214.341 315.476 213.547 314.483 212.951C315.078 212.355 315.873 211.958 316.468 211.164C317.263 210.369 316.27 208.781 315.078 209.575C314.284 210.171 313.49 210.965 312.695 211.76C311.305 210.767 310.114 209.972 308.922 208.979C307.929 208.384 306.738 209.774 307.731 210.568C308.922 211.561 309.915 212.355 311.107 213.348C310.71 213.745 310.312 214.142 309.915 214.54C309.121 215.334 310.312 216.525 311.107 215.731C311.504 215.334 311.901 214.937 312.497 214.54C313.291 215.731 314.284 216.525 315.476 216.923Z" fill="#F4D747"/>
<path d="M385.179 453.633C362.739 452.442 339.108 451.647 316.668 453.434C330.767 424.64 368.498 431.392 385.179 453.633Z" fill="#F1CE30"/>
<path d="M335.333 326.54C335.929 326.739 336.128 327.136 336.128 327.93C335.929 330.512 335.532 332.895 334.936 335.476C334.737 336.072 334.34 336.271 333.943 336.271C333.745 336.668 333.347 336.866 332.752 337.065C301.177 340.64 267.219 340.838 235.843 336.271C235.446 336.271 235.248 335.874 235.446 335.476C235.248 335.278 235.049 335.079 234.85 334.881C234.056 332.696 233.659 328.923 235.049 326.739C234.85 326.143 235.248 325.547 236.042 325.349C268.212 323.164 301.971 324.356 334.142 325.746C334.737 325.746 335.333 326.143 335.333 326.54ZM332.95 333.888C332.95 332.101 333.149 330.313 333.347 328.327C301.773 329.122 269.007 329.916 237.631 327.335C237.432 328.129 237.233 328.725 237.035 329.519C236.836 330.909 236.836 332.498 237.035 334.086C237.035 334.285 237.035 334.484 237.035 334.682C269.007 335.079 300.581 335.278 332.95 333.888C332.752 333.888 332.95 333.888 332.95 333.888Z" fill="#222221"/>
<path d="M333.149 328.526C332.95 330.313 332.95 332.1 332.95 333.888C300.78 335.278 269.007 335.079 236.836 334.881C236.836 334.682 237.035 334.483 236.836 334.285C236.638 332.895 236.638 331.306 236.836 329.717C237.035 328.923 237.234 328.327 237.432 327.533C268.808 330.115 301.773 329.32 333.149 328.526Z" fill="#FBF5CC"/>
<path d="M316.071 258.426C316.866 258.228 317.66 259.022 317.263 259.618C317.064 260.412 316.468 261.008 315.873 261.405C316.27 261.802 316.667 262.001 317.064 262.398C318.256 263.391 316.468 265.178 315.277 264.185C314.88 263.788 314.483 263.391 313.887 262.795L313.688 262.994C312.298 263.987 310.71 264.781 309.121 265.377C308.327 265.774 307.929 264.384 308.525 263.987C309.717 263.192 311.107 262.199 312.298 261.207C311.702 260.611 311.107 259.816 310.511 259.221C309.915 258.625 310.71 257.632 311.305 258.228C312.1 258.824 312.894 259.419 313.688 260.015C314.483 259.221 315.277 258.625 316.071 258.426Z" fill="#222221"/>
<path d="M317.262 239.561C318.453 240.554 316.865 241.944 315.673 241.547C314.68 241.15 313.687 240.554 312.893 239.76L312.694 239.958C311.701 241.15 310.709 242.341 309.517 243.334C308.921 243.93 307.928 243.136 308.326 242.341C309.12 240.951 310.113 239.76 310.907 238.568C310.113 238.171 309.517 237.575 308.921 236.781C308.524 236.384 308.921 235.589 309.517 235.589C310.51 235.788 311.304 236.185 312.099 236.582C312.496 235.987 312.893 235.391 313.489 234.994C314.482 234.199 315.872 235.192 315.276 236.384C315.077 236.979 314.68 237.377 314.283 237.774C315.475 238.37 316.467 238.767 317.262 239.561Z" fill="#222221"/>
<path d="M316.866 215.334C317.461 216.128 316.469 217.32 315.476 217.121C314.284 216.724 313.291 215.93 312.497 214.937C311.901 215.135 311.504 215.533 311.107 215.93C310.313 216.724 308.922 215.533 309.915 214.738C310.313 214.341 310.71 213.944 311.107 213.547C309.915 212.554 308.922 211.759 307.731 210.767C306.738 209.972 307.93 208.384 308.922 209.178C310.313 210.171 311.504 210.965 312.696 211.958C313.49 211.164 314.284 210.369 315.078 209.774C316.071 208.979 317.064 210.568 316.469 211.362C315.873 211.958 315.078 212.554 314.483 213.15C315.277 213.745 316.27 214.341 316.866 215.334Z" fill="#222221"/>
<path d="M299.191 206.596C299.588 228.043 297.801 251.675 301.177 272.724C279.531 272.526 257.886 272.327 236.24 272.327C240.212 255.249 243.191 236.781 255.503 223.277C266.822 211.164 283.106 207.788 299.191 206.596ZM266.623 245.717C268.411 240.753 263.645 234.994 258.283 237.377C257.489 237.774 256.893 238.171 256.297 238.767C255.701 239.164 255.304 239.561 254.907 240.157C253.318 242.143 253.318 244.923 254.907 247.107C258.084 251.476 264.836 250.682 266.623 245.717Z" fill="#F6E16F"/>
<path d="M293.629 454.825C293.431 454.825 293.431 454.626 293.232 454.626C292.438 454.626 291.644 454.427 290.651 454.427C290.253 454.427 289.856 454.427 289.658 454.626C268.608 454.427 247.558 454.825 226.707 456.413C230.877 442.314 242.792 435.761 257.487 435.363C270.792 435.165 291.048 438.541 293.629 454.825Z" fill="#F1CE30"/>
<path d="M265.631 399.221C280.127 401.406 281.716 421.86 282.709 435.165C269.603 428.81 251.134 428.81 238.227 435.562C238.425 419.874 246.368 396.243 265.631 399.221Z" fill="#F6E16F"/>
<path d="M268.41 390.484C268.609 392.271 268.609 393.86 268.807 395.647C267.219 395.25 265.431 394.853 263.446 394.853C258.878 394.853 254.907 396.044 251.332 398.03C251.729 395.448 252.126 392.867 252.325 390.087C257.488 390.285 262.85 390.484 268.41 390.484Z" fill="#FBF5CC"/>
<path d="M267.815 380.753C267.815 383.136 268.014 385.519 268.014 387.704C262.652 387.704 257.489 387.902 252.127 388.101C252.326 385.519 252.326 382.938 252.127 380.356C257.489 380.952 262.652 380.952 267.815 380.753Z" fill="#FBF5CC"/>
<path d="M267.617 372.81C267.617 374.399 267.617 375.987 267.816 377.576C262.653 377.377 257.489 377.576 252.326 377.973C252.128 375.789 251.929 373.803 251.73 371.618C256.894 372.214 262.255 372.413 267.617 372.81Z" fill="#FBF5CC"/>
<path d="M267.616 363.675C267.616 365.661 267.616 367.845 267.616 369.831C262.254 369.235 256.694 369.037 251.332 369.831C250.935 367.845 250.736 365.859 250.141 363.874C255.9 363.675 261.857 363.675 267.616 363.675Z" fill="#FBF5CC"/>
<path d="M258.482 237.377C263.645 234.994 268.609 240.753 266.822 245.717C264.836 250.682 258.283 251.476 255.304 247.107C253.914 245.121 253.914 242.341 255.304 240.157C255.701 239.561 256.099 239.164 256.694 238.767C257.092 238.171 257.687 237.575 258.482 237.377Z" fill="#222221"/>
<path d="M232.268 237.774C234.651 232.809 239.814 230.426 244.779 231.816C241.006 238.767 238.424 246.313 236.637 254.058C235.247 253.263 233.857 252.667 232.467 251.873C232.07 251.079 231.871 250.284 231.474 249.49C231.077 248.299 230.878 246.909 230.68 245.518C230.68 242.937 231.077 240.157 232.268 237.774Z" fill="#F1CE30"/>
<path d="M210.624 295.363C210.823 309.065 210.823 322.767 211.22 336.469C199.305 335.874 188.78 326.342 188.383 313.831C187.787 299.136 199.504 297.349 210.624 295.363Z" fill="#F1CE30"/>
<path d="M198.509 403.59C198.509 404.782 197.318 406.172 196.126 406.569C194.935 406.966 193.544 406.768 192.353 406.768C191.956 406.569 191.36 406.172 190.963 405.973C191.161 405.576 191.36 405.179 191.559 404.782C191.956 403.59 192.353 402.597 192.552 401.406C194.537 401.207 198.31 400.81 198.509 403.59Z" fill="#F6E16F"/>
<path d="M199.105 337.065C196.722 339.448 194.538 342.03 192.552 344.81C192.552 344.81 192.354 344.81 192.354 344.611C185.999 342.625 180.041 340.242 174.084 337.065C177.658 331.902 181.829 327.136 186.595 322.171C188.978 328.526 193.346 334.086 199.105 337.065Z" fill="#FBF5CC"/>
<path d="M180.439 385.321C188.581 389.094 191.559 398.427 186.396 406.37C181.63 413.519 172.297 416.498 164.155 414.314C155.417 411.931 148.864 402.399 153.431 393.462C157.999 384.129 171.502 384.725 180.24 385.519C180.24 385.321 180.24 385.321 180.439 385.321Z" fill="#F1CE30"/>
<path d="M190.367 347.987C187.785 352.157 185.601 356.526 183.813 361.094C177.657 358.512 170.31 356.725 163.359 355.93C165.742 350.171 168.92 344.611 172.494 339.249C178.054 343.023 184.012 346.001 190.367 347.987Z" fill="#FBF5CC"/>
<path d="M179.843 416.299C180.24 417.888 181.233 419.08 181.034 420.668C180.836 422.257 179.446 424.044 177.46 423.846C174.878 423.448 174.878 420.271 175.077 417.888C176.666 417.491 178.254 417.094 179.843 416.299Z" fill="#F6E16F"/>
<path d="M182.623 364.271C181.431 367.647 180.637 371.221 179.843 374.597C172.495 373.803 165.545 372.81 158.197 371.618C159.19 367.051 160.58 362.682 162.169 358.512C168.921 360.895 175.871 363.079 182.623 364.271Z" fill="#FBF5CC"/>
<path d="M179.446 378.37C179.248 379.363 179.248 380.356 179.049 381.349C178.851 381.349 178.851 381.349 178.652 381.349C177.858 381.349 177.461 381.746 177.262 382.342C170.113 380.753 161.574 381.548 155.418 385.718C155.418 385.122 155.418 384.725 155.418 384.129C155.418 383.93 155.418 383.732 155.418 383.533C156.212 383.136 156.609 382.739 156.808 381.945C157.007 379.363 157.404 376.782 158 374.2C164.553 376.782 172.297 378.172 179.446 378.37Z" fill="#FBF5CC"/>
<path d="M161.573 417.094C161.375 418.285 161.772 419.477 161.573 420.867C161.176 424.243 157.006 423.448 154.623 422.456C155.219 419.675 155.616 416.895 156.013 413.917C157.602 415.307 159.588 416.498 161.573 417.094Z" fill="#F6E16F"/>
</g>
</g>
<defs>
<linearGradient id="paint0_linear_380_7264" x1="161.5" y1="0" x2="161.5" y2="475" gradientUnits="userSpaceOnUse">
<stop stop-color="#4778EC"/>
<stop offset="1" stop-color="#4A47EC" stop-opacity="0.74"/>
</linearGradient>
<linearGradient id="paint1_linear_380_7264" x1="216.5" y1="155" x2="216.5" y2="546" gradientUnits="userSpaceOnUse">
<stop stop-color="#96F1D8"/>
<stop offset="0.71916" stop-color="#279979"/>
</linearGradient>
</defs>
</svg>
