<svg width="23" height="24" viewBox="0 0 23 24" fill="none" xmlns="http://www.w3.org/2000/svg">
<path d="M16.9088 0.754418C17.1113 0.774333 17.1987 1.02868 17.0548 1.17746L7.00138 11.5776C6.88752 11.6954 6.80605 11.8424 6.76536 12.0036L5.55703 16.7891C5.47572 17.1111 5.56554 17.4536 5.79304 17.6889C6.02054 17.9243 6.3516 18.0172 6.66289 17.9331L11.2889 16.6831C11.4447 16.641 11.5868 16.5567 11.7007 16.4389L21.8965 5.89153C22.0396 5.74355 22.2841 5.83209 22.3053 6.04022C22.73 10.2267 22.706 14.4496 22.2332 18.6319C21.9639 21.0132 20.1137 22.883 17.8198 23.1482C13.6534 23.6299 9.34601 23.6299 5.17953 23.1482C2.88563 22.883 1.03544 21.0132 0.766208 18.6319C0.268035 14.2257 0.268035 9.77437 0.766208 5.36812C1.03544 2.9868 2.88563 1.11708 5.17953 0.851862C9.04304 0.405168 13.0277 0.372687 16.9088 0.754418Z" fill="#4778EC"/>
<path d="M18.5362 2.29662C18.6542 2.17483 18.8452 2.17482 18.9631 2.29662L20.6721 4.06457C20.7901 4.18661 20.7901 4.38447 20.6721 4.50651L10.6509 14.8733C10.6131 14.9123 10.5652 14.9406 10.5136 14.9547L8.20038 15.5797C7.97727 15.6398 7.77409 15.4291 7.832 15.1983L8.43616 12.8056C8.44973 12.7519 8.47689 12.7028 8.51484 12.6636L18.5362 2.29662Z" fill="#4778EC"/>
</svg>
