<svg width="41" height="52" viewBox="0 0 41 52" fill="none" xmlns="http://www.w3.org/2000/svg">
<g filter="url(#filter0_ii_265_3465)">
<path d="M19.944 51.864C16.44 51.864 12.96 51.408 9.504 50.496C6.096 49.536 3.168 48.192 0.72 46.464L5.328 37.536C7.248 38.928 9.456 40.032 11.952 40.848C14.496 41.664 17.064 42.072 19.656 42.072C22.584 42.072 24.888 41.496 26.568 40.344C28.248 39.192 29.088 37.584 29.088 35.52C29.088 34.224 28.752 33.072 28.08 32.064C27.408 31.056 26.208 30.288 24.48 29.76C22.8 29.232 20.424 28.968 17.352 28.968H4.464L7.056 0.599997H37.8V9.96H11.232L17.28 4.632L15.48 24.864L9.432 19.536H20.088C25.08 19.536 29.088 20.232 32.112 21.624C35.184 22.968 37.416 24.816 38.808 27.168C40.2 29.52 40.896 32.184 40.896 35.16C40.896 38.136 40.152 40.896 38.664 43.44C37.176 45.936 34.872 47.976 31.752 49.56C28.68 51.096 24.744 51.864 19.944 51.864Z" fill="#CFD8DC"/>
<path d="M19.944 51.864C16.44 51.864 12.96 51.408 9.504 50.496C6.096 49.536 3.168 48.192 0.72 46.464L5.328 37.536C7.248 38.928 9.456 40.032 11.952 40.848C14.496 41.664 17.064 42.072 19.656 42.072C22.584 42.072 24.888 41.496 26.568 40.344C28.248 39.192 29.088 37.584 29.088 35.52C29.088 34.224 28.752 33.072 28.08 32.064C27.408 31.056 26.208 30.288 24.48 29.76C22.8 29.232 20.424 28.968 17.352 28.968H4.464L7.056 0.599997H37.8V9.96H11.232L17.28 4.632L15.48 24.864L9.432 19.536H20.088C25.08 19.536 29.088 20.232 32.112 21.624C35.184 22.968 37.416 24.816 38.808 27.168C40.2 29.52 40.896 32.184 40.896 35.16C40.896 38.136 40.152 40.896 38.664 43.44C37.176 45.936 34.872 47.976 31.752 49.56C28.68 51.096 24.744 51.864 19.944 51.864Z" fill="#E6EEF8"/>
</g>
<defs>
<filter id="filter0_ii_265_3465" x="-3.27979" y="-3.39999" width="48.1758" height="59.264" filterUnits="userSpaceOnUse" color-interpolation-filters="sRGB">
<feFlood flood-opacity="0" result="BackgroundImageFix"/>
<feBlend mode="normal" in="SourceGraphic" in2="BackgroundImageFix" result="shape"/>
<feColorMatrix in="SourceAlpha" type="matrix" values="0 0 0 0 0 0 0 0 0 0 0 0 0 0 0 0 0 0 127 0" result="hardAlpha"/>
<feOffset dx="4" dy="4"/>
<feGaussianBlur stdDeviation="6"/>
<feComposite in2="hardAlpha" operator="arithmetic" k2="-1" k3="1"/>
<feColorMatrix type="matrix" values="0 0 0 0 0.733333 0 0 0 0 0.764706 0 0 0 0 0.807843 0 0 0 0.6 0"/>
<feBlend mode="normal" in2="shape" result="effect1_innerShadow_265_3465"/>
<feColorMatrix in="SourceAlpha" type="matrix" values="0 0 0 0 0 0 0 0 0 0 0 0 0 0 0 0 0 0 127 0" result="hardAlpha"/>
<feOffset dx="-4" dy="-4"/>
<feGaussianBlur stdDeviation="6"/>
<feComposite in2="hardAlpha" operator="arithmetic" k2="-1" k3="1"/>
<feColorMatrix type="matrix" values="0 0 0 0 0.992157 0 0 0 0 1 0 0 0 0 1 0 0 0 0.8 0"/>
<feBlend mode="normal" in2="effect1_innerShadow_265_3465" result="effect2_innerShadow_265_3465"/>
</filter>
</defs>
</svg>
