<svg width="965" height="250" viewBox="0 0 965 250" fill="none" xmlns="http://www.w3.org/2000/svg">
<mask id="mask0_265_3408" style="mask-type:alpha" maskUnits="userSpaceOnUse" x="0" y="0" width="965" height="250">
<rect width="965" height="250" rx="10" fill="white"/>
</mask>
<g mask="url(#mask0_265_3408)">
<path opacity="0.1" d="M965 250V150C944.66 159.538 919.876 166.301 894.697 170.462C849.869 177.861 802.671 178.324 756.263 181.098C735.528 182.312 714.595 184.046 695.143 188.439C675.691 192.832 657.523 200.116 646.464 210.462C633.924 222.139 631.752 236.185 628 250H965Z" fill="url(#paint0_linear_265_3408)"/>
<g opacity="0.15">
<path d="M856.438 243.868C857.042 243.868 857.647 243.627 858.01 243.266C858.494 242.784 858.857 242.181 858.977 241.579L859.098 240.012C860.913 239.771 862.606 239.289 864.299 238.446L865.266 239.651C866.113 240.735 867.806 240.856 868.895 240.012L871.435 237.964C872.523 237.12 872.644 235.433 871.797 234.348L870.83 233.143C871.918 231.697 872.765 230.131 873.37 228.444L874.942 228.564C875.668 228.685 876.272 228.444 876.877 227.962C877.361 227.48 877.724 226.877 877.844 226.275L878.086 223.021C878.207 222.298 877.965 221.696 877.482 221.093C876.998 220.611 876.393 220.25 875.788 220.129L874.216 220.009C873.974 218.201 873.491 216.514 872.644 214.827L873.853 213.863C874.942 213.019 875.063 211.332 874.216 210.248L872.16 207.717C871.676 207.235 871.072 206.874 870.467 206.753C869.741 206.633 869.137 206.874 868.532 207.356L867.322 208.32C865.871 207.235 864.299 206.392 862.606 205.789L862.727 204.223C862.848 203.5 862.606 202.897 862.122 202.295C861.638 201.813 861.033 201.451 860.429 201.331L857.163 200.969C856.438 200.849 855.833 201.09 855.228 201.572C854.744 202.054 854.382 202.656 854.261 203.259L854.14 204.825C852.326 205.066 850.632 205.548 848.939 206.392L847.972 205.187C847.125 204.102 845.432 203.982 844.343 204.825L841.804 206.874C841.32 207.356 840.957 207.958 840.836 208.561C840.715 209.284 840.957 209.886 841.441 210.489L842.408 211.694C841.32 213.14 840.473 214.706 839.869 216.394L838.296 216.273C837.571 216.153 836.966 216.394 836.361 216.876C835.877 217.358 835.515 217.96 835.394 218.563L835.031 221.816C834.91 222.539 835.152 223.142 835.636 223.744C836.119 224.226 836.724 224.588 837.329 224.708L838.901 224.829C839.143 226.636 839.627 228.323 840.473 230.01L839.264 230.974C838.78 231.456 838.417 232.059 838.296 232.661C838.175 233.384 838.417 233.987 838.901 234.589L841.199 237.241C841.683 237.723 842.287 238.084 842.892 238.205C843.618 238.325 844.222 238.084 844.827 237.602L846.037 236.638C847.488 237.723 849.06 238.566 850.753 239.169L850.632 240.735C850.511 241.458 850.753 242.061 851.237 242.663C851.721 243.145 852.326 243.507 852.93 243.627L856.196 243.989C856.196 243.868 856.317 243.868 856.438 243.868ZM864.541 236.397C864.42 236.397 864.299 236.397 864.057 236.517C862.243 237.482 860.187 238.084 858.131 238.325C857.647 238.325 857.405 238.687 857.284 239.169L857.042 241.458C857.042 241.699 856.921 241.82 856.801 241.94C856.68 242.061 856.438 242.181 856.196 242.061L852.93 241.699C852.688 241.699 852.568 241.579 852.447 241.458C852.326 241.338 852.205 241.097 852.326 240.856L852.568 238.566C852.568 238.084 852.326 237.723 851.963 237.602C850.028 236.999 848.214 236.035 846.52 234.71C846.158 234.469 845.674 234.469 845.311 234.71L843.497 236.156C843.376 236.276 843.134 236.397 842.892 236.276C842.65 236.276 842.529 236.156 842.408 236.035L840.352 233.505C840.231 233.384 840.11 233.143 840.231 232.902C840.231 232.661 840.352 232.541 840.473 232.42L842.408 230.974C842.771 230.733 842.892 230.251 842.65 229.89C841.683 228.082 841.078 226.154 840.836 223.985C840.836 223.503 840.473 223.262 839.99 223.142L837.692 222.901C837.45 222.901 837.329 222.78 837.208 222.66C837.087 222.539 836.966 222.298 837.087 222.057L837.45 218.804C837.45 218.563 837.571 218.442 837.692 218.322C837.813 218.201 837.933 218.201 838.175 218.201L840.473 218.442C840.957 218.442 841.32 218.201 841.441 217.84C842.046 215.912 843.013 214.104 844.343 212.417C844.585 212.055 844.585 211.573 844.343 211.212L842.892 209.404C842.771 209.284 842.65 209.043 842.771 208.802C842.771 208.561 842.892 208.44 843.013 208.32L845.553 206.271C845.916 206.03 846.399 206.03 846.641 206.392L848.093 208.199C848.335 208.561 848.818 208.681 849.181 208.44C850.995 207.476 852.93 206.874 855.107 206.633C855.591 206.633 855.833 206.271 855.954 205.789L856.196 203.5C856.196 203.259 856.317 203.138 856.438 203.018C856.559 202.897 856.8 202.777 857.042 202.897L860.308 203.259C860.55 203.259 860.671 203.379 860.792 203.5C860.913 203.62 861.033 203.861 860.913 204.102L860.671 206.392C860.671 206.874 860.913 207.235 861.275 207.356C863.21 207.958 865.025 208.922 866.718 210.248C867.081 210.489 867.564 210.489 867.927 210.248L869.741 208.802C869.862 208.681 870.104 208.561 870.225 208.561C870.467 208.561 870.588 208.681 870.709 208.802L872.765 211.332C873.007 211.694 873.007 212.176 872.644 212.417L870.83 213.863C870.467 214.104 870.346 214.586 870.588 214.947C871.555 216.755 872.16 218.683 872.402 220.852C872.402 221.334 872.765 221.575 873.249 221.696L875.547 221.937C875.788 221.937 875.909 222.057 876.03 222.178C876.272 222.419 876.272 222.539 876.272 222.78L875.909 226.034C875.909 226.275 875.788 226.395 875.668 226.516C875.547 226.636 875.305 226.757 875.063 226.636L872.765 226.395C872.281 226.395 871.918 226.636 871.797 226.998C871.193 228.926 870.225 230.733 868.895 232.42C868.653 232.782 868.653 233.264 868.895 233.625L870.346 235.433C870.588 235.794 870.588 236.276 870.225 236.517L867.685 238.566C867.322 238.807 866.839 238.807 866.597 238.446L865.146 236.638C865.025 236.517 864.783 236.397 864.541 236.397ZM856.68 235.312C859.582 235.312 862.485 234.348 864.904 232.42C870.467 227.962 871.314 219.768 866.718 214.224C862.243 208.681 854.019 207.838 848.455 212.417C845.795 214.586 844.102 217.719 843.739 221.093C843.376 224.467 844.343 227.841 846.641 230.492C849.181 233.746 852.93 235.312 856.68 235.312ZM863.694 231.095C858.977 234.951 851.963 234.228 847.972 229.528C846.037 227.239 845.19 224.347 845.553 221.455C845.795 218.563 847.246 215.791 849.544 213.983C854.261 210.127 861.275 210.85 865.266 215.55C869.137 220.129 868.411 227.239 863.694 231.095ZM856.68 227.118C857.768 227.118 858.736 226.757 859.582 226.034C860.55 225.311 861.154 224.106 861.275 222.901C861.396 221.696 861.033 220.491 860.308 219.527C858.736 217.599 855.833 217.237 853.777 218.924C851.842 220.491 851.479 223.383 853.172 225.431C853.898 226.395 855.107 226.998 856.317 227.118C856.317 227.118 856.559 227.118 856.68 227.118ZM856.68 219.647C857.526 219.647 858.252 220.009 858.857 220.732C859.34 221.334 859.582 222.057 859.461 222.78C859.34 223.503 858.977 224.226 858.494 224.708C857.889 225.19 857.163 225.431 856.438 225.311C855.712 225.19 854.986 224.829 854.503 224.347C853.535 223.142 853.656 221.334 854.865 220.37C855.349 219.888 856.075 219.647 856.68 219.647Z" fill="#231F20"/>
<path d="M856.68 235.312C863.815 235.312 869.621 229.528 869.621 222.419C869.621 215.309 863.815 209.525 856.68 209.525C849.544 209.525 843.739 215.309 843.739 222.419C843.739 229.528 849.544 235.312 856.68 235.312ZM856.68 211.332C862.848 211.332 867.806 216.273 867.806 222.419C867.806 228.564 862.848 233.505 856.68 233.505C850.512 233.505 845.553 228.564 845.553 222.419C845.553 216.394 850.512 211.332 856.68 211.332Z" fill="#231F20"/>
<path d="M856.68 230.974C861.397 230.974 865.146 227.118 865.146 222.539C865.146 217.84 861.276 214.104 856.68 214.104C851.963 214.104 848.214 217.96 848.214 222.539C848.093 227.118 851.963 230.974 856.68 230.974ZM856.68 215.791C860.429 215.791 863.332 218.804 863.332 222.419C863.332 226.154 860.308 229.046 856.68 229.046C852.931 229.046 850.028 226.034 850.028 222.419C849.907 218.804 852.931 215.791 856.68 215.791Z" fill="#231F20"/>
<path d="M931.664 209.163C931.905 209.163 932.026 209.163 932.268 209.043L934.324 208.44C935.413 208.079 936.018 206.994 935.655 205.91L935.534 205.066C936.501 204.464 937.348 203.861 938.074 203.018L938.799 203.379C939.162 203.741 939.767 203.741 940.251 203.62C940.734 203.5 941.218 203.138 941.46 202.656L942.548 200.728C943.032 199.764 942.669 198.559 941.702 197.957L940.976 197.595C941.218 196.511 941.339 195.426 941.339 194.342L942.065 194.101C943.153 193.739 943.758 192.655 943.395 191.57L942.79 189.521C942.669 189.039 942.307 188.557 941.823 188.316C941.339 188.075 940.734 188.075 940.251 188.196L939.404 188.437C938.799 187.473 938.194 186.629 937.348 185.906L937.711 185.183C938.194 184.219 937.832 183.014 936.864 182.412L934.929 181.327C934.082 180.845 932.873 181.327 932.268 182.291L931.905 183.014C930.817 182.773 929.729 182.653 928.64 182.653L928.398 181.809C928.156 180.845 927.068 180.243 925.979 180.484L923.802 181.086C923.319 181.207 922.835 181.568 922.593 182.05C922.351 182.532 922.23 183.014 922.472 183.617L922.714 184.46C921.746 185.063 920.9 185.665 920.174 186.509L919.448 186.147C918.965 185.906 918.481 185.786 917.876 186.027C917.392 186.147 916.909 186.509 916.667 186.991L915.578 188.919C915.336 189.401 915.215 189.883 915.457 190.485C915.578 190.967 915.941 191.449 916.425 191.69L917.15 192.052C916.909 193.137 916.788 194.221 916.788 195.306L915.941 195.547C914.853 195.908 914.248 196.993 914.611 198.077L915.215 200.246C915.578 201.331 916.667 201.933 917.755 201.572L918.602 201.331C919.207 202.295 919.811 203.138 920.658 203.861L920.295 204.584C920.053 205.066 919.932 205.548 920.174 206.151C920.295 206.633 920.658 207.115 921.142 207.356L923.077 208.44C923.56 208.681 924.044 208.802 924.649 208.561C925.133 208.44 925.616 208.079 925.858 207.597L926.221 206.874C927.31 207.115 928.398 207.235 929.487 207.235L929.729 208.079C929.849 208.561 930.212 209.043 930.696 209.284C930.938 209.043 931.301 209.163 931.664 209.163ZM937.832 201.09C937.59 201.09 937.348 201.21 937.106 201.451C936.259 202.536 935.171 203.379 933.961 203.982C933.599 204.223 933.357 204.584 933.478 205.066L933.961 206.512C933.961 206.633 933.961 206.753 933.841 206.753L931.664 207.356C931.543 207.356 931.422 207.356 931.422 207.235L930.938 205.789C930.817 205.428 930.454 205.066 929.97 205.187C928.64 205.307 927.31 205.187 925.979 204.825C925.616 204.705 925.133 204.825 924.891 205.307L924.165 206.633C924.165 206.753 924.044 206.753 924.044 206.753H923.923L921.988 205.669C921.867 205.669 921.867 205.428 921.867 205.428L922.593 204.102C922.835 203.741 922.714 203.259 922.351 203.018C921.263 202.174 920.416 201.09 919.811 199.885C919.569 199.523 919.207 199.282 918.723 199.403L917.271 199.885C917.15 199.885 917.03 199.885 917.03 199.764L916.425 197.595C916.425 197.475 916.425 197.354 916.546 197.354L917.997 196.872C918.36 196.752 918.723 196.39 918.602 195.908C918.481 194.583 918.602 193.257 918.965 191.932C919.086 191.57 918.965 191.088 918.481 190.847L917.15 190.124C917.03 190.124 917.03 189.883 917.03 189.883L918.118 187.955C918.118 187.834 918.239 187.834 918.239 187.834H918.36L919.69 188.557C920.053 188.798 920.537 188.678 920.779 188.316C921.625 187.232 922.714 186.388 923.923 185.786C924.286 185.545 924.528 185.183 924.407 184.701L923.923 183.255C923.923 183.135 923.923 183.135 923.923 183.135C923.923 183.135 923.923 183.014 924.044 183.014L926.221 182.412C926.342 182.412 926.463 182.412 926.463 182.532L926.947 183.978C927.068 184.34 927.431 184.701 927.914 184.581C929.245 184.46 930.575 184.581 931.905 184.942C932.268 185.063 932.752 184.942 932.994 184.46L933.72 183.135C933.72 183.014 933.841 183.014 933.961 183.014L935.897 184.099C936.018 184.099 936.018 184.219 936.018 184.34L935.534 185.665C935.292 186.027 935.413 186.509 935.776 186.75C936.864 187.593 937.711 188.678 938.315 189.883C938.557 190.244 938.92 190.485 939.404 190.365L940.855 189.883C940.976 189.883 941.097 189.883 941.097 190.003L941.702 192.173C941.702 192.293 941.702 192.414 941.581 192.414L940.009 192.896C939.646 193.016 939.283 193.378 939.404 193.86C939.525 195.185 939.404 196.511 939.041 197.836C938.92 198.198 939.041 198.68 939.525 198.921L940.855 199.644C940.976 199.644 940.976 199.764 940.976 199.885L939.888 201.813C939.888 201.933 939.646 201.933 939.646 201.933L938.315 201.21C938.074 201.09 937.953 201.09 937.832 201.09Z" fill="#231F20"/>
<path d="M877.723 208.922C877.844 208.922 877.965 208.922 877.965 208.922L881.714 207.597C882.198 207.476 882.44 206.874 882.319 206.392C882.198 205.91 881.593 205.669 881.109 205.789L877.36 207.115C876.876 207.235 876.634 207.838 876.755 208.32C876.997 208.681 877.36 208.922 877.723 208.922Z" fill="#231F20"/>
<path d="M884.011 206.753C884.132 206.753 884.253 206.753 884.253 206.753L888.002 205.428C888.486 205.307 888.728 204.705 888.607 204.223C888.486 203.741 887.881 203.5 887.397 203.62L883.648 204.946C883.164 205.066 882.923 205.669 883.044 206.151C883.285 206.512 883.648 206.753 884.011 206.753Z" fill="#231F20"/>
<path d="M890.301 204.584C890.422 204.584 890.542 204.584 890.542 204.584L894.292 203.259C894.775 203.138 895.017 202.536 894.896 202.054C894.775 201.572 894.171 201.331 893.687 201.451L889.938 202.777C889.454 202.897 889.212 203.5 889.333 203.982C889.575 204.343 889.817 204.584 890.301 204.584Z" fill="#231F20"/>
<path d="M896.469 202.415C896.59 202.415 896.71 202.415 896.71 202.415L900.46 201.09C900.943 200.969 901.185 200.367 901.064 199.885C900.943 199.403 900.339 199.162 899.855 199.282L896.106 200.608C895.622 200.728 895.38 201.331 895.501 201.813C895.743 202.174 896.106 202.415 896.469 202.415Z" fill="#231F20"/>
<path d="M902.758 200.246C902.879 200.246 903 200.246 903 200.246L906.87 198.921C907.354 198.8 907.595 198.198 907.475 197.716C907.354 197.234 906.749 196.993 906.265 197.113L902.516 198.439C902.032 198.559 901.79 199.162 901.911 199.644C902.032 200.005 902.395 200.246 902.758 200.246Z" fill="#231F20"/>
<path d="M908.926 198.077C909.047 198.077 909.168 198.077 909.168 198.077L912.917 196.752C913.401 196.631 913.643 196.029 913.522 195.547C913.401 195.065 912.796 194.824 912.312 194.944L908.563 196.27C908.08 196.39 907.838 196.993 907.959 197.475C908.2 197.836 908.563 198.077 908.926 198.077Z" fill="#231F20"/>
<path d="M912.312 207.356C912.433 207.356 912.554 207.356 912.675 207.235L916.424 205.669C916.908 205.428 917.15 204.946 916.908 204.464C916.666 203.982 916.182 203.741 915.699 203.982L911.949 205.548C911.466 205.789 911.224 206.271 911.466 206.753C911.587 207.235 911.949 207.356 912.312 207.356Z" fill="#231F20"/>
<path d="M906.023 210.007C906.144 210.007 906.265 210.007 906.386 209.886L910.135 208.32C910.618 208.079 910.86 207.597 910.618 207.115C910.377 206.633 909.893 206.392 909.409 206.633L905.66 208.199C905.176 208.44 904.934 208.922 905.176 209.404C905.297 209.766 905.66 210.007 906.023 210.007Z" fill="#231F20"/>
<path d="M899.733 212.658C899.854 212.658 899.975 212.658 900.095 212.537L903.845 210.971C904.328 210.73 904.57 210.248 904.328 209.766C904.087 209.284 903.603 209.043 903.119 209.284L899.37 210.85C898.886 211.091 898.644 211.573 898.886 212.055C899.007 212.417 899.37 212.658 899.733 212.658Z" fill="#231F20"/>
<path d="M893.445 215.309C893.566 215.309 893.687 215.309 893.808 215.189L897.557 213.622C898.041 213.381 898.283 212.899 898.041 212.417C897.799 211.935 897.315 211.694 896.831 211.935L893.082 213.502C892.598 213.743 892.357 214.225 892.598 214.707C892.84 215.068 893.203 215.309 893.445 215.309Z" fill="#231F20"/>
<path d="M887.277 217.96C887.398 217.96 887.518 217.96 887.639 217.84L891.389 216.273C891.872 216.032 892.114 215.55 891.872 215.068C891.631 214.586 891.147 214.345 890.663 214.586L886.914 216.153C886.43 216.394 886.188 216.876 886.43 217.358C886.551 217.719 886.914 217.96 887.277 217.96Z" fill="#231F20"/>
<path d="M880.987 220.491C881.108 220.491 881.229 220.491 881.35 220.37L885.099 218.804C885.583 218.563 885.825 218.081 885.583 217.599C885.341 217.117 884.857 216.876 884.373 217.117L880.624 218.683C880.14 218.924 879.899 219.406 880.14 219.888C880.261 220.37 880.624 220.491 880.987 220.491Z" fill="#231F20"/>
<path d="M929.124 200.005C929.608 200.005 930.092 199.885 930.576 199.764C931.906 199.403 932.994 198.439 933.72 197.234C934.325 196.029 934.567 194.583 934.083 193.257C933.72 191.932 932.753 190.847 931.543 190.124C930.334 189.521 928.882 189.28 927.552 189.762C926.222 190.124 925.133 191.088 924.408 192.293C923.803 193.498 923.561 194.944 924.045 196.27C924.408 197.595 925.375 198.68 926.585 199.403C927.431 199.764 928.278 200.005 929.124 200.005ZM930.092 198.077C929.245 198.318 928.278 198.198 927.552 197.836C926.705 197.354 926.222 196.752 925.859 195.788C925.617 194.944 925.738 193.98 926.101 193.257C926.585 192.414 927.31 191.932 928.157 191.57C929.003 191.329 929.971 191.449 930.697 191.811C931.543 192.293 932.027 192.896 932.39 193.86C932.632 194.703 932.511 195.667 932.148 196.39C931.664 197.234 930.938 197.716 930.092 198.077Z" fill="#231F20"/>
</g>
<path opacity="0.6" d="M701 215C702.289 213.712 702.289 211.622 701 210.333C699.712 209.045 697.622 209.045 696.333 210.333C695.045 211.622 695.045 213.712 696.333 215C697.622 216.289 699.712 216.289 701 215Z" fill="white"/>
<path opacity="0.98" d="M792 226.528C793.289 225.239 793.289 223.149 792 221.861C790.712 220.572 788.622 220.572 787.333 221.861C786.045 223.15 786.045 225.239 787.333 226.528C788.622 227.816 790.712 227.816 792 226.528Z" fill="white"/>
<path opacity="0.5" d="M910.087 191.88C910.44 192.233 910.37 192.728 910.087 193.011C909.733 193.365 909.238 193.294 908.955 193.011C908.602 192.657 908.673 192.162 908.955 191.88C909.168 191.526 909.733 191.526 910.087 191.88Z" fill="white"/>
<path opacity="0.65" d="M950.958 180.99C951.523 181.556 951.523 182.404 950.958 182.97C950.392 183.536 949.543 183.536 948.978 182.97C948.412 182.404 948.412 181.556 948.978 180.99C949.543 180.424 950.392 180.424 950.958 180.99Z" fill="white"/>
</g>
<defs>
<linearGradient id="paint0_linear_265_3408" x1="870.139" y1="314.551" x2="835.678" y2="158.09" gradientUnits="userSpaceOnUse">
<stop offset="0.00526316" stop-color="#292EF9"/>
<stop offset="0.9895" stop-color="#9181FA"/>
</linearGradient>
</defs>
</svg>
