<svg width="30" height="28" viewBox="0 0 30 28" fill="none" xmlns="http://www.w3.org/2000/svg">
<path d="M24.7799 16.2559C24.2513 15.2607 24.9782 14 26.1676 14C26.7623 14 27.2909 14.3318 27.5553 14.8626C28.0839 15.9242 29.009 16.8531 30.0663 17.4502L24.2513 2.78674C23.3923 0.530814 20.8152 -0.597148 18.5685 0.331762L3.03983 6.43603L5.68301 13.2038C4.95613 13.1375 4.16318 13.3365 3.43631 13.801C2.24688 14.5972 1.65217 16.1232 1.91649 17.5166C2.37904 19.8389 4.7579 21.0332 6.80635 20.237C7.33499 20.0379 7.73146 19.7062 8.12794 19.3744L10.7711 26.1422L17.5112 23.4882C17.1147 23.1564 16.8504 22.692 16.6522 22.1611C15.8592 20.1043 17.0486 17.7157 19.3614 17.2512C20.7491 16.9858 22.2689 17.5829 23.0619 18.7773C23.5244 19.5071 23.7227 20.3033 23.6566 21.0332L27.5553 19.5071C26.3658 18.6446 25.4407 17.5829 24.7799 16.2559Z" fill="#4778EC"/>
<path d="M9.44938 28C9.25114 28 9.0529 27.8673 8.98682 27.6683L6.60796 21.564C6.34365 21.763 6.01325 21.9621 5.68286 22.0948C4.55951 22.5592 3.23792 22.4929 2.18065 21.8957C1.12338 21.2986 0.330432 20.237 0.0661148 19.0427C-0.264282 17.4502 0.46259 15.7251 1.78418 14.7962C2.31281 14.3981 2.9736 14.1991 3.6344 14.1327L1.25554 7.96209C1.18946 7.82939 1.18946 7.69669 1.25554 7.56399C1.32162 7.43129 1.3877 7.36494 1.51986 7.29859L17.0485 1.12797C19.5595 0.132711 22.4009 1.39337 23.3921 3.9147L29.141 18.5782C29.2071 18.7773 29.141 18.9763 29.0088 19.109C28.8767 19.2417 28.6124 19.2417 28.4141 19.1754C27.2247 18.5119 26.2996 17.5829 25.7049 16.3886C25.5066 15.9905 25.1762 15.7915 24.7798 15.7915C24.4494 15.7915 24.119 15.9905 23.9207 16.2559C23.7225 16.5877 23.7225 16.9194 23.8547 17.2512C24.4494 18.4455 25.3745 19.5071 26.4318 20.3033C26.5639 20.436 26.63 20.5687 26.63 20.7678C26.63 20.9668 26.4978 21.0995 26.2996 21.1659L22.467 22.8247C22.3348 22.891 22.1366 22.891 22.0044 22.7583C21.8723 22.6256 21.8062 22.4929 21.8062 22.2938C21.8723 21.564 21.674 20.9005 21.2776 20.3033C20.5507 19.2417 19.2952 18.7109 18.1058 18.9763C17.1807 19.1754 16.3877 19.7062 15.9251 20.5687C15.4626 21.3649 15.3965 22.3602 15.7269 23.2228C15.9251 23.6209 16.1234 24.019 16.4538 24.3507C16.5859 24.4834 16.652 24.6161 16.5859 24.8152C16.5859 25.0142 16.4538 25.1469 16.2555 25.2133L9.51545 27.8673C9.58153 27.9337 9.51545 28 9.44938 28ZM6.8062 20.237H6.87228C7.07052 20.237 7.20268 20.3697 7.26876 20.5687L9.71369 26.872L15.3304 24.6825C15.1322 24.4171 14.934 24.0853 14.8018 23.7536C14.3392 22.6256 14.4053 21.2986 15 20.237C15.5947 19.1754 16.652 18.3792 17.8414 18.1138C19.4273 17.782 21.1454 18.5119 22.0705 19.8389C22.467 20.3697 22.6652 21.0332 22.7313 21.6967L25.1762 20.7014C24.2511 19.9052 23.5243 18.91 22.9956 17.8484C22.6652 17.1848 22.7313 16.455 23.0617 15.8578C23.4582 15.2607 24.0529 14.9289 24.7798 14.9289C25.5727 14.9289 26.2335 15.3934 26.63 16.0569C26.8943 16.5213 27.2247 16.9858 27.5551 17.3839L22.467 4.31281C21.674 2.32228 19.4273 1.32702 17.445 2.12323L2.37889 8.0948L4.82382 14.3981C4.8899 14.5308 4.8899 14.7299 4.75774 14.8626C4.62559 14.9953 4.49343 15.0616 4.29519 15.0616C3.56832 14.9953 2.90752 15.1943 2.31281 15.5924C1.25554 16.3223 0.726908 17.5829 0.991225 18.7773C1.18946 19.7062 1.7181 20.5024 2.57713 20.9668C3.37008 21.4313 4.36127 21.4976 5.2203 21.1659C5.61678 20.9668 6.01325 20.7678 6.34365 20.436C6.54189 20.3033 6.67404 20.237 6.8062 20.237Z" fill="#231F20"/>
</svg>
