<svg width="245" height="586" viewBox="0 0 245 586" fill="none" xmlns="http://www.w3.org/2000/svg">
<g opacity="0.1" clip-path="url(#clip0_295_4934)">
<path d="M142.75 315.681C155.65 310.08 161.673 294.816 156.072 281.915C150.471 269.014 135.207 262.992 122.307 268.593C109.406 274.194 103.383 289.457 108.984 302.358C114.725 315.581 129.849 321.281 142.75 315.681ZM124.547 273.753C134.868 269.272 146.894 274.017 151.374 284.338C155.855 294.659 151.11 306.685 140.789 311.165C130.469 315.646 118.443 310.901 113.962 300.58C109.481 290.26 114.226 278.234 124.547 273.753Z" fill="#231F20"/>
<path d="M139.109 307.295C140.399 306.735 141.269 305.207 140.568 303.595L129.507 278.116C128.947 276.826 127.419 275.956 125.807 276.656C124.194 277.356 123.646 278.743 124.347 280.356L135.408 305.835C136.108 307.448 137.818 307.855 139.109 307.295Z" fill="#231F20"/>
<path d="M120.747 300.318L146.227 289.256C147.517 288.696 148.387 287.168 147.687 285.556C147.126 284.266 145.599 283.396 143.986 284.096L118.507 295.157C117.217 295.717 116.347 297.245 117.047 298.858C118.07 300.33 119.457 300.878 120.747 300.318Z" fill="#231F20"/>
<path d="M223.368 277.998C223.69 277.858 223.69 277.858 224.013 277.718C224.013 277.718 224.658 277.438 225.808 276.555L238.064 271.235C239.354 270.674 239.901 269.287 239.201 267.674C238.641 266.384 237.113 265.514 235.823 266.074L223.245 271.535C221.633 272.235 220.805 272.978 220.482 273.118C219.332 274 218.925 275.71 219.808 276.861C220.69 278.011 222.078 278.558 223.368 277.998Z" fill="#231F20"/>
<path d="M217.846 301.477C218.813 301.057 219.823 299.852 219.263 298.562C219.263 298.562 219.026 297.132 218.466 295.842C218.045 294.874 217.205 292.939 217.29 291.369C217.095 289.154 217.503 287.444 217.545 286.659C217.588 285.874 217.77 285.411 218.093 285.271L218.458 284.346C219.005 282.959 218.305 281.346 216.917 280.798C215.53 280.251 213.917 280.951 213.37 282.339L213.187 282.801C213.005 283.264 212.64 284.189 212.597 284.974C212.372 286.222 211.922 288.717 212.257 291.254C212.453 293.47 213.11 295.867 213.67 297.157C214.09 298.125 214.51 299.092 214.188 299.232C214.425 300.663 215.953 301.533 217.383 301.295C217.523 301.617 217.846 301.477 217.846 301.477Z" fill="#231F20"/>
<path d="M205.707 322.079L207.965 321.099C210.223 320.119 212.018 318.957 213.35 317.611C215.328 315.986 216.703 313.856 217.391 312.791C218.261 311.263 218.626 310.338 218.486 310.016C219.033 308.628 218.333 307.015 216.945 306.468C215.558 305.92 213.945 306.621 213.398 308.008C213.398 308.008 213.033 308.933 212.668 309.858C212.163 310.461 211.293 311.989 209.637 313.474C208.487 314.356 207.337 315.239 205.725 315.939L203.467 316.919C202.177 317.479 201.307 319.007 202.007 320.619C202.707 322.232 204.417 322.64 205.707 322.079Z" fill="#231F20"/>
<path d="M181.52 332.581L196.355 326.14C197.646 325.58 198.516 324.052 197.815 322.44C197.115 320.827 195.728 320.28 194.115 320.98L179.279 327.421C177.989 327.981 177.119 329.508 177.819 331.121C178.519 332.734 180.229 333.141 181.52 332.581Z" fill="#231F20"/>
<path d="M171.693 354.095C172.984 353.535 173.531 352.148 173.293 350.717C173.293 350.717 172.873 349.75 172.776 348.642C172.496 347.997 172.441 346.105 172.708 344.072C172.976 342.039 173.523 340.652 173.888 339.727C174.576 338.661 174.941 337.736 174.941 337.736C175.951 336.531 175.573 334.779 174.508 334.091C173.303 333.081 171.55 333.459 170.863 334.524C170.863 334.524 170.175 335.589 169.305 337.117C168.435 338.644 167.985 341.139 167.395 343.312C167.085 346.13 167.28 348.345 167.841 349.635C168.218 351.388 168.638 352.355 168.638 352.355C168.693 354.248 170.081 354.795 171.693 354.095Z" fill="#231F20"/>
<path d="M182.195 378.284C183.485 377.724 184.355 376.197 183.655 374.584L177.214 359.748C176.654 358.458 175.127 357.588 173.514 358.288C172.224 358.848 171.354 360.376 172.054 361.988L178.495 376.824C179.195 378.437 180.583 378.984 182.195 378.284Z" fill="#231F20"/>
<path d="M172.458 261.386L221.481 240.103C227.609 237.442 230.669 230.364 227.869 223.914C226.749 221.334 224.801 219.496 222.671 218.121C223.443 215.486 223.108 212.948 221.988 210.368C220.868 207.788 218.92 205.95 216.79 204.575C217.563 201.94 217.227 199.402 216.107 196.822C213.447 190.694 206.369 187.634 199.918 190.435L150.895 211.718C144.767 214.378 141.707 221.456 144.508 227.907C145.628 230.487 147.576 232.324 149.706 233.699C148.933 236.335 149.269 238.872 150.389 241.452C151.509 244.033 153.457 245.87 155.587 247.245C154.814 249.88 155.149 252.418 156.27 254.998C159.392 261.309 166.331 264.046 172.458 261.386ZM202.159 195.595C205.706 194.055 209.869 195.697 211.409 199.245C212.25 201.18 211.982 203.213 211.252 205.063C210.747 205.665 210.845 206.773 211.125 207.418C211.405 208.063 212.007 208.568 212.932 208.933C215.105 209.523 216.45 210.856 217.29 212.791C218.13 214.726 217.863 216.759 217.133 218.609C216.628 219.211 216.726 220.319 217.006 220.964C217.286 221.609 217.888 222.114 218.813 222.479C220.986 223.069 222.331 224.401 223.171 226.337C224.711 229.884 223.069 234.047 219.521 235.587L170.498 256.87C166.95 258.411 162.788 256.768 161.247 253.22C160.407 251.285 160.675 249.253 161.405 247.403C161.91 246.8 161.812 245.692 161.532 245.047C161.252 244.402 160.65 243.897 159.724 243.532C157.552 242.942 156.207 241.61 155.366 239.675C154.526 237.74 154.794 235.707 155.524 233.857C156.029 233.254 155.931 232.147 155.651 231.502C155.371 230.856 154.769 230.351 153.844 229.986C151.671 229.396 150.326 228.064 149.486 226.129C147.945 222.581 149.588 218.418 153.136 216.878L202.159 195.595Z" fill="#231F20"/>
<path d="M90.6142 155.86C78.9925 129.091 91.22 98.1011 117.989 86.4794C144.758 74.8577 175.749 87.0852 187.37 113.854C194.371 129.98 192.469 147.672 184.316 161.561L195.658 187.685L138.895 212.328L127.553 186.204C111.839 182.677 97.6152 171.986 90.6142 155.86Z" fill="#EFDA48"/>
<path d="M149.265 218.558L206.029 193.915C207.319 193.355 208.189 191.827 207.489 190.214L196.567 165.058C204.945 149.921 205.922 131.865 199.061 116.061C186.879 88.0022 154.039 75.0447 125.979 87.2265C97.9201 99.4083 85.2851 132.109 97.4669 160.168C104.328 175.971 118.187 187.587 134.966 191.802L145.887 216.958C146.587 218.571 147.975 219.118 149.265 218.558ZM201.671 190.057L149.745 212.6L139.383 188.734C139.103 188.089 138.361 187.261 137.576 187.219C121.862 183.691 108.746 172.903 102.445 158.39C91.3831 132.911 103.063 103.308 128.22 92.3868C153.699 81.3252 183.301 93.0052 194.363 118.484C200.664 132.998 199.729 150.269 191.437 163.835C190.932 164.438 191.029 165.545 191.309 166.19L201.671 190.057Z" fill="#231F20"/>
<path d="M172.973 243.147L181.681 239.366C182.971 238.806 183.841 237.279 183.141 235.666C182.441 234.053 181.053 233.506 179.441 234.206L170.733 237.987C169.443 238.547 168.573 240.074 169.273 241.687C169.973 243.3 171.683 243.707 172.973 243.147Z" fill="#231F20"/>
<path d="M192.002 234.886L212.32 226.064C213.611 225.504 214.481 223.977 213.78 222.364C213.08 220.751 211.51 220.667 210.22 221.227L189.901 230.048C188.611 230.608 187.741 232.136 188.441 233.748C189.141 235.361 190.389 235.586 192.002 234.886Z" fill="#231F20"/>
<path d="M201.322 213.974L207.45 211.313C208.74 210.753 209.61 209.226 208.91 207.613C208.21 206.001 206.822 205.453 205.209 206.153L199.082 208.814C197.791 209.374 196.921 210.901 197.622 212.514C198.322 214.126 200.032 214.534 201.322 213.974Z" fill="#231F20"/>
<path d="M181.325 222.655L189.711 219.015C191.001 218.454 191.871 216.927 191.171 215.314C190.471 213.702 189.083 213.154 187.471 213.854L179.085 217.495C177.795 218.055 176.925 219.582 177.625 221.195C178.325 222.808 180.035 223.215 181.325 222.655Z" fill="#231F20"/>
<path d="M161.652 231.196L169.393 227.836C170.683 227.276 171.553 225.748 170.853 224.136C170.152 222.523 168.765 221.975 167.152 222.676L159.412 226.036C158.122 226.596 157.252 228.124 157.952 229.736C158.652 231.349 160.362 231.756 161.652 231.196Z" fill="#231F20"/>
<path d="M194.258 263.038L208.126 257.017C214.577 254.216 217.819 246.676 214.879 239.903C214.319 238.613 212.791 237.743 211.179 238.443L178.604 252.585C177.314 253.145 176.444 254.673 177.144 256.285C180.085 263.058 187.485 265.978 194.258 263.038ZM210.516 244.863C210.669 247.864 208.929 250.919 206.026 252.179L192.158 258.2C189.255 259.46 185.835 258.645 183.747 256.485L210.516 244.863Z" fill="#231F20"/>
<path d="M120.379 74.326C121.669 73.7659 122.539 72.2382 121.839 70.6256L110.638 44.824C110.078 43.5339 108.55 42.6639 106.937 43.364C105.647 43.9241 104.777 45.4518 105.477 47.0644L116.679 72.866C117.702 74.3385 119.089 74.886 120.379 74.326Z" fill="#231F20"/>
<path d="M159.316 38.6394L156.077 66.4941L159.316 38.6394Z" fill="white"/>
<path d="M157.057 68.7518C158.025 68.3318 158.53 67.7292 158.755 66.4816L161.994 38.6269C162.079 37.0568 161.196 35.9067 159.626 35.8218C158.056 35.7368 156.906 36.6194 156.821 38.1895L153.582 66.0442C153.497 67.6144 154.379 68.7644 155.95 68.8494C156.412 69.0319 156.735 68.8919 157.057 68.7518Z" fill="#231F20"/>
<path d="M207.279 57.2967L190.626 79.8589L207.279 57.2967Z" fill="white"/>
<path d="M191.747 82.4392C192.069 82.2992 192.715 82.0191 192.897 81.5566L209.55 58.9944C210.56 57.7892 210.183 56.0366 209.117 55.3491C207.912 54.3391 206.16 54.7166 205.472 55.7817L188.819 78.3439C187.809 79.5491 188.187 81.3017 189.252 81.9892C189.994 82.8167 190.779 82.8592 191.747 82.4392Z" fill="#231F20"/>
<path d="M120.379 74.326C121.669 73.7659 122.539 72.2382 121.839 70.6256L110.638 44.824C110.078 43.5339 108.55 42.6639 106.937 43.364C105.647 43.9241 104.777 45.4518 105.477 47.0644L116.679 72.866C117.702 74.3385 119.089 74.886 120.379 74.326Z" fill="#231F20"/>
<path d="M67.7198 78.405L90.282 95.058L67.7198 78.405Z" fill="white"/>
<path d="M91.2621 97.3158C91.5846 97.1757 92.2297 96.8957 92.4122 96.4332C93.4222 95.228 93.0446 93.4754 91.9795 92.7879L69.4173 76.1348C68.2122 75.1248 66.4596 75.5024 65.7721 76.5675C64.762 77.7726 65.1396 79.5252 66.2047 80.2127L88.7669 96.8658C89.5095 97.6933 90.6171 97.5958 91.2621 97.3158Z" fill="#231F20"/>
<path d="M48.6001 126.187L76.4548 129.426L48.6001 126.187Z" fill="white"/>
<path d="M77.8968 131.866C78.8644 131.446 79.3694 130.844 79.5944 129.596C79.6794 128.026 78.7967 126.876 77.2266 126.791L49.3719 123.551C47.8018 123.466 46.6517 124.349 46.5668 125.919C46.4818 127.489 47.3644 128.639 48.9345 128.724L76.7893 131.964C76.9293 132.286 77.2518 132.146 77.8968 131.866Z" fill="#231F20"/>
<path d="M57.3469 179.885L83.1484 168.684C84.4385 168.124 85.3085 166.596 84.6084 164.983C84.0484 163.693 82.5207 162.823 80.9081 163.523L55.1065 174.725C53.8165 175.285 52.9464 176.813 53.6465 178.425C54.6691 179.898 56.0568 180.445 57.3469 179.885Z" fill="#231F20"/>
<path d="M189.725 143.114C190.692 142.694 191.38 141.629 191.142 140.199C188.754 123.22 181.863 110.879 170.749 103.822C153.245 92.6388 131.989 98.4174 131.344 98.6974C129.914 98.935 129.044 100.463 129.604 101.753C129.841 103.183 131.369 104.053 132.659 103.493C132.982 103.353 152.485 97.9517 167.999 108.082C177.585 114.27 183.594 125.46 185.927 140.546C186.164 141.977 187.369 142.987 188.799 142.749C189.402 143.254 189.402 143.254 189.725 143.114Z" fill="#231F20"/>
<path d="M243.3 570.242C243.3 570.242 242.655 570.522 241.547 570.619C240.58 571.039 239.149 571.277 238.042 571.375C236.612 571.612 235.364 571.387 234.257 571.485C233.149 571.582 232.686 571.4 232.686 571.4L243.3 570.242Z" fill="white"/>
<path d="M244.421 572.822C245.711 572.262 246.258 570.874 245.838 569.907C245.601 568.477 244.073 567.607 242.643 567.844L240.89 568.222C240.245 568.502 239.138 568.599 238.353 568.557L237.567 568.514C236.782 568.472 236.137 568.752 235.352 568.71C235.03 568.85 234.567 568.667 234.245 568.807L232.997 568.582C231.427 568.497 230.417 569.702 230.192 570.95C230.107 572.52 231.312 573.53 232.56 573.755L234.13 573.84C234.915 573.882 235.237 573.742 235.56 573.602C236.345 573.645 237.453 573.547 238.56 573.45L239.345 573.492C240.453 573.395 241.56 573.297 242.528 572.877L243.958 572.64C244.098 572.962 244.421 572.822 244.421 572.822Z" fill="#231F20"/>
<path d="M218.123 566.99C218.123 566.99 217.521 566.485 216.596 566.12C215.67 565.755 214.465 564.745 213.723 563.917C212.658 563.23 211.775 562.08 211.032 561.252C210.29 560.425 209.687 559.92 209.687 559.92L218.123 566.99Z" fill="white"/>
<path d="M219.244 569.57C219.889 569.29 220.211 569.15 220.394 568.688C221.081 567.622 220.704 565.87 219.638 565.182L218.111 564.312C217.648 564.13 217.046 563.625 216.303 562.797L214.495 561.282C213.893 560.777 213.29 560.272 213.15 559.95L211.805 558.617C210.923 557.467 209.03 557.522 208.02 558.727C206.87 559.61 206.925 561.502 208.13 562.513L209.335 563.523C209.938 564.028 210.54 564.533 211.283 565.36L213.553 567.058C214.296 567.885 215.221 568.25 215.823 568.755L217.351 569.625C217.813 569.808 218.598 569.85 219.244 569.57Z" fill="#231F20"/>
<path d="M204.646 548.309C204.646 548.309 205.291 548.029 206.259 547.609C206.581 547.469 207.226 547.189 207.871 546.909C208.376 546.306 208.419 545.521 208.139 544.876C207.019 542.296 206.039 540.038 206.039 540.038L204.646 548.309Z" fill="white"/>
<path d="M208.206 549.446C208.851 549.166 209.496 548.886 210.001 548.284C211.334 546.939 211.279 545.046 210.579 543.433L208.479 538.596C207.918 537.305 206.391 536.435 204.778 537.135C203.488 537.696 202.618 539.223 203.318 540.836L205.139 545.029C205.139 545.029 205.139 545.029 204.816 545.169L203.526 545.729C202.236 546.289 201.366 547.816 202.066 549.429C202.626 550.719 204.154 551.589 205.766 550.889L207.379 550.189L206.581 547.469L207.561 549.726C207.884 549.586 207.884 549.586 208.206 549.446Z" fill="#231F20"/>
<path d="M200.998 528.427C202.288 527.867 203.158 526.34 202.458 524.727L198.117 514.729C197.557 513.439 196.03 512.569 194.417 513.269C193.127 513.829 192.257 515.357 192.957 516.969L197.298 526.967C197.858 528.258 199.708 528.988 200.998 528.427Z" fill="#231F20"/>
<path d="M190.497 504.239C191.787 503.679 192.657 502.151 191.957 500.538L187.617 490.54C187.057 489.25 185.529 488.38 183.916 489.08C182.626 489.64 181.756 491.168 182.456 492.781L186.797 502.779C187.497 504.391 189.207 504.799 190.497 504.239Z" fill="#231F20"/>
<path d="M175.925 488.333C177.215 487.773 178.085 486.245 177.385 484.633L173.185 474.957C172.625 473.667 171.097 472.797 169.484 473.497C168.194 474.057 167.324 475.585 168.024 477.197L172.365 487.195C172.925 488.485 174.635 488.893 175.925 488.333Z" fill="#231F20"/>
<path d="M165.563 464.466C166.853 463.906 167.723 462.378 167.023 460.766L162.683 450.768C162.123 449.478 160.595 448.608 158.982 449.308C157.692 449.868 156.822 451.395 157.522 453.008L161.863 463.006C162.563 464.619 164.273 465.026 165.563 464.466Z" fill="#231F20"/>
<path d="M155.202 440.6C156.492 440.04 157.362 438.512 156.662 436.899L152.321 426.901C151.761 425.611 150.234 424.741 148.621 425.441C147.331 426.001 146.461 427.529 147.161 429.142L151.502 439.14C152.202 440.752 153.912 441.16 155.202 440.6Z" fill="#231F20"/>
<path d="M144.841 416.733C146.131 416.173 147.001 414.646 146.301 413.033L141.96 403.035C141.4 401.745 139.872 400.875 138.26 401.575C136.97 402.135 136.1 403.663 136.8 405.275L141.14 415.273C141.7 416.563 143.551 417.293 144.841 416.733Z" fill="#231F20"/>
<path d="M134.48 392.867C135.77 392.307 136.64 390.779 135.94 389.167L131.6 379.169C131.04 377.879 129.512 377.008 127.899 377.709C126.609 378.269 125.739 379.796 126.439 381.409L130.78 391.407C131.34 392.697 133.19 393.427 134.48 392.867Z" fill="#231F20"/>
<path d="M123.977 368.678C125.267 368.118 126.137 366.59 125.437 364.977L121.096 354.979C120.536 353.689 119.009 352.819 117.396 353.519C116.106 354.079 115.236 355.607 115.936 357.22L120.417 367.54C120.977 368.83 122.687 369.238 123.977 368.678Z" fill="#231F20"/>
<path d="M113.617 344.811C114.907 344.251 115.777 342.724 115.077 341.111L110.736 331.113C110.176 329.823 108.648 328.953 107.036 329.653C105.745 330.213 104.875 331.741 105.576 333.353L109.916 343.351C110.616 344.964 112.326 345.371 113.617 344.811Z" fill="#231F20"/>
<path d="M103.255 320.945C104.545 320.385 105.415 318.857 104.715 317.245L100.375 307.247C99.8145 305.956 98.2868 305.086 96.6742 305.787C95.3842 306.347 94.5141 307.874 95.2143 309.487L99.5549 319.485C100.255 321.098 101.965 321.505 103.255 320.945Z" fill="#231F20"/>
<path d="M93.5262 294.121C93.5262 294.121 93.1911 291.583 93.1785 288.905C92.9409 287.475 93.4884 286.088 93.5309 285.302C93.4333 284.195 93.7983 283.27 93.7983 283.27L93.5262 294.121Z" fill="white"/>
<path d="M94.506 296.378C95.4736 295.958 96.1611 294.893 96.0635 293.786C96.0635 293.786 95.7284 291.248 95.8559 288.893C95.8984 288.108 95.9409 287.323 95.9833 286.537C96.1658 286.075 96.0258 285.752 96.2083 285.29C96.2508 284.505 96.4333 284.042 96.4333 284.042C96.6583 282.795 95.9582 281.182 94.7106 280.957C93.3229 280.41 91.8504 281.432 91.6254 282.68C91.6254 282.68 91.2604 283.605 91.3579 284.712C91.1754 285.175 91.3154 285.498 91.1329 285.96C91.0905 286.745 90.8655 287.993 90.823 288.778C90.8356 291.456 90.9882 294.456 90.9882 294.456C91.2258 295.886 92.4309 296.896 93.861 296.658C93.861 296.658 94.1835 296.518 94.506 296.378Z" fill="#231F20"/>
<path d="M99.2727 269.394C99.2727 269.394 99.7777 268.791 100.283 268.188C100.788 267.586 101.798 266.381 102.948 265.498C104.785 263.55 107.226 262.108 107.226 262.108L99.2727 269.394Z" fill="white"/>
<path d="M100.253 271.651C100.575 271.511 101.221 271.231 101.403 270.769C101.403 270.769 101.908 270.166 102.413 269.564C103.101 268.498 103.928 267.756 104.756 267.013C106.593 265.066 108.388 263.903 108.711 263.763C109.861 262.88 110.268 261.17 109.386 260.02C108.503 258.87 106.793 258.463 105.643 259.345C105.643 259.345 103.343 261.11 101.183 263.198C100.033 264.081 99.0227 265.286 98.3352 266.351C97.8301 266.954 97.3251 267.556 97.3251 267.556C96.3151 268.761 96.6927 270.514 97.7578 271.201C98.5003 272.029 99.2854 272.071 100.253 271.651Z" fill="#231F20"/>
<path d="M121.793 257.699L131.792 253.359C133.082 252.799 133.952 251.271 133.252 249.659C132.691 248.368 131.164 247.498 129.551 248.199L119.553 252.539C118.263 253.099 117.393 254.627 118.093 256.239C118.653 257.53 120.503 258.26 121.793 257.699Z" fill="#231F20"/>
<path d="M144.54 244.758C144.54 244.758 147.12 243.638 149.378 242.657C150.023 242.377 150.668 242.097 151.313 241.817C151.958 241.537 152.421 241.72 152.883 241.902C153.808 242.267 154.411 242.772 154.411 242.772L144.54 244.758Z" fill="white"/>
<path d="M155.533 245.355C155.855 245.215 156.178 245.075 156.36 244.613C157.51 243.73 157.455 241.837 156.25 240.827C156.11 240.505 155.045 239.817 153.657 239.27C152.872 239.227 151.947 238.862 150.517 239.1C149.872 239.38 149.227 239.66 148.904 239.8L148.259 240.08L143.099 242.32C141.809 242.88 140.939 244.408 141.639 246.021C142.199 247.311 143.727 248.181 145.339 247.481L150.822 245.1C151.145 244.96 151.467 244.82 151.467 244.82L151.79 244.68C152.252 244.863 152.252 244.863 152.252 244.863C153.64 245.41 154.565 245.775 155.533 245.355Z" fill="#231F20"/>
<path d="M158.277 249.91C158.277 249.91 158.192 251.48 158.892 253.093C159.592 254.706 160.475 255.856 160.475 255.856L158.277 249.91Z" fill="white"/>
<path d="M161.272 258.576C161.594 258.436 161.594 258.436 161.917 258.296C163.067 257.413 163.152 255.843 162.269 254.693C162.129 254.37 161.387 253.543 161.107 252.898C160.687 251.93 160.589 250.823 160.911 250.683C160.996 249.113 159.791 248.102 158.544 247.878C156.974 247.793 155.964 248.998 155.739 250.245C155.879 250.568 155.611 252.6 156.451 254.536C156.969 256.611 158.314 257.943 158.454 258.266C159.057 258.771 160.304 258.996 161.272 258.576Z" fill="#231F20"/>
<path d="M168.618 259.603C168.618 259.603 170.188 259.688 171.801 258.988C173.413 258.288 174.703 257.728 174.703 257.728L168.618 259.603Z" fill="white"/>
<path d="M175.684 259.986C176.974 259.426 177.522 258.038 177.284 256.608C176.724 255.318 175.196 254.448 173.906 255.008L171.004 256.268C170.036 256.688 168.929 256.786 168.606 256.926C167.176 257.163 166.166 258.368 166.081 259.938C166.318 261.369 167.524 262.379 168.771 262.604C169.094 262.464 170.986 262.408 172.921 261.568L175.684 259.986Z" fill="#231F20"/>
<path d="M184.391 256.205L190.519 253.544C191.809 252.984 192.679 251.457 191.979 249.844C191.418 248.554 189.891 247.684 188.278 248.384L182.15 251.044C180.86 251.605 179.99 253.132 180.69 254.745C181.39 256.357 183.101 256.765 184.391 256.205Z" fill="#231F20"/>
<path d="M198.905 249.904L205.033 247.244C206.323 246.684 207.193 245.156 206.493 243.543C205.933 242.253 204.405 241.383 202.793 242.083L196.665 244.744C195.375 245.304 194.505 246.832 195.205 248.444C195.905 250.057 197.615 250.464 198.905 249.904Z" fill="#231F20"/>
<path d="M213.419 243.603L219.547 240.943C220.837 240.383 221.707 238.855 221.007 237.243C220.447 235.953 218.92 235.083 217.307 235.783L211.179 238.443C209.889 239.003 209.019 240.531 209.719 242.143C210.742 243.616 212.129 244.163 213.419 243.603Z" fill="#231F20"/>
<path d="M225.187 232.745C225.187 232.745 226.057 231.217 226.142 229.647C226.227 228.077 225.85 226.324 225.85 226.324L225.187 232.745Z" fill="white"/>
<path d="M226.167 235.002C226.812 234.722 226.995 234.26 227.5 233.657C227.5 233.657 228.552 231.667 228.68 229.312C228.947 227.279 228.107 225.344 228.29 224.882C227.73 223.591 226.202 222.721 224.912 223.282C223.622 223.842 222.752 225.369 223.312 226.659C223.452 226.982 223.549 228.089 223.507 228.874C223.604 229.982 222.917 231.047 222.917 231.047C222.369 232.435 222.929 233.725 224.135 234.735C224.877 235.562 225.522 235.282 226.167 235.002Z" fill="#231F20"/>
<path d="M220.413 219.101C220.413 219.101 220.273 218.779 220.316 217.994C220.358 217.208 220.541 216.746 220.443 215.638C220.486 214.853 220.206 214.208 220.571 213.283C220.753 212.821 220.936 212.358 220.936 212.358L220.413 219.101Z" fill="white"/>
<path d="M221.393 221.359C222.683 220.799 223.231 219.411 222.671 218.121L222.531 217.798C222.531 217.798 222.391 217.476 222.713 217.336C222.896 216.873 223.078 216.411 222.798 215.766C222.658 215.443 222.841 214.981 222.701 214.658C222.701 214.658 222.561 214.336 222.883 214.196C223.571 213.13 223.193 211.378 221.988 210.368C220.923 209.68 219.17 210.058 218.483 211.123C218.16 211.263 218.118 212.048 217.753 212.973C217.57 213.436 217.528 214.221 217.808 214.866C217.948 215.188 217.948 215.188 217.765 215.651C217.583 216.113 217.723 216.436 217.723 216.436C217.54 216.898 217.498 217.684 217.638 218.006C217.596 218.791 217.876 219.436 218.016 219.759C218.393 221.511 219.781 222.059 221.393 221.359C221.071 221.499 221.071 221.499 221.393 221.359Z" fill="#231F20"/>
<path d="M229.838 210.793L235.966 208.132C237.256 207.572 238.126 206.044 237.426 204.432C236.866 203.142 235.339 202.272 233.726 202.972L227.598 205.632C226.308 206.192 225.438 207.72 226.138 209.333C226.698 210.623 228.226 211.493 229.838 210.793Z" fill="#231F20"/>
<path d="M244.352 204.492L250.479 201.831C251.77 201.271 252.64 199.744 251.939 198.131C251.379 196.841 249.852 195.971 248.239 196.671L242.111 199.331C240.821 199.891 239.951 201.419 240.651 203.032C241.211 204.322 243.062 205.052 244.352 204.492Z" fill="#231F20"/>
</g>
<defs>
<clipPath id="clip0_295_4934">
<rect width="226.432" height="540.063" fill="white" transform="matrix(-0.917284 0.398234 0.398234 0.917284 207.703 0)"/>
</clipPath>
</defs>
</svg>
