<svg width="404" height="150" viewBox="0 0 404 150" fill="none" xmlns="http://www.w3.org/2000/svg">
<g clip-path="url(#clip0_70_1221)">
<g opacity="0.3">
<g opacity="0.32">
<path opacity="0.32" d="M50.2448 33.2215C64.9875 33.2215 76.9388 20.0226 76.9388 3.74091C76.9388 -12.5408 64.9875 -25.7397 50.2448 -25.7397C35.5021 -25.7397 23.5508 -12.5408 23.5508 3.74091C23.5508 20.0226 35.5021 33.2215 50.2448 33.2215Z" fill="url(#paint0_radial_70_1221)"/>
<path opacity="0.32" d="M72.777 3.74091C72.777 17.4906 62.695 28.625 50.2449 28.625C37.7949 28.625 27.7129 17.4906 27.7129 3.74091C27.7129 -10.0088 37.7949 -21.1432 50.2449 -21.1432C62.695 -21.1432 72.777 -10.0088 72.777 3.74091Z" fill="url(#paint1_radial_70_1221)"/>
</g>
<path opacity="0.06" d="M74.4997 4.41452C74.4997 19.1944 63.6284 31.2006 50.2455 31.2006C36.8626 31.2006 25.9912 19.1944 25.9912 4.41452C25.9912 -10.3654 36.8626 -22.3716 50.2455 -22.3716C63.6284 -22.3716 74.4997 -10.3654 74.4997 4.41452Z" fill="white"/>
<path opacity="0.06" d="M69.2247 4.41453C69.2247 15.9849 60.7214 25.3758 50.2447 25.3758C39.768 25.3758 31.2646 15.9849 31.2646 4.41453C31.2646 -7.1558 39.768 -16.5468 50.2447 -16.5468C60.7214 -16.5468 69.2247 -7.1558 69.2247 4.41453Z" fill="white"/>
<path d="M65.0262 4.25601C65.0262 13.2904 58.4245 20.5813 50.2441 20.5813C42.0637 20.5813 35.4619 13.2904 35.4619 4.25601C35.4619 -4.77835 42.0637 -12.0692 50.2441 -12.0692C58.4245 -12.0692 65.0262 -4.77835 65.0262 4.25601Z" fill="url(#paint2_linear_70_1221)"/>
<path opacity="0.15" d="M51.966 16.6584C49.8132 18.0057 47.3017 18.7982 44.6467 18.7982C44.252 18.7982 43.8214 18.7982 43.4268 18.7585C45.4719 19.9076 47.7681 20.5813 50.2438 20.5813C52.0019 20.5813 53.6523 20.2643 55.231 19.6303C53.8676 19.0359 52.7553 17.9661 51.966 16.6584Z" fill="#230753"/>
<path opacity="0.15" d="M64.201 9.60569C64.7391 7.94147 65.0262 6.11874 65.0262 4.2564C65.0262 -4.30248 59.0344 -11.316 51.4639 -12.0292C56.1999 -9.29515 59.429 -3.82698 59.429 2.4733C59.429 3.34503 59.3573 4.21677 59.2496 5.04888C61.51 5.564 63.3399 7.30747 64.201 9.60569Z" fill="#230753"/>
<path d="M59.1052 5.95989C58.6747 5.88064 58.28 5.80139 57.8136 5.80139C54.4768 5.80139 51.75 8.81285 51.75 12.5375C51.75 13.8848 52.1088 15.1131 52.7187 16.183C53.5798 17.6095 54.9074 18.6793 56.4502 19.0756C59.6793 17.4113 62.2626 14.5188 63.7336 10.9526C63.1955 8.45623 61.3656 6.51463 59.1052 5.95989Z" fill="#BFBFBF"/>
<path d="M53.6504 17.4113C54.4038 18.2038 55.3726 18.7982 56.4489 19.0756C56.5207 19.036 56.5925 18.9963 56.6283 18.9567C56.5566 18.9567 56.449 18.9171 56.3772 18.9171C55.3367 18.6793 54.4038 18.1642 53.6504 17.4113Z" fill="#BFBFBF"/>
<path opacity="0.15" d="M60.9355 6.71277C60.9714 6.75239 60.9714 6.79202 61.0072 6.79202C61.2581 6.95051 61.4731 7.10901 61.6881 7.30714C61.4372 7.10901 61.1864 6.91089 60.9355 6.71277Z" fill="#230753"/>
<path opacity="0.15" d="M52.9701 16.6189C52.9343 16.6189 52.8984 16.5792 52.8984 16.5792C53.1135 16.8962 53.3643 17.1736 53.651 17.451C53.4001 17.1736 53.1851 16.8962 52.9701 16.6189Z" fill="#230753"/>
<path opacity="0.15" d="M63.7332 10.951C63.5897 10.0793 63.2309 9.4057 62.8004 8.69246C62.5133 8.17734 62.0828 7.74147 61.6522 7.34523C61.4369 7.14711 61.2217 6.98861 60.9705 6.83011C61.0782 6.98861 61.1499 7.10748 61.2576 7.26598C61.8675 8.29621 62.2263 9.56419 62.2263 10.9114C62.2263 14.5965 59.4995 17.6476 56.1268 17.6476C55.6963 17.6476 55.2657 17.6079 54.8352 17.4891C54.1535 17.3306 53.5077 17.0532 52.9336 16.657C53.1489 16.9343 53.3642 17.2117 53.6153 17.4494C54.3688 18.2023 55.3016 18.7174 56.3421 18.9552C56.4139 18.9948 56.5215 18.9948 56.5933 18.9948C59.6789 17.3306 62.2622 14.3587 63.7332 10.951Z" fill="#230753"/>
<path d="M47.7328 4.573C48.3867 4.573 48.9168 3.98756 48.9168 3.2654C48.9168 2.54323 48.3867 1.95779 47.7328 1.95779C47.0789 1.95779 46.5488 2.54323 46.5488 3.2654C46.5488 3.98756 47.0789 4.573 47.7328 4.573Z" fill="#BFBFBF"/>
<path opacity="0.15" d="M48.5217 2.27478C48.5576 2.43328 48.5935 2.59178 48.5935 2.75027C48.5935 3.46351 48.0553 4.05788 47.4095 4.05788C47.1224 4.05788 46.8354 3.93901 46.6201 3.74088C46.7995 4.21638 47.2301 4.573 47.7324 4.573C48.3782 4.573 48.9164 3.97863 48.9164 3.26539C48.9164 2.86915 48.7729 2.51253 48.5217 2.27478Z" fill="#230753"/>
<path d="M46.1531 10.9525C46.1531 12.2998 45.1485 13.4092 43.9286 13.4092C42.7087 13.4092 41.7041 12.2998 41.7041 10.9525C41.7041 9.6053 42.7087 8.49582 43.9286 8.49582C45.1485 8.49582 46.1531 9.6053 46.1531 10.9525Z" fill="#BFBFBF"/>
<path opacity="0.15" d="M45.1491 8.89206C45.4002 9.2883 45.5079 9.76379 45.5079 10.2393C45.5079 11.5865 44.5033 12.696 43.2834 12.696C42.8169 12.696 42.3864 12.5375 42.0635 12.2998C42.4581 12.9734 43.1399 13.4092 43.9292 13.4092C45.1491 13.4092 46.1537 12.2998 46.1537 10.9525C46.1537 10.1204 45.759 9.36755 45.1491 8.89206Z" fill="#230753"/>
<g opacity="0.5" clip-path="url(#clip1_70_1221)">
<path opacity="0.06" d="M197.673 134.468C195.367 138.526 193.06 142.884 193.467 147.693C193.603 149.948 194.417 152.202 195.231 154.306C197.809 161.369 200.523 168.733 206.086 173.542C207.715 174.894 209.479 176.097 211.243 177.299C213.143 178.501 215.042 179.703 216.942 180.906C218.435 181.958 220.063 182.859 221.827 183.461C223.32 183.911 224.812 184.212 226.305 184.362C230.783 184.813 235.261 185.114 239.739 185.264C241.91 185.264 244.216 185.264 246.388 184.362C250.594 182.409 252.494 177.299 253.986 172.79C254.801 170.085 255.75 167.38 256.565 164.675C258.057 159.866 259.55 155.057 259.414 149.948C259.278 145.74 257.922 141.682 256.565 137.775C255.208 133.717 253.851 129.659 252.494 125.602C251.951 123.798 251.273 121.995 250.187 120.342C248.559 118.238 246.388 116.735 244.081 115.683C240.146 113.88 235.668 113.279 231.461 114.18C229.019 114.631 226.576 115.533 224.269 116.585C218.706 118.839 213.007 121.093 207.715 123.949C205.679 125.001 202.966 126.203 201.337 128.006C199.845 129.81 198.759 132.364 197.673 134.468Z" fill="white"/>
<path opacity="0.06" d="M192.787 131.914C190.209 136.723 187.36 141.832 187.767 147.393C187.902 150.098 188.852 152.653 189.802 155.207C192.787 163.473 196.044 172.039 202.557 177.75C204.457 179.403 206.492 180.755 208.663 182.108C210.835 183.611 213.141 184.963 215.312 186.466C217.077 187.668 218.976 188.871 221.012 189.472C222.64 190.073 224.404 190.223 226.168 190.524C231.324 191.125 236.616 191.425 241.909 191.425C244.487 191.425 247.201 191.425 249.643 190.374C254.528 188.119 256.699 182.108 258.463 176.848C259.413 173.692 260.499 170.536 261.448 167.38C263.212 161.82 264.976 156.109 264.705 150.098C264.569 145.289 262.941 140.48 261.448 135.971C259.82 131.312 258.327 126.503 256.699 121.845C256.021 119.741 255.207 117.637 253.985 115.683C252.357 113.128 249.779 111.325 247.065 110.123C242.451 108.019 237.159 107.418 232.274 108.319C229.425 108.92 226.575 109.972 223.861 111.024C217.348 113.579 210.699 116.284 204.457 119.59C202.014 120.793 198.894 122.145 196.994 124.249C195.23 126.353 194.144 129.509 192.787 131.914Z" fill="white"/>
<path d="M202.151 136.873C200.251 140.329 198.351 144.087 198.623 147.994C198.623 149.948 199.301 151.751 199.98 153.554C202.151 159.566 204.458 165.727 209.207 169.785C210.564 170.987 212.056 171.889 213.549 172.941C215.177 173.993 216.806 175.045 218.298 176.097C219.655 176.998 220.876 177.75 222.369 178.351C223.59 178.802 224.812 178.952 226.169 179.102C229.968 179.553 233.767 179.703 237.431 179.854C239.331 179.854 241.231 179.854 242.995 179.102C246.523 177.449 248.151 173.241 249.372 169.334C250.051 167.08 250.865 164.826 251.543 162.421C252.765 158.363 254.122 154.306 253.986 149.948C253.85 146.491 252.765 143.035 251.679 139.728C250.593 136.272 249.372 132.966 248.287 129.509C247.744 128.006 247.201 126.503 246.387 125.151C245.166 123.348 243.402 121.995 241.366 121.244C237.974 119.741 234.31 119.29 230.646 119.891C228.611 120.342 226.576 121.093 224.54 121.845C219.791 123.648 215.042 125.602 210.564 128.006C208.8 128.908 206.493 129.96 205.136 131.463C203.915 132.815 203.101 135.07 202.151 136.873Z" fill="#FFE973"/>
<path opacity="0.15" d="M251.679 139.578C250.594 136.122 249.372 132.815 248.287 129.359C247.744 127.856 247.201 126.353 246.387 125.001C245.709 124.099 244.895 123.197 243.945 122.596C244.08 123.047 244.216 123.348 244.352 123.798C245.437 127.255 246.659 130.561 247.744 134.018C248.83 137.324 249.915 140.78 250.051 144.237C250.187 148.445 248.965 152.653 247.608 156.71C246.93 158.964 246.116 161.219 245.437 163.623C244.216 167.531 242.588 171.739 239.06 173.392C237.296 174.143 235.396 174.143 233.496 174.143C229.697 174.143 225.897 173.842 222.234 173.392C221.012 173.241 219.655 173.091 218.434 172.64C216.942 172.189 215.585 171.288 214.363 170.386C212.735 169.334 211.107 168.282 209.614 167.23C208.121 166.328 206.629 165.276 205.272 164.074C204.593 163.473 204.186 162.872 203.644 162.271C205.136 165.126 206.9 167.681 209.207 169.785C210.564 170.987 212.057 171.889 213.549 172.941C215.178 173.993 216.806 175.045 218.299 176.097C219.655 176.998 220.877 177.75 222.369 178.351C223.591 178.802 224.812 178.952 226.169 179.102C229.968 179.553 233.768 179.703 237.431 179.854C239.331 179.854 241.231 179.854 242.995 179.102C246.523 177.449 248.151 173.241 249.372 169.334C250.051 167.08 250.865 164.826 251.544 162.421C252.765 158.363 254.122 154.306 253.986 149.948C253.85 146.341 252.765 142.884 251.679 139.578Z" fill="#230753"/>
<path d="M233.904 126.203C233.632 126.353 233.361 126.353 233.225 126.654C233.09 126.954 232.954 127.255 232.954 127.555C232.683 129.659 232.683 131.763 232.683 134.018C232.683 134.619 232.683 135.37 232.954 135.971C233.09 136.272 233.225 136.723 233.497 137.023C234.718 138.526 236.618 138.977 238.382 138.977C239.739 138.977 241.096 138.676 242.317 138.225C243.538 137.775 244.759 137.023 245.302 135.671C245.709 134.769 245.574 133.567 245.166 132.665C243.402 128.457 237.975 124.85 233.904 126.203Z" fill="#E7CD64"/>
<path d="M225.219 149.948C224.404 151.15 223.862 152.502 224.133 154.005C224.269 154.606 224.54 155.207 224.947 155.508C225.49 155.809 226.033 155.809 226.576 155.508C228.747 154.757 230.104 152.202 232.139 151.3C232.275 151.15 232.546 151.15 232.682 150.999C232.818 150.699 232.953 150.398 232.953 150.098C232.953 149.196 232.546 148.294 232.003 147.543C231.596 146.942 231.053 146.341 230.375 146.19C229.154 145.74 228.747 146.641 227.933 147.393C226.983 148.144 225.897 148.896 225.219 149.948Z" fill="#E7CD64"/>
<path d="M242.316 148.294C242.045 148.595 241.909 148.896 241.774 149.196C241.638 149.497 241.638 149.948 241.774 150.248C243.538 151.15 245.437 151.45 247.337 151.3C247.608 150.248 247.066 149.196 246.387 148.294C245.844 147.693 245.302 146.942 244.488 146.641C243.402 146.341 242.859 147.693 242.316 148.294Z" fill="#E7CD64"/>
<path d="M211.514 150.398C211.378 150.098 211.107 149.797 210.835 149.647C209.478 148.896 207.579 149.346 206.629 150.699C206.493 150.849 206.357 151.15 206.222 151.45C206.222 151.901 206.357 152.202 206.493 152.502C206.764 152.803 207.036 152.953 207.307 153.103C207.85 153.404 208.393 153.554 208.936 153.705C211.107 154.456 212.192 152.653 211.514 150.398Z" fill="#E7CD64"/>
<path d="M227.254 137.474C227.525 137.324 227.661 137.174 227.932 137.174C228.068 137.174 228.204 137.023 228.204 136.873C229.018 135.821 227.525 134.468 226.847 134.168C226.032 133.867 225.354 134.318 224.947 135.07C224.54 135.671 223.319 137.474 223.861 138.226C224.54 139.127 226.711 137.775 227.254 137.474Z" fill="#E7CD64"/>
<path d="M212.464 132.064C211.378 132.815 210.292 133.717 209.478 134.619C208.528 135.671 207.85 136.873 207.307 138.225C206.764 139.728 206.629 141.682 207.443 143.035C207.986 143.936 209.071 144.537 210.021 144.688C211.107 144.838 212.057 144.537 213.006 144.087C213.549 143.786 214.092 143.485 214.499 143.035C214.906 142.584 215.042 141.832 215.042 141.231C213.413 141.381 211.921 141.682 210.292 141.682C210.157 140.931 210.292 140.329 210.7 139.728C211.107 139.127 211.514 138.676 212.057 138.225C213.413 136.873 214.77 135.22 215.856 133.717C216.263 133.116 216.806 132.364 216.806 131.613C216.941 130.711 216.399 129.659 215.449 130.11C214.363 130.411 213.413 131.463 212.464 132.064Z" fill="#E7CD64"/>
<g opacity="0.15">
<g opacity="0.15">
<path opacity="0.15" d="M213.277 143.035C212.87 143.485 212.327 143.786 211.784 144.087C211.106 144.387 210.427 144.537 209.749 144.688C209.885 144.688 209.885 144.688 209.885 144.688C210.97 144.838 211.92 144.537 212.87 144.087C213.413 143.786 213.956 143.485 214.363 143.035C214.77 142.584 214.905 141.832 214.905 141.231C214.498 141.231 214.091 141.381 213.684 141.381C213.82 141.983 213.684 142.584 213.277 143.035Z" fill="#230753"/>
<path opacity="0.15" d="M215.312 129.96C215.177 129.96 215.177 130.11 215.041 130.11C215.312 130.411 215.448 130.862 215.448 131.463C215.312 132.214 214.905 132.966 214.498 133.567C213.277 135.22 212.056 136.723 210.699 138.075C210.292 138.526 209.749 138.977 209.342 139.578C208.935 140.179 208.799 140.931 208.935 141.532C209.342 141.532 209.749 141.381 210.156 141.381C210.02 140.78 210.156 140.029 210.563 139.428C210.97 138.827 211.377 138.376 211.92 137.925C213.277 136.572 214.634 134.919 215.719 133.416C216.126 132.815 216.669 132.064 216.669 131.313C216.805 130.561 216.262 129.509 215.312 129.96Z" fill="#230753"/>
</g>
</g>
<path opacity="0.15" d="M232.004 147.543C231.868 147.242 231.597 147.092 231.326 146.942C231.461 147.242 231.597 147.693 231.597 147.994C231.597 148.294 231.597 148.595 231.326 148.896C231.19 149.046 230.918 149.196 230.783 149.196C228.747 150.248 227.39 152.653 225.219 153.404C224.812 153.554 224.541 153.554 224.134 153.554C224.134 153.705 224.134 153.855 224.134 154.005C224.269 154.606 224.541 155.207 224.948 155.508C225.491 155.808 226.034 155.808 226.576 155.508C228.747 154.757 230.104 152.202 232.14 151.3C232.275 151.15 232.547 151.15 232.683 150.999C232.818 150.699 232.954 150.398 232.954 150.098C232.954 149.046 232.547 148.294 232.004 147.543Z" fill="#230753"/>
<path opacity="0.15" d="M245.031 132.665C244.624 131.613 243.945 130.561 242.995 129.509C243.131 129.81 243.538 130.11 243.674 130.561C244.081 131.463 244.217 132.665 243.81 133.567C243.267 134.919 242.046 135.671 240.824 136.122C239.603 136.572 238.246 136.873 236.889 136.873C235.397 136.873 233.904 136.422 232.683 135.37C232.683 135.52 232.683 135.671 232.683 135.971C232.818 136.272 232.954 136.723 233.225 137.023C234.447 138.526 236.346 138.977 238.11 138.977C239.467 138.977 240.824 138.676 242.046 138.225C243.267 137.775 244.488 137.023 245.031 135.671C245.574 134.619 245.438 133.567 245.031 132.665Z" fill="#230753"/>
<path opacity="0.15" d="M246.251 148.294C246.115 147.994 245.843 147.844 245.572 147.543C245.843 148.144 245.843 148.595 245.708 149.196C244.487 149.346 243.13 149.046 241.908 148.745C241.773 148.896 241.637 149.046 241.637 149.196C241.501 149.497 241.501 149.947 241.637 150.248C243.401 151.15 245.301 151.45 247.2 151.3C247.472 150.248 246.793 149.196 246.251 148.294Z" fill="#230753"/>
<path opacity="0.15" d="M211.514 150.398C211.378 150.098 211.107 149.797 210.835 149.647C210.7 149.647 210.564 149.647 210.292 149.647C210.292 151.15 209.343 152.352 207.579 151.751C207.171 151.601 206.764 151.45 206.222 151.15C206.222 151.3 206.086 151.3 206.086 151.45C206.086 151.901 206.222 152.202 206.357 152.502C206.629 152.803 206.9 152.953 207.171 153.103C207.714 153.404 208.257 153.554 208.8 153.705C211.107 154.456 212.192 152.653 211.514 150.398Z" fill="#230753"/>
<path opacity="0.15" d="M226.983 134.318C226.983 134.468 226.983 134.619 226.847 134.769C226.712 134.919 226.712 134.919 226.576 135.07C226.305 135.22 226.169 135.37 225.898 135.37C225.626 135.52 224.948 135.971 224.269 136.122C223.862 136.873 223.591 137.624 223.862 138.075C224.405 138.977 226.576 137.624 227.255 137.324C227.526 137.173 227.662 137.023 227.933 137.023C228.069 137.023 228.204 136.873 228.204 136.723C229.019 135.971 227.797 134.769 226.983 134.318Z" fill="#230753"/>
</g>
</g>
<path d="M0 -1H440V29.7997C440 29.7997 413.986 25.3998 354.527 31.8116C295.068 38.2233 259.568 40.9631 216.284 26.3634C173 11.7636 71.1076 37.2478 56 40.5C18.8378 48.4999 0 29.7997 0 29.7997V-1Z" fill="#F8F8FF"/>
<path opacity="0.2" d="M0 -2H440V23.1261C440 23.1261 413.986 19.5367 354.527 24.7673C295.068 29.998 259.568 32.2331 216.284 20.3228C173 8.41244 70.6076 30.3469 55.5 33C18.3378 39.5263 0 23.1261 0 23.1261V-2Z" fill="#C5C7D0"/>
</g>
<defs>
<radialGradient id="paint0_radial_70_1221" cx="0" cy="0" r="1" gradientUnits="userSpaceOnUse" gradientTransform="translate(50.2459 3.7545) scale(26.6969 29.4838)">
<stop stop-color="white"/>
<stop offset="0.5631" stop-color="#4072B6"/>
<stop offset="0.5974" stop-color="#31588D"/>
<stop offset="0.6349" stop-color="#244167"/>
<stop offset="0.6755" stop-color="#192D47"/>
<stop offset="0.7192" stop-color="#101C2D"/>
<stop offset="0.7671" stop-color="#091019"/>
<stop offset="0.8215" stop-color="#04070B"/>
<stop offset="0.8878" stop-color="#010202"/>
<stop offset="1"/>
</radialGradient>
<radialGradient id="paint1_radial_70_1221" cx="0" cy="0" r="1" gradientUnits="userSpaceOnUse" gradientTransform="translate(50.2457 3.75466) scale(22.5432 24.8965)">
<stop stop-color="white"/>
<stop offset="0.5631" stop-color="#4072B6"/>
<stop offset="0.5974" stop-color="#31588D"/>
<stop offset="0.6349" stop-color="#244167"/>
<stop offset="0.6755" stop-color="#192D47"/>
<stop offset="0.7192" stop-color="#101C2D"/>
<stop offset="0.7671" stop-color="#091019"/>
<stop offset="0.8215" stop-color="#04070B"/>
<stop offset="0.8878" stop-color="#010202"/>
<stop offset="1"/>
</radialGradient>
<linearGradient id="paint2_linear_70_1221" x1="35.4627" y1="4.24686" x2="65.0271" y2="4.24686" gradientUnits="userSpaceOnUse">
<stop stop-color="#E0DFDD"/>
<stop offset="1" stop-color="#C9C9C7"/>
</linearGradient>
<clipPath id="clip0_70_1221">
<path d="M0 4C0 1.79086 1.79086 0 4 0H399.011C401.22 0 403.011 1.79086 403.011 4V146C403.011 148.209 401.22 150 399.011 150H4.00001C1.79087 150 0 148.209 0 146V4Z" fill="white"/>
</clipPath>
<clipPath id="clip1_70_1221">
<rect width="76.9385" height="83.5571" fill="white" transform="translate(187.767 107.718)"/>
</clipPath>
</defs>
</svg>
