<svg width="240" height="130" viewBox="0 0 240 130" fill="none" xmlns="http://www.w3.org/2000/svg">
<mask id="mask0_223_2623" style="mask-type:alpha" maskUnits="userSpaceOnUse" x="40" y="40" width="200" height="90">
<rect x="40" y="40" width="200" height="90" rx="10" fill="white"/>
</mask>
<g mask="url(#mask0_223_2623)">
<path opacity="0.1" d="M240 129.564V41C227.808 49.4469 212.952 55.4365 197.86 59.1224C170.99 65.6752 142.699 66.0847 114.882 68.542C102.453 69.6171 89.9057 71.1529 78.2461 75.0436C66.5866 78.9342 55.6964 85.3846 49.0677 94.5482C41.5511 104.889 40.2491 117.329 38 129.564H240Z" fill="url(#paint0_linear_223_2623)"/>
<mask id="mask1_223_2623" style="mask-type:alpha" maskUnits="userSpaceOnUse" x="115" y="79" width="111" height="51">
<rect x="115" y="79" width="111" height="51" fill="#C4C4C4"/>
</mask>
<g mask="url(#mask1_223_2623)">
<g opacity="0.15">
<path d="M136.438 144.876C137.042 144.876 137.647 144.628 138.01 144.255C138.494 143.759 138.857 143.139 138.977 142.518L139.098 140.905C140.913 140.657 142.606 140.16 144.299 139.292L145.266 140.533C146.113 141.649 147.806 141.774 148.895 140.905L151.435 138.795C152.523 137.927 152.644 136.189 151.797 135.072L150.83 133.831C151.918 132.342 152.765 130.729 153.37 128.992L154.942 129.116C155.668 129.24 156.272 128.992 156.877 128.495C157.361 127.999 157.724 127.378 157.844 126.758L158.086 123.407C158.207 122.663 157.965 122.042 157.482 121.422C156.998 120.925 156.393 120.553 155.788 120.429L154.216 120.305C153.974 118.443 153.491 116.706 152.644 114.969L153.853 113.976C154.942 113.107 155.063 111.37 154.216 110.253L152.16 107.647C151.676 107.151 151.072 106.778 150.467 106.654C149.741 106.53 149.137 106.778 148.532 107.275L147.322 108.268C145.871 107.151 144.299 106.282 142.606 105.662L142.727 104.048C142.848 103.304 142.606 102.683 142.122 102.063C141.638 101.566 141.033 101.194 140.429 101.07L137.163 100.698C136.438 100.574 135.833 100.822 135.228 101.318C134.744 101.815 134.382 102.435 134.261 103.056L134.14 104.669C132.326 104.917 130.632 105.413 128.939 106.282L127.972 105.041C127.125 103.924 125.432 103.8 124.343 104.669L121.804 106.778C121.32 107.275 120.957 107.895 120.836 108.516C120.715 109.26 120.957 109.881 121.441 110.501L122.408 111.742C121.32 113.231 120.473 114.845 119.869 116.582L118.296 116.458C117.571 116.334 116.966 116.582 116.361 117.078C115.877 117.575 115.515 118.195 115.394 118.816L115.031 122.166C114.91 122.911 115.152 123.531 115.636 124.152C116.119 124.648 116.724 125.021 117.329 125.145L118.901 125.269C119.143 127.13 119.627 128.868 120.473 130.605L119.264 131.598C118.78 132.094 118.417 132.715 118.296 133.335C118.175 134.08 118.417 134.7 118.901 135.321L121.199 138.051C121.683 138.547 122.287 138.919 122.892 139.043C123.618 139.168 124.222 138.919 124.827 138.423L126.037 137.43C127.488 138.547 129.06 139.416 130.753 140.036L130.632 141.649C130.511 142.394 130.753 143.014 131.237 143.635C131.721 144.131 132.326 144.504 132.93 144.628L136.196 145C136.196 144.876 136.317 144.876 136.438 144.876ZM144.541 137.182C144.42 137.182 144.299 137.182 144.057 137.306C142.243 138.299 140.187 138.919 138.131 139.168C137.647 139.168 137.405 139.54 137.284 140.036L137.042 142.394C137.042 142.642 136.921 142.766 136.801 142.89C136.68 143.014 136.438 143.139 136.196 143.014L132.93 142.642C132.688 142.642 132.568 142.518 132.447 142.394C132.326 142.27 132.205 142.022 132.326 141.774L132.568 139.416C132.568 138.919 132.326 138.547 131.963 138.423C130.028 137.802 128.214 136.81 126.52 135.445C126.158 135.196 125.674 135.196 125.311 135.445L123.497 136.934C123.376 137.058 123.134 137.182 122.892 137.058C122.65 137.058 122.529 136.934 122.408 136.81L120.352 134.204C120.231 134.08 120.11 133.831 120.231 133.583C120.231 133.335 120.352 133.211 120.473 133.087L122.408 131.598C122.771 131.349 122.892 130.853 122.65 130.481C121.683 128.619 121.078 126.634 120.836 124.4C120.836 123.904 120.473 123.656 119.99 123.531L117.692 123.283C117.45 123.283 117.329 123.159 117.208 123.035C117.087 122.911 116.966 122.663 117.087 122.415L117.45 119.064C117.45 118.816 117.571 118.692 117.692 118.568C117.813 118.443 117.933 118.443 118.175 118.443L120.473 118.692C120.957 118.692 121.32 118.443 121.441 118.071C122.046 116.086 123.013 114.224 124.343 112.487C124.585 112.115 124.585 111.618 124.343 111.246L122.892 109.384C122.771 109.26 122.65 109.012 122.771 108.764C122.771 108.516 122.892 108.392 123.013 108.268L125.553 106.158C125.916 105.91 126.399 105.91 126.641 106.282L128.093 108.144C128.335 108.516 128.818 108.64 129.181 108.392C130.995 107.399 132.93 106.778 135.107 106.53C135.591 106.53 135.833 106.158 135.954 105.662L136.196 103.304C136.196 103.056 136.317 102.931 136.438 102.807C136.559 102.683 136.8 102.559 137.042 102.683L140.308 103.056C140.55 103.056 140.671 103.18 140.792 103.304C140.913 103.428 141.033 103.676 140.913 103.924L140.671 106.282C140.671 106.778 140.913 107.151 141.275 107.275C143.21 107.895 145.025 108.888 146.718 110.253C147.081 110.501 147.564 110.501 147.927 110.253L149.741 108.764C149.862 108.64 150.104 108.516 150.225 108.516C150.467 108.516 150.588 108.64 150.709 108.764L152.765 111.37C153.007 111.742 153.007 112.239 152.644 112.487L150.83 113.976C150.467 114.224 150.346 114.721 150.588 115.093C151.555 116.954 152.16 118.94 152.402 121.174C152.402 121.67 152.765 121.918 153.249 122.042L155.547 122.29C155.788 122.29 155.909 122.415 156.03 122.539C156.272 122.787 156.272 122.911 156.272 123.159L155.909 126.51C155.909 126.758 155.788 126.882 155.668 127.006C155.547 127.13 155.305 127.254 155.063 127.13L152.765 126.882C152.281 126.882 151.918 127.13 151.797 127.502C151.193 129.488 150.225 131.349 148.895 133.087C148.653 133.459 148.653 133.955 148.895 134.328L150.346 136.189C150.588 136.561 150.588 137.058 150.225 137.306L147.685 139.416C147.322 139.664 146.839 139.664 146.597 139.292L145.146 137.43C145.025 137.306 144.783 137.182 144.541 137.182ZM136.68 136.065C139.582 136.065 142.485 135.072 144.904 133.087C150.467 128.495 151.314 120.057 146.718 114.348C142.243 108.64 134.019 107.771 128.455 112.487C125.795 114.721 124.102 117.947 123.739 121.422C123.376 124.896 124.343 128.371 126.641 131.101C129.181 134.452 132.93 136.065 136.68 136.065ZM143.694 131.722C138.977 135.693 131.963 134.948 127.972 130.109C126.037 127.751 125.19 124.772 125.553 121.794C125.795 118.816 127.246 115.962 129.544 114.1C134.261 110.129 141.275 110.874 145.266 115.713C149.137 120.429 148.411 127.751 143.694 131.722ZM136.68 127.627C137.768 127.627 138.736 127.254 139.582 126.51C140.55 125.765 141.154 124.524 141.275 123.283C141.396 122.042 141.033 120.801 140.308 119.809C138.736 117.823 135.833 117.451 133.777 119.188C131.842 120.801 131.479 123.78 133.172 125.889C133.898 126.882 135.107 127.502 136.317 127.627C136.317 127.627 136.559 127.627 136.68 127.627ZM136.68 119.933C137.526 119.933 138.252 120.305 138.857 121.049C139.34 121.67 139.582 122.415 139.461 123.159C139.34 123.904 138.977 124.648 138.494 125.145C137.889 125.641 137.163 125.889 136.438 125.765C135.712 125.641 134.986 125.269 134.503 124.772C133.535 123.531 133.656 121.67 134.865 120.677C135.349 120.181 136.075 119.933 136.68 119.933Z" fill="#231F20"/>
<path d="M136.68 136.065C143.815 136.065 149.621 130.109 149.621 122.787C149.621 115.465 143.815 109.509 136.68 109.509C129.544 109.509 123.739 115.465 123.739 122.787C123.739 130.109 129.544 136.065 136.68 136.065ZM136.68 111.37C142.848 111.37 147.806 116.458 147.806 122.787C147.806 129.116 142.848 134.204 136.68 134.204C130.512 134.204 125.553 129.116 125.553 122.787C125.553 116.582 130.512 111.37 136.68 111.37Z" fill="#231F20"/>
<path d="M136.68 131.598C141.397 131.598 145.146 127.627 145.146 122.911C145.146 118.071 141.276 114.224 136.68 114.224C131.963 114.224 128.214 118.195 128.214 122.911C128.093 127.627 131.963 131.598 136.68 131.598ZM136.68 115.962C140.429 115.962 143.332 119.064 143.332 122.787C143.332 126.634 140.308 129.612 136.68 129.612C132.931 129.612 130.028 126.51 130.028 122.787C129.907 119.064 132.931 115.962 136.68 115.962Z" fill="#231F20"/>
<path d="M211.664 109.136C211.905 109.136 212.026 109.136 212.268 109.012L214.324 108.392C215.413 108.019 216.018 106.903 215.655 105.786L215.534 104.917C216.501 104.297 217.348 103.676 218.074 102.807L218.799 103.18C219.162 103.552 219.767 103.552 220.251 103.428C220.734 103.304 221.218 102.932 221.46 102.435L222.548 100.45C223.032 99.4568 222.669 98.2159 221.702 97.5954L220.976 97.2231C221.218 96.1062 221.339 94.9894 221.339 93.8725L222.065 93.6243C223.153 93.252 223.758 92.1352 223.395 91.0183L222.79 88.9087C222.669 88.4123 222.307 87.9159 221.823 87.6677C221.339 87.4195 220.734 87.4195 220.251 87.5436L219.404 87.7918C218.799 86.799 218.194 85.9304 217.348 85.1858L217.711 84.4412C218.194 83.4485 217.832 82.2075 216.864 81.587L214.929 80.4702C214.082 79.9738 212.873 80.4702 212.268 81.4629L211.905 82.2075C210.817 81.9593 209.729 81.8352 208.64 81.8352L208.398 80.9665C208.156 79.9738 207.068 79.3533 205.979 79.6015L203.802 80.222C203.319 80.3461 202.835 80.7183 202.593 81.2147C202.351 81.7111 202.23 82.2075 202.472 82.828L202.714 83.6966C201.746 84.3171 200.9 84.9376 200.174 85.8063L199.448 85.434C198.965 85.1858 198.481 85.0617 197.876 85.3099C197.392 85.434 196.909 85.8063 196.667 86.3027L195.578 88.2882C195.336 88.7846 195.215 89.281 195.457 89.9014C195.578 90.3978 195.941 90.8942 196.425 91.1424L197.15 91.5147C196.909 92.6316 196.788 93.7484 196.788 94.8653L195.941 95.1135C194.853 95.4858 194.248 96.6026 194.611 97.7195L195.215 99.9532C195.578 101.07 196.667 101.691 197.755 101.318L198.602 101.07C199.207 102.063 199.811 102.932 200.658 103.676L200.295 104.421C200.053 104.917 199.932 105.413 200.174 106.034C200.295 106.53 200.658 107.027 201.142 107.275L203.077 108.392C203.56 108.64 204.044 108.764 204.649 108.516C205.133 108.392 205.616 108.019 205.858 107.523L206.221 106.778C207.31 107.027 208.398 107.151 209.487 107.151L209.729 108.019C209.849 108.516 210.212 109.012 210.696 109.26C210.938 109.012 211.301 109.136 211.664 109.136ZM217.832 100.822C217.59 100.822 217.348 100.946 217.106 101.194C216.259 102.311 215.171 103.18 213.961 103.8C213.599 104.048 213.357 104.421 213.478 104.917L213.961 106.406C213.961 106.53 213.961 106.654 213.841 106.654L211.664 107.275C211.543 107.275 211.422 107.275 211.422 107.151L210.938 105.662C210.817 105.289 210.454 104.917 209.97 105.041C208.64 105.165 207.31 105.041 205.979 104.669C205.616 104.545 205.133 104.669 204.891 105.165L204.165 106.53C204.165 106.654 204.044 106.654 204.044 106.654H203.923L201.988 105.538C201.867 105.538 201.867 105.289 201.867 105.289L202.593 103.924C202.835 103.552 202.714 103.056 202.351 102.807C201.263 101.939 200.416 100.822 199.811 99.5809C199.569 99.2086 199.207 98.9604 198.723 99.0845L197.271 99.5809C197.15 99.5809 197.03 99.5809 197.03 99.4568L196.425 97.2231C196.425 97.099 196.425 96.9749 196.546 96.9749L197.997 96.4785C198.36 96.3544 198.723 95.9821 198.602 95.4858C198.481 94.1207 198.602 92.7557 198.965 91.3906C199.086 91.0183 198.965 90.5219 198.481 90.2737L197.15 89.5292C197.03 89.5292 197.03 89.281 197.03 89.281L198.118 87.2954C198.118 87.1713 198.239 87.1713 198.239 87.1713H198.36L199.69 87.9159C200.053 88.1641 200.537 88.04 200.779 87.6677C201.625 86.5509 202.714 85.6822 203.923 85.0617C204.286 84.8135 204.528 84.4412 204.407 83.9448L203.923 82.4557C203.923 82.3316 203.923 82.3316 203.923 82.3316C203.923 82.3316 203.923 82.2075 204.044 82.2075L206.221 81.587C206.342 81.587 206.463 81.587 206.463 81.7111L206.947 83.2003C207.068 83.5726 207.431 83.9448 207.914 83.8207C209.245 83.6966 210.575 83.8207 211.905 84.193C212.268 84.3171 212.752 84.193 212.994 83.6966L213.72 82.3316C213.72 82.2075 213.841 82.2075 213.961 82.2075L215.897 83.3244C216.018 83.3244 216.018 83.4485 216.018 83.5726L215.534 84.9376C215.292 85.3099 215.413 85.8063 215.776 86.0545C216.864 86.9231 217.711 88.04 218.315 89.281C218.557 89.6533 218.92 89.9014 219.404 89.7773L220.855 89.281C220.976 89.281 221.097 89.281 221.097 89.4051L221.702 91.6388C221.702 91.7629 221.702 91.887 221.581 91.887L220.009 92.3834C219.646 92.5075 219.283 92.8797 219.404 93.3761C219.525 94.7412 219.404 96.1062 219.041 97.4713C218.92 97.8436 219.041 98.34 219.525 98.5882L220.855 99.3327C220.976 99.3327 220.976 99.4568 220.976 99.5809L219.888 101.566C219.888 101.691 219.646 101.691 219.646 101.691L218.315 100.946C218.074 100.822 217.953 100.822 217.832 100.822Z" fill="#231F20"/>
<path d="M157.723 108.888C157.844 108.888 157.965 108.888 157.965 108.888L161.714 107.523C162.198 107.399 162.44 106.778 162.319 106.282C162.198 105.786 161.593 105.538 161.109 105.662L157.36 107.027C156.876 107.151 156.634 107.771 156.755 108.268C156.997 108.64 157.36 108.888 157.723 108.888Z" fill="#231F20"/>
<path d="M164.011 106.654C164.132 106.654 164.253 106.654 164.253 106.654L168.002 105.289C168.486 105.165 168.728 104.545 168.607 104.048C168.486 103.552 167.881 103.304 167.397 103.428L163.648 104.793C163.164 104.917 162.923 105.537 163.044 106.034C163.285 106.406 163.648 106.654 164.011 106.654Z" fill="#231F20"/>
<path d="M170.301 104.421C170.422 104.421 170.542 104.421 170.542 104.421L174.292 103.056C174.775 102.931 175.017 102.311 174.896 101.815C174.775 101.318 174.171 101.07 173.687 101.194L169.938 102.559C169.454 102.683 169.212 103.304 169.333 103.8C169.575 104.172 169.817 104.421 170.301 104.421Z" fill="#231F20"/>
<path d="M176.469 102.187C176.59 102.187 176.71 102.187 176.71 102.187L180.46 100.822C180.943 100.698 181.185 100.077 181.064 99.5808C180.943 99.0845 180.339 98.8363 179.855 98.9604L176.106 100.325C175.622 100.45 175.38 101.07 175.501 101.566C175.743 101.939 176.106 102.187 176.469 102.187Z" fill="#231F20"/>
<path d="M182.758 99.9531C182.879 99.9531 183 99.9531 183 99.9531L186.87 98.588C187.354 98.4639 187.595 97.8435 187.475 97.3471C187.354 96.8507 186.749 96.6025 186.265 96.7266L182.516 98.0917C182.032 98.2158 181.79 98.8362 181.911 99.3326C182.032 99.7049 182.395 99.9531 182.758 99.9531Z" fill="#231F20"/>
<path d="M188.926 97.7194C189.047 97.7194 189.168 97.7194 189.168 97.7194L192.917 96.3544C193.401 96.2303 193.643 95.6098 193.522 95.1134C193.401 94.6171 192.796 94.3689 192.312 94.493L188.563 95.858C188.08 95.9821 187.838 96.6026 187.959 97.099C188.2 97.4713 188.563 97.7194 188.926 97.7194Z" fill="#231F20"/>
<path d="M192.312 107.275C192.433 107.275 192.554 107.275 192.675 107.151L196.424 105.537C196.908 105.289 197.15 104.793 196.908 104.297C196.666 103.8 196.182 103.552 195.699 103.8L191.949 105.413C191.466 105.662 191.224 106.158 191.466 106.654C191.587 107.151 191.949 107.275 192.312 107.275Z" fill="#231F20"/>
<path d="M186.023 110.005C186.144 110.005 186.265 110.005 186.386 109.881L190.135 108.268C190.618 108.019 190.86 107.523 190.618 107.027C190.377 106.53 189.893 106.282 189.409 106.53L185.66 108.144C185.176 108.392 184.934 108.888 185.176 109.384C185.297 109.757 185.66 110.005 186.023 110.005Z" fill="#231F20"/>
<path d="M179.733 112.735C179.854 112.735 179.975 112.735 180.095 112.611L183.845 110.998C184.328 110.75 184.57 110.253 184.328 109.757C184.087 109.26 183.603 109.012 183.119 109.26L179.37 110.874C178.886 111.122 178.644 111.618 178.886 112.115C179.007 112.487 179.37 112.735 179.733 112.735Z" fill="#231F20"/>
<path d="M173.445 115.465C173.566 115.465 173.687 115.465 173.808 115.341L177.557 113.728C178.041 113.48 178.283 112.983 178.041 112.487C177.799 111.991 177.315 111.742 176.831 111.991L173.082 113.604C172.598 113.852 172.357 114.348 172.598 114.845C172.84 115.217 173.203 115.465 173.445 115.465Z" fill="#231F20"/>
<path d="M167.277 118.195C167.398 118.195 167.518 118.195 167.639 118.071L171.389 116.458C171.872 116.21 172.114 115.713 171.872 115.217C171.631 114.721 171.147 114.472 170.663 114.721L166.914 116.334C166.43 116.582 166.188 117.078 166.43 117.575C166.551 117.947 166.914 118.195 167.277 118.195Z" fill="#231F20"/>
<path d="M160.987 120.801C161.108 120.801 161.229 120.801 161.35 120.677L165.099 119.064C165.583 118.816 165.825 118.319 165.583 117.823C165.341 117.327 164.857 117.078 164.373 117.327L160.624 118.94C160.14 119.188 159.899 119.684 160.14 120.181C160.261 120.677 160.624 120.801 160.987 120.801Z" fill="#231F20"/>
<path d="M209.124 99.705C209.608 99.705 210.092 99.5809 210.576 99.4568C211.906 99.0845 212.994 98.0918 213.72 96.8508C214.325 95.6098 214.567 94.1207 214.083 92.7556C213.72 91.3906 212.753 90.2737 211.543 89.5291C210.334 88.9087 208.882 88.6605 207.552 89.1569C206.222 89.5291 205.133 90.5219 204.408 91.7629C203.803 93.0038 203.561 94.493 204.045 95.858C204.408 97.2231 205.375 98.34 206.585 99.0845C207.431 99.4568 208.278 99.705 209.124 99.705ZM210.092 97.7195C209.245 97.9677 208.278 97.8436 207.552 97.4713C206.705 96.9749 206.222 96.3544 205.859 95.3617C205.617 94.493 205.738 93.5002 206.101 92.7556C206.585 91.887 207.31 91.3906 208.157 91.0183C209.003 90.7701 209.971 90.8942 210.697 91.2665C211.543 91.7629 212.027 92.3833 212.39 93.3761C212.632 94.2448 212.511 95.2376 212.148 95.9821C211.664 96.8508 210.938 97.3472 210.092 97.7195Z" fill="#231F20"/>
</g>
</g>
<path opacity="0.98" d="M206.687 99.007C207.685 97.8657 207.685 96.0152 206.688 94.8738C205.69 93.7324 204.072 93.7325 203.075 94.8738C202.077 96.0152 202.077 97.8657 203.075 99.007C204.072 100.148 205.69 100.148 206.687 99.007Z" fill="white"/>
<path opacity="0.98" d="M106.082 108.776C107.08 107.635 107.08 105.784 106.082 104.643C105.084 103.502 103.467 103.502 102.469 104.643C101.472 105.784 101.472 107.635 102.469 108.776C103.467 109.918 105.084 109.918 106.082 108.776Z" fill="white"/>
<path opacity="0.5" d="M197.493 78.0902C197.767 78.4035 197.712 78.8421 197.493 79.0927C197.219 79.406 196.836 79.3433 196.616 79.0927C196.343 78.7794 196.397 78.3408 196.616 78.0902C196.781 77.7769 197.219 77.7769 197.493 78.0902Z" fill="white"/>
<path opacity="0.65" d="M229.13 68.446C229.568 68.947 229.568 69.6986 229.13 70.1996C228.692 70.7005 228.035 70.7005 227.597 70.1995C227.159 69.6985 227.159 68.9471 227.597 68.4461C228.035 67.9451 228.692 67.945 229.13 68.446Z" fill="white"/>
</g>
<defs>
<linearGradient id="paint0_linear_223_2623" x1="183.14" y1="186.734" x2="140.385" y2="55.3563" gradientUnits="userSpaceOnUse">
<stop offset="0.00526316" stop-color="#292EF9"/>
<stop offset="0.9895" stop-color="#9181FA"/>
</linearGradient>
</defs>
</svg>
