<svg width="20" height="26" viewBox="0 0 20 26" fill="none" xmlns="http://www.w3.org/2000/svg">
<path d="M6.5625 1.75C6.5625 1.23223 6.98223 0.8125 7.5 0.8125H12.5C13.0178 0.8125 13.4375 1.23223 13.4375 1.75V2.6875H18.75C19.2678 2.6875 19.6875 3.10723 19.6875 3.625C19.6875 4.14277 19.2678 4.5625 18.75 4.5625H1.25C0.732233 4.5625 0.3125 4.14277 0.3125 3.625C0.3125 3.10723 0.732233 2.6875 1.25 2.6875H6.5625V1.75Z" fill="#4778EC"/>
<path fill-rule="evenodd" clip-rule="evenodd" d="M2.79987 7.93098C2.83504 7.61446 3.10258 7.375 3.42105 7.375H16.5789C16.8974 7.375 17.1649 7.61446 17.2001 7.93098L17.4503 10.1827C17.9013 14.2414 17.9013 18.3376 17.4503 22.3963L17.4257 22.618C17.2614 24.0962 16.1158 25.2749 14.6428 25.4811C11.5626 25.9123 8.43737 25.9123 5.35717 25.4811C3.88421 25.2749 2.73856 24.0962 2.57431 22.618L2.54968 22.3963C2.09871 18.3376 2.09871 14.2414 2.54968 10.1827L2.79987 7.93098ZM13.1629 13.5871C13.529 13.9532 13.529 14.5468 13.1629 14.9129L11.3258 16.75L13.1629 18.5871C13.529 18.9532 13.529 19.5468 13.1629 19.9129C12.7968 20.279 12.2032 20.279 11.8371 19.9129L10 18.0758L8.16292 19.9129C7.79681 20.279 7.20321 20.279 6.8371 19.9129C6.47098 19.5468 6.47098 18.9532 6.8371 18.5871L8.67418 16.75L6.83709 14.9129C6.47097 14.5468 6.47097 13.9532 6.83709 13.5871C7.2032 13.221 7.7968 13.221 8.16291 13.5871L10 15.4242L11.8371 13.5871C12.2032 13.221 12.7968 13.221 13.1629 13.5871Z" fill="#4778EC"/>
</svg>
