<svg width="31" height="31" viewBox="0 0 31 31" fill="none" xmlns="http://www.w3.org/2000/svg">
<path d="M29.6326 5.12629C29.4823 3.17183 27.9788 1.51805 25.874 1.3677C22.8672 1.06702 18.6575 0.916672 15.5003 0.916672C12.3431 0.916672 8.13349 1.06702 5.12661 1.3677C4.07421 1.3677 3.17215 1.81873 2.57077 2.57045C1.9694 3.32217 1.51837 4.07389 1.36802 5.12629C1.06734 8.13317 0.916992 12.3428 0.916992 15.5C0.916992 18.6572 1.21768 22.8668 1.36802 25.8737C1.51837 27.8282 3.0218 29.482 5.12661 29.6323C8.13349 29.933 12.3431 30.0833 15.5003 30.0833C18.6575 30.0833 22.8672 29.7827 25.874 29.6323C27.8285 29.482 29.4823 27.9785 29.6326 25.8737C29.9333 22.8668 30.0837 18.6572 30.0837 15.5C30.0837 12.3428 29.9333 8.13317 29.6326 5.12629ZM12.7941 15.8007L17.7555 20.762C18.2065 21.2131 18.2065 21.9648 17.7555 22.4158C17.4548 22.5662 17.3044 22.7165 17.0038 22.7165C16.7031 22.7165 16.4024 22.5662 16.252 22.4158L11.2907 17.4545C10.2383 16.4021 10.2383 14.7483 11.2907 13.6959L16.252 8.73454C16.7031 8.28351 17.4548 8.28351 17.9058 8.73454C18.3569 9.18557 18.3569 9.93729 17.9058 10.3883L12.9445 15.3497C12.6438 15.3497 12.6438 15.6503 12.7941 15.8007Z" fill="#4778EC"/>
</svg>
