<svg width="1920" height="126" viewBox="0 0 1920 126" fill="none" xmlns="http://www.w3.org/2000/svg">
<rect width="1920" height="100" fill="#84F1DE"/>
<g opacity="0.2">
<path d="M1176.27 84.362L1153.09 61.175C1152.72 60.8069 1152.62 60.172 1153.06 59.7272L1162.67 50.1202C1162.94 49.8533 1163.21 49.7674 1163.48 49.8625C1163.75 49.9576 1164.12 50.1447 1164.12 50.5066C1164.69 51.7825 1165.43 52.8806 1166.71 53.6258C1168.72 54.9262 1171.44 54.9721 1173.4 53.558C1174.92 52.5887 1175.8 50.9753 1175.95 49.1687C1176.09 46.4572 1174.5 43.8072 1171.86 42.7676C1171.59 42.6725 1171.31 42.3965 1171.22 42.1235C1171.12 41.8505 1171.3 41.4917 1171.48 41.3137L1181.26 31.5288C1181.62 31.173 1182.25 31.0932 1182.71 31.5533L1191.82 40.6624C1192.17 40.1257 1192.52 39.5889 1193.06 39.0552C1194.75 37.365 1197 36.5889 1199.35 36.8096C1201.71 37.0303 1203.9 38.3338 1205.38 40.3489C1207.23 42.913 1207.3 46.5323 1205.71 49.2193C1205.01 50.2929 1204.12 51.1824 1203.04 51.8879L1212.15 60.9971C1212.52 61.3652 1212.62 62.0001 1212.18 62.4448L1189.67 84.9502C1186.02 88.2354 1180.05 88.1345 1176.27 84.362ZM1155.07 60.4847L1177.61 83.0277C1180.65 86.0641 1185.35 86.1436 1188.29 83.2081L1210.08 61.4144L1200.69 52.0291C1200.42 51.7531 1200.32 51.4801 1200.41 51.2102C1200.5 50.9403 1200.67 50.5814 1201.03 50.5875C1202.29 50.066 1203.36 49.3605 1204.07 48.106C1205.3 46.1368 1205.25 43.4223 1203.77 41.4072C1202.75 39.8521 1201.01 38.8278 1199.29 38.7082C1197.48 38.4967 1195.77 39.101 1194.44 40.4353C1193.82 41.058 1193.28 41.7727 1193.03 42.5825C1192.94 42.8524 1192.67 43.1193 1192.4 43.2051C1192.13 43.291 1191.77 43.104 1191.59 42.9199L1182.11 33.4427L1173.92 41.6265C1174.47 41.9976 1175.02 42.3687 1175.57 42.9208C1177.32 44.669 1178.18 46.9448 1178.03 49.2943C1177.89 51.6438 1176.66 53.794 1174.7 55.2081C1172.19 56.975 1168.57 56.9138 1165.83 55.2392C1164.73 54.497 1163.81 53.5769 1163.07 52.4789L1155.07 60.4847Z" fill="#4778EC"/>
<path d="M1189.24 75.4449C1188.87 75.0769 1188.77 74.442 1189.22 73.9972L1202.2 61.0099C1202.56 60.6541 1203.19 60.5743 1203.65 61.0343C1204.02 61.4024 1204.12 62.0373 1203.68 62.4821L1190.6 75.5583C1190.24 75.9141 1189.61 75.813 1189.24 75.4449Z" fill="#4778EC"/>
<path d="M1182.72 80.1289C1182.53 79.9449 1182.44 79.8529 1182.43 79.4909C1182.42 78.948 1182.69 78.5002 1183.23 78.5094C1183.23 78.5094 1183.41 78.5124 1183.68 78.4265C1183.95 78.3406 1184.22 78.2547 1184.58 78.0799C1185.21 77.8191 1185.75 77.4664 1185.84 77.3774C1186.19 77.0216 1186.83 77.1228 1187.19 77.4909C1187.56 77.8589 1187.48 78.4908 1187.13 78.8466C1187.04 78.9355 1186.32 79.4662 1185.42 79.8128C1185.07 79.9877 1184.53 80.1595 1184.16 80.1534C1183.89 80.2393 1183.53 80.2331 1183.53 80.2331C1183.27 80.5 1182.99 80.4049 1182.72 80.1289Z" fill="#4778EC"/>
<path d="M1176.44 77.9423C1176.07 77.5742 1176.06 77.0313 1176.32 76.5835C1176.68 76.2277 1177.31 76.1479 1177.68 76.516L1178.05 76.884C1178.23 77.068 1178.51 77.3441 1178.87 77.5312C1179.42 77.9023 1180.06 78.1844 1180.15 78.2764C1180.7 78.4666 1180.89 79.0125 1180.72 79.5524C1180.55 80.0922 1180.01 80.264 1179.46 80.0739C1179.46 80.0739 1178.55 79.6966 1177.82 79.1415C1177.36 78.8624 1176.99 78.4944 1176.81 78.3103L1176.44 77.9423Z" fill="#4778EC"/>
<path d="M1173.95 75.458L1171.56 73.0656C1171.19 72.6976 1171.09 72.0627 1171.54 71.6179C1171.98 71.1731 1172.52 71.1823 1172.98 71.6424L1175.38 74.0347C1175.74 74.4027 1175.85 75.0376 1175.4 75.4824C1174.96 75.9272 1174.32 75.826 1173.95 75.458Z" fill="#4778EC"/>
<path d="M1168.98 70.4893L1166.59 68.097C1166.22 67.7289 1166.12 67.094 1166.57 66.6493C1167.01 66.2045 1167.56 66.2137 1168.02 66.6737L1170.41 69.066C1170.78 69.4341 1170.88 70.069 1170.43 70.5138C1169.99 70.9585 1169.35 70.8574 1168.98 70.4893Z" fill="#4778EC"/>
<path d="M1164.11 65.6127L1161.72 63.2204C1161.35 62.8523 1161.25 62.2174 1161.69 61.7726C1162.14 61.3279 1162.68 61.337 1163.14 61.7971L1165.53 64.1894C1165.9 64.5575 1166 65.1924 1165.56 65.6371C1165.11 66.0819 1164.48 65.9807 1164.11 65.6127Z" fill="#4778EC"/>
</g>
<g opacity="0.3" clip-path="url(#clip0_1295_14875)">
<path d="M827.867 72.5203C827.57 72.5203 827.273 72.2244 827.124 71.9284L826.083 67.1933C825.191 63.3461 822.218 60.2387 818.204 59.3508L813.446 58.315C813.149 58.315 812.852 57.8711 812.852 57.5752C812.852 57.2792 813.149 56.9833 813.446 56.8353L818.204 55.7995C822.069 54.9117 825.191 51.9523 826.083 47.957L827.124 43.222C827.124 42.926 827.57 42.6301 827.867 42.6301C828.165 42.6301 828.462 42.926 828.611 43.222L829.652 47.957C830.544 51.8043 833.517 54.9117 837.531 55.7995L842.289 56.8353C842.586 56.8353 842.883 57.2792 842.883 57.5752C842.883 57.8711 842.586 58.1671 842.289 58.315L837.531 59.3508C833.666 60.2387 830.544 63.1981 829.652 67.1933L828.611 71.9284C828.611 72.2244 828.314 72.5203 827.867 72.5203ZM817.312 57.7232L818.65 58.0191C823.11 58.9069 826.678 62.4582 827.57 66.8974L827.867 68.2291L828.165 66.8974C829.057 62.4582 832.625 58.9069 837.085 58.0191L838.423 57.7232L837.085 57.4272C832.625 56.5394 829.057 52.9881 828.165 48.5489L827.867 47.2172L827.57 48.5489C826.678 52.9881 823.11 56.5394 818.65 57.4272L817.312 57.7232Z" fill="#EFDA48"/>
<path d="M858.048 48.8449C857.751 48.8449 857.453 48.5489 857.305 48.253L855.967 42.3342C854.926 37.3031 851.06 33.4559 846.005 32.4201L840.059 31.0883C839.761 31.0883 839.464 30.6444 839.464 30.3485C839.464 30.0525 839.761 29.7566 840.059 29.6086L846.005 28.2769C851.06 27.2411 854.926 23.3938 855.967 18.3628L857.305 12.4439C857.305 12.148 857.751 11.8521 858.048 11.8521C858.345 11.8521 858.643 12.148 858.791 12.4439L860.129 18.3628C861.17 23.3938 865.184 27.2411 870.09 28.2769L876.037 29.4606C876.335 29.4606 876.632 29.9046 876.632 30.2005C876.632 30.4964 876.335 30.7924 876.037 30.9404L870.09 32.2721C865.036 33.3079 861.17 37.1552 860.129 42.1862L858.791 48.105C858.791 48.6969 858.494 48.8449 858.048 48.8449ZM843.924 30.4964L846.451 31.0883C851.952 32.2721 856.413 36.5633 857.602 42.1862L858.197 44.7017L858.791 42.1862C859.981 36.7112 864.292 32.2721 869.942 31.0883L872.469 30.4964L869.942 29.9046C864.441 28.7208 859.981 24.4296 858.791 18.8067L858.197 16.2912L857.602 18.8067C856.413 24.2816 852.101 28.7208 846.451 29.9046L843.924 30.4964Z" fill="#EFDA48"/>
<path d="M885.998 74C885.701 74 885.404 73.7041 885.255 73.4081L884.512 70.0048C883.917 67.1933 881.836 65.1217 879.011 64.5298L875.591 63.79C875.294 63.79 874.997 63.3461 874.997 63.0501C874.997 62.7542 875.294 62.4582 875.591 62.3103L879.011 61.5704C881.836 60.9785 883.917 58.9069 884.512 56.0955L885.255 52.6921C885.255 52.3962 885.701 52.1003 885.998 52.1003C886.296 52.1003 886.593 52.3962 886.742 52.6921L887.485 56.0955C888.08 58.9069 890.31 60.9785 892.986 61.5704L896.405 62.3103C896.703 62.3103 897 62.7542 897 63.0501C897 63.3461 896.703 63.642 896.405 63.79L892.986 64.5298C890.161 65.1217 888.08 67.1933 887.485 70.0048L886.742 73.4081C886.742 73.7041 886.444 74 885.998 74ZM879.308 63.0501C882.728 63.79 885.255 66.3055 885.998 69.7088C886.742 66.4535 889.269 63.79 892.689 63.0501C889.418 62.3103 886.742 59.7948 885.998 56.3914C885.255 59.6468 882.728 62.3103 879.308 63.0501Z" fill="#EFDA48"/>
</g>
<g opacity="0.2" clip-path="url(#clip1_1295_14875)">
<path d="M737.799 36.4524C740.569 33.5671 745.235 33.4724 748.12 36.2429C751.005 39.0133 751.1 43.6792 748.33 46.5645C745.559 49.4497 740.893 49.5444 738.008 46.774C735.051 43.9343 735.028 39.3376 737.799 36.4524ZM747.176 45.4563C749.392 43.1481 749.317 39.4719 747.009 37.2556C744.701 35.0392 741.025 35.1138 738.808 37.422C736.592 39.7302 736.667 43.4064 738.975 45.6228C741.283 47.8391 744.959 47.7645 747.176 45.4563Z" fill="#231F20"/>
<path d="M739.674 38.2531C739.951 37.9646 740.445 37.8839 740.805 38.2302L746.504 43.7018C746.792 43.9789 746.873 44.4723 746.526 44.833C746.18 45.1936 745.756 45.2022 745.395 44.8559L739.697 39.3843C739.336 39.038 739.397 38.5417 739.674 38.2531Z" fill="#231F20"/>
<path d="M739.717 43.8396L745.188 38.1412C745.465 37.8527 745.959 37.772 746.319 38.1183C746.608 38.3953 746.689 38.8887 746.342 39.2494L740.871 44.9478C740.594 45.2363 740.1 45.317 739.74 44.9707C739.448 44.5523 739.44 44.1281 739.717 43.8396Z" fill="#231F20"/>
<path d="M755.827 18.688C755.896 18.6159 755.896 18.6159 755.965 18.5438C755.965 18.5438 756.104 18.3995 756.453 18.1802L759.085 15.4393C759.362 15.1507 759.786 15.1421 760.147 15.4884C760.435 15.7655 760.516 16.2589 760.239 16.5474L757.538 19.3606C757.191 19.7212 756.911 19.8683 756.842 19.9405C756.493 20.1597 755.997 20.0991 755.777 19.7499C755.558 19.4007 755.55 18.9766 755.827 18.688Z" fill="#231F20"/>
<path d="M749.019 17.836C749.227 17.6196 749.649 17.4696 749.937 17.7467C749.937 17.7467 750.295 17.9516 750.583 18.2286C750.8 18.4364 751.233 18.852 751.66 18.9848C752.231 19.2561 752.727 19.3167 752.941 19.3831C753.154 19.4495 753.296 19.4467 753.365 19.3745L753.648 19.3688C754.072 19.3602 754.433 19.7065 754.441 20.1306C754.45 20.5548 754.103 20.9155 753.679 20.9241L753.538 20.927C753.396 20.9298 753.114 20.9356 752.9 20.8692C752.545 20.8057 751.835 20.6786 751.192 20.3381C750.621 20.0667 750.047 19.6541 749.758 19.377C749.542 19.1692 749.325 18.9614 749.256 19.0336C748.898 18.8287 748.817 18.3352 749.022 17.9774C748.95 17.9082 749.019 17.836 749.019 17.836Z" fill="#231F20"/>
<path d="M742.325 19.0328L742.81 18.5279C743.295 18.023 743.782 17.6594 744.273 17.4373C744.902 17.0709 745.606 16.9152 745.958 16.8373C746.451 16.7566 746.734 16.7508 746.806 16.8201C747.231 16.8115 747.591 17.1578 747.6 17.582C747.608 18.0061 747.262 18.3668 746.838 18.3754C746.838 18.3754 746.555 18.3811 746.272 18.3869C746.062 18.4619 745.568 18.5426 745.008 18.8369C744.659 19.0561 744.31 19.2754 743.964 19.6361L743.479 20.141C743.202 20.4295 742.709 20.5102 742.348 20.1639C741.987 19.8176 742.048 19.3213 742.325 19.0328Z" fill="#231F20"/>
<path d="M737.13 24.4426L740.316 21.1246C740.593 20.8361 741.087 20.7553 741.447 21.1016C741.808 21.4479 741.817 21.8721 741.47 22.2328L738.284 25.5508C738.007 25.8393 737.514 25.9201 737.153 25.5738C736.793 25.2275 736.853 24.7312 737.13 24.4426Z" fill="#231F20"/>
<path d="M730.422 24.9324C730.699 24.6439 731.123 24.6353 731.481 24.8402C731.481 24.8402 731.697 25.048 731.983 25.1837C732.127 25.3222 732.626 25.5242 733.194 25.6541C733.763 25.784 734.187 25.7754 734.47 25.7697C734.822 25.6918 735.105 25.6861 735.105 25.6861C735.526 25.5361 735.956 25.8103 736.034 26.1623C736.184 26.5836 735.91 27.0135 735.558 27.0914C735.558 27.0914 735.206 27.1693 734.712 27.25C734.219 27.3308 733.509 27.2037 732.871 27.1459C732.089 26.9496 731.518 26.6783 731.229 26.4013C730.799 26.1271 730.583 25.9193 730.583 25.9193C730.084 25.7173 730.075 25.2931 730.422 24.9324Z" fill="#231F20"/>
<path d="M725.012 19.7378C725.289 19.4493 725.782 19.3686 726.143 19.7149L729.461 22.9009C729.75 23.1779 729.83 23.6714 729.484 24.032C729.207 24.3206 728.714 24.4013 728.353 24.055L725.035 20.869C724.674 20.5227 724.666 20.0985 725.012 19.7378Z" fill="#231F20"/>
<path d="M755.216 33.9064L765.744 22.9424C767.06 21.5719 769.25 21.4568 770.692 22.842C771.269 23.3961 771.566 24.0973 771.722 24.8014C772.501 24.8563 773.145 25.1969 773.722 25.751C774.299 26.305 774.596 27.0063 774.752 27.7104C775.531 27.7653 776.174 28.1058 776.751 28.6599C778.122 29.9759 778.237 32.166 776.852 33.6086L766.324 44.5726C765.008 45.9431 762.818 46.0582 761.375 44.673C760.798 44.1189 760.501 43.4177 760.345 42.7136C759.566 42.6587 758.923 42.3181 758.346 41.764C757.769 41.21 757.472 40.5087 757.316 39.8046C756.537 39.7497 755.893 39.4092 755.316 38.8551C753.943 37.3977 753.9 35.2768 755.216 33.9064ZM775.698 32.5005C776.46 31.707 776.434 30.4345 775.64 29.6726C775.207 29.2571 774.639 29.1271 774.073 29.1386C773.863 29.2136 773.577 29.078 773.433 28.9395C773.289 28.8009 773.214 28.5903 773.208 28.3075C773.266 27.6698 773.044 27.1792 772.611 26.7637C772.178 26.3481 771.61 26.2182 771.044 26.2297C770.833 26.3047 770.548 26.169 770.403 26.0305C770.259 25.892 770.184 25.6813 770.178 25.3985C770.236 24.7608 770.014 24.2703 769.581 23.8547C768.788 23.0928 767.515 23.1186 766.753 23.9121L756.226 34.876C755.464 35.6694 755.49 36.942 756.283 37.7039C756.716 38.1194 757.284 38.2493 757.85 38.2379C758.061 38.1628 758.346 38.2985 758.49 38.437C758.635 38.5755 758.71 38.7862 758.715 39.069C758.658 39.7067 758.88 40.1973 759.313 40.6128C759.745 41.0284 760.314 41.1583 760.879 41.1468C761.09 41.0718 761.376 41.2075 761.52 41.346C761.664 41.4845 761.739 41.6952 761.745 41.978C761.687 42.6157 761.909 43.1062 762.342 43.5218C763.136 44.2837 764.408 44.2578 765.17 43.4644L775.698 32.5005Z" fill="#231F20"/>
<path d="M775.25 66.1748C781.237 71.9235 790.71 71.7312 796.458 65.7443C802.207 59.7574 802.015 50.2841 796.028 44.5355C792.421 41.0724 787.516 39.8282 783.006 40.627L777.163 35.0168L764.973 47.7119L770.816 53.3221C770.201 57.861 771.643 62.7117 775.25 66.1748Z" fill="#EFDA48"/>
<path d="M764.339 44.33L776.529 31.6349C776.806 31.3464 777.299 31.2656 777.66 31.6119L783.286 37.0143C788.151 36.279 793.063 37.806 796.597 41.1998C802.872 47.2256 803.076 57.2644 797.05 63.5398C791.025 69.8152 781.055 69.9468 774.78 63.9211C771.245 60.5273 769.52 55.6823 770.057 50.7913L764.431 45.389C764.071 45.0427 764.062 44.6185 764.339 44.33ZM777.126 33.1787L765.975 44.7918L771.313 49.9172C771.457 50.0557 771.604 50.3356 771.538 50.5491C770.923 55.088 772.501 59.6531 775.746 62.7699C781.445 68.2415 790.494 68.0579 795.896 62.4316C801.368 56.7333 801.184 47.6842 795.486 42.2125C792.24 39.0958 787.542 37.6352 783.104 38.5032C782.894 38.5782 782.608 38.4426 782.464 38.3041L777.126 33.1787Z" fill="#231F20"/>
<path d="M760.13 35.5747L762 33.6272C762.277 33.3387 762.77 33.2579 763.131 33.6042C763.492 33.9505 763.5 34.3747 763.154 34.7354L761.284 36.6829C761.007 36.9714 760.513 37.0522 760.153 36.7059C759.792 36.3596 759.853 35.8633 760.13 35.5747Z" fill="#231F20"/>
<path d="M764.216 31.319L768.58 26.7747C768.857 26.4862 769.35 26.4055 769.711 26.7518C770.072 27.0981 769.939 27.5251 769.662 27.8137L765.298 32.3579C765.021 32.6464 764.528 32.7272 764.167 32.3809C763.806 32.0346 763.87 31.6797 764.216 31.319Z" fill="#231F20"/>
<path d="M770.715 30.9042L772.031 29.5337C772.308 29.2452 772.801 29.1645 773.162 29.5108C773.522 29.8571 773.531 30.2812 773.185 30.6419L771.869 32.0124C771.592 32.3009 771.098 32.3817 770.738 32.0353C770.377 31.689 770.438 31.1927 770.715 30.9042Z" fill="#231F20"/>
<path d="M766.42 35.3763L768.221 33.5009C768.498 33.2124 768.991 33.1317 769.352 33.478C769.713 33.8243 769.721 34.2485 769.375 34.6091L767.574 36.4845C767.297 36.773 766.804 36.8538 766.443 36.5075C766.083 36.1612 766.143 35.6649 766.42 35.3763Z" fill="#231F20"/>
<path d="M762.195 39.7763L763.858 38.0452C764.135 37.7567 764.628 37.6759 764.989 38.0222C765.35 38.3685 765.358 38.7927 765.012 39.1534L763.35 40.8845C763.073 41.173 762.579 41.2538 762.218 40.9075C761.858 40.5612 761.918 40.0649 762.195 39.7763Z" fill="#231F20"/>
<path d="M756.933 27.9306L759.912 24.8289C761.297 23.3863 763.628 23.2683 765.143 24.7227C765.432 24.9998 765.512 25.4932 765.166 25.8539L758.171 33.1391C757.894 33.4277 757.4 33.5084 757.04 33.1621C755.525 31.7076 755.479 29.4453 756.933 27.9306ZM763.389 25.3949C762.604 25.0572 761.617 25.2187 760.994 25.8679L758.015 28.9695C757.392 29.6187 757.271 30.6113 757.64 31.3818L763.389 25.3949Z" fill="#231F20"/>
<path d="M799.935 66.3102C800.212 66.0217 800.706 65.941 801.067 66.2873L806.837 71.8282C807.126 72.1052 807.206 72.5987 806.86 72.9593C806.583 73.2478 806.089 73.3286 805.729 72.9823L799.958 67.4414C799.667 67.0229 799.658 66.5988 799.935 66.3102Z" fill="#231F20"/>
<path d="M813.305 59.4614L805.557 57.5677L813.305 59.4614Z" fill="white"/>
<path d="M805.052 57.0828C805.26 56.8664 805.471 56.7914 805.826 56.855L813.573 58.7487C814 58.8815 814.22 59.2307 814.087 59.6577C813.954 60.0848 813.605 60.3041 813.178 60.1713L805.43 58.2775C805.003 58.1447 804.784 57.7955 804.917 57.3685C804.914 57.2271 804.983 57.155 805.052 57.0828Z" fill="#231F20"/>
<path d="M813.079 44.8259L805.414 47.0325L813.079 44.8259Z" fill="white"/>
<path d="M804.837 46.4784C804.907 46.4063 805.045 46.262 805.187 46.2591L812.851 44.0525C813.272 43.9025 813.702 44.1767 813.78 44.5288C813.93 44.9501 813.656 45.38 813.304 45.4579L805.639 47.6645C805.218 47.8145 804.788 47.5403 804.71 47.1882C804.563 46.9083 804.63 46.6948 804.837 46.4784Z" fill="#231F20"/>
<path d="M799.35 37.4662L804.891 31.6957C805.168 31.4072 805.661 31.3265 806.022 31.6728C806.311 31.9498 806.391 32.4433 806.045 32.8039L800.504 38.5744C800.227 38.8629 799.734 38.9437 799.373 38.5974C799.082 38.1789 799.073 37.7547 799.35 37.4662Z" fill="#231F20"/>
<path d="M799.935 66.3102C800.212 66.0217 800.706 65.941 801.067 66.2873L806.837 71.8282C807.126 72.1052 807.206 72.5987 806.86 72.9593C806.583 73.2478 806.089 73.3286 805.729 72.9823L799.958 67.4414C799.667 67.0229 799.658 66.5988 799.935 66.3102Z" fill="#231F20"/>
<path d="M793.635 79.9467L791.428 72.2824L793.635 79.9467Z" fill="white"/>
<path d="M790.924 71.7976C790.993 71.7254 791.131 71.5812 791.273 71.5783C791.694 71.4283 792.124 71.7025 792.202 72.0545L794.408 79.7188C794.558 80.1401 794.284 80.57 793.932 80.6479C793.511 80.7979 793.081 80.5237 793.003 80.1717L790.796 72.5074C790.649 72.2275 790.785 71.9418 790.924 71.7976Z" fill="#231F20"/>
<path d="M779.002 80.3144L780.896 72.5669L779.002 80.3144Z" fill="white"/>
<path d="M780.388 71.9407C780.596 71.7243 780.807 71.6493 781.162 71.7128C781.589 71.8456 781.808 72.1948 781.675 72.6218L779.781 80.3693C779.649 80.7963 779.3 81.0156 778.872 80.8828C778.445 80.75 778.226 80.4009 778.359 79.9738L780.253 72.2263C780.181 72.1571 780.25 72.0849 780.388 71.9407Z" fill="#231F20"/>
<path d="M765.551 72.6662L771.092 66.8957C771.369 66.6072 771.862 66.5264 772.223 66.8727C772.511 67.1498 772.592 67.6432 772.246 68.0039L766.705 73.7744C766.428 74.0629 765.934 74.1436 765.574 73.7973C765.282 73.3789 765.274 72.9547 765.551 72.6662Z" fill="#231F20"/>
<path d="M788.459 41.0114C788.667 40.795 789.019 40.7171 789.377 40.922C793.668 43.2396 796.276 46.2986 797.057 49.9604C798.306 55.7345 794.661 60.83 794.523 60.9743C794.318 61.332 793.824 61.4128 793.536 61.1357C793.178 60.9308 793.097 60.4374 793.374 60.1489C793.444 60.0767 796.814 55.4112 795.649 50.2719C794.948 47.1035 792.559 44.3937 788.768 42.2782C788.41 42.0732 788.26 41.6519 788.465 41.2941C788.39 41.0835 788.39 41.0835 788.459 41.0114Z" fill="#231F20"/>
<path d="M686.841 -0.139157C687.118 -0.427682 687.611 -0.50842 687.972 -0.162114L690.208 1.98499C690.497 2.26203 690.577 2.75547 690.231 3.11613C689.954 3.40465 689.461 3.48539 689.1 3.13909L686.864 0.991985C686.575 0.71494 686.564 0.149367 686.841 -0.139157Z" fill="#231F20"/>
<path d="M692.251 5.05543C692.528 4.7669 693.022 4.68617 693.382 5.03247L695.618 7.17957C695.907 7.45662 695.988 7.95005 695.641 8.31071C695.364 8.59923 694.871 8.67998 694.51 8.33367L692.274 6.18657C691.913 5.84026 691.974 5.34395 692.251 5.05543Z" fill="#231F20"/>
<path d="M695.049 10.5152C695.326 10.2267 695.82 10.1459 696.18 10.4922L698.344 12.5701C698.633 12.8471 698.714 13.3406 698.367 13.7012C698.09 13.9897 697.597 14.0705 697.236 13.7242L695 11.5771C694.712 11.3 694.772 10.8037 695.049 10.5152Z" fill="#231F20"/>
<path d="M700.387 15.6405C700.664 15.352 701.157 15.2713 701.518 15.6176L703.754 17.7647C704.043 18.0417 704.123 18.5351 703.777 18.8958C703.5 19.1843 703.006 19.2651 702.646 18.9188L700.41 16.7717C700.049 16.4254 700.11 15.9291 700.387 15.6405Z" fill="#231F20"/>
<path d="M705.725 20.7659C706.002 20.4773 706.495 20.3966 706.856 20.7429L709.092 22.89C709.38 23.167 709.461 23.6605 709.115 24.0211C708.838 24.3096 708.344 24.3904 707.984 24.0441L705.748 21.897C705.387 21.5507 705.448 21.0544 705.725 20.7659Z" fill="#231F20"/>
<path d="M711.063 25.8912C711.34 25.6026 711.833 25.5219 712.194 25.8682L714.43 28.0153C714.718 28.2924 714.799 28.7858 714.453 29.1464C714.176 29.435 713.682 29.5157 713.322 29.1694L711.086 27.0223C710.797 26.7453 710.786 26.1797 711.063 25.8912Z" fill="#231F20"/>
<path d="M716.4 31.0165C716.677 30.728 717.17 30.6472 717.531 30.9935L719.767 33.1406C720.056 33.4177 720.136 33.9111 719.79 34.2718C719.513 34.5603 719.02 34.641 718.659 34.2947L716.423 32.1476C716.134 31.8706 716.123 31.305 716.4 31.0165Z" fill="#231F20"/>
<path d="M721.81 36.2111C722.087 35.9226 722.58 35.8418 722.941 36.1881L725.177 38.3352C725.465 38.6123 725.546 39.1057 725.2 39.4664C724.923 39.7549 724.429 39.8356 724.069 39.4893L721.76 37.273C721.472 36.9959 721.533 36.4996 721.81 36.2111Z" fill="#231F20"/>
<path d="M727.148 41.3364C727.425 41.0479 727.918 40.9672 728.279 41.3135L730.515 43.4606C730.803 43.7376 730.884 44.231 730.538 44.5917C730.261 44.8802 729.767 44.961 729.407 44.6147L727.171 42.4676C726.81 42.1213 726.87 41.6249 727.148 41.3364Z" fill="#231F20"/>
<path d="M732.485 46.4617C732.762 46.1732 733.256 46.0925 733.617 46.4388L735.853 48.5859C736.141 48.8629 736.222 49.3564 735.876 49.717C735.599 50.0055 735.105 50.0863 734.744 49.74L732.508 47.5929C732.148 47.2466 732.208 46.7503 732.485 46.4617Z" fill="#231F20"/>
<path d="M738.674 51.7113C738.674 51.7113 739.318 52.0518 740.03 52.3203C740.388 52.5252 740.812 52.5166 741.026 52.5829C741.311 52.7186 741.594 52.7129 741.594 52.7129L738.674 51.7113Z" fill="white"/>
<path d="M738.169 51.2264C738.377 51.01 738.729 50.9322 739.015 51.0678C739.015 51.0678 739.658 51.4084 740.299 51.6075C740.512 51.6739 740.726 51.7403 740.939 51.8067C741.081 51.8038 741.153 51.8731 741.294 51.8702C741.508 51.9366 741.649 51.9338 741.649 51.9338C742.004 51.9973 742.365 52.3436 742.301 52.6985C742.31 53.1227 741.891 53.4141 741.536 53.3506C741.536 53.3506 741.254 53.3563 740.968 53.2206C740.827 53.2235 740.754 53.1542 740.613 53.1571C740.4 53.0907 740.045 53.0272 739.831 52.9608C739.118 52.6924 738.334 52.3547 738.334 52.3547C737.976 52.1498 737.826 51.7285 738.031 51.3707C738.031 51.3707 738.1 51.2985 738.169 51.2264Z" fill="#231F20"/>
<path d="M745.836 52.6268C745.836 52.6268 746.047 52.5518 746.257 52.4768C746.468 52.4018 746.889 52.2518 747.238 52.0325C747.94 51.7354 748.566 51.2276 748.566 51.2276L745.836 52.6268Z" fill="white"/>
<path d="M745.331 52.1419C745.4 52.0698 745.539 51.9255 745.68 51.9227C745.68 51.9227 745.891 51.8477 746.101 51.7727C746.453 51.6948 746.733 51.5477 747.013 51.4005C747.714 51.1034 748.202 50.7399 748.271 50.6677C748.621 50.4485 749.117 50.5091 749.336 50.8583C749.555 51.2075 749.495 51.7038 749.146 51.9231C749.146 51.9231 748.447 52.3616 747.677 52.7308C747.328 52.9501 746.906 53.1001 746.554 53.178C746.344 53.253 746.133 53.328 746.133 53.328C745.712 53.478 745.282 53.2038 745.204 52.8518C745.057 52.5718 745.123 52.3583 745.331 52.1419Z" fill="#231F20"/>
<path d="M751.183 47.7796L753.33 45.5436C753.607 45.255 754.101 45.1743 754.462 45.5206C754.75 45.7976 754.831 46.2911 754.484 46.6517L752.337 48.8878C752.06 49.1763 751.567 49.2571 751.206 48.9108C750.918 48.6337 750.906 48.0681 751.183 47.7796Z" fill="#231F20"/>
<path d="M756.886 42.996C756.886 42.996 757.44 42.419 757.925 41.9141C758.063 41.7698 758.202 41.6255 758.34 41.4813C758.479 41.337 758.476 41.1956 758.473 41.0542C758.467 40.7714 758.392 40.5608 758.392 40.5608L756.886 42.996Z" fill="white"/>
<path d="M757.815 40.0067C757.885 39.9346 757.954 39.8624 758.095 39.8596C758.444 39.6403 758.944 39.8423 759.094 40.2636C759.166 40.3329 759.244 40.6849 759.252 41.1091C759.186 41.3226 759.192 41.6054 758.987 41.9632C758.848 42.1075 758.71 42.2517 758.64 42.3239L758.502 42.4681L757.394 43.6222C757.117 43.9108 756.623 43.9915 756.263 43.6452C755.974 43.3681 755.893 42.8747 756.24 42.5141L757.417 41.2878C757.486 41.2157 757.556 41.1436 757.556 41.1436L757.625 41.0714C757.622 40.93 757.622 40.93 757.622 40.93C757.613 40.5059 757.608 40.2231 757.815 40.0067Z" fill="#231F20"/>
<path d="M756.872 38.8235C756.872 38.8235 756.445 38.6907 756.084 38.3444C755.723 37.9981 755.504 37.6489 755.504 37.6489L756.872 38.8235Z" fill="white"/>
<path d="M754.858 37.167C754.927 37.0948 754.927 37.0948 754.996 37.0227C755.345 36.8034 755.772 36.9362 755.992 37.2854C756.064 37.3547 756.211 37.6346 756.355 37.7731C756.572 37.9809 756.857 38.1165 756.927 38.0444C757.354 38.1772 757.504 38.5985 757.44 38.9534C757.307 39.3805 756.886 39.5305 756.531 39.4669C756.459 39.3977 755.891 39.2678 755.458 38.8522C754.956 38.5088 754.734 38.0182 754.661 37.9489C754.586 37.7383 754.65 37.3834 754.858 37.167Z" fill="#231F20"/>
<path d="M755.311 35.1067C755.311 35.1067 755.444 34.6797 755.79 34.319C756.137 33.9584 756.414 33.6699 756.414 33.6699L755.311 35.1067Z" fill="white"/>
<path d="M755.909 33.185C756.186 32.8965 756.61 32.8879 756.968 33.0928C757.256 33.3699 757.337 33.8633 757.06 34.1518L756.437 34.801C756.229 35.0174 756.093 35.303 756.024 35.3752C755.819 35.733 755.398 35.883 754.971 35.7502C754.613 35.5453 754.463 35.124 754.526 34.769C754.596 34.6969 754.798 34.1977 755.213 33.7649L755.909 33.185Z" fill="#231F20"/>
<path d="M757.779 31.2375L759.095 29.867C759.372 29.5785 759.865 29.4977 760.226 29.844C760.514 30.1211 760.595 30.6145 760.249 30.9752L758.933 32.3457C758.656 32.6342 758.162 32.7149 757.802 32.3686C757.441 32.0223 757.502 31.526 757.779 31.2375Z" fill="#231F20"/>
<path d="M760.895 27.9916L762.211 26.6211C762.488 26.3326 762.982 26.2518 763.342 26.5981C763.631 26.8752 763.712 27.3686 763.365 27.7293L762.049 29.0998C761.772 29.3883 761.279 29.469 760.918 29.1227C760.558 28.7764 760.618 28.2801 760.895 27.9916Z" fill="#231F20"/>
<path d="M764.012 24.7457L765.328 23.3752C765.605 23.0867 766.098 23.0059 766.459 23.3523C766.748 23.6293 766.828 24.1227 766.482 24.4834L765.166 25.8539C764.889 26.1424 764.396 26.2231 764.035 25.8768C763.744 25.4584 763.735 25.0342 764.012 24.7457Z" fill="#231F20"/>
<path d="M768.073 22.683C768.073 22.683 768.566 22.6022 768.993 22.735C769.42 22.8678 769.85 23.142 769.85 23.142L768.073 22.683Z" fill="white"/>
<path d="M767.568 22.1981C767.706 22.0539 767.848 22.051 768.058 21.976C768.058 21.976 768.693 21.8924 769.334 22.0916C769.902 22.2215 770.335 22.6371 770.476 22.6342C770.765 22.9112 770.845 23.4047 770.568 23.6932C770.291 23.9817 769.798 24.0625 769.509 23.7854C769.437 23.7162 769.152 23.5805 768.938 23.5141C768.652 23.3785 768.3 23.4563 768.3 23.4563C767.876 23.4649 767.588 23.1879 767.438 22.7666C767.291 22.4867 767.429 22.3424 767.568 22.1981Z" fill="#231F20"/>
<path d="M771.237 25.3063C771.237 25.3063 771.309 25.3756 771.523 25.442C771.737 25.5083 771.878 25.5055 772.164 25.6411C772.377 25.7075 772.521 25.846 772.804 25.8403C772.946 25.8374 773.087 25.8346 773.087 25.8346L771.237 25.3063Z" fill="white"/>
<path d="M770.732 24.8215C771.01 24.533 771.434 24.5243 771.722 24.8014L771.794 24.8706C771.794 24.8706 771.866 24.9399 771.936 24.8678C772.077 24.8649 772.219 24.862 772.363 25.0006C772.435 25.0698 772.576 25.067 772.648 25.1362C772.648 25.1362 772.721 25.2055 772.79 25.1333C773.142 25.0555 773.572 25.3296 773.722 25.751C773.8 26.103 773.525 26.5329 773.173 26.6108C773.104 26.6829 772.891 26.6165 772.608 26.6223C772.466 26.6251 772.253 26.5587 772.109 26.4202C772.037 26.351 772.037 26.351 771.895 26.3538C771.754 26.3567 771.682 26.2874 771.682 26.2874C771.54 26.2903 771.327 26.2239 771.255 26.1547C771.041 26.0883 770.897 25.9497 770.825 25.8805C770.395 25.6063 770.386 25.1821 770.732 24.8215C770.663 24.8936 770.663 24.8936 770.732 24.8215Z" fill="#231F20"/>
<path d="M774.386 23.6157L775.702 22.2452C775.979 21.9567 776.472 21.876 776.833 22.2223C777.122 22.4993 777.202 22.9927 776.856 23.3534L775.54 24.7239C775.263 25.0124 774.77 25.0932 774.409 24.7469C774.12 24.4698 774.04 23.9764 774.386 23.6157Z" fill="#231F20"/>
<path d="M777.503 20.3698L778.819 18.9993C779.096 18.7108 779.589 18.6301 779.95 18.9764C780.238 19.2534 780.319 19.7468 779.973 20.1075L778.657 21.478C778.38 21.7665 777.886 21.8473 777.526 21.501C777.237 21.2239 777.226 20.6583 777.503 20.3698Z" fill="#231F20"/>
<path d="M781.124 17.6087C781.124 17.6087 781.398 17.1788 781.603 16.821C781.877 16.3911 782.01 15.9641 782.01 15.9641L781.124 17.6087Z" fill="white"/>
<path d="M781.577 15.5485C781.785 15.3321 782.137 15.2542 782.423 15.3899C782.781 15.5948 782.931 16.0161 782.726 16.3739L782.319 17.2309L781.77 18.0907C781.566 18.4485 781.072 18.5292 780.714 18.3243C780.357 18.1194 780.276 17.626 780.481 17.2682L780.96 16.4805L781.37 15.7649C781.508 15.6206 781.508 15.6206 781.577 15.5485Z" fill="#231F20"/>
<path d="M782.81 13.5432C782.81 13.5432 782.807 13.4018 782.804 13.2604C782.802 13.119 782.796 12.8362 782.862 12.6227C782.854 12.1985 782.842 11.633 782.842 11.633L782.81 13.5432Z" fill="white"/>
<path d="M782.337 11.1481C782.476 11.0039 782.686 10.9289 782.828 10.926C783.252 10.9174 783.612 11.2637 783.621 11.6879C783.621 11.6879 783.702 12.1813 783.641 12.6776L783.583 13.3153C783.589 13.5981 783.592 13.7395 783.592 13.7395C783.459 14.1665 783.11 14.3858 782.683 14.253C782.256 14.1202 782.037 13.7711 782.169 13.344C782.169 13.344 782.239 13.2719 782.167 13.2026L782.224 12.5649C782.216 12.1408 782.207 11.7166 782.207 11.7166C782.132 11.5059 782.199 11.2924 782.337 11.1481Z" fill="#231F20"/>
<path d="M782.366 9.09651C782.435 9.02438 781.694 7.34202 781.624 7.41416L782.366 9.09651Z" fill="white"/>
<path d="M781.117 6.78794C781.186 6.71581 781.255 6.64368 781.324 6.57155C781.604 6.42441 781.818 6.49081 782.103 6.62646C782.392 6.9035 783.205 8.65512 783.142 9.01004C783.151 9.43421 782.943 9.65061 782.663 9.79774C782.242 9.94774 781.884 9.74283 781.665 9.39365L781.662 9.25226C781.515 8.97234 781.215 8.12973 781.067 7.84982L780.995 7.78056C780.845 7.35925 780.909 7.00433 781.117 6.78794Z" fill="#231F20"/>
<path d="M778.309 4.36954L779.348 3.28757L780.719 4.60354C781.007 4.88058 780.947 5.37689 780.67 5.66541C780.392 5.95394 779.896 5.89329 779.608 5.61624L778.309 4.36954Z" fill="#231F20"/>
<path d="M775.043 0.263031C775.32 -0.0254938 775.814 -0.106238 776.175 0.240068L777.545 1.55603C777.834 1.83308 777.914 2.32652 777.568 2.68717C777.222 3.04783 776.797 3.05643 776.437 2.71013L775.066 1.39417C774.775 0.975728 774.766 0.551555 775.043 0.263031Z" fill="#231F20"/>
<path d="M771.798 -2.85371C772.144 -3.21436 772.568 -3.22298 772.857 -2.94593L774.227 -1.62997C774.516 -1.35292 774.596 -0.859489 774.25 -0.498833C773.904 -0.138178 773.48 -0.129565 773.119 -0.475871L771.748 -1.79183C771.529 -2.14101 771.521 -2.56518 771.798 -2.85371Z" fill="#231F20"/>
</g>
<path opacity="0.2" d="M612.7 89.5C612.8 89.5 612.8 89.5 612.9 89.5C613 89.5 613 89.5 613 89.4C613.6 86.3 615.4 84.3 618.2 83.7C618.3 83.7 618.3 83.6 618.3 83.5C618.3 83.5 618.3 83.5 618.3 83.4C618.3 83.3 618.3 83.3 618.2 83.3C615.3 82.7 613.4 80.5 612.9 77H612.8C612.8 77 612.8 77 612.7 77C612.6 77 612.6 77 612.6 77.1C612.1 80.6 610.1 82.8 607.1 83.3C607 83.3 607 83.4 607 83.4C607 83.5 607 83.5 607.1 83.6C610.2 84.2 612.1 86.3 612.7 89.5Z" fill="#4778EC"/>
<path opacity="0.62" d="M501.4 80.2C501.4 80.8 500.9 81.2 500.4 81.2C499.8 81.2 499.4 80.7 499.4 80.2C499.4 79.6 499.9 79.2 500.4 79.2C501 79.2 501.4 79.6 501.4 80.2Z" fill="white"/>
<path opacity="0.75" d="M631.1 123.8C631.1 124.8 630.3 125.7 629.2 125.7C628.2 125.7 627.3 124.9 627.3 123.8C627.3 122.8 628.1 121.9 629.2 121.9C630.3 122 631.1 122.8 631.1 123.8Z" fill="white"/>
<path opacity="0.1" d="M1920 0V100C1899.66 90.4624 1874.88 83.6994 1849.7 79.5376C1804.87 72.1387 1757.67 71.6763 1711.26 68.9017C1690.53 67.6879 1669.6 65.9538 1650.14 61.5607C1630.69 57.1676 1612.52 49.8844 1601.46 39.5376C1588.92 27.8613 1586.75 13.815 1583 0H1920Z" fill="url(#paint0_linear_1295_14875)"/>
<defs>
<linearGradient id="paint0_linear_1295_14875" x1="1825.14" y1="-64.5513" x2="1790.68" y2="91.9101" gradientUnits="userSpaceOnUse">
<stop offset="0.00526316" stop-color="#292EF9"/>
<stop offset="0.9895" stop-color="#9181FA"/>
</linearGradient>
<clipPath id="clip0_1295_14875">
<rect width="84" height="62" fill="white" transform="translate(813 12)"/>
</clipPath>
<clipPath id="clip1_1295_14875">
<rect width="64.4" height="153.6" fill="white" transform="translate(828.397 50.3852) rotate(133.837)"/>
</clipPath>
</defs>
</svg>
