<svg width="40" height="40" viewBox="0 0 40 40" fill="none" xmlns="http://www.w3.org/2000/svg">
<circle cx="20" cy="20" r="20" fill="#BABEC6"/>
<path d="M21.0256 14.6C21.0256 16.5882 19.4185 18.2 17.4359 18.2C15.4533 18.2 13.8462 16.5882 13.8462 14.6C13.8462 12.6118 15.4533 11 17.4359 11C19.4185 11 21.0256 12.6118 21.0256 14.6Z" fill="white"/>
<path fill-rule="evenodd" clip-rule="evenodd" d="M10 14.6C10 14.174 10.3444 13.8286 10.7692 13.8286H13.8462C14.271 13.8286 14.6154 14.174 14.6154 14.6C14.6154 15.026 14.271 15.3714 13.8462 15.3714H10.7692C10.3444 15.3714 10 15.026 10 14.6Z" fill="white"/>
<path fill-rule="evenodd" clip-rule="evenodd" d="M22.3077 14.6C22.3077 14.174 22.6521 13.8286 23.0769 13.8286L29.2308 13.8286C29.6556 13.8286 30 14.174 30 14.6C30 15.026 29.6556 15.3714 29.2308 15.3714L23.0769 15.3714C22.6521 15.3714 22.3077 15.026 22.3077 14.6Z" fill="white"/>
<path d="M18.9744 25.4C18.9744 27.3882 20.5815 29 22.5641 29C24.5467 29 26.1538 27.3882 26.1538 25.4C26.1538 23.4118 24.5467 21.8 22.5641 21.8C20.5815 21.8 18.9744 23.4118 18.9744 25.4Z" fill="white"/>
<path fill-rule="evenodd" clip-rule="evenodd" d="M30 25.4C30 24.974 29.6556 24.6286 29.2308 24.6286H26.1538C25.729 24.6286 25.3846 24.974 25.3846 25.4C25.3846 25.826 25.729 26.1714 26.1538 26.1714H29.2308C29.6556 26.1714 30 25.826 30 25.4Z" fill="white"/>
<path fill-rule="evenodd" clip-rule="evenodd" d="M17.6923 25.4C17.6923 24.974 17.3479 24.6286 16.9231 24.6286L10.7692 24.6286C10.3444 24.6286 10 24.974 10 25.4C10 25.826 10.3444 26.1714 10.7692 26.1714L16.9231 26.1714C17.3479 26.1714 17.6923 25.826 17.6923 25.4Z" fill="white"/>
</svg>
