<svg width="14" height="16" viewBox="0 0 14 16" fill="none" xmlns="http://www.w3.org/2000/svg">
<path fill-rule="evenodd" clip-rule="evenodd" d="M7 0C6.31051 0 5.15738 0.265343 4.07166 0.559653C2.96156 0.860567 1.84316 1.21461 1.18528 1.42928C0.636253 1.60844 0.220985 2.09359 0.141232 2.69209C-0.455392 7.16942 0.928041 10.4869 2.606 12.682C3.44183 13.7754 4.35024 14.5904 5.12309 15.1354C5.50924 15.4077 5.86713 15.6165 6.17105 15.7596C6.45186 15.8918 6.7523 16 7 16C7.24771 16 7.54814 15.8918 7.82896 15.7596C8.13287 15.6165 8.49076 15.4077 8.87691 15.1354C9.64976 14.5904 10.5582 13.7754 11.394 12.682C13.072 10.4869 14.4554 7.16942 13.8588 2.6921C13.779 2.09359 13.3637 1.60844 12.8147 1.42928C12.1568 1.21461 11.0384 0.860567 9.92834 0.559652C8.84262 0.265343 7.68949 0 7 0ZM7 5C7.82843 5 8.5 5.67157 8.5 6.5C8.5 7.15311 8.0826 7.70873 7.5 7.91465L7.88494 9.90506C7.94461 10.2136 7.70826 10.5 7.39404 10.5H6.60596C6.29174 10.5 6.05539 10.2136 6.11506 9.90506L6.5 7.91465C5.9174 7.70873 5.5 7.15311 5.5 6.5C5.5 5.67157 6.17157 5 7 5Z" fill="#4778EC"/>
</svg>
