<svg width="320" height="315" viewBox="0 0 320 315" fill="none" xmlns="http://www.w3.org/2000/svg">
<mask id="mask0_98_4459" style="mask-type:alpha" maskUnits="userSpaceOnUse" x="0" y="0" width="320" height="315">
<rect x="0.416016" width="319.583" height="315" rx="10" fill="url(#paint0_linear_98_4459)"/>
</mask>
<g mask="url(#mask0_98_4459)">
<path d="M111.769 223.679C51.1932 258.39 83.931 327.726 130.143 341.206C151.856 350.052 140.721 358.055 146.845 381.224C152.97 404.392 246.507 430.509 355.076 347.524C463.645 264.54 363.984 122.16 339.486 109.523C314.989 96.8855 278.925 88.9123 234.814 99.8342C204.192 107.416 184.149 123.424 181.365 148.277C178.581 173.13 187.489 180.291 111.769 223.679Z" fill="url(#paint1_linear_98_4459)"/>
</g>
<defs>
<linearGradient id="paint0_linear_98_4459" x1="160.208" y1="0" x2="160.208" y2="315" gradientUnits="userSpaceOnUse">
<stop stop-color="#4778EC"/>
<stop offset="1" stop-color="#4A47EC" stop-opacity="0.74"/>
</linearGradient>
<linearGradient id="paint1_linear_98_4459" x1="241.74" y1="94.6831" x2="241.74" y2="404.233" gradientUnits="userSpaceOnUse">
<stop stop-color="#CBFFF6"/>
<stop offset="0.71916" stop-color="#F9F7F4"/>
</linearGradient>
</defs>
</svg>
