<svg width="30" height="30" viewBox="0 0 30 30" fill="none" xmlns="http://www.w3.org/2000/svg">
<path fill-rule="evenodd" clip-rule="evenodd" d="M15 4.42308C12.684 4.42308 10.8065 6.28856 10.8065 8.58974C10.8065 10.8909 12.684 12.7564 15 12.7564C17.316 12.7564 19.1935 10.8909 19.1935 8.58974C19.1935 6.28856 17.316 4.42308 15 4.42308ZM8.87097 8.58974C8.87097 5.22647 11.615 2.5 15 2.5C18.385 2.5 21.129 5.22647 21.129 8.58974C21.129 11.953 18.385 14.6795 15 14.6795C11.615 14.6795 8.87097 11.953 8.87097 8.58974Z" fill="#230753"/>
<path fill-rule="evenodd" clip-rule="evenodd" d="M11.8327 19.1667C9.12805 19.1667 6.93548 21.3452 6.93548 24.0325C6.93548 24.1736 6.96144 24.2732 6.98865 24.3312C7.01162 24.3802 7.03132 24.3941 7.04776 24.403C7.79984 24.8096 9.90852 25.5769 15 25.5769C20.0915 25.5769 22.2002 24.8096 22.9522 24.403C22.9687 24.3941 22.9884 24.3802 23.0114 24.3312C23.0386 24.2732 23.0645 24.1736 23.0645 24.0325C23.0645 21.3452 20.8719 19.1667 18.1673 19.1667H11.8327ZM5 24.0325C5 20.2831 8.05911 17.2436 11.8327 17.2436H18.1673C21.9409 17.2436 25 20.2831 25 24.0325C25 24.7208 24.7492 25.6208 23.8774 26.0922C22.7224 26.7166 20.2448 27.5 15 27.5C9.75518 27.5 7.27757 26.7166 6.12265 26.0922C5.25079 25.6208 5 24.7208 5 24.0325Z" fill="#230753"/>
</svg>
