<svg width="76" height="76" viewBox="0 0 76 76" fill="none" xmlns="http://www.w3.org/2000/svg">
<path d="M37.9994 37.3539C46.6093 37.3539 53.5891 30.4098 53.5891 21.8437C53.5891 13.2777 46.6093 6.33353 37.9994 6.33353C29.3894 6.33353 22.4096 13.2777 22.4096 21.8437C22.4096 30.4098 29.3894 37.3539 37.9994 37.3539Z" fill="white"/>
<path d="M46.119 43.8168H29.8797C20.4609 43.8168 12.666 51.5719 12.666 60.9427C12.666 63.2046 13.6404 65.1434 15.5891 66.1128C18.5122 67.7284 25.0079 69.6672 37.9994 69.6672C50.9908 69.6672 57.4865 67.7284 60.4096 66.1128C62.0335 65.1434 63.3327 63.2046 63.3327 60.9427C63.3327 51.2488 55.5378 43.8168 46.119 43.8168Z" fill="white"/>
</svg>
