<svg width="322" height="475" viewBox="0 0 322 475" fill="none" xmlns="http://www.w3.org/2000/svg">
<mask id="mask0_380_7088" style="mask-type:alpha" maskUnits="userSpaceOnUse" x="0" y="0" width="322" height="475">
<rect width="322" height="475" rx="10" fill="url(#paint0_linear_380_7088)"/>
</mask>
<g mask="url(#mask0_380_7088)">
<path d="M26.184 131.2H27.184V130.2H26.184V131.2ZM26.184 232V233H27.184V232H26.184ZM7.464 232H6.464V233H7.464V232ZM7.464 146.896H8.464V145.896H7.464V146.896ZM-13.848 146.896H-14.848V147.896H-13.848V146.896ZM-13.848 131.2V130.2H-14.848V131.2H-13.848ZM25.184 131.2V232H27.184V131.2H25.184ZM26.184 231H7.464V233H26.184V231ZM8.464 232V146.896H6.464V232H8.464ZM7.464 145.896H-13.848V147.896H7.464V145.896ZM-12.848 146.896V131.2H-14.848V146.896H-12.848ZM-13.848 132.2H26.184V130.2H-13.848V132.2Z" fill="white" fill-opacity="0.2"/>
<path d="M99.6871 317.938C45.2434 361.782 74.6671 449.362 116.2 466.389C135.716 477.563 125.708 487.672 131.212 516.937C136.717 546.201 220.784 579.19 318.362 474.37C415.941 369.55 326.369 189.707 304.351 173.744C282.334 157.782 249.921 147.711 210.276 161.506C182.754 171.084 164.739 191.303 162.237 222.696C159.735 254.089 167.742 263.134 99.6871 317.938Z" fill="url(#paint1_linear_380_7088)"/>
<g opacity="0.7">
<path d="M422.02 253.001C422.176 253.469 422.02 253.938 421.709 254.406C421.709 254.562 421.865 254.874 421.709 255.187C416.875 267.675 405.804 272.046 394.11 267.987C392.394 270.797 390.367 273.451 388.029 275.948C388.029 276.104 387.873 276.104 387.873 276.104C380.076 284.066 368.85 289.685 357.467 291.871C357.155 292.339 356.376 292.495 355.908 292.183C350.606 292.963 345.149 293.119 340.159 292.183C340.315 296.398 340.159 300.612 339.068 304.047C338.912 304.671 338.444 304.827 337.82 304.983C335.949 305.139 334.234 304.827 332.519 304.359C332.363 312.164 332.363 319.969 332.207 327.774C332.051 338.233 335.17 353.375 325.19 360.4C315.055 367.424 298.371 364.77 285.741 363.678C298.527 377.727 300.866 406.45 302.113 421.748C302.269 422.684 301.645 423.153 301.022 423.309C300.71 423.465 300.398 423.621 300.086 423.621C297.435 423.777 294.785 423.777 291.978 423.933C293.225 432.987 291.51 444.227 287.3 452.5C283.402 460.149 275.918 462.491 267.809 462.491C245.98 462.647 241.614 441.417 243.953 423.621C240.366 423.309 236.78 422.997 233.194 422.528C232.726 422.528 232.414 422.216 232.258 421.748C232.102 421.592 231.946 421.436 231.946 421.123C228.36 404.108 232.258 377.259 246.603 363.678C238.651 364.458 230.543 364.302 222.591 364.302C218.225 364.302 209.805 365.551 205.907 362.585C202.476 359.931 202.632 354.312 202.32 350.409C201.541 341.199 201.697 331.833 202.009 322.623C202.164 315.286 202.32 307.949 202.632 300.612C201.697 300.768 200.761 300.925 199.67 300.925C198.422 300.925 197.019 301.081 196.083 300.456C195.771 300.3 195.616 299.988 195.616 299.676C195.616 299.52 195.46 299.52 195.46 299.52C194.524 293.119 194.212 286.563 194.212 280.163C194.056 280.319 193.9 280.475 193.744 280.631C166.457 296.242 160.064 323.716 171.447 351.19C181.27 351.97 190.314 358.058 192.185 368.517C192.341 369.766 191.406 370.546 190.47 370.546C189.534 371.327 187.975 371.795 186.884 372.263C185.324 373.044 183.921 373.824 182.362 374.761C181.426 375.229 180.491 374.293 180.647 373.512C180.491 373.356 180.491 373.2 180.335 373.044C178.931 369.297 174.41 364.614 170.044 365.707C164.274 366.956 169.108 376.478 170.823 379.288V379.444C171.135 380.068 171.135 381.005 170.511 381.63C168.796 382.878 166.925 383.971 164.898 384.908C163.963 385.376 163.027 385.844 162.091 386.156C161.78 386.313 160.376 386.469 159.908 386.781C159.908 386.937 159.752 386.937 159.752 387.093C159.597 387.093 159.597 387.249 159.441 387.249C159.285 387.249 159.285 387.249 159.129 387.405C159.285 388.03 158.505 388.654 157.881 388.03C148.838 379.444 145.875 362.117 157.102 354.78C155.854 350.565 154.919 346.194 154.295 341.667C153.204 341.511 153.204 340.106 153.983 339.794C153.048 331.365 153.048 322.623 154.451 314.349C153.827 314.037 153.983 312.788 154.763 312.788C158.661 292.339 170.355 274.699 193.744 271.421C193.9 267.831 193.9 264.084 194.056 260.494C194.056 259.714 194.68 259.089 195.46 259.089C198.11 259.245 200.761 259.401 203.412 259.557C204.191 254.094 206.374 251.128 214.794 250.504C225.709 249.723 236.78 249.411 247.695 249.255C247.383 246.913 246.915 244.416 247.383 242.074C247.383 241.606 247.851 241.293 248.163 241.293C248.942 240.981 249.722 240.825 250.658 240.825C250.502 240.669 250.502 240.669 250.502 240.513C246.759 227.869 252.217 211.478 266.718 210.073C282.155 208.668 286.832 227.869 284.805 239.732C284.805 240.045 284.649 240.201 284.493 240.357H286.676C287.456 240.357 288.08 240.981 288.08 241.762C287.924 244.103 287.768 246.601 287.612 248.942C291.666 249.099 295.72 249.099 299.774 249.255C307.882 249.567 316.77 248.786 324.722 250.347C329.868 251.44 332.051 254.718 332.831 258.621C334.858 258.465 337.197 258.621 339.224 258.933C339.535 258.933 339.691 259.089 339.847 259.401C340.159 259.557 340.471 259.87 340.471 260.494C340.315 265.958 340.159 271.265 340.003 276.729C340.159 276.729 340.315 276.573 340.471 276.729C355.128 278.134 374.775 272.358 380.7 257.216C376.802 250.191 377.114 241.606 386.157 237.391C387.093 236.923 387.717 238.015 387.249 238.64C390.835 240.201 394.266 241.918 398.008 243.479C398.943 243.947 398.943 245.508 398.008 245.977C396.604 246.601 395.045 247.225 393.954 248.318C392.083 250.035 393.954 253.938 396.449 253.938C400.035 253.782 401.906 251.44 403.933 248.942C404.557 248.162 405.648 248.162 406.116 248.786C409.546 250.035 413.133 250.972 416.875 251.284C418.59 251.44 421.085 250.816 422.02 253.001ZM419.058 254.406C418.902 254.406 418.902 254.406 419.058 254.406C418.122 254.406 415.783 254.406 415.627 254.25C414.38 254.094 413.133 253.938 412.041 253.626C409.858 253.157 407.675 252.221 405.804 251.284C403.621 255.811 396.76 258.777 392.239 256.123C389.9 254.874 389.12 252.221 389.9 249.723C390.679 247.538 392.394 245.977 394.266 244.884C391.459 243.323 388.808 241.918 386.001 240.357C385.846 240.357 385.846 240.201 385.69 240.045C374.931 249.411 386.001 262.523 396.916 265.333C408.299 268.299 412.821 262.523 419.058 254.406ZM390.991 266.894C390.679 266.738 390.367 266.582 389.9 266.426C386.937 265.021 384.13 262.523 382.103 259.714C381.324 262.679 379.609 265.333 377.737 267.675C379.141 268.611 380.7 269.548 382.103 270.485C383.351 271.265 384.754 272.202 386.157 272.982C388.029 271.109 389.588 269.08 390.991 266.894ZM384.13 275.012C382.883 274.075 381.48 272.982 380.232 272.046C378.985 271.109 377.737 270.172 376.49 269.08C373.995 271.577 370.877 273.607 367.446 275.324C368.382 276.26 369.473 277.197 370.253 278.134C371.5 279.382 373.06 280.943 373.839 282.504C377.581 280.319 381.012 277.821 384.13 275.012ZM371.5 283.753C370.409 282.661 369.473 281.1 368.538 279.851C367.446 278.602 366.355 277.509 365.263 276.26C361.053 277.978 356.687 279.226 352.321 279.851C353.101 281.256 353.881 282.817 354.504 284.378C355.284 285.939 356.064 287.344 356.687 288.905C361.833 287.812 366.823 285.939 371.5 283.753ZM354.037 289.529C353.413 288.124 352.789 286.719 352.321 285.314C351.542 283.597 350.918 281.88 350.294 280.163C346.864 280.475 343.434 280.475 340.627 280.163C340.471 280.163 340.159 280.007 340.003 280.007C340.003 281.568 339.847 283.285 339.847 284.846C339.847 286.563 339.847 288.436 340.003 290.31C344.369 290.622 349.203 290.31 354.037 289.529ZM337.041 283.129C337.197 275.792 337.352 268.611 337.664 261.275C336.105 261.431 334.546 261.431 332.987 261.431C333.298 265.489 332.675 269.86 332.675 273.763C332.519 283.441 332.363 292.963 332.207 302.642C339.068 301.549 336.885 288.749 337.041 283.129ZM329.244 267.831C329.4 253.001 318.797 253.469 307.727 253.001C291.51 252.377 275.45 252.065 259.233 252.065C250.502 252.065 241.77 252.221 232.882 252.533C224.774 252.689 209.805 250.347 205.907 259.714C206.53 260.494 206.219 261.743 205.283 262.055C204.191 268.299 205.595 277.821 205.439 283.441C205.283 291.246 205.127 299.207 204.971 307.013C204.659 321.998 203.412 337.453 205.127 352.438C205.907 358.995 207.778 359.775 214.171 361.024C217.913 361.648 222.279 361.336 226.021 361.336C233.817 361.336 241.614 360.868 249.41 361.024C253.308 358.214 257.674 356.341 262.976 355.56C270.46 354.624 276.385 356.341 281.219 359.775C289.639 360.087 298.059 360.4 306.479 360.556C311.781 360.556 317.082 360.712 321.604 357.59C327.841 353.219 327.997 346.663 328.153 339.638C328.309 323.716 328.621 307.637 328.932 291.715C328.932 283.753 329.088 275.792 329.244 267.831ZM286.365 443.914C288.08 437.514 289.171 430.802 288.392 424.089V423.933C274.202 424.402 259.857 424.714 245.668 423.777C245.668 439.387 246.447 459.368 267.342 459.056C277.789 459.056 283.714 453.749 286.365 443.914ZM233.817 420.499C255.335 420.031 276.853 421.123 298.371 420.343C296.656 399.269 293.225 355.248 263.288 358.839C236.156 362.117 232.414 399.425 233.817 420.499ZM284.493 248.942C284.961 244.103 284.805 243.167 279.348 243.167H267.809C263.599 243.167 259.078 242.698 254.868 243.167C250.19 243.635 249.41 244.572 248.942 248.942C256.427 248.786 263.911 248.786 271.24 248.786C275.762 248.786 280.128 248.786 284.493 248.942ZM271.552 240.357C275.294 240.357 278.88 240.357 282.622 240.357C282.311 240.201 282.155 239.732 282.155 239.42C281.999 236.766 281.843 233.488 281.531 230.366C280.439 221.156 277.477 211.634 266.094 213.351C252.996 215.224 251.593 229.274 252.373 239.889C252.373 240.045 252.373 240.201 252.373 240.201C255.023 240.045 257.83 240.201 260.637 240.357C260.481 237.391 260.013 234.737 259.545 231.927C259.389 232.083 259.233 232.396 259.233 232.708C259.389 233.488 257.986 233.644 257.83 232.864C257.518 231.303 258.142 230.21 259.078 229.43C258.922 228.337 258.61 227.4 258.454 226.308C258.142 225.215 259.857 224.278 260.325 225.527C260.793 226.464 261.105 227.4 261.416 228.337C261.728 228.181 262.196 228.181 262.508 228.025C264.691 227.556 267.186 227.869 269.369 228.493C269.836 228.649 270.148 228.805 270.616 228.961C271.24 226.776 272.019 224.747 273.111 222.717C273.891 221.312 276.073 222.561 275.294 223.966C274.358 225.995 273.735 228.025 273.111 229.898C274.67 230.522 276.073 230.679 277.945 229.586C278.724 229.117 279.504 229.742 279.66 230.366C279.66 230.679 279.66 231.147 279.348 231.459C277.789 233.488 275.294 233.488 272.955 232.708C272.799 232.708 272.643 232.552 272.487 232.552C271.863 235.049 271.552 237.703 271.552 240.357ZM265.003 240.513C266.562 240.513 268.121 240.513 269.836 240.513C269.369 237.547 269.369 234.581 269.836 231.615C269.213 231.303 268.589 230.991 267.809 230.835C266.562 230.522 265.003 230.366 263.755 230.366C263.288 230.366 262.508 230.522 261.728 230.679C262.352 233.957 262.508 237.391 262.196 240.513C263.132 240.513 264.067 240.513 265.003 240.513ZM202.944 267.675C202.944 265.645 203.1 263.772 203.1 262.055C200.605 261.743 198.11 261.275 196.551 263.148C195.148 264.709 196.083 272.982 196.083 275.168C195.927 282.973 196.239 290.622 196.239 298.427C197.175 298.427 197.954 298.739 198.89 298.895C199.981 299.051 201.073 299.051 202.164 299.207C202.476 288.749 202.788 278.134 202.944 267.675ZM193.588 279.07C193.588 277.353 193.588 275.792 193.588 274.075C187.975 275.012 182.83 277.041 178.308 280.007C179.243 280.631 180.023 281.256 180.958 281.88C181.738 282.504 182.83 282.973 183.609 283.753C186.104 281.724 188.911 280.007 191.873 278.602C192.497 277.978 193.277 278.446 193.588 279.07ZM185.48 369.766C186.416 369.297 187.663 368.517 188.755 368.049C185.792 356.341 172.538 351.658 161.624 355.717C147.59 361.024 153.048 375.542 158.037 385.22C158.661 383.971 160.688 383.503 161.935 382.878C164.274 381.786 166.301 380.381 168.484 378.976C165.21 374.917 161.78 365.551 167.861 363.053C173.942 360.556 180.491 366.175 182.674 371.483C183.453 370.858 184.389 370.234 185.48 369.766ZM181.582 285.158C180.958 284.69 180.335 284.066 179.555 283.441C178.62 282.661 177.528 281.88 176.593 280.943C171.759 284.378 167.549 288.749 164.274 293.9C165.522 294.368 166.769 294.68 167.861 295.149C169.108 295.617 170.355 295.929 171.603 296.398C174.254 292.339 177.684 288.436 181.582 285.158ZM160.22 352.751C163.339 351.502 166.457 351.033 169.732 351.033C167.705 347.911 166.145 344.633 165.054 341.355C165.054 341.355 165.054 341.355 164.898 341.355C162.403 341.979 159.441 341.667 156.79 341.511C157.414 345.57 158.037 349.472 158.817 353.531C159.285 353.219 159.597 352.907 160.22 352.751ZM170.044 298.895C168.796 298.427 167.705 297.803 166.457 297.334C165.366 296.866 164.118 296.398 163.027 295.929C162.247 297.334 161.468 298.739 160.844 300.144C158.973 304.203 157.57 308.417 156.79 312.632C159.285 312.788 161.78 313.101 164.118 313.569C165.366 308.417 167.393 303.422 170.044 298.895ZM156.478 339.17C159.129 339.014 161.935 338.701 164.43 339.17C162.091 331.677 162.091 323.716 163.495 316.067C161.156 315.754 158.817 315.13 156.478 314.505C155.075 322.623 155.387 331.052 156.478 339.17Z" fill="#222221"/>
<path d="M307.727 253.001C318.798 253.47 329.401 253.001 329.245 267.831C329.089 275.792 328.933 283.753 328.933 291.715C328.622 307.637 328.466 323.716 328.154 339.638C327.998 346.663 327.842 353.219 321.605 357.59C317.083 360.712 311.782 360.556 306.48 360.556C298.06 360.4 289.64 360.088 281.22 359.775C276.386 356.185 270.461 354.468 262.977 355.561C257.831 356.185 253.309 358.214 249.411 361.024C241.615 360.868 233.818 361.336 226.022 361.336C222.28 361.336 217.914 361.805 214.172 361.024C207.779 359.931 205.908 358.995 205.128 352.439C203.413 337.453 204.504 321.999 204.972 307.013C205.128 299.208 205.284 291.246 205.44 283.441C205.596 277.822 204.037 268.299 205.284 262.211C206.375 262.055 206.531 260.65 205.908 259.87C209.806 250.504 224.775 252.845 232.883 252.689C241.615 252.377 250.347 252.221 259.234 252.221C275.451 252.065 291.511 252.377 307.727 253.001ZM314.9 280.788C317.239 278.29 316.303 273.607 313.029 272.358C311.47 271.734 309.599 272.202 308.351 273.295C308.195 273.451 308.039 273.607 307.883 273.607C305.7 274.231 304.297 277.353 305.7 279.695C307.572 283.129 312.249 283.597 314.9 280.788ZM310.534 319.189C311.002 313.101 310.69 306.857 310.378 300.769C310.222 298.739 310.69 295.773 309.755 293.588C310.69 292.807 310.534 290.934 308.819 290.778C280.908 289.685 252.841 288.905 225.087 289.529C224.775 289.529 224.463 289.685 224.307 289.841C223.839 289.841 223.527 290.154 223.371 290.778C221.968 300.456 221.656 311.696 223.06 321.374C222.904 321.686 222.904 322.155 223.215 322.467C223.371 322.935 223.995 322.935 224.307 322.779C252.062 323.56 281.064 324.34 308.663 321.686C309.755 321.53 310.222 320.594 309.91 319.813C310.378 319.657 310.534 319.501 310.534 319.189ZM229.92 280.788C232.883 279.383 234.13 275.324 232.103 272.67C230.544 270.641 227.27 270.173 225.243 271.734C222.592 271.89 220.877 275.012 221.812 277.665C222.904 280.944 226.802 282.349 229.92 280.788Z" fill="#BFCD30"/>
<path d="M313.027 272.514C316.302 273.763 317.237 278.29 314.898 280.943C312.248 283.753 307.57 283.285 305.699 280.007C304.451 277.665 305.699 274.543 307.882 273.919C308.038 273.763 308.193 273.607 308.349 273.607C309.597 272.202 311.468 271.889 313.027 272.514ZM313.183 278.446C313.963 277.197 313.183 275.011 311.624 274.855C311.156 274.855 310.844 274.855 310.532 275.011L310.376 275.168C309.597 275.792 309.441 277.041 308.817 277.665C308.661 277.821 308.349 277.977 308.193 277.977C308.349 278.446 308.661 278.914 309.129 279.226C310.221 280.163 312.404 279.851 313.183 278.446Z" fill="#222221"/>
<path d="M311.467 274.855C313.026 275.012 313.806 277.197 313.026 278.446C312.247 279.851 310.064 280.163 308.816 279.226C308.349 278.914 308.037 278.446 307.881 277.978C308.193 277.978 308.349 277.821 308.505 277.665C309.284 276.885 309.284 275.792 310.064 275.168L310.22 275.012C310.688 275.012 310.999 274.855 311.467 274.855Z" fill="#E5EA9B"/>
<path d="M310.378 300.768C310.69 306.856 311.001 313.1 310.534 319.188C310.534 319.501 310.378 319.813 310.222 319.969C310.378 320.749 310.066 321.686 308.974 321.842C281.375 324.496 252.373 323.559 224.618 322.935C224.306 323.247 223.683 323.091 223.527 322.623C223.215 322.31 223.215 321.998 223.371 321.53C221.812 311.852 222.123 300.612 223.683 290.934C223.839 290.309 224.15 290.153 224.618 289.997C224.774 289.841 225.086 289.685 225.398 289.685C253.309 289.061 281.375 289.841 309.13 290.934C310.69 290.934 311.001 292.963 310.066 293.744C310.69 295.617 310.222 298.739 310.378 300.768ZM308.351 318.876C308.039 316.379 307.883 313.881 307.727 311.227C302.737 311.071 297.904 311.227 292.914 311.695C292.134 312.32 290.731 312.164 290.575 310.759C290.419 308.417 290.107 306.232 289.639 304.046C289.172 306.388 288.704 308.886 288.236 311.227C287.768 313.725 287.612 314.818 285.741 316.066C285.585 316.222 285.274 316.222 285.118 316.222C284.494 316.222 283.87 315.754 283.714 315.286C283.091 311.383 282.467 307.481 281.999 303.578C280.908 305.607 280.128 307.637 279.66 310.134C279.504 310.759 278.881 311.227 278.257 311.227C273.111 311.071 267.966 310.915 262.82 310.759C262.352 311.227 261.261 311.383 260.949 310.603C259.546 307.481 258.766 304.203 258.298 300.768C256.271 305.451 256.427 311.227 253.309 315.598C252.997 315.91 252.685 316.222 252.217 316.222C251.749 316.222 251.282 315.91 251.126 315.442C249.566 311.071 248.475 306.544 248.163 301.861C247.228 303.89 246.292 305.764 245.356 307.793C245.201 308.261 244.733 308.261 244.421 308.105C244.265 308.261 243.953 308.261 243.797 308.261C237.872 308.105 231.947 307.949 226.022 308.105C225.866 312.476 225.554 316.847 225.086 320.906C234.13 320.281 243.329 319.813 252.529 319.344C263.444 318.72 274.359 318.408 285.118 318.408C292.914 318.252 300.71 318.408 308.351 318.876ZM307.727 308.417C307.727 307.949 307.727 307.325 307.727 306.856C307.571 304.827 307.571 302.798 307.415 300.768C307.415 299.519 307.571 295.149 306.635 293.9C300.866 293.9 295.097 293.744 289.328 293.744C279.348 293.588 269.213 293.431 259.078 293.119C248.007 292.807 236.936 292.339 226.022 291.558C226.178 296.241 226.178 301.237 226.022 306.232C231.947 305.295 237.872 305.139 243.797 305.764C244.109 305.764 244.265 305.92 244.421 306.076C245.512 302.954 246.76 299.676 248.007 296.554C248.475 295.461 250.19 295.461 250.19 296.866C250.19 302.017 251.126 307.169 252.529 312.008C254.868 306.856 254.556 300.768 258.142 296.085C258.298 295.773 258.61 295.773 258.922 295.773C259.546 295.773 260.169 296.397 260.169 297.022C260.481 301.237 261.417 304.983 262.664 308.886C266.406 308.886 274.359 309.978 277.009 307.637C277.477 307.169 277.945 304.515 278.257 303.734C279.037 301.861 280.128 300.3 281.375 298.739C281.999 297.958 283.558 298.427 283.714 299.363C284.338 303.266 284.806 307.012 285.429 310.759C285.741 309.198 285.897 307.325 286.053 306.388L287.768 298.115C287.924 297.49 288.392 297.178 288.86 297.178C289.484 297.178 290.107 297.49 290.263 298.115C291.667 301.861 292.446 305.451 292.758 309.354C297.904 308.261 302.893 307.949 307.727 308.417Z" fill="#222221"/>
<path d="M307.726 311.227C307.882 313.725 308.038 316.379 308.35 318.876C300.709 318.408 292.913 318.252 284.961 318.252V316.379C285.273 316.379 285.429 316.379 285.585 316.223C287.612 314.974 287.612 313.725 288.079 311.383C288.547 309.042 289.015 306.544 289.483 304.203C289.951 306.388 290.418 308.574 290.418 310.915C290.574 312.164 291.978 312.476 292.757 311.852C297.903 311.227 302.737 311.071 307.726 311.227Z" fill="#E5EA9B"/>
<path d="M307.569 306.857C307.569 307.325 307.569 307.949 307.569 308.418C302.736 307.793 297.746 308.262 293.068 309.51C292.756 305.608 291.977 302.017 290.573 298.271C290.417 297.647 289.638 297.334 289.17 297.334V293.744C294.939 293.744 300.708 293.9 306.478 293.9C307.257 295.149 307.101 299.364 307.257 300.769C307.413 302.798 307.413 304.827 307.569 306.857Z" fill="#E5EA9B"/>
<path d="M289.327 293.744V297.334C288.859 297.334 288.391 297.646 288.235 298.271L286.52 306.544C286.364 307.637 286.208 309.354 285.896 310.915C285.272 307.169 284.805 303.266 284.181 299.52C284.025 298.583 282.466 298.115 281.842 298.895C280.595 300.456 279.503 302.017 278.724 303.89C278.412 304.671 277.944 307.325 277.476 307.793C274.825 310.291 266.873 309.042 263.131 309.042C261.728 305.139 260.792 301.393 260.636 297.178C260.636 296.554 260.012 295.929 259.389 295.929L259.545 293.275C269.056 293.432 279.191 293.588 289.327 293.744Z" fill="#E5EA9B"/>
<path d="M288.392 424.09C289.171 430.802 288.08 437.358 286.365 443.915C283.714 453.749 277.789 459.056 267.342 459.213C246.448 459.525 245.668 439.388 245.668 423.933C259.857 424.87 274.202 424.558 288.392 424.09Z" fill="#858585"/>
<path d="M284.961 316.379V318.252C274.202 318.252 263.288 318.72 252.373 319.189L252.217 316.067C252.529 316.067 252.996 315.911 253.308 315.442C256.427 311.071 256.271 305.452 258.298 300.612C258.766 304.047 259.545 307.169 260.949 310.447C261.261 311.227 262.196 311.071 262.82 310.603C267.965 310.759 273.111 310.915 278.256 311.071C278.88 311.071 279.504 310.603 279.66 309.979C280.128 307.637 280.907 305.452 281.999 303.422C282.622 307.325 283.246 311.227 283.714 315.13C283.714 316.067 284.338 316.379 284.961 316.379Z" fill="#E5EA9B"/>
<path d="M298.214 420.343C276.696 421.124 255.179 420.031 233.661 420.499C232.413 399.425 236 362.117 263.131 358.839C293.225 355.248 296.499 399.269 298.214 420.343Z" fill="#8F9924"/>
<path d="M279.349 243.167C284.806 243.167 284.962 244.103 284.495 248.942C280.129 248.942 275.607 248.786 271.241 248.786C263.912 248.786 256.428 248.786 248.943 248.942C249.255 244.572 250.191 243.635 254.869 243.167C259.079 242.698 263.6 243.167 267.81 243.167H279.349Z" fill="#8F9924"/>
<path d="M282.622 240.357C278.879 240.357 275.293 240.357 271.551 240.357C271.551 237.547 271.863 235.049 272.33 232.552C272.486 232.552 272.642 232.708 272.798 232.708C275.137 233.488 277.632 233.488 279.191 231.459C279.503 231.147 279.503 230.678 279.503 230.366L281.374 230.21C281.686 233.488 281.842 236.766 281.998 239.264C282.154 239.732 282.31 240.201 282.622 240.357Z" fill="#F6E16F"/>
<path d="M281.374 230.21L279.503 230.366C279.347 229.586 278.723 229.117 277.788 229.586C275.917 230.678 274.513 230.366 272.954 229.898C273.422 227.869 274.202 225.995 275.137 223.966C275.761 222.561 273.734 221.156 272.954 222.717C271.863 224.59 271.083 226.776 270.459 228.961C269.992 228.805 269.68 228.649 269.212 228.493C267.029 227.869 264.534 227.713 262.351 228.025C261.883 228.025 261.572 228.181 261.26 228.337C260.948 227.4 260.636 226.464 260.168 225.527C259.7 224.434 257.985 225.215 258.297 226.308C258.453 227.4 258.765 228.337 258.921 229.43C257.985 230.21 257.362 231.303 257.673 232.864C257.829 233.644 259.077 233.488 259.077 232.708C259.077 232.396 259.233 232.083 259.389 231.927C260.012 234.737 260.324 237.391 260.48 240.357C257.673 240.201 254.867 240.045 252.216 240.201C252.216 240.045 252.216 240.045 252.216 239.889C251.436 229.274 252.84 215.224 265.938 213.351C277.32 211.634 280.283 221.156 281.374 230.21Z" fill="#F6E16F"/>
<path d="M269.837 240.513C268.277 240.513 266.718 240.513 265.003 240.513C264.067 240.513 263.132 240.513 262.196 240.357C262.508 237.235 262.352 233.801 261.729 230.522C262.508 230.366 263.288 230.21 263.756 230.21C265.159 230.21 266.562 230.366 267.81 230.679C268.589 230.835 269.213 231.147 269.837 231.459C269.369 234.425 269.369 237.547 269.837 240.513Z" fill="#F6E16F"/>
<path d="M259.076 293.119L258.92 295.773C258.608 295.773 258.452 295.929 258.14 296.085C254.554 300.768 254.866 306.856 252.527 312.008C250.968 307.012 250.188 302.017 250.188 296.866C250.188 295.461 248.473 295.461 248.005 296.554C246.758 299.676 245.51 302.798 244.419 306.076C244.263 305.92 244.107 305.764 243.795 305.764C238.026 305.139 231.945 305.295 226.02 306.232C226.175 301.237 226.175 296.397 226.02 291.558C236.934 292.339 248.005 292.807 259.076 293.119Z" fill="#E5EA9B"/>
<path d="M252.217 316.066L252.373 319.188C243.173 319.657 233.973 320.281 224.93 320.749C225.397 316.535 225.709 312.32 225.865 307.949C231.79 307.793 237.716 307.793 243.641 308.105C243.953 308.105 244.109 307.949 244.265 307.949C244.576 308.105 245.044 308.105 245.2 307.637C246.136 305.763 247.071 303.734 248.007 301.705C248.475 306.388 249.41 310.915 250.969 315.286C251.281 315.754 251.749 316.066 252.217 316.066Z" fill="#E5EA9B"/>
<path d="M231.946 272.67C233.973 275.48 232.881 279.382 229.763 280.787C226.8 282.192 222.902 280.787 221.654 277.509C220.719 274.855 222.434 271.733 225.085 271.577C227.268 270.172 230.386 270.64 231.946 272.67ZM228.515 278.133C229.763 277.509 230.386 275.792 229.607 274.543C228.827 273.294 227.268 273.763 226.332 274.699C225.709 275.324 224.773 275.167 224.305 274.699C223.993 275.48 223.993 276.416 224.617 277.197C225.553 278.446 227.268 278.758 228.515 278.133Z" fill="#222221"/>
<path d="M229.608 274.699C230.388 275.948 229.92 277.665 228.516 278.29C227.269 278.914 225.554 278.602 224.618 277.353C223.995 276.573 223.995 275.636 224.306 274.855C224.774 275.324 225.71 275.636 226.333 274.855C227.269 273.919 228.672 273.451 229.608 274.699Z" fill="#E5EA9B"/>
<path d="M203.101 262.055C202.946 263.772 202.946 265.645 202.946 267.674C202.634 278.133 202.478 288.748 202.166 299.207C201.074 299.207 199.983 299.051 198.891 298.895C197.956 298.739 197.176 298.427 196.241 298.427C196.241 290.622 195.929 282.973 196.085 275.167C196.085 272.982 195.149 264.709 196.553 263.148C198.112 261.274 200.763 261.743 203.101 262.055Z" fill="#8F9924"/>
<path d="M193.587 273.919C193.587 275.636 193.587 277.197 193.587 278.914C193.275 278.29 192.496 277.978 191.716 278.29C188.753 279.695 186.103 281.412 183.452 283.441C182.672 282.817 181.737 282.192 180.801 281.568C179.866 280.943 179.086 280.319 178.15 279.695C182.828 277.041 187.974 275.012 193.587 273.919Z" fill="#E5EA9B"/>
<path d="M188.755 368.049C187.508 368.361 186.416 369.141 185.481 369.766C184.545 370.39 183.453 370.859 182.518 371.639C180.335 366.332 173.786 360.712 167.705 363.21C161.78 365.707 165.054 375.073 168.329 379.132C166.146 380.537 164.119 381.942 161.78 383.035C160.532 383.659 158.505 384.127 157.882 385.376C152.892 375.542 147.279 361.024 161.468 355.873C172.539 351.658 185.948 356.341 188.755 368.049Z" fill="#8F9924"/>
<path d="M179.554 283.441C180.178 283.91 180.802 284.534 181.581 285.158C177.683 288.436 174.409 292.339 171.602 296.554C170.51 295.929 169.107 295.617 167.86 295.305C166.612 294.837 165.521 294.524 164.273 294.056C167.548 288.905 171.758 284.534 176.592 281.1C177.527 281.88 178.619 282.661 179.554 283.441Z" fill="#E5EA9B"/>
<path d="M169.733 351.033C166.458 351.033 163.34 351.502 160.221 352.751C159.754 352.907 159.286 353.219 158.818 353.375C158.038 349.472 157.259 345.414 156.791 341.355C159.598 341.511 162.404 341.823 164.899 341.199C164.899 341.199 164.899 341.199 165.055 341.199C166.147 344.633 167.706 347.911 169.733 351.033Z" fill="#E5EA9B"/>
<path d="M166.614 297.334C167.706 297.803 168.953 298.427 170.201 298.895C167.55 303.579 165.367 308.574 164.12 313.725C161.781 313.101 159.286 312.945 156.791 312.789C157.571 308.574 158.974 304.359 160.845 300.3C161.469 298.895 162.248 297.491 163.028 296.086C164.275 296.398 165.367 296.866 166.614 297.334Z" fill="#E5EA9B"/>
<path d="M164.273 339.17C161.778 338.701 158.972 339.014 156.321 339.17C155.385 330.896 155.073 322.623 156.321 314.505C158.66 315.13 160.999 315.754 163.337 316.067C162.09 323.716 162.09 331.677 164.273 339.17Z" fill="#E5EA9B"/>
</g>
</g>
<defs>
<linearGradient id="paint0_linear_380_7088" x1="161" y1="0" x2="161" y2="475" gradientUnits="userSpaceOnUse">
<stop stop-color="#4778EC"/>
<stop offset="1" stop-color="#4A47EC" stop-opacity="0.74"/>
</linearGradient>
<linearGradient id="paint1_linear_380_7088" x1="216.5" y1="155" x2="216.5" y2="546" gradientUnits="userSpaceOnUse">
<stop stop-color="#4778EC"/>
<stop offset="0.71916" stop-color="#0A44B4"/>
</linearGradient>
</defs>
</svg>
