<svg width="323" height="475" viewBox="0 0 323 475" fill="none" xmlns="http://www.w3.org/2000/svg">
<mask id="mask0_380_7363" style="mask-type:alpha" maskUnits="userSpaceOnUse" x="0" y="0" width="323" height="475">
<rect width="323" height="475" rx="10" fill="url(#paint0_linear_380_7363)"/>
</mask>
<g mask="url(#mask0_380_7363)">
<path d="M99.6871 317.938C45.2434 361.782 74.6671 449.362 116.2 466.389C135.716 477.563 125.708 487.672 131.212 516.937C136.717 546.201 220.784 579.19 318.362 474.37C415.941 369.55 326.369 189.707 304.351 173.744C282.334 157.782 249.921 147.711 210.276 161.506C182.754 171.084 164.739 191.303 162.237 222.696C159.735 254.089 167.742 263.134 99.6871 317.938Z" fill="url(#paint1_linear_380_7363)"/>
<g opacity="0.7">
<path d="M410.445 225.527C431.077 263.977 405.381 315.555 363.368 328.309C363.368 330.935 363.368 333.749 363.555 336.375C363.555 337.125 362.805 338.063 362.055 338.063C359.429 337.687 356.803 337.312 354.178 336.937C353.99 337.875 353.99 338.625 353.99 339.563C352.677 351.004 353.99 372.948 344.612 381.576C344.424 382.326 343.674 383.077 342.736 383.077C325.856 383.264 308.976 383.264 292.096 383.077C292.096 387.391 290.97 391.704 290.408 396.018C289.845 400.707 289.282 405.396 288.344 410.085C306.913 410.085 325.481 410.085 344.049 410.085C344.612 410.085 344.987 410.273 345.175 410.648C368.995 415.712 368.807 451.911 345.175 457.35C325.669 461.664 302.974 459.413 283.28 459.413C262.649 459.413 241.642 459.788 220.823 458.288C195.503 459.976 179.373 424.902 205.256 412.899C213.133 409.335 222.324 410.085 230.576 410.085C242.392 410.085 254.209 410.273 266.025 410.273C265.837 410.085 265.65 409.898 265.65 409.71C264.149 400.895 263.211 391.892 262.461 382.889C255.146 382.702 247.644 382.514 240.329 382.326C231.889 381.951 222.886 382.514 214.634 380.451C207.882 380.451 205.256 371.448 204.13 364.883C202.63 354.38 201.505 343.877 200.754 333.186C200.754 333.186 200.754 333.186 200.567 333.186C197.566 333.936 194.565 333.749 191.939 332.061C190.814 331.31 191.001 329.998 191.939 329.435C191.001 327.184 191.376 324.183 191.564 321.557C170.37 318.932 157.991 302.426 152.364 282.733C151.989 282.545 151.802 281.795 151.989 281.232C147.488 263.602 148.238 243.908 153.114 229.841C153.49 228.716 154.99 228.528 155.553 229.091C155.928 229.466 156.115 229.841 155.928 230.591C155.178 233.03 154.427 235.28 153.865 237.906C156.678 238.469 159.679 238.844 162.305 239.969C162.492 239.969 162.492 240.157 162.492 240.157C163.243 237.906 164.368 235.655 165.681 233.592C162.492 233.405 159.116 232.279 156.115 229.654C155.928 229.466 155.74 229.466 155.74 229.278C145.987 220.651 148.613 203.208 161.93 200.019C162.492 199.832 162.867 200.207 163.055 200.769C165.306 201.895 167.369 203.208 169.995 203.77C171.12 203.958 171.495 205.834 170.37 206.396C167.744 207.709 163.805 211.648 164.931 215.212C165.868 218.025 168.682 216.149 170.182 214.461C171.683 212.961 172.433 211.085 173.371 209.022C173.558 208.272 174.309 208.084 174.871 208.084C175.246 207.897 175.621 207.897 175.997 208.272C178.622 210.523 181.623 212.398 185.187 213.148C186.312 213.336 186.5 214.836 185.75 215.587C185.75 215.774 185.75 215.962 185.75 216.149C184.062 224.589 177.497 231.717 169.995 233.405C169.995 233.78 169.995 233.967 169.807 234.343C155.74 255.724 168.494 290.61 192.127 298.675C192.127 295.674 192.314 292.861 192.314 289.86C192.314 288.922 193.064 288.359 193.815 288.359C195.878 288.359 197.941 288.359 200.004 288.359C200.192 277.293 201.505 264.539 209.57 258.913C215.196 254.974 222.699 255.912 229.076 256.099C233.577 256.099 237.891 256.287 242.392 256.287C242.205 253.849 241.642 251.035 242.017 248.409C242.017 248.222 242.205 248.034 242.205 247.847C242.205 247.284 242.58 246.721 243.33 246.721C245.018 246.721 246.894 246.721 248.582 246.909C246.144 232.092 257.772 218.212 272.777 216.9C293.408 215.399 301.473 229.654 302.786 247.659C304.287 247.659 305.787 247.659 307.288 247.659C308.038 247.659 308.601 248.222 308.788 248.785C309.726 248.409 311.039 249.16 310.476 250.473C309.538 252.723 308.788 254.974 308.788 257.412C316.478 257.6 324.168 257.6 331.858 257.787C346.488 258.162 352.114 260.413 354.365 275.418C355.115 279.919 355.49 284.608 355.866 289.297C358.866 289.297 361.867 289.297 364.868 289.86C365.431 290.047 365.806 290.423 365.806 290.985C366.181 290.985 366.556 291.36 366.369 291.736C365.994 296.8 365.431 301.676 365.056 306.553C390.939 284.796 405.194 251.973 390.001 219.9C378.748 223.464 362.43 216.149 365.619 202.458C365.431 202.082 365.619 201.52 366.181 201.332C368.807 200.207 371.245 199.269 373.496 197.769C374.246 197.393 375.372 197.769 375.559 198.519C376.122 201.52 379.498 206.959 382.874 203.208C385.875 200.019 380.998 198.144 379.123 196.456C378.748 196.081 378.56 195.705 378.748 195.33C378.185 194.955 377.997 194.392 378.373 193.83C380.061 191.579 382.124 189.328 384.374 187.64C384.937 187.265 385.5 187.078 386.062 187.265C386.438 187.078 386.813 186.89 387.375 187.078C397.128 191.016 403.505 202.27 399.942 211.085C403.693 214.836 406.694 218.963 409.132 223.089C410.258 223.277 411.008 224.589 410.445 225.527ZM413.634 260.976C413.821 254.411 413.071 248.034 411.571 241.845C409.32 242.032 406.882 241.657 404.631 241.47C402.943 241.282 400.692 241.47 399.192 240.344C399.942 246.159 399.754 251.973 398.629 257.787C400.692 257.412 403.13 258.162 405.194 258.538C408.194 259.288 411.008 260.038 413.634 260.976ZM410.633 278.606C412.133 273.917 413.071 269.228 413.446 264.539C410.445 263.789 407.444 262.851 404.443 261.914C402.38 261.351 400.129 261.163 398.254 260.038C397.128 265.29 395.44 270.541 393.19 275.605C395.816 276.168 398.066 277.856 400.317 278.982C402.943 280.482 405.944 281.795 408.382 283.67L408.57 283.858C409.507 282.17 410.07 280.294 410.633 278.606ZM404.631 238.469C406.506 238.469 408.757 238.281 410.633 238.469C409.507 234.718 408.194 231.154 406.694 227.403C403.505 228.716 400.129 229.466 396.753 229.654C397.879 232.842 398.629 236.031 399.004 239.219C400.692 238.094 402.943 238.469 404.631 238.469ZM407.444 286.484C407.257 286.484 407.069 286.484 406.882 286.296C404.068 284.983 401.442 283.295 398.817 281.795C396.566 280.482 394.128 279.357 392.44 277.481C390.001 282.545 387 287.422 383.624 291.923C385.5 293.424 387.188 295.299 388.688 296.8C390.939 299.05 393.19 301.301 395.628 303.552C395.816 303.739 395.816 303.927 396.003 304.114C400.505 299.05 404.443 293.048 407.444 286.484ZM405.569 224.589C403.693 220.463 401.63 216.524 399.192 212.586C397.691 215.024 395.44 217.275 392.064 218.963C393.752 221.776 395.065 224.777 396.191 227.778C399.379 227.028 402.568 226.09 405.569 224.589ZM390.001 216.149C395.816 213.523 399.004 207.709 397.128 201.332C395.628 195.893 391.127 192.517 386.062 190.266C385.125 191.204 384.187 191.954 383.249 192.892C382.499 193.455 381.749 194.017 380.998 194.768C385.875 196.268 389.626 202.458 384.374 206.209C379.498 209.772 374.621 205.834 373.121 200.957C371.245 201.895 369.37 202.458 367.494 202.833C367.307 213.899 379.31 219.9 388.876 216.524C389.063 216.149 389.626 215.962 390.001 216.149ZM393.565 306.365C393.377 306.178 393.19 306.178 393.002 305.99C390.001 303.177 387 300.176 383.812 297.55C383.624 297.362 383.437 296.987 383.624 296.8C382.874 296.049 382.124 295.299 381.374 294.549C379.123 297.362 376.685 299.988 374.246 302.426C374.434 302.614 374.621 302.801 374.809 303.177C375.184 304.114 376.309 305.052 376.872 305.99C377.622 307.115 378.373 308.053 379.123 309.178C380.436 311.054 382.499 313.117 383.062 315.18C386.625 312.742 390.189 309.741 393.565 306.365ZM380.248 316.868C378.185 315.368 376.872 312.742 375.559 310.679C374.434 308.991 372.558 306.74 372.183 304.677C370.308 306.365 368.432 308.053 366.556 309.554C365.994 310.116 365.243 310.116 364.681 309.741C364.118 314.805 363.743 319.869 363.555 324.933C369.557 322.683 375.184 320.057 380.248 316.868ZM364.493 292.298C364.493 292.298 364.306 292.298 364.493 292.298C361.68 292.486 358.866 291.923 356.053 291.548C356.803 305.802 356.053 320.057 354.74 334.124C359.429 334.499 359.617 335.062 360.179 329.622C360.742 325.121 360.367 320.432 360.742 315.743C361.305 307.866 362.618 299.988 364.493 292.298ZM350.989 332.436C352.302 318.369 352.865 304.114 351.739 289.86C351.177 283.483 351.552 274.855 348.926 268.853C344.8 259.475 332.608 261.726 324.356 261.726C310.476 261.539 296.597 261.163 282.718 260.976C268.088 260.788 253.271 260.413 238.641 260.226C232.827 260.038 226.075 258.913 220.448 259.851C204.506 262.476 205.068 275.981 204.13 287.422C203.005 301.489 203.38 315.368 204.318 329.435C204.693 335.624 205.256 341.814 205.818 348.191C206.194 351.942 206.194 356.068 206.944 359.819C207.694 363.571 214.071 377.825 218.385 377.262C218.572 377.262 218.948 377.45 218.948 377.45C225.887 377.075 233.014 377.825 239.767 378.013C251.208 378.388 262.649 378.575 273.902 378.763C296.597 379.138 319.292 379.138 341.986 378.763C348.176 373.324 347.801 358.319 348.551 351.379C349.676 345.002 350.426 338.813 350.989 332.436ZM344.049 454.161C363.555 449.097 365.056 418.338 344.049 413.836C343.674 413.836 343.487 413.649 343.299 413.461C313.852 413.461 284.406 413.086 254.959 412.899C241.267 412.899 222.511 409.522 209.57 414.211C196.441 418.9 191.001 432.217 197.753 444.033C202.067 451.536 209.195 455.099 217.26 456.412C244.831 455.85 272.402 457.162 300.161 456.412C314.227 456.037 330.545 457.538 344.049 454.161ZM307.288 250.66C307.288 250.66 307.1 250.848 307.288 250.66C288.157 251.41 268.838 251.223 249.707 249.535C249.52 249.535 249.52 249.535 249.332 249.535C247.644 249.347 245.956 249.16 244.456 248.972C244.643 251.223 244.268 253.661 244.08 256.099C250.457 256.287 256.834 256.287 263.211 256.474C277.841 256.662 292.471 257.037 306.913 257.225C306.725 254.974 306.725 252.911 307.288 250.66ZM299.223 247.659C298.848 243.533 298.285 239.594 296.972 236.031C293.784 226.653 287.031 219.9 274.277 220.276C258.71 220.651 251.208 233.03 250.457 246.909C257.022 247.097 263.399 247.097 269.964 247.284C269.026 243.72 267.9 240.344 266.963 236.781C266.212 236.968 265.275 237.343 264.337 237.719C263.211 238.281 262.461 236.781 263.399 236.218C264.337 235.468 265.275 235.093 266.4 234.53C266.212 233.967 266.025 233.405 266.025 232.842C265.65 231.529 267.525 230.779 268.088 231.904C268.276 232.467 268.651 233.03 268.838 233.592C270.714 233.03 272.777 232.842 274.84 233.03C276.903 233.217 278.966 234.155 281.03 234.905C281.592 233.592 282.155 232.279 282.905 230.966C283.655 229.841 285.531 230.591 285.156 231.904C284.781 233.217 284.218 234.718 283.843 236.031C286.469 236.968 289.282 237.343 291.908 236.031C292.846 235.468 293.784 236.031 293.971 236.781C294.159 237.343 294.159 238.094 293.408 238.469C290.22 240.344 287.031 240.157 283.468 238.844C283.28 238.844 283.093 238.656 282.905 238.656C282.155 241.47 281.405 244.283 281.03 247.284C287.219 247.472 293.221 247.659 299.223 247.659ZM288.157 387.203C288.532 385.702 288.907 384.39 289.282 383.077C284.218 383.077 279.154 383.077 274.09 382.889C271.089 382.889 268.088 382.702 265.087 382.702C265.275 384.202 265.462 385.702 265.65 387.203C273.152 386.453 280.654 386.265 288.157 387.203ZM286.844 394.518C287.031 393.017 287.219 391.517 287.594 389.829C280.279 389.454 273.152 388.891 265.837 388.703C266.025 390.579 266.212 392.455 266.4 394.143C273.34 394.705 280.092 394.143 286.844 394.518ZM286.281 402.02C286.281 400.52 286.469 398.832 286.656 397.331C280.092 398.081 273.34 397.331 266.775 396.393C266.963 398.456 267.15 400.332 267.338 402.395C273.527 402.02 279.904 402.02 286.281 402.02ZM286.281 410.085C286.281 408.397 286.281 406.709 286.281 405.021C280.092 405.021 273.715 405.021 267.525 404.458C267.713 405.959 267.713 407.647 267.713 409.147C267.713 409.522 267.525 409.898 267.15 410.085C268.088 410.085 269.026 410.085 269.964 410.085C275.215 410.085 280.654 410.085 286.281 410.085ZM279.154 247.472C279.154 244.283 279.342 241.095 280.279 237.906C276.716 236.593 273.527 235.843 269.776 236.218C270.901 239.782 271.652 243.72 272.027 247.284C274.465 247.284 276.903 247.472 279.154 247.472ZM200.192 330.935C200.379 330.935 200.379 330.935 200.379 330.935C199.629 320.244 199.441 309.554 199.629 299.05C199.629 296.8 199.629 293.986 199.629 291.173C196.065 291.36 195.69 291.36 194.752 296.237C194.19 299.801 194.565 303.927 194.377 307.49C194.19 311.242 194.19 314.993 194.002 318.744C194.002 320.62 192.502 326.997 193.627 329.435C195.878 330.373 197.941 330.935 200.192 330.935ZM191.376 318.744C191.376 312.555 191.564 306.553 191.752 300.363C189.126 299.988 186.687 299.05 184.437 298.113C183.124 300.551 181.061 302.426 179.185 304.49C177.497 306.365 175.809 308.241 174.121 310.116C178.998 314.055 184.812 317.244 191.376 319.119C191.376 319.119 191.376 318.932 191.376 318.744ZM173.933 228.528C178.998 225.715 181.061 220.651 182.749 215.399C180.123 214.461 177.685 212.961 175.809 210.898C173.933 215.399 168.119 223.464 163.618 218.588C159.679 214.461 163.055 208.272 167.181 205.083C165.306 204.146 163.618 203.208 162.117 202.082C153.49 207.522 149.176 218.963 157.991 226.653C162.305 230.404 168.869 231.154 173.933 228.528ZM176.184 303.177C177.872 301.113 179.56 298.675 181.436 296.8C177.497 294.549 173.933 291.36 170.933 287.609C167.932 290.235 164.556 293.048 161.179 295.299C164.18 300.363 167.744 304.865 172.058 308.803C173.558 306.928 174.871 305.052 176.184 303.177ZM169.244 284.983C167.744 282.733 166.244 280.107 165.118 277.481C162.117 279.357 158.741 280.857 155.553 281.982C156.678 285.734 158.179 289.297 160.054 292.861C162.867 290.047 166.056 287.422 169.244 284.983ZM163.805 274.668C163.055 272.417 162.305 270.166 161.742 267.916C161.555 268.103 161.179 268.103 160.992 268.103C158.179 268.291 155.178 268.103 152.364 267.728C152.927 271.667 153.677 275.605 154.615 279.357C157.616 277.481 160.804 275.793 163.805 274.668ZM161.93 242.783C158.929 242.22 156.115 241.095 153.49 239.969C152.739 243.533 152.177 247.097 151.989 250.66C152.177 250.473 152.177 250.473 152.364 250.473C154.99 249.91 157.803 250.097 160.429 250.848C160.804 248.034 161.179 245.221 161.93 242.783ZM160.992 265.102C161.179 265.102 161.179 265.102 161.179 265.102C160.429 261.351 160.242 257.6 160.242 253.661C160.054 253.661 160.054 253.661 159.867 253.661C157.428 253.098 155.178 252.911 152.739 252.911C152.364 252.911 151.989 252.723 151.802 252.536C151.614 256.85 151.614 261.163 152.177 265.477C154.99 265.29 158.179 265.102 160.992 265.102Z" fill="#222221"/>
<path d="M342.548 417.775C351.926 417.4 358.115 430.529 357.553 438.594C356.99 447.222 348.925 454.537 340.485 453.036C340.11 453.411 339.547 453.786 338.984 453.786C317.04 453.974 295.095 453.974 273.151 453.974C254.958 453.974 232.826 457.35 215.008 452.661C205.63 450.223 196.44 442.72 198.128 431.842C199.253 424.34 205.067 418.713 212.007 416.837C212.194 416.462 212.57 416.275 213.132 416.275C255.333 413.461 298.472 415.899 340.672 416.275C341.798 416.087 342.36 416.837 342.548 417.775ZM340.11 449.848C347.237 448.91 353.989 444.971 353.614 436.718C353.239 429.591 348.55 422.652 341.61 420.963C341.047 420.776 340.672 420.401 340.485 420.026C298.847 420.026 256.083 422.089 214.633 419.088C207.693 422.464 200.003 427.903 202.254 437.281C205.067 448.16 218.009 449.472 227.012 450.035C239.015 450.785 251.394 449.848 263.398 449.848C288.531 449.66 313.851 449.472 338.984 449.472C339.547 449.285 339.922 449.66 340.11 449.848Z" fill="#222221"/>
<path d="M353.613 436.719C353.988 444.971 347.236 449.097 340.109 449.848C339.734 449.66 339.358 449.285 338.796 449.285C313.663 449.285 288.342 449.473 263.21 449.66C251.206 449.66 238.827 450.598 226.823 449.848C217.82 449.285 204.879 447.972 202.065 437.094C199.815 427.716 207.505 422.277 214.444 418.9C256.082 421.901 298.658 419.838 340.296 419.838C340.484 420.213 340.859 420.588 341.422 420.776C348.549 422.464 353.238 429.404 353.613 436.719ZM334.669 442.158C338.796 442.345 342.734 439.344 342.359 435.031C342.172 431.092 338.796 429.779 335.42 429.591C335.607 429.029 335.42 428.091 334.482 428.091C330.918 428.091 327.917 431.467 327.73 434.843C327.355 438.969 330.731 441.97 334.669 442.158ZM306.16 442.72C310.099 441.22 311.975 435.968 309.912 432.217C308.036 429.029 303.347 427.716 300.346 429.591C297.72 430.717 295.845 433.53 296.22 436.719C296.783 441.22 301.847 444.408 306.16 442.72ZM277.276 440.845C281.215 439.157 282.528 434.468 280.09 430.904C278.027 428.091 274.275 427.528 271.65 429.029C267.711 428.654 265.46 433.718 266.961 437.094C268.649 441.22 273.338 442.72 277.276 440.845ZM251.768 441.22C255.52 438.782 255.707 433.155 252.894 429.966C251.581 428.466 249.518 427.528 247.267 427.716C246.329 427.903 245.579 428.278 244.829 428.654C241.078 429.966 238.827 434.468 240.702 438.219C242.578 442.345 248.205 443.471 251.768 441.22ZM221.759 441.22C226.26 440.657 230.012 436.531 228.511 431.842C227.011 427.341 221.009 425.09 216.882 427.341C213.882 428.466 212.194 431.467 212.381 434.843C212.756 439.157 217.445 441.595 221.759 441.22Z" fill="#B2D7E8"/>
<path d="M351.738 289.86C352.864 303.927 352.301 318.181 350.988 332.436C350.425 338.813 349.675 345.002 348.925 351.379C347.987 358.319 348.55 373.324 342.36 378.763C319.666 378.95 296.971 378.95 274.276 378.763C262.835 378.575 251.394 378.388 240.141 378.013C233.201 377.825 226.261 377.075 219.322 377.45C219.134 377.262 218.947 377.075 218.759 377.262C214.633 377.825 208.256 363.758 207.318 359.819C206.568 356.068 206.568 351.942 206.193 348.191C205.63 342.001 205.067 335.812 204.692 329.435C203.754 315.368 203.379 301.489 204.505 287.422C205.442 275.793 204.88 262.476 220.822 259.85C226.636 258.913 233.389 260.038 239.015 260.226C253.645 260.413 268.462 260.788 283.092 260.976C296.971 261.163 310.85 261.539 324.73 261.726C332.982 261.914 345.174 259.475 349.3 268.853C351.551 274.855 351.363 283.483 351.738 289.86ZM329.606 293.048C336.734 291.923 341.61 285.358 340.485 278.231C339.359 271.667 332.42 265.665 325.668 268.666C325.292 268.853 325.105 269.041 325.105 269.228C319.103 270.354 314.226 275.418 315.352 282.17C316.29 289.11 322.667 293.986 329.606 293.048ZM335.608 353.067C335.796 338.25 333.92 323.996 322.104 313.867C309.162 302.801 291.344 301.301 275.214 303.177C249.519 305.802 215.758 320.244 220.072 351.379C219.884 351.379 219.697 351.379 219.509 351.379C218.196 351.379 218.196 353.442 219.509 353.442C255.896 356.818 293.032 356.068 329.606 355.318C330.169 355.318 330.544 355.13 330.732 354.755C331.857 354.943 332.795 355.13 333.92 354.943C334.295 354.943 334.67 354.755 334.858 354.38C335.233 354.193 335.608 353.817 335.608 353.067ZM273.901 295.112C279.153 295.112 282.717 289.86 281.966 284.983C281.591 282.733 278.215 283.67 278.59 285.921C279.153 288.922 276.527 292.111 273.526 291.736C270.338 291.548 268.462 288.359 268.462 285.359C268.462 284.233 266.962 284.046 266.587 285.171C264.898 289.672 269.212 295.112 273.901 295.112ZM234.514 290.985C240.891 288.172 243.704 280.294 240.891 273.917C238.453 267.916 230.95 264.915 225.511 268.853C219.322 270.729 215.571 277.481 217.821 283.858C220.259 290.61 227.762 293.986 234.514 290.985Z" fill="#8CC5DF"/>
<path d="M344.048 413.836C365.055 418.15 363.554 449.097 344.048 454.162C330.544 457.725 314.039 456.037 300.159 456.412C272.588 456.975 245.017 455.85 217.258 456.412C209.006 455.099 202.066 451.536 197.752 444.033C191 432.217 196.439 418.9 209.568 414.211C222.51 409.523 241.266 412.899 254.958 412.899C284.404 413.086 313.851 413.274 343.298 413.461C343.485 413.649 343.673 413.836 344.048 413.836ZM357.552 438.407C358.115 430.342 351.738 417.4 342.548 417.588C342.36 416.65 341.797 415.9 340.672 415.9C298.471 415.524 255.333 413.086 213.132 415.9C212.569 415.9 212.194 416.275 212.007 416.462C205.067 418.15 199.253 423.965 198.127 431.467C196.439 442.345 205.442 449.66 215.008 452.286C232.826 456.975 254.958 453.599 273.151 453.599C295.095 453.599 317.04 453.599 338.984 453.411C339.734 453.411 340.297 453.036 340.485 452.661C349.112 454.349 356.99 447.222 357.552 438.407Z" fill="#4C859D"/>
<path d="M340.485 278.231C341.611 285.358 336.734 291.923 329.607 293.048C322.667 294.174 316.29 289.11 315.352 282.17C314.414 275.418 319.103 270.354 325.105 269.228C325.105 269.041 325.293 268.853 325.668 268.666C332.42 265.665 339.36 271.479 340.485 278.231ZM329.044 289.672C340.673 288.172 339.36 270.541 328.669 270.541C328.481 270.541 328.481 270.541 328.294 270.541C322.667 270.729 317.603 276.168 318.728 281.795C319.666 286.859 323.98 290.423 329.044 289.672Z" fill="#222221"/>
<path d="M322.105 313.867C334.109 323.996 335.797 338.438 335.609 353.067C335.609 353.817 335.234 354.193 334.859 354.568C334.671 354.755 334.296 354.943 333.921 355.13C332.796 355.13 331.858 354.943 330.732 354.943C330.545 355.318 329.982 355.505 329.607 355.505C293.221 356.256 255.896 357.006 219.51 353.63C218.197 353.442 218.197 351.567 219.51 351.567C219.698 351.567 219.885 351.567 220.073 351.567C215.759 320.244 249.519 305.99 275.215 303.364C291.345 301.301 308.976 302.801 322.105 313.867ZM331.108 352.505C331.483 352.505 331.858 352.317 332.045 352.317C331.483 339 330.545 325.871 319.479 316.306C307.85 306.365 291.908 305.052 277.466 306.177C270.339 306.74 263.024 308.053 256.084 310.304C259.46 315.18 262.273 320.432 265.462 325.496C267.9 329.435 269.963 334.686 273.339 338.25C275.028 337.312 276.903 336.937 278.779 336.75C286.469 336.374 293.783 343.127 293.033 351.004C293.033 351.192 293.033 351.192 292.846 351.379C305.224 351.567 317.416 351.567 329.607 351.379C330.357 351.754 330.732 352.129 331.108 352.505ZM268.275 351.379C275.59 351.379 282.717 351.567 290.032 351.567C290.032 351.379 289.845 351.379 289.845 351.192C289.094 345.377 285.531 339.938 278.966 339.938C272.777 339.938 268.275 344.627 268.275 350.629C268.463 351.004 268.463 351.192 268.275 351.379ZM266.962 351.379C266.962 351.192 266.775 351.192 266.775 351.192C265.087 346.503 267.338 342.376 271.089 339.751C268.275 337.125 266.212 333.374 264.337 330.185C260.585 324.183 256.459 318.369 253.271 312.179C253.083 311.992 253.083 311.804 253.083 311.617C235.828 317.994 221.573 330.373 222.323 351.379C237.141 351.004 251.958 351.192 266.962 351.379Z" fill="#222221"/>
<path d="M333.733 274.105C336.547 277.481 334.859 283.108 331.858 285.734C328.669 288.359 323.98 286.671 322.48 282.92C320.979 279.169 323.418 274.855 326.981 273.73C328.294 271.854 332.42 272.417 333.733 274.105ZM332.608 278.606C332.608 278.231 332.608 278.044 332.608 277.669C332.42 276.356 331.67 275.043 330.357 274.855C329.232 274.668 328.857 275.418 328.107 275.981C327.731 276.356 327.169 276.168 326.794 275.981C326.231 276.543 325.856 276.918 325.481 277.481C327.169 277.481 329.232 277.293 330.92 278.044C330.92 278.044 331.107 278.044 331.107 278.231C331.483 278.231 331.67 278.231 332.045 278.419C332.233 278.419 332.42 278.606 332.608 278.606ZM332.045 281.232C331.483 281.232 330.92 281.045 330.545 281.045C330.357 281.42 330.17 281.795 329.795 281.982C329.607 283.108 327.919 283.67 327.169 282.358C326.794 281.795 326.606 281.045 326.606 280.482C326.231 280.482 325.668 280.294 325.293 280.294C324.918 280.294 324.73 280.107 324.355 279.919C324.355 280.107 324.355 280.107 324.355 280.107C324.168 282.92 327.169 285.546 329.795 283.858C330.92 283.483 331.67 282.358 332.045 281.232Z" fill="#222221"/>
<path d="M332.045 352.317C331.67 352.317 331.295 352.505 331.108 352.505C330.92 351.942 330.357 351.567 329.607 351.567C317.416 351.754 305.037 351.567 292.846 351.567C292.846 351.379 292.846 351.379 293.033 351.192C293.596 343.314 286.469 336.562 278.779 336.937C276.903 337.125 275.027 337.5 273.339 338.438C269.963 334.874 267.9 329.622 265.462 325.684C262.461 320.62 259.46 315.368 256.084 310.491C263.024 308.241 270.526 306.928 277.466 306.365C292.095 305.052 308.038 306.553 319.479 316.493C330.545 325.871 331.483 339 332.045 352.317Z" fill="#F5F5F5"/>
<path d="M328.671 270.541C339.174 270.541 340.675 288.172 329.046 289.672C324.169 290.423 319.668 286.671 318.73 281.982C317.605 276.356 322.669 270.916 328.296 270.729C328.483 270.729 328.483 270.729 328.671 270.541ZM331.859 285.734C334.86 283.108 336.548 277.481 333.735 274.105C332.234 272.417 328.296 271.854 326.983 273.73C323.232 274.855 320.981 279.169 322.481 282.92C323.794 286.859 328.483 288.547 331.859 285.734Z" fill="#4C859D"/>
<path d="M309.915 432.217C311.979 435.781 310.103 441.032 306.164 442.721C301.85 444.409 296.786 441.22 296.224 436.719C295.848 433.718 297.724 430.904 300.35 429.591C303.351 427.716 308.04 429.029 309.915 432.217ZM305.414 439.157C307.29 438.032 308.227 435.406 307.102 433.343C305.789 431.279 303.538 431.092 301.475 431.842C299.975 432.967 298.849 434.843 299.6 436.719C300.35 438.969 303.163 440.47 305.414 439.157Z" fill="#222221"/>
<path d="M307.101 433.53C308.226 435.406 307.288 438.219 305.412 439.344C303.349 440.47 300.348 439.157 299.598 436.906C298.848 435.03 299.973 433.155 301.474 432.03C303.537 431.279 305.788 431.467 307.101 433.53Z" fill="#4C859D"/>
<path d="M307.1 250.848C307.1 250.848 307.287 250.66 307.1 250.848C306.537 252.911 306.537 254.974 306.912 257.225C292.283 257.037 277.653 256.662 263.211 256.475C256.834 256.287 250.457 256.287 244.08 256.099C244.268 253.849 244.643 251.41 244.455 248.972C246.143 249.16 247.831 249.347 249.332 249.535C249.519 249.535 249.519 249.535 249.707 249.535C268.838 251.223 287.969 251.41 307.1 250.848Z" fill="#4C859D"/>
<path d="M297.159 236.031C298.285 239.594 299.035 243.533 299.41 247.659C293.408 247.659 287.406 247.659 281.217 247.472C281.592 244.471 282.342 241.657 283.092 238.844C283.28 238.844 283.468 239.032 283.655 239.032C287.031 240.344 290.407 240.532 293.596 238.656C294.346 238.281 294.346 237.531 294.158 236.968L297.159 236.031Z" fill="#F6E16F"/>
<path d="M297.159 236.031L294.158 236.968C293.783 236.218 293.033 235.655 292.095 236.218C289.469 237.719 286.656 237.156 284.03 236.218C284.405 234.905 284.968 233.592 285.343 232.092C285.718 230.779 283.842 230.029 283.092 231.154C282.342 232.279 281.779 233.78 281.217 235.093C279.153 234.155 277.09 233.405 275.027 233.217C272.964 233.03 270.901 233.217 269.025 233.78C268.838 233.217 268.65 232.655 268.275 232.092C267.712 230.966 265.837 231.717 266.212 233.03C266.399 233.592 266.587 234.155 266.587 234.718C265.649 235.093 264.711 235.655 263.586 236.406C262.648 237.156 263.399 238.469 264.524 237.906C265.462 237.531 266.212 237.156 267.15 236.968C268.088 240.532 269.213 243.908 270.151 247.472C263.774 247.284 257.209 247.284 250.645 247.097C251.395 233.217 258.897 220.838 274.465 220.463C287.219 219.901 293.971 226.465 297.159 236.031Z" fill="#F6E16F"/>
<path d="M290.032 351.567C282.717 351.567 275.59 351.379 268.275 351.379C268.463 351.192 268.463 351.004 268.463 350.817C268.463 344.815 272.964 340.126 279.154 340.126C285.718 340.126 289.282 345.377 290.032 351.379V351.567Z" fill="#4C859D"/>
<path d="M289.283 382.889C288.908 384.202 288.533 385.703 288.158 387.015C280.655 386.078 273.153 386.265 265.651 386.828C265.463 385.327 265.275 383.827 265.088 382.326C268.089 382.326 271.09 382.514 274.091 382.514C279.342 382.889 284.219 382.889 289.283 382.889Z" fill="#DFEDF6"/>
<path d="M287.595 390.016C287.407 391.517 287.032 393.017 286.844 394.705C280.092 394.33 273.153 394.705 266.401 394.518C266.213 392.642 266.025 390.767 265.838 389.078C273.153 389.078 280.28 389.641 287.595 390.016Z" fill="#DFEDF6"/>
<path d="M286.657 397.519C286.469 399.019 286.469 400.707 286.282 402.208C279.905 402.208 273.528 402.208 267.338 402.77C267.151 400.707 266.963 398.644 266.775 396.768C273.152 397.519 280.092 398.269 286.657 397.519Z" fill="#DFEDF6"/>
<path d="M286.094 404.834C286.094 406.522 286.094 408.397 286.094 409.898C280.655 409.898 275.215 409.898 269.776 409.898C268.838 409.898 267.901 409.898 266.963 409.898C267.338 409.71 267.526 409.335 267.526 408.96C267.526 407.459 267.338 405.771 267.338 404.271C273.527 404.834 279.904 404.834 286.094 404.834Z" fill="#DFEDF6"/>
<path d="M281.966 284.796C282.904 289.672 279.34 294.924 273.901 294.924C269.024 294.924 264.898 289.672 266.586 284.983C266.961 284.045 268.461 284.045 268.461 285.171C268.461 288.172 270.337 291.173 273.526 291.548C276.527 291.735 279.152 288.547 278.59 285.734C278.215 283.67 281.591 282.733 281.966 284.796Z" fill="#222221"/>
<path d="M279.904 430.904C282.53 434.468 281.029 439.157 277.091 440.845C273.152 442.533 268.463 441.22 266.775 437.281C265.274 433.905 267.525 428.841 271.464 429.216C274.277 427.716 278.028 428.091 279.904 430.904ZM275.778 438.219C277.841 437.281 278.779 435.218 277.841 433.155C276.34 430.342 273.152 431.092 271.464 432.967C270.901 433.53 270.151 433.53 269.776 433.155C268.463 435.593 271.839 439.719 275.778 438.219Z" fill="#222221"/>
<path d="M280.279 237.719C279.528 240.907 279.153 244.096 279.153 247.284C276.903 247.284 274.464 247.284 272.026 247.097C271.651 243.533 270.901 239.594 269.775 236.031C273.339 235.655 276.528 236.593 280.279 237.719Z" fill="#F6E16F"/>
<path d="M277.652 432.967C278.777 435.03 277.839 437.281 275.589 438.031C271.65 439.532 268.274 435.406 269.399 432.78C269.962 433.155 270.524 433.155 271.087 432.592C273.15 430.904 276.339 430.154 277.652 432.967Z" fill="#4C859D"/>
<path d="M266.775 351.004C266.775 351.192 266.962 351.192 266.962 351.192C251.958 351.004 237.14 351.004 222.136 351.192C221.386 330.185 235.64 317.806 252.895 311.429C252.895 311.617 253.083 311.804 253.083 311.992C256.459 318.181 260.398 323.996 264.149 329.998C266.212 333.186 268.088 336.937 270.901 339.563C267.337 342.189 264.899 346.503 266.775 351.004Z" fill="#DFEDF6"/>
<path d="M252.895 429.966C255.708 433.155 255.521 438.782 251.769 441.22C248.206 443.471 242.579 442.345 240.703 438.406C238.828 434.655 241.079 430.154 244.83 428.841C245.58 428.278 246.518 427.903 247.268 427.903C249.519 427.34 251.582 428.278 252.895 429.966ZM249.331 438.594C251.582 437.656 251.957 435.03 251.207 432.967C250.832 432.029 249.894 431.092 248.956 430.904C247.456 430.529 246.893 431.467 245.955 432.217C245.392 432.592 244.642 432.592 244.267 432.217C243.517 433.53 243.142 435.406 243.892 436.718C244.642 438.782 247.268 439.532 249.331 438.594Z" fill="#222221"/>
<path d="M251.021 432.967C251.959 435.03 251.396 437.656 249.145 438.594C247.082 439.532 244.456 438.782 243.519 436.719C242.956 435.406 243.143 433.718 243.894 432.217C244.269 432.78 245.207 432.78 245.582 432.217C246.52 431.279 247.082 430.529 248.583 430.904C249.896 431.279 250.646 432.03 251.021 432.967Z" fill="#4C859D"/>
<path d="M240.891 273.917C243.516 280.294 240.891 288.172 234.514 290.985C227.761 293.986 220.259 290.61 217.821 283.858C215.57 277.481 219.321 270.729 225.511 268.853C230.95 264.915 238.452 267.915 240.891 273.917ZM231.7 288.735C244.079 285.358 238.077 264.539 226.073 271.292C225.698 271.479 225.323 271.479 224.948 271.292C221.572 273.542 219.134 277.481 220.259 281.795C221.572 286.859 226.824 290.047 231.7 288.735Z" fill="#222221"/>
<path d="M233.766 279.919H233.953C233.953 282.733 231.328 285.546 228.327 284.983C225.701 284.421 224.013 281.795 224.763 279.357C225.701 279.357 226.826 279.544 227.764 279.544C227.764 279.732 227.764 279.732 227.764 279.732C227.576 280.482 227.764 281.232 227.764 281.982C227.952 284.421 231.14 283.67 230.952 281.982C230.952 281.232 231.14 280.482 230.952 279.732C230.952 279.732 230.952 279.732 231.14 279.732C231.515 279.919 231.703 279.919 232.078 280.107C232.64 280.482 233.016 280.294 233.203 279.919C233.391 279.919 233.578 279.919 233.766 279.919Z" fill="#F5F5F5"/>
<path d="M226.075 271.292C238.078 264.539 244.08 285.359 231.701 288.735C226.825 290.047 221.573 286.859 220.448 281.795C219.322 277.481 221.761 273.542 225.137 271.292C225.324 271.479 225.699 271.479 226.075 271.292ZM228.7 287.422C237.703 288.172 239.204 273.917 230.388 272.605C230.013 272.605 229.638 272.792 229.451 272.98C226.075 273.73 223.074 276.356 222.511 279.732C221.761 283.483 224.949 287.047 228.7 287.422Z" fill="#4C859D"/>
<path d="M230.388 272.417C239.203 273.73 237.702 287.984 228.7 287.234C224.948 286.859 221.76 283.295 222.323 279.544C222.885 275.981 226.074 273.542 229.262 272.792C229.637 272.605 230.012 272.417 230.388 272.417ZM233.951 279.919H233.764C233.576 279.919 233.389 279.919 233.201 279.919C233.013 280.294 232.638 280.482 232.076 280.107C231.888 279.919 231.513 279.919 231.138 279.732C231.138 279.732 231.138 279.732 230.95 279.732C231.138 280.482 230.95 281.232 230.95 281.982C231.138 283.671 227.949 284.421 227.762 281.982C227.762 281.232 227.574 280.482 227.762 279.732C227.762 279.544 227.762 279.544 227.762 279.544C226.824 279.544 225.886 279.357 224.761 279.357C224.011 281.795 225.699 284.421 228.324 284.983C231.513 285.546 233.951 282.733 233.951 279.919ZM233.576 277.669C232.826 276.168 231.513 275.043 230.012 274.293C228.512 275.23 226.824 276.168 225.886 277.481C228.324 277.294 231.138 277.106 233.576 277.669Z" fill="#222221"/>
<path d="M230.013 274.293C231.513 275.043 232.826 276.168 233.577 277.669C231.138 277.106 228.325 277.106 225.887 277.481C226.825 276.168 228.513 275.23 230.013 274.293Z" fill="#4C859D"/>
<path d="M228.514 431.655C230.014 436.343 226.263 440.47 221.761 441.032C217.635 441.595 212.946 439.157 212.383 434.655C212.008 431.467 213.884 428.278 216.885 427.153C221.011 424.902 227.013 427.153 228.514 431.655ZM220.824 438.032C224.012 437.844 226.826 434.843 224.95 431.842C223.262 428.841 219.886 429.404 216.885 429.779C216.885 429.779 216.885 429.779 216.697 429.779C215.572 430.904 214.822 432.78 215.197 434.468C215.76 436.906 218.385 438.219 220.824 438.032Z" fill="#222221"/>
<path d="M224.951 431.842C226.826 435.031 224.013 437.844 220.824 438.032C218.386 438.219 215.76 436.906 215.385 434.28C215.198 432.592 215.76 430.717 216.886 429.591C216.886 429.591 216.886 429.591 217.073 429.591C219.887 429.404 223.263 428.841 224.951 431.842Z" fill="#4C859D"/>
<path d="M200.38 330.935H200.192C197.941 331.123 195.878 330.373 194.003 329.435C192.877 326.997 194.378 320.807 194.378 318.744C194.565 314.993 194.565 311.242 194.753 307.491C194.94 303.927 194.378 299.801 195.128 296.237C195.878 291.548 196.441 291.36 200.004 291.173C200.004 293.986 200.004 296.8 200.004 299.05C199.442 309.554 199.629 320.245 200.38 330.935Z" fill="#4C859D"/>
<path d="M191.752 300.363C191.564 306.365 191.564 312.555 191.377 318.744C191.377 318.932 191.377 319.119 191.377 319.307C184.812 317.431 178.998 314.243 174.121 310.304C175.809 308.428 177.497 306.553 179.185 304.677C180.873 302.614 183.124 300.551 184.437 298.3C186.688 299.238 189.126 299.988 191.752 300.363Z" fill="#DFEDF6"/>
<path d="M182.56 215.399C180.872 220.463 178.997 225.715 173.745 228.528C168.681 231.154 162.116 230.591 157.802 226.653C149.175 218.963 153.489 207.334 162.116 202.082C163.617 203.208 165.305 204.146 166.993 205.083C163.054 208.272 159.678 214.461 163.429 218.588C167.931 223.464 173.933 215.399 175.621 210.898C177.496 213.148 179.934 214.649 182.56 215.399Z" fill="#4C859D"/>
<path d="M181.624 296.8C179.748 298.675 178.06 301.114 176.372 303.177C175.059 305.052 173.559 306.74 172.246 308.616C167.932 304.677 164.181 300.176 161.367 295.112C164.743 292.861 168.119 290.048 171.12 287.422C173.934 291.173 177.497 294.361 181.624 296.8Z" fill="#DFEDF6"/>
<path d="M165.118 277.481C166.244 280.107 167.744 282.545 169.245 284.983C166.056 287.422 162.868 290.047 160.054 293.048C158.179 289.672 156.678 285.921 155.553 282.17C158.741 280.857 162.117 279.357 165.118 277.481Z" fill="#DFEDF6"/>
<path d="M165.869 233.592C164.556 235.655 163.618 237.906 162.68 240.157C162.493 240.157 162.493 239.969 162.493 239.969C159.867 239.032 156.866 238.469 154.053 237.906C154.615 235.468 155.366 233.03 156.116 230.591C156.303 230.029 156.116 229.466 155.741 229.091C155.928 229.278 156.116 229.278 156.116 229.466C159.304 232.092 162.68 233.405 165.869 233.592Z" fill="#DFEDF6"/>
<path d="M161.741 267.916C162.304 270.166 163.054 272.417 163.804 274.668C160.803 275.793 157.615 277.669 154.614 279.357C153.489 275.606 152.738 271.667 152.363 267.728C155.177 268.103 158.178 268.291 160.991 268.103C161.366 268.103 161.554 268.103 161.741 267.916Z" fill="#DFEDF6"/>
<path d="M161.743 242.783C161.931 242.783 161.931 242.783 161.743 242.783C161.181 245.408 160.806 248.034 160.43 250.848C157.805 250.285 154.991 250.097 152.365 250.473C152.178 250.473 151.99 250.66 151.99 250.66C152.365 247.096 152.74 243.533 153.491 239.969C156.304 241.095 159.117 242.22 161.743 242.783Z" fill="#DFEDF6"/>
<path d="M161.178 265.102C160.991 265.102 160.991 265.102 160.991 265.102C158.177 264.915 155.176 265.29 152.175 265.477C151.8 261.163 151.613 256.85 151.8 252.536C151.988 252.723 152.363 252.911 152.738 252.911C155.176 252.911 157.427 253.098 159.865 253.661C160.053 253.661 160.053 253.661 160.24 253.661C160.24 257.6 160.615 261.351 161.178 265.102Z" fill="#DFEDF6"/>
</g>
<path d="M81.192 209.104V210.104H82.192V209.104H81.192ZM63.336 209.104V208.104H62.336V209.104H63.336ZM63.336 232V233H64.336V232H63.336ZM45.192 232H44.192V233H45.192V232ZM45.192 209.104H46.192V208.104H45.192V209.104ZM-10.104 209.104H-11.104V210.104H-10.104V209.104ZM-10.104 196.144L-10.8983 195.536L-11.104 195.805V196.144H-10.104ZM39.576 131.2V130.2H39.0819L38.7817 130.592L39.576 131.2ZM59.592 131.2L60.3904 131.802L61.5985 130.2H59.592V131.2ZM12.792 193.264L11.9936 192.662L10.7855 194.264H12.792V193.264ZM45.768 193.264V194.264H46.768V193.264H45.768ZM45.768 172.96V171.96H44.768V172.96H45.768ZM63.336 172.96H64.336V171.96H63.336V172.96ZM63.336 193.264H62.336V194.264H63.336V193.264ZM81.192 193.264H82.192V192.264H81.192V193.264ZM81.192 208.104H63.336V210.104H81.192V208.104ZM62.336 209.104V232H64.336V209.104H62.336ZM63.336 231H45.192V233H63.336V231ZM46.192 232V209.104H44.192V232H46.192ZM45.192 208.104H-10.104V210.104H45.192V208.104ZM-9.104 209.104V196.144H-11.104V209.104H-9.104ZM-9.30974 196.752L40.3703 131.808L38.7817 130.592L-10.8983 195.536L-9.30974 196.752ZM39.576 132.2H59.592V130.2H39.576V132.2ZM58.7936 130.598L11.9936 192.662L13.5904 193.866L60.3904 131.802L58.7936 130.598ZM12.792 194.264H45.768V192.264H12.792V194.264ZM46.768 193.264V172.96H44.768V193.264H46.768ZM45.768 173.96H63.336V171.96H45.768V173.96ZM62.336 172.96V193.264H64.336V172.96H62.336ZM63.336 194.264H81.192V192.264H63.336V194.264ZM80.192 193.264V209.104H82.192V193.264H80.192Z" fill="white" fill-opacity="0.2"/>
</g>
<defs>
<linearGradient id="paint0_linear_380_7363" x1="161.5" y1="0" x2="161.5" y2="475" gradientUnits="userSpaceOnUse">
<stop stop-color="#4778EC"/>
<stop offset="1" stop-color="#4A47EC" stop-opacity="0.74"/>
</linearGradient>
<linearGradient id="paint1_linear_380_7363" x1="216.5" y1="155" x2="216.5" y2="546" gradientUnits="userSpaceOnUse">
<stop stop-color="#394B39"/>
<stop offset="0.71916" stop-color="#BBB476"/>
</linearGradient>
</defs>
</svg>
