<svg width="63" height="80" viewBox="0 0 63 80" fill="none" xmlns="http://www.w3.org/2000/svg">
<g clip-path="url(#clip0_125_9608)">
<path d="M31.5507 11.8148C44.942 11.8148 55.6956 22.5281 55.6956 35.6445H62.9999C62.9999 18.5231 48.8985 4.50562 31.4492 4.50562L31.5507 11.8148Z" fill="#F35251"/>
<path d="M31.5507 11.8148V4.50562C14.1014 4.50562 0 18.5231 0 35.6445H7.30435C7.30435 22.428 18.1594 11.8148 31.5507 11.8148Z" fill="#FF6968"/>
<path d="M31.5511 72.0901L12.5801 80V0H31.5511V72.0901Z" fill="#57D8FC"/>
<path d="M50.5218 80L31.5508 72.0901V0H50.5218V80Z" fill="#2DCEFB"/>
<path d="M55.6957 35.7447C55.6957 48.9612 44.8406 59.5745 31.5508 59.5745V66.7835C48.8986 66.7835 63.1015 52.8661 63.1015 35.6446H55.6957V35.7447Z" fill="#F35251"/>
<path d="M7.30435 35.6445H0C0 52.8661 14.1014 66.7835 31.5507 66.7835V59.5744C18.1594 59.4743 7.30435 48.8611 7.30435 35.6445Z" fill="#FF6968"/>
<path d="M17.0434 7.80975L17.7536 9.21151L19.2753 9.41176L18.1593 10.5131L18.3622 12.015L17.0434 11.3141L15.6231 12.015L15.9275 10.5131L14.8115 9.41176L16.3333 9.21151L17.0434 7.80975Z" fill="#FF6968"/>
<path d="M31.4489 2.30286L32.8692 5.20649L36.1156 5.60699L33.7822 7.90987L34.2895 11.0137L31.4489 9.51187L28.6083 11.0137L29.1156 7.90987L26.7822 5.60699L30.0286 5.20649L31.4489 2.30286Z" fill="#FF6968"/>
<path d="M45.9564 7.80975L45.2462 9.21151L43.623 9.41176L44.8404 10.5131L44.5361 12.015L45.9564 11.3141L47.2752 12.015L47.0723 10.5131L48.1883 9.41176L46.6665 9.21151L45.9564 7.80975Z" fill="#FF6968"/>
<path d="M26.562 29.4V42H23.646V31.74H21.126V29.4H26.562ZM34.1508 42.216C33.1068 42.216 32.1768 41.958 31.3608 41.442C30.5448 40.926 29.9028 40.182 29.4348 39.21C28.9788 38.226 28.7508 37.056 28.7508 35.7C28.7508 34.344 28.9788 33.18 29.4348 32.208C29.9028 31.224 30.5448 30.474 31.3608 29.958C32.1768 29.442 33.1068 29.184 34.1508 29.184C35.1948 29.184 36.1248 29.442 36.9408 29.958C37.7568 30.474 38.3928 31.224 38.8488 32.208C39.3168 33.18 39.5508 34.344 39.5508 35.7C39.5508 37.056 39.3168 38.226 38.8488 39.21C38.3928 40.182 37.7568 40.926 36.9408 41.442C36.1248 41.958 35.1948 42.216 34.1508 42.216ZM34.1508 39.75C34.9188 39.75 35.5188 39.42 35.9508 38.76C36.3948 38.1 36.6168 37.08 36.6168 35.7C36.6168 34.32 36.3948 33.3 35.9508 32.64C35.5188 31.98 34.9188 31.65 34.1508 31.65C33.3948 31.65 32.7948 31.98 32.3508 32.64C31.9188 33.3 31.7028 34.32 31.7028 35.7C31.7028 37.08 31.9188 38.1 32.3508 38.76C32.7948 39.42 33.3948 39.75 34.1508 39.75Z" fill="black"/>
</g>
<defs>
<clipPath id="clip0_125_9608">
<rect width="63" height="80" fill="white"/>
</clipPath>
</defs>
</svg>
