<svg width="63" height="80" viewBox="0 0 63 80" fill="none" xmlns="http://www.w3.org/2000/svg">
<g clip-path="url(#clip0_125_9636)">
<path d="M31.5507 11.8148C44.942 11.8148 55.6956 22.5281 55.6956 35.6445H62.9999C62.9999 18.5231 48.8985 4.50562 31.4492 4.50562L31.5507 11.8148Z" fill="#F35251"/>
<path d="M31.5507 11.8148V4.50562C14.1014 4.50562 0 18.5231 0 35.6445H7.30435C7.30435 22.428 18.1594 11.8148 31.5507 11.8148Z" fill="#FF6968"/>
<path d="M31.5511 72.0901L12.5801 80V0H31.5511V72.0901Z" fill="#57D8FC"/>
<path d="M50.5218 80L31.5508 72.0901V0H50.5218V80Z" fill="#2DCEFB"/>
<path d="M55.6957 35.7447C55.6957 48.9612 44.8406 59.5745 31.5508 59.5745V66.7835C48.8986 66.7835 63.1015 52.8661 63.1015 35.6446H55.6957V35.7447Z" fill="#F35251"/>
<path d="M7.30435 35.6445H0C0 52.8661 14.1014 66.7835 31.5507 66.7835V59.5744C18.1594 59.4743 7.30435 48.8611 7.30435 35.6445Z" fill="#FF6968"/>
<path d="M17.0434 7.80975L17.7536 9.21151L19.2753 9.41176L18.1593 10.5131L18.3622 12.015L17.0434 11.3141L15.6231 12.015L15.9275 10.5131L14.8115 9.41176L16.3333 9.21151L17.0434 7.80975Z" fill="#FF6968"/>
<path d="M31.4489 2.30286L32.8692 5.20649L36.1156 5.60699L33.7822 7.90987L34.2895 11.0137L31.4489 9.51187L28.6083 11.0137L29.1156 7.90987L26.7822 5.60699L30.0286 5.20649L31.4489 2.30286Z" fill="#FF6968"/>
<path d="M45.9564 7.80975L45.2462 9.21151L43.623 9.41176L44.8404 10.5131L44.5361 12.015L45.9564 11.3141L47.2752 12.015L47.0723 10.5131L48.1883 9.41176L46.6665 9.21151L45.9564 7.80975Z" fill="#FF6968"/>
<path d="M26.6534 34.53C27.7574 34.71 28.6034 35.124 29.1914 35.772C29.7794 36.408 30.0734 37.2 30.0734 38.148C30.0734 38.88 29.8814 39.558 29.4974 40.182C29.1134 40.794 28.5254 41.286 27.7334 41.658C26.9534 42.03 25.9934 42.216 24.8534 42.216C23.9654 42.216 23.0894 42.102 22.2254 41.874C21.3734 41.634 20.6474 41.298 20.0474 40.866L21.1814 38.634C21.6614 38.994 22.2134 39.276 22.8374 39.48C23.4734 39.672 24.1214 39.768 24.7814 39.768C25.5134 39.768 26.0894 39.63 26.5094 39.354C26.9294 39.066 27.1394 38.664 27.1394 38.148C27.1394 37.116 26.3534 36.6 24.7814 36.6H23.4494V34.674L26.0414 31.74H20.6774V29.4H29.4974V31.29L26.6534 34.53ZM36.8198 42.216C35.7758 42.216 34.8458 41.958 34.0298 41.442C33.2138 40.926 32.5718 40.182 32.1038 39.21C31.6478 38.226 31.4198 37.056 31.4198 35.7C31.4198 34.344 31.6478 33.18 32.1038 32.208C32.5718 31.224 33.2138 30.474 34.0298 29.958C34.8458 29.442 35.7758 29.184 36.8198 29.184C37.8638 29.184 38.7938 29.442 39.6098 29.958C40.4258 30.474 41.0618 31.224 41.5178 32.208C41.9858 33.18 42.2198 34.344 42.2198 35.7C42.2198 37.056 41.9858 38.226 41.5178 39.21C41.0618 40.182 40.4258 40.926 39.6098 41.442C38.7938 41.958 37.8638 42.216 36.8198 42.216ZM36.8198 39.75C37.5878 39.75 38.1878 39.42 38.6198 38.76C39.0638 38.1 39.2858 37.08 39.2858 35.7C39.2858 34.32 39.0638 33.3 38.6198 32.64C38.1878 31.98 37.5878 31.65 36.8198 31.65C36.0638 31.65 35.4638 31.98 35.0198 32.64C34.5878 33.3 34.3718 34.32 34.3718 35.7C34.3718 37.08 34.5878 38.1 35.0198 38.76C35.4638 39.42 36.0638 39.75 36.8198 39.75Z" fill="black"/>
</g>
<defs>
<clipPath id="clip0_125_9636">
<rect width="63" height="80" fill="white"/>
</clipPath>
</defs>
</svg>
