<svg width="63" height="80" viewBox="0 0 63 80" fill="none" xmlns="http://www.w3.org/2000/svg">
<g clip-path="url(#clip0_125_9609)">
<path d="M31.5507 11.8148C44.942 11.8148 55.6956 22.5281 55.6956 35.6445H62.9999C62.9999 18.5231 48.8985 4.50562 31.4492 4.50562L31.5507 11.8148Z" fill="#F35251"/>
<path d="M31.5507 11.8148V4.50562C14.1014 4.50562 0 18.5231 0 35.6445H7.30435C7.30435 22.428 18.1594 11.8148 31.5507 11.8148Z" fill="#FF6968"/>
<path d="M31.5511 72.0901L12.5801 80V0H31.5511V72.0901Z" fill="#57D8FC"/>
<path d="M50.5218 80L31.5508 72.0901V0H50.5218V80Z" fill="#2DCEFB"/>
<path d="M55.6957 35.7447C55.6957 48.9612 44.8406 59.5745 31.5508 59.5745V66.7835C48.8986 66.7835 63.1015 52.8661 63.1015 35.6446H55.6957V35.7447Z" fill="#F35251"/>
<path d="M7.30435 35.6445H0C0 52.8661 14.1014 66.7835 31.5507 66.7835V59.5744C18.1594 59.4743 7.30435 48.8611 7.30435 35.6445Z" fill="#FF6968"/>
<path d="M17.0434 7.80975L17.7536 9.21151L19.2753 9.41176L18.1593 10.5131L18.3622 12.015L17.0434 11.3141L15.6231 12.015L15.9275 10.5131L14.8115 9.41176L16.3333 9.21151L17.0434 7.80975Z" fill="#FF6968"/>
<path d="M31.4489 2.30286L32.8692 5.20649L36.1156 5.60699L33.7822 7.90987L34.2895 11.0137L31.4489 9.51187L28.6083 11.0137L29.1156 7.90987L26.7822 5.60699L30.0286 5.20649L31.4489 2.30286Z" fill="#FF6968"/>
<path d="M45.9564 7.80975L45.2462 9.21151L43.623 9.41176L44.8404 10.5131L44.5361 12.015L45.9564 11.3141L47.2752 12.015L47.0723 10.5131L48.1883 9.41176L46.6665 9.21151L45.9564 7.80975Z" fill="#FF6968"/>
<path d="M30.2166 39.624V42H20.6946V40.11L25.5546 35.52C26.0706 35.028 26.4186 34.608 26.5986 34.26C26.7786 33.9 26.8686 33.546 26.8686 33.198C26.8686 32.694 26.6946 32.31 26.3466 32.046C26.0106 31.77 25.5126 31.632 24.8526 31.632C24.3006 31.632 23.8026 31.74 23.3586 31.956C22.9146 32.16 22.5426 32.472 22.2426 32.892L20.1186 31.524C20.6106 30.792 21.2886 30.222 22.1526 29.814C23.0166 29.394 24.0066 29.184 25.1226 29.184C26.0586 29.184 26.8746 29.34 27.5706 29.652C28.2786 29.952 28.8246 30.384 29.2086 30.948C29.6046 31.5 29.8026 32.154 29.8026 32.91C29.8026 33.594 29.6586 34.236 29.3706 34.836C29.0826 35.436 28.5246 36.12 27.6966 36.888L24.7986 39.624H30.2166ZM36.7846 42.216C35.7406 42.216 34.8106 41.958 33.9946 41.442C33.1786 40.926 32.5366 40.182 32.0686 39.21C31.6126 38.226 31.3846 37.056 31.3846 35.7C31.3846 34.344 31.6126 33.18 32.0686 32.208C32.5366 31.224 33.1786 30.474 33.9946 29.958C34.8106 29.442 35.7406 29.184 36.7846 29.184C37.8286 29.184 38.7586 29.442 39.5746 29.958C40.3906 30.474 41.0266 31.224 41.4826 32.208C41.9506 33.18 42.1846 34.344 42.1846 35.7C42.1846 37.056 41.9506 38.226 41.4826 39.21C41.0266 40.182 40.3906 40.926 39.5746 41.442C38.7586 41.958 37.8286 42.216 36.7846 42.216ZM36.7846 39.75C37.5526 39.75 38.1526 39.42 38.5846 38.76C39.0286 38.1 39.2506 37.08 39.2506 35.7C39.2506 34.32 39.0286 33.3 38.5846 32.64C38.1526 31.98 37.5526 31.65 36.7846 31.65C36.0286 31.65 35.4286 31.98 34.9846 32.64C34.5526 33.3 34.3366 34.32 34.3366 35.7C34.3366 37.08 34.5526 38.1 34.9846 38.76C35.4286 39.42 36.0286 39.75 36.7846 39.75Z" fill="black"/>
</g>
<defs>
<clipPath id="clip0_125_9609">
<rect width="63" height="80" fill="white"/>
</clipPath>
</defs>
</svg>
