<svg width="50" height="80" viewBox="0 0 50 80" fill="none" xmlns="http://www.w3.org/2000/svg">
<path d="M46.5567 21.9712H2.70215V27.1757H46.5567V21.9712Z" fill="#D67205"/>
<path d="M25 0C11.1969 0 0 10.8453 0 24.215C0 37.5847 11.1969 48.4301 25 48.4301C38.8031 48.4301 50 37.5847 50 24.215C50 10.8453 38.8031 0 25 0ZM25 44.5033C13.4492 44.5033 4.05405 35.4032 4.05405 24.215C4.05405 13.0269 13.4492 3.92676 25 3.92676C36.5508 3.92676 45.9459 13.0269 45.9459 24.215C45.9459 35.4032 36.5508 44.5033 25 44.5033Z" fill="#FFB600"/>
<path d="M25.1606 1.34009C12.1941 1.34009 1.67285 11.6868 1.67285 24.3709C1.67285 37.0549 12.1941 47.4016 25.1606 47.4016C38.1272 47.4016 48.6484 37.0549 48.6484 24.3709C48.6484 11.6556 38.095 1.34009 25.1606 1.34009ZM25.1606 46.4667C12.7411 46.4667 2.6381 36.5563 2.6381 24.3709C2.6381 12.1854 12.7411 2.27503 25.1606 2.27503C37.5802 2.27503 47.6831 12.1854 47.6831 24.3709C47.6831 36.5563 37.548 46.4667 25.1606 46.4667Z" fill="#FFE100"/>
<path d="M40.8945 80L25.6435 72.1153L10.3926 80V0H40.8945V80Z" fill="#FF2E2A"/>
<path d="M12.7414 0H10.3926V80L12.7414 78.7846V0Z" fill="#E3211E"/>
<path d="M38.6738 0V78.8469L40.8939 80V0H38.6738Z" fill="#E3211E"/>
<path d="M34.4924 0H16.9248V76.6342L25.6442 72.1153L34.4924 76.6965V0Z" fill="#E3211E"/>
<path opacity="0.68" d="M10.3926 38.6132C14.1571 42.1971 19.3051 44.4098 25 44.4098C31.3707 44.4098 37.0657 41.6362 40.8945 37.2731V11.157C37.0657 6.79393 31.3707 4.02026 25 4.02026C19.3051 4.02026 14.1571 6.23296 10.3926 9.81691V38.6132Z" fill="#BF0930"/>
<path d="M25 42.5399C14.5753 42.5399 6.08105 34.3124 6.08105 24.215C6.08105 14.1176 14.5753 5.89014 25 5.89014C35.4247 5.89014 43.9189 14.1176 43.9189 24.215C43.9189 34.3436 35.4569 42.5399 25 42.5399Z" fill="#FFB600"/>
<path d="M24.9999 39.6105C33.7782 39.6105 40.8944 32.7177 40.8944 24.215C40.8944 15.7124 33.7782 8.81964 24.9999 8.81964C16.2217 8.81964 9.10547 15.7124 9.10547 24.215C9.10547 32.7177 16.2217 39.6105 24.9999 39.6105Z" fill="#FFCF13"/>
<path opacity="0.71" d="M10.3925 24.2151C10.3925 15.9252 17.1814 9.16249 25.6434 8.81967C16.6022 8.47686 9.10547 15.4889 9.10547 24.2151C9.10547 32.9412 16.6022 39.9533 25.6434 39.6105C17.1814 39.2677 10.3925 32.5049 10.3925 24.2151Z" fill="#D67205"/>
<path d="M22.8444 33.4398V21.3479L20.013 23.2178L17.1494 19.1663L23.9383 14.8656H28.5072V33.4398H22.8444Z" fill="#FFB600"/>
<path d="M24.1319 15.4889H27.8642V32.8477H23.4884V20.1636L20.1743 22.3763L18.0508 19.3845L24.1319 15.4889Z" fill="#FFF375"/>
<path d="M27.8634 17.9197L25.3215 15.4889H24.8711L27.8634 18.3561V17.9197Z" fill="#FFF8C5"/>
<path d="M27.8637 21.1297L22.8444 16.2992L22.04 16.829L27.8637 22.4698V21.1297Z" fill="#FFF8C5"/>
<path d="M27.8641 26.2719L23.4883 22.0335V22.9373L27.8641 27.1445V26.2719Z" fill="#FFF8C5"/>
<path d="M27.8641 28.5469L23.4883 24.3085V25.1811L27.8641 29.4196V28.5469Z" fill="#FFF8C5"/>
<path d="M11.326 13.3385C13.707 10.4714 17.021 8.35215 20.689 7.4172C21.1072 7.32371 21.2681 7.91584 20.8498 8.00933C17.3106 8.91311 14.1253 10.9388 11.8408 13.7125C11.5513 14.0553 11.0686 13.6813 11.326 13.3385Z" fill="#FFF8C5"/>
<path d="M7.46468 24.6202C7.40033 22.0647 7.88296 19.6338 8.81603 17.4523C8.97691 17.0783 9.55606 17.3276 9.39519 17.7016C7.27163 22.6256 8.65516 24.9007 7.78643 24.9318C7.59338 24.9007 7.46468 24.776 7.46468 24.6202Z" fill="#FFF8C5"/>
<path d="M16.3444 39.0494C12.3225 36.8056 9.42676 33.1905 8.13976 28.8586C8.01106 28.4534 8.62239 28.2976 8.75109 28.7027C9.97374 32.8477 12.773 36.3381 16.6661 38.5196C17.0201 38.7066 16.6983 39.2364 16.3444 39.0494Z" fill="#FFF8C5"/>
<path d="M31.0167 40.1091C30.7593 39.3923 32.6254 39.7663 36.1325 36.9614C36.4543 36.7121 36.8725 37.1796 36.5508 37.4289C35.0064 38.6443 33.3011 39.6104 31.4349 40.2649C31.2741 40.3584 31.081 40.2649 31.0167 40.1091Z" fill="#FFE100"/>
<path d="M40.9261 31.6634C40.1217 31.2894 42.4384 29.6689 42.4384 24.0904C42.4384 16.081 36.5503 9.22477 28.4422 7.72886C28.0239 7.66653 28.1526 7.04324 28.5709 7.13673C40.1539 9.25594 46.2994 21.4414 41.3444 31.5076C41.2801 31.6946 41.087 31.7569 40.9261 31.6634Z" fill="#FFE100"/>
</svg>
