<svg width="64" height="80" viewBox="0 0 64 80" fill="none" xmlns="http://www.w3.org/2000/svg">
<g clip-path="url(#clip0_71_2113)">
<path d="M32.0513 11.8148C45.6552 11.8148 56.5795 22.5281 56.5795 35.6445H63.9998C63.9998 18.5231 49.6745 4.50562 31.9482 4.50562L32.0513 11.8148Z" fill="#F35251"/>
<path d="M32.0515 11.8148V4.50562C14.3253 4.50562 0 18.5231 0 35.6445H7.42029C7.42029 22.428 18.4477 11.8148 32.0515 11.8148Z" fill="#FF6968"/>
<path d="M32.0514 72.0901L12.7793 80V0H32.0514V72.0901Z" fill="#57D8FC"/>
<path d="M51.3239 80L32.0518 72.0901V0H51.3239V80Z" fill="#2DCEFB"/>
<path d="M56.5799 35.7447C56.5799 48.9612 45.5526 59.5745 32.0518 59.5745V66.7835C49.6749 66.7835 64.1033 52.8661 64.1033 35.6446H56.5799V35.7447Z" fill="#F35251"/>
<path d="M7.42029 35.6445H0C0 52.8661 14.3253 66.7834 32.0515 66.7834V59.5744C18.4477 59.4743 7.42029 48.861 7.42029 35.6445Z" fill="#FF6968"/>
<path d="M29.9901 27.4343C30.0932 27.8348 30.1963 28.3354 30.1963 28.836C30.5054 32.3404 28.4442 35.4443 25.6616 35.6445C23.4974 35.8448 21.4362 33.9424 20.5087 31.6395H17.8291L23.7035 43.6545H31.9483V27.4343H29.9901Z" fill="#FFF080"/>
<path d="M33.9064 27.4343C33.8033 27.8348 33.7003 28.3354 33.7003 28.836C33.3911 32.3404 35.4523 35.4443 38.2349 35.6445C40.3991 35.8448 42.4603 33.9424 43.3879 31.6395H46.0674L40.193 43.6545H31.9482V27.4343H33.9064Z" fill="#FFEB57"/>
<path d="M20.5088 28.7359C20.5088 29.637 19.7874 30.3379 18.8599 30.3379C17.9324 30.3379 17.2109 29.637 17.2109 28.7359C17.2109 27.8348 17.9324 27.1339 18.8599 27.1339C19.7874 27.1339 20.5088 27.8348 20.5088 28.7359Z" fill="#FFF080"/>
<path d="M43.3877 28.7359C43.3877 29.637 44.1091 30.3379 45.0367 30.3379C45.9642 30.3379 46.6856 29.637 46.6856 28.7359C46.6856 27.8348 45.9642 27.1339 45.0367 27.1339C44.1091 27.1339 43.3877 27.8348 43.3877 28.7359Z" fill="#FFEB57"/>
<path d="M34.1127 24.1302C34.1127 25.3317 33.1851 26.2328 31.9484 26.2328C30.7117 26.2328 29.7842 25.3317 29.7842 24.1302C29.7842 22.9287 30.7117 22.0275 31.9484 22.0275C33.1851 22.0275 34.1127 22.9287 34.1127 24.1302Z" fill="#FFF080"/>
<path d="M17.3142 7.80975L18.0356 9.21151L19.5815 9.41176L18.4478 10.5131L18.654 12.015L17.3142 11.3141L15.8714 12.015L16.1805 10.5131L15.0469 9.41176L16.5928 9.21151L17.3142 7.80975Z" fill="#FF6968"/>
<path d="M31.9487 2.30286L33.3916 5.20649L36.6895 5.60699L34.3191 7.90987L34.8344 11.0137L31.9487 9.51187L29.0631 11.0137L29.5784 7.90987L27.208 5.60699L30.5059 5.20649L31.9487 2.30286Z" fill="#FF6968"/>
<path d="M46.6858 7.80975L45.9644 9.21151L44.3154 9.41176L45.5521 10.5131L45.243 12.015L46.6858 11.3141L48.0256 12.015L47.8195 10.5131L48.9531 9.41176L47.4072 9.21151L46.6858 7.80975Z" fill="#FF6968"/>
</g>
<defs>
<clipPath id="clip0_71_2113">
<rect width="64" height="80" fill="white"/>
</clipPath>
</defs>
</svg>
