<svg width="60" height="80" viewBox="0 0 60 80" fill="none" xmlns="http://www.w3.org/2000/svg">
<path d="M23.3982 75.4091L17.5545 66.3863L8.94531 73.1591L17.795 22.2727L32.2479 24.5L23.3982 75.4091Z" fill="#007A96"/>
<path d="M50.957 77.7272L42.3478 70.9545L36.5041 80L27.5342 29.1136L41.9871 26.8409L50.957 77.7272Z" fill="#007A96"/>
<path opacity="0.57" d="M32.2485 24.5L17.7956 22.2727L12.7695 51.2045C14.5731 52.8636 16.4489 55.75 19.8397 56.7954C22.1964 57.5227 24.5771 57.0682 26.6693 56.6363L32.2485 24.5Z" fill="#007A96"/>
<path opacity="0.57" d="M41.9884 26.8409L27.5596 29.1136L32.3692 56.4091C34.7019 56.8636 37.4433 57.6136 40.1608 56.7727C42.6858 56 44.3451 54.2045 45.8121 52.6363C46.0285 52.3863 46.2449 52.1818 46.4133 51.9772L41.9884 26.8409Z" fill="#007A96"/>
<path d="M60 27.2045C60 30.1363 57.2585 32.6363 56.3447 35.2954C55.4068 38.0454 56.0321 41.5909 54.2766 43.8636C52.497 46.1818 48.7214 46.6818 46.2926 48.3636C43.8637 50.0227 42.2044 53.2727 39.2946 54.1591C36.481 55.0227 33.1383 53.3636 30.012 53.3636C26.8858 53.3636 23.5431 55.0227 20.7295 54.1591C17.8196 53.2727 16.1363 50.0227 13.7315 48.3636C11.2786 46.6818 7.52705 46.1591 5.74749 43.8636C3.99198 41.5682 4.61723 38.0454 3.67936 35.2954C2.74148 32.6591 0 30.1591 0 27.2045C0 24.2727 2.74148 21.7727 3.65531 19.1136C4.59319 16.3636 3.96794 12.8182 5.72345 10.5454C7.50301 8.24998 11.2786 7.72725 13.7315 6.04543C16.1363 4.38634 17.8196 1.13634 20.7295 0.249976C23.5431 -0.61366 26.8858 1.04543 30.012 1.04543C33.1142 1.04543 36.481 -0.61366 39.2946 0.249976C42.2044 1.13634 43.8878 4.38634 46.2926 6.04543C48.7455 7.72725 52.497 8.24998 54.2766 10.5454C56.0321 12.8409 55.4068 16.3636 56.3447 19.1136C57.2585 21.7727 60 24.2727 60 27.2045Z" fill="#FFEC03"/>
<path d="M34.2682 51.9091C30.5407 51.1363 29.4586 51.1363 25.7311 51.9091C24.4085 52.1818 22.6049 52.5909 21.4024 52.2272C19.2862 51.5682 17.5788 48.5 15.0057 46.7273C12.4085 44.9545 8.7772 44.3409 7.50265 42.6818C6.2281 41.0227 6.73311 37.5909 5.74714 34.6818C5.31427 33.4318 4.61688 32.2954 3.91948 31.2045C1.63491 27.5454 1.63491 26.9091 3.91948 23.25C4.61688 22.1591 5.31427 21.0227 5.74714 19.7727C6.75716 16.8636 6.2281 13.4318 7.50265 11.7727C8.80125 10.0909 12.4085 9.49998 15.0057 7.72725C17.5788 5.9318 19.2622 2.86362 21.4024 2.20452C22.6049 1.84089 24.4085 2.24998 25.7311 2.52271C29.4586 3.29543 30.5407 3.29543 34.2682 2.52271C35.5908 2.24998 37.3944 1.84089 38.5968 2.20452C40.7131 2.86362 42.4205 5.9318 44.9936 7.70452C47.6149 9.49998 51.2221 10.0682 52.4966 11.75C53.7712 13.4091 53.2662 16.8409 54.2521 19.75C54.685 21 55.3824 22.1363 56.0798 23.2273C58.3644 26.8863 58.3644 27.5227 56.0798 31.1818C54.2521 34.1136 53.8914 35.0227 53.5307 38.6136C53.0978 42.75 52.7852 43.1818 48.697 44.8636C47.4225 45.3863 46.1239 45.9091 44.9696 46.7273C42.3964 48.5 40.689 51.5682 38.5728 52.2272C38.2602 52.3182 35.6389 52.1818 34.2682 51.9091Z" fill="#FFDC01"/>
<path d="M53.0932 31.2253C55.4328 19.1632 46.9828 7.59247 34.2197 5.38141C21.4565 3.17035 9.2134 11.1562 6.87384 23.2183C4.53428 35.2804 12.9842 46.8511 25.7474 49.0622C38.5105 51.2733 50.7536 43.2874 53.0932 31.2253Z" fill="#FFEC03"/>
<path opacity="0.48" d="M29.7958 5C16.906 5.11364 6.49316 15 6.49316 27.2045C6.49316 34.8864 10.6294 41.6818 16.906 45.6591C29.8439 42.5227 39.2467 33.2727 39.2467 22.3409C39.2467 15.5682 35.6395 9.43182 29.7958 5Z" fill="#FFEC03"/>
<path d="M26.2302 26.19C27.0889 26.33 27.7469 26.652 28.2042 27.156C28.6616 27.6507 28.8902 28.2667 28.8902 29.004C28.8902 29.5733 28.7409 30.1007 28.4422 30.586C28.1436 31.062 27.6862 31.4447 27.0702 31.734C26.4636 32.0233 25.7169 32.168 24.8302 32.168C24.1396 32.168 23.4582 32.0793 22.7862 31.902C22.1236 31.7153 21.5589 31.454 21.0922 31.118L21.9742 29.382C22.3476 29.662 22.7769 29.8813 23.2622 30.04C23.7569 30.1893 24.2609 30.264 24.7742 30.264C25.3436 30.264 25.7916 30.1567 26.1182 29.942C26.4449 29.718 26.6082 29.4053 26.6082 29.004C26.6082 28.2013 25.9969 27.8 24.7742 27.8H23.7382V26.302L25.7542 24.02H21.5822V22.2H28.4422V23.67L26.2302 26.19ZM34.1374 32.168C33.3254 32.168 32.6021 31.9673 31.9674 31.566C31.3327 31.1647 30.8334 30.586 30.4694 29.83C30.1147 29.0647 29.9374 28.1547 29.9374 27.1C29.9374 26.0453 30.1147 25.14 30.4694 24.384C30.8334 23.6187 31.3327 23.0353 31.9674 22.634C32.6021 22.2327 33.3254 22.032 34.1374 22.032C34.9494 22.032 35.6727 22.2327 36.3074 22.634C36.9421 23.0353 37.4367 23.6187 37.7914 24.384C38.1554 25.14 38.3374 26.0453 38.3374 27.1C38.3374 28.1547 38.1554 29.0647 37.7914 29.83C37.4367 30.586 36.9421 31.1647 36.3074 31.566C35.6727 31.9673 34.9494 32.168 34.1374 32.168ZM34.1374 30.25C34.7347 30.25 35.2014 29.9933 35.5374 29.48C35.8827 28.9667 36.0554 28.1733 36.0554 27.1C36.0554 26.0267 35.8827 25.2333 35.5374 24.72C35.2014 24.2067 34.7347 23.95 34.1374 23.95C33.5494 23.95 33.0827 24.2067 32.7374 24.72C32.4014 25.2333 32.2334 26.0267 32.2334 27.1C32.2334 28.1733 32.4014 28.9667 32.7374 29.48C33.0827 29.9933 33.5494 30.25 34.1374 30.25Z" fill="black"/>
</svg>
