<svg width="58" height="80" viewBox="0 0 58 80" fill="none" xmlns="http://www.w3.org/2000/svg">
<g clip-path="url(#clip0_131_9947)">
<path d="M49.0752 0L39.4438 22.0587H19.5107L28.366 0H49.0752Z" fill="#892020"/>
<path d="M40.36 18.2555H18.7688C17.3576 18.2555 16.1934 19.3469 16.1934 20.6697V33.5676H42.9355V20.6697C42.9355 19.3138 41.7712 18.2555 40.36 18.2555ZM41.0303 22.9847H17.6046V21.9926C17.6046 20.9343 18.5218 20.0414 19.6861 20.0414H38.9841C40.1131 20.0414 41.0656 20.9012 41.0656 21.9926V22.9847H41.0303Z" fill="#6B7384"/>
<path d="M10.1963 0L19.5102 22.0587H39.4433L30.3763 0H10.1963Z" fill="#FA352C"/>
<path d="M23.1792 22.0587L13.6889 0H12.1719L21.6621 22.0587H23.1792Z" fill="#FF740D"/>
<path d="M27.8354 22.0587L18.3452 0H16.8281L26.3184 22.0587H27.8354Z" fill="#FF740D"/>
<path d="M32.3169 22.0587L22.8266 0H21.3096L30.7998 22.0587H32.3169Z" fill="#FF740D"/>
<path d="M37.1147 22.0587L27.6597 0H26.1074L35.5977 22.0587H37.1147Z" fill="#FF740D"/>
<path d="M57.7438 56.3514C59.8219 41.465 48.6334 27.8144 32.7537 25.8618C16.8739 23.9092 2.31628 34.3941 0.23823 49.2805C-1.83982 64.1669 9.34865 77.8176 25.2284 79.7701C41.1081 81.7227 55.6658 71.2378 57.7438 56.3514Z" fill="#798093"/>
<path d="M29 25.6304C28.7178 25.6304 28.4356 25.6304 28.1533 25.6304C43.7823 26.0604 56.3066 38.0653 56.3066 52.8152C56.3066 67.5651 43.7823 79.5701 28.1533 80C28.4356 80 28.7178 80 29 80C45.0171 80 58 67.8297 58 52.8152C58 37.8007 45.0171 25.6304 29 25.6304Z" fill="#6B7384"/>
<path d="M52.4329 55.6906C54.1287 43.5572 45.0105 32.4324 32.0668 30.8427C19.1232 29.2531 7.25556 37.8005 5.55977 49.934C3.86397 62.0674 12.9822 73.1922 25.9258 74.7819C38.8695 76.3715 50.7371 67.8241 52.4329 55.6906Z" fill="#9EA8BA"/>
<path d="M26.1073 68.2265C27.0245 68.921 27.2715 70.0454 27.2715 70.0454C27.2715 70.0454 26.0367 70.0785 25.0842 69.384C24.1669 68.6895 23.9199 67.5651 23.9199 67.5651C23.9199 67.5651 25.19 67.532 26.1073 68.2265Z" fill="#BAC6D8"/>
<path d="M24.9788 70.0124C26.1078 69.6486 27.272 70.0454 27.272 70.0454C27.272 70.0454 26.637 71.0376 25.508 71.4014C24.3791 71.7652 23.2148 71.3683 23.2148 71.3683C23.2148 71.3683 23.8852 70.3761 24.9788 70.0124Z" fill="#BAC6D8"/>
<path d="M22.5091 67.3005C23.3206 68.0942 23.3911 69.2517 23.3911 69.2517C23.3911 69.2517 22.1563 69.1195 21.3449 68.3257C20.5335 67.532 20.4629 66.3745 20.4629 66.3745C20.4629 66.3745 21.6977 66.5068 22.5091 67.3005Z" fill="#BAC6D8"/>
<path d="M21.1328 68.921C22.297 68.6895 23.3907 69.2517 23.3907 69.2517C23.3907 69.2517 22.6145 70.1446 21.4503 70.3761C20.2861 70.6076 19.1924 70.0454 19.1924 70.0454C19.1924 70.0454 19.9685 69.1525 21.1328 68.921Z" fill="#BAC6D8"/>
<path d="M19.6508 65.9776C20.3211 66.8705 20.18 68.028 20.18 68.028C20.18 68.028 18.9805 67.7304 18.3101 66.8044C17.6398 65.9115 17.7809 64.754 17.7809 64.754C17.7809 64.754 18.9805 65.0847 19.6508 65.9776Z" fill="#BAC6D8"/>
<path d="M18.0279 67.3997C19.2274 67.3666 20.2153 68.0611 20.2153 68.0611C20.2153 68.0611 19.298 68.8548 18.0985 68.8879C16.899 68.921 15.9111 68.2265 15.9111 68.2265C15.9111 68.2265 16.8284 67.4328 18.0279 67.3997Z" fill="#BAC6D8"/>
<path d="M17.0049 63.9933C17.4282 65.0185 17.0049 66.1099 17.0049 66.1099C17.0049 66.1099 15.9112 65.5477 15.5231 64.5225C15.0998 63.4972 15.5231 62.4059 15.5231 62.4059C15.5231 62.4059 16.5815 62.9681 17.0049 63.9933Z" fill="#BAC6D8"/>
<path d="M15.0645 64.9855C16.2288 65.217 17.0049 66.1099 17.0049 66.1099C17.0049 66.1099 15.9113 66.6721 14.747 66.4406C13.5828 66.2091 12.8066 65.3162 12.8066 65.3162C12.8066 65.3162 13.9003 64.754 15.0645 64.9855Z" fill="#BAC6D8"/>
<path d="M14.9941 61.6453C15.1352 62.7366 14.4296 63.6957 14.4296 63.6957C14.4296 63.6957 13.5123 62.902 13.3712 61.8106C13.2301 60.7193 13.9357 59.7602 13.9357 59.7602C13.9357 59.7602 14.853 60.587 14.9941 61.6453Z" fill="#BAC6D8"/>
<path d="M12.842 62.2075C13.9004 62.6705 14.4296 63.7288 14.4296 63.7288C14.4296 63.7288 13.2301 64.0264 12.1364 63.5634C11.078 63.1004 10.5488 62.0421 10.5488 62.0421C10.5488 62.0421 11.7836 61.7445 12.842 62.2075Z" fill="#BAC6D8"/>
<path d="M13.3017 58.735C13.1958 59.8263 12.3138 60.6531 12.3138 60.6531C12.3138 60.6531 11.6082 59.694 11.6788 58.6357C11.7846 57.5444 12.6666 56.7176 12.6666 56.7176C12.6666 56.7176 13.3722 57.6436 13.3017 58.735Z" fill="#BAC6D8"/>
<path d="M11.078 58.8673C12.0305 59.5287 12.3128 60.6531 12.3128 60.6531C12.3128 60.6531 11.078 60.7193 10.1254 60.0578C9.17286 59.3964 8.89062 58.272 8.89062 58.272C8.89062 58.272 10.1254 58.2058 11.078 58.8673Z" fill="#BAC6D8"/>
<path d="M12.4196 55.957C12.1373 57.0153 11.1142 57.7098 11.1142 57.7098C11.1142 57.7098 10.5497 56.6845 10.832 55.6263C11.1142 54.568 12.1373 53.8735 12.1373 53.8735C12.1373 53.8735 12.7018 54.8987 12.4196 55.957Z" fill="#BAC6D8"/>
<path d="M10.1967 55.7585C11.0082 56.5523 11.114 57.7098 11.114 57.7098C11.114 57.7098 9.87922 57.5775 9.03251 56.8168C8.22107 56.0231 8.11523 54.8656 8.11523 54.8656C8.11523 54.8656 9.35003 54.9648 10.1967 55.7585Z" fill="#BAC6D8"/>
<path d="M12.3136 52.8483C11.7491 53.8073 10.5849 54.2373 10.5849 54.2373C10.5849 54.2373 10.3379 53.1128 10.8671 52.1538C11.4316 51.1947 12.5958 50.7648 12.5958 50.7648C12.5958 50.7648 12.8781 51.8892 12.3136 52.8483Z" fill="#BAC6D8"/>
<path d="M10.1967 52.1538C10.7965 53.1129 10.5848 54.2373 10.5848 54.2373C10.5848 54.2373 9.42056 53.8404 8.82081 52.9144C8.22105 51.9554 8.43273 50.8309 8.43273 50.8309C8.43273 50.8309 9.63224 51.2278 10.1967 52.1538Z" fill="#BAC6D8"/>
<path d="M12.9133 49.7065C12.1371 50.5332 10.9023 50.6986 10.9023 50.6986C10.9023 50.6986 10.9376 49.5411 11.7138 48.7143C12.4899 47.8875 13.7247 47.7222 13.7247 47.7222C13.7247 47.7222 13.6895 48.8797 12.9133 49.7065Z" fill="#BAC6D8"/>
<path d="M11.0427 48.582C11.3955 49.6403 10.8663 50.6986 10.8663 50.6986C10.8663 50.6986 9.80793 50.0702 9.49042 49.012C9.13762 47.9537 9.66681 46.8954 9.66681 46.8954C9.66681 46.8954 10.6899 47.5237 11.0427 48.582Z" fill="#BAC6D8"/>
<path d="M14.1123 47.1269C13.1597 47.7553 11.8896 47.6561 11.8896 47.6561C11.8896 47.6561 12.2072 46.5316 13.1597 45.9033C14.1123 45.2749 15.3823 45.3741 15.3823 45.3741C15.3823 45.3741 15.0648 46.4986 14.1123 47.1269Z" fill="#BAC6D8"/>
<path d="M12.5601 45.6387C12.6307 46.73 11.8898 47.656 11.8898 47.656C11.8898 47.656 11.0431 46.8292 10.9725 45.7379C10.902 44.6465 11.6428 43.7205 11.6428 43.7205C11.6428 43.7205 12.4895 44.5473 12.5601 45.6387Z" fill="#BAC6D8"/>
<path d="M15.6301 44.7788C14.5717 45.2749 13.3369 44.9773 13.3369 44.9773C13.3369 44.9773 13.8308 43.919 14.8892 43.4229C15.9476 42.9268 17.1824 43.2245 17.1824 43.2245C17.1824 43.2245 16.6885 44.3158 15.6301 44.7788Z" fill="#BAC6D8"/>
<path d="M14.3593 43.0922C14.2534 44.1835 13.3362 44.9773 13.3362 44.9773C13.3362 44.9773 12.6306 44.0182 12.7364 42.9268C12.8422 41.8355 13.7595 41.0417 13.7595 41.0417C13.7595 41.0417 14.4651 42.0008 14.3593 43.0922Z" fill="#BAC6D8"/>
<path d="M32.5285 68.0942C31.6112 68.7887 31.3643 69.9132 31.3643 69.9132C31.3643 69.9132 32.599 69.9463 33.5516 69.2517C34.4689 68.5572 34.7158 67.4328 34.7158 67.4328C34.7158 67.4328 33.4458 67.3997 32.5285 68.0942Z" fill="#BAC6D8"/>
<path d="M33.6574 69.8471C32.5285 69.4833 31.3643 69.8801 31.3643 69.8801C31.3643 69.8801 31.9993 70.8723 33.1282 71.2361C34.2572 71.5999 35.4214 71.203 35.4214 71.203C35.4214 71.203 34.7511 70.2109 33.6574 69.8471Z" fill="#BAC6D8"/>
<path d="M35.6691 67.3006C34.8577 68.0943 34.7871 69.2518 34.7871 69.2518C34.7871 69.2518 36.0219 69.1195 36.8333 68.3258C37.6448 67.5321 37.7153 66.3746 37.7153 66.3746C37.7153 66.3746 36.4805 66.5069 35.6691 67.3006Z" fill="#BAC6D8"/>
<path d="M37.045 68.921C35.8808 68.6895 34.7871 69.2517 34.7871 69.2517C34.7871 69.2517 35.5633 70.1447 36.7275 70.3762C37.8917 70.6077 38.9854 70.0455 38.9854 70.0455C38.9854 70.0455 38.2093 69.1525 37.045 68.921Z" fill="#BAC6D8"/>
<path d="M38.5269 65.8785C37.8566 66.7714 37.9977 67.9289 37.9977 67.9289C37.9977 67.9289 39.1973 67.6313 39.8676 66.7053C40.5379 65.8123 40.3968 64.6548 40.3968 64.6548C40.3968 64.6548 39.1973 64.9856 38.5269 65.8785Z" fill="#BAC6D8"/>
<path d="M40.1493 67.2675C38.9498 67.2344 37.9619 67.9289 37.9619 67.9289C37.9619 67.9289 38.8792 68.7227 40.0787 68.7557C41.2782 68.7888 42.2661 68.0943 42.2661 68.0943C42.2661 68.0943 41.3135 67.3336 40.1493 67.2675Z" fill="#BAC6D8"/>
<path d="M41.0671 63.9272C40.6437 64.9524 41.0671 66.0438 41.0671 66.0438C41.0671 66.0438 42.1607 65.4816 42.5488 64.4564C42.9722 63.4311 42.5488 62.3398 42.5488 62.3398C42.5488 62.3398 41.4904 62.902 41.0671 63.9272Z" fill="#BAC6D8"/>
<path d="M43.042 64.9194C41.8777 65.1509 41.1016 66.0438 41.1016 66.0438C41.1016 66.0438 42.1952 66.606 43.3595 66.3745C44.5237 66.143 45.2999 65.2501 45.2999 65.2501C45.2999 65.2501 44.1709 64.6879 43.042 64.9194Z" fill="#BAC6D8"/>
<path d="M43.1837 61.4469C43.0426 62.5383 43.7482 63.4973 43.7482 63.4973C43.7482 63.4973 44.6654 62.7036 44.8066 61.6123C44.9477 60.5209 44.2421 59.5618 44.2421 59.5618C44.2421 59.5618 43.3248 60.3555 43.1837 61.4469Z" fill="#BAC6D8"/>
<path d="M45.3356 61.976C44.2772 62.439 43.748 63.4973 43.748 63.4973C43.748 63.4973 44.9476 63.795 46.0412 63.332C47.0996 62.869 47.6288 61.8107 47.6288 61.8107C47.6288 61.8107 46.394 61.513 45.3356 61.976Z" fill="#BAC6D8"/>
<path d="M44.6998 58.6689C44.8056 59.7602 45.6876 60.587 45.6876 60.587C45.6876 60.587 46.3932 59.6279 46.3227 58.5696C46.2168 57.4783 45.3348 56.6515 45.3348 56.6515C45.3348 56.6515 44.594 57.6106 44.6998 58.6689Z" fill="#BAC6D8"/>
<path d="M46.9223 58.8012C45.9697 59.4626 45.6875 60.587 45.6875 60.587C45.6875 60.587 46.9223 60.6532 47.8748 59.9917C48.8274 59.3303 49.1096 58.2059 49.1096 58.2059C49.1096 58.2059 47.8748 58.1728 46.9223 58.8012Z" fill="#BAC6D8"/>
<path d="M45.582 55.8909C45.8642 56.9492 46.8873 57.6437 46.8873 57.6437C46.8873 57.6437 47.4518 56.6185 47.1695 55.5602C46.8873 54.5019 45.8642 53.8074 45.8642 53.8074C45.8642 53.8074 45.2997 54.8326 45.582 55.8909Z" fill="#BAC6D8"/>
<path d="M47.805 55.6924C46.9935 56.4861 46.8877 57.6437 46.8877 57.6437C46.8877 57.6437 48.1225 57.5114 48.9692 56.7507C49.7806 55.957 49.8865 54.7995 49.8865 54.7995C49.8865 54.7995 48.6164 54.8987 47.805 55.6924Z" fill="#BAC6D8"/>
<path d="M45.6878 52.8814C46.2522 53.8404 47.4165 54.2704 47.4165 54.2704C47.4165 54.2704 47.6634 53.1459 47.1342 52.1869C46.5698 51.2278 45.4055 50.7979 45.4055 50.7979C45.4055 50.7979 45.1233 51.9223 45.6878 52.8814Z" fill="#BAC6D8"/>
<path d="M47.769 52.1868C47.1693 53.1459 47.381 54.2703 47.381 54.2703C47.381 54.2703 48.5452 53.8735 49.145 52.9475C49.7447 51.9884 49.533 50.864 49.533 50.864C49.533 50.864 48.3688 51.2608 47.769 52.1868Z" fill="#BAC6D8"/>
<path d="M45.0526 49.7395C45.8288 50.5663 47.0636 50.7317 47.0636 50.7317C47.0636 50.7317 47.0283 49.5742 46.2522 48.7474C45.476 47.9206 44.2412 47.7552 44.2412 47.7552C44.2412 47.7552 44.2765 48.9128 45.0526 49.7395Z" fill="#BAC6D8"/>
<path d="M46.923 48.6151C46.5702 49.6734 47.0994 50.7317 47.0994 50.7317C47.0994 50.7317 48.1578 50.1033 48.4753 49.045C48.8281 47.9868 48.2989 46.9285 48.2989 46.9285C48.2989 46.9285 47.2406 47.5899 46.923 48.6151Z" fill="#BAC6D8"/>
<path d="M43.8892 47.1931C44.8418 47.8214 46.1118 47.7222 46.1118 47.7222C46.1118 47.7222 45.7943 46.5978 44.8418 45.9694C43.8892 45.3411 42.6191 45.4403 42.6191 45.4403C42.6191 45.4403 42.9014 46.5647 43.8892 47.1931Z" fill="#BAC6D8"/>
<path d="M45.4061 45.7379C45.3355 46.8293 46.0764 47.7553 46.0764 47.7553C46.0764 47.7553 46.9231 46.9285 46.9937 45.8371C47.0642 44.7458 46.3234 43.8198 46.3234 43.8198C46.3234 43.8198 45.4767 44.6466 45.4061 45.7379Z" fill="#BAC6D8"/>
<path d="M42.2662 44.878C43.3246 45.3741 44.5594 45.0765 44.5594 45.0765C44.5594 45.0765 44.0654 44.0182 43.0071 43.5221C41.9487 43.026 40.7139 43.3237 40.7139 43.3237C40.7139 43.3237 41.2078 44.415 42.2662 44.878Z" fill="#BAC6D8"/>
<path d="M43.5362 43.1914C43.642 44.2827 44.5593 45.0764 44.5593 45.0764C44.5593 45.0764 45.2649 44.1174 45.1591 43.026C45.0532 41.9346 44.136 41.1409 44.136 41.1409C44.136 41.1409 43.4304 42.1331 43.5362 43.1914Z" fill="#BAC6D8"/>
<path d="M41.4193 41.5709C41.384 41.6039 41.3134 41.6701 41.2429 41.7031C41.2076 41.7031 41.2076 41.7362 41.1723 41.7362C44.8767 44.7127 47.2052 48.9789 47.2052 53.7412C47.2052 62.6705 39.0203 69.9132 28.9302 69.9132C18.8402 69.9132 10.6553 62.6705 10.6553 53.7412C10.6553 49.1773 12.8074 45.0764 16.2295 42.1331C16.1237 42.1 16.0178 42.0669 15.9473 42.0339C12.5251 45.0103 10.373 49.1773 10.373 53.7412C10.373 62.8028 18.6991 70.1777 28.9302 70.1777C39.1614 70.1777 47.4874 62.8028 47.4874 53.7412C47.5227 48.9127 45.1589 44.5804 41.4193 41.5709Z" fill="#BAC6D8"/>
<path d="M18.0987 42.7284C16.9345 42.9599 15.8408 42.4308 15.8408 42.4308C15.8408 42.4308 16.617 41.5048 17.7812 41.2733C18.9454 41.0418 20.0391 41.5709 20.0391 41.5709C20.0391 41.5709 19.2277 42.4969 18.0987 42.7284Z" fill="#BAC6D8"/>
<path d="M17.2882 40.8102C16.9002 41.8355 15.8065 42.4307 15.8065 42.4307C15.8065 42.4307 15.3831 41.3394 15.7712 40.3142C16.1593 39.289 17.253 38.6937 17.253 38.6937C17.253 38.6937 17.7116 39.785 17.2882 40.8102Z" fill="#BAC6D8"/>
<path d="M39.9375 42.7284C41.1017 42.9599 42.1954 42.4308 42.1954 42.4308C42.1954 42.4308 41.4192 41.5048 40.255 41.2733C39.0907 41.0418 37.9971 41.5709 37.9971 41.5709C37.9971 41.5709 38.7732 42.4969 39.9375 42.7284Z" fill="#BAC6D8"/>
<path d="M40.7136 40.8102C41.1017 41.8355 42.1953 42.4307 42.1953 42.4307C42.1953 42.4307 42.6187 41.3394 42.2306 40.3142C41.8425 39.289 40.7489 38.6937 40.7489 38.6937C40.7489 38.6937 40.3255 39.785 40.7136 40.8102Z" fill="#BAC6D8"/>
</g>
<defs>
<clipPath id="clip0_131_9947">
<rect width="58" height="80" fill="white"/>
</clipPath>
</defs>
</svg>
