<svg width="80" height="80" viewBox="0 0 80 80" fill="none" xmlns="http://www.w3.org/2000/svg">
<rect width="80" height="80" rx="40" fill="#FFA7A7"/>
<path d="M33.3781 76.8742C33.2721 76.8742 33.1662 76.7682 33.1132 76.6622L32.7423 74.9669C32.4245 73.5894 31.3648 72.4768 29.9344 72.1589L28.292 71.8411C28.186 71.8411 28.0801 71.6821 28.0801 71.5762C28.0801 71.4702 28.186 71.3642 28.292 71.3113L29.9874 70.9404C31.3648 70.6225 32.4774 69.5629 32.7953 68.1324L33.1662 66.4371C33.1662 66.3311 33.3251 66.2252 33.4311 66.2252C33.537 66.2252 33.643 66.3311 33.696 66.4371L34.0668 68.1324C34.3847 69.5099 35.4443 70.6225 36.8748 70.9404L38.5701 71.3113C38.6761 71.3113 38.7821 71.4702 38.7821 71.5762C38.7821 71.6821 38.6761 71.7881 38.5701 71.8411L36.8218 72.1589C35.4443 72.4768 34.3317 73.5364 34.0139 74.9669L33.643 76.6622C33.643 76.7682 33.537 76.8742 33.3781 76.8742ZM29.6165 71.5762L30.0933 71.6821C31.6827 72 32.9543 73.2715 33.2721 74.8609L33.3781 75.3377L33.4841 74.8609C33.8019 73.2715 35.0735 72 36.6629 71.6821L37.1397 71.5762L36.6629 71.4702C35.0735 71.1523 33.8019 69.8808 33.4841 68.2914L33.3781 67.8146L33.2721 68.2914C32.9543 69.8808 31.6827 71.1523 30.0933 71.4702L29.6165 71.5762Z" fill="white"/>
<path d="M70.1842 52.9271C70.1378 52.9271 70.0914 52.8808 70.0682 52.8344L69.8595 51.9067C69.6971 51.1182 69.0941 50.5152 68.3056 50.3528L67.3779 50.1441C67.3315 50.1441 67.2852 50.0745 67.2852 50.0281C67.2852 49.9817 67.3315 49.9354 67.3779 49.9122L68.3056 49.7034C69.0941 49.5411 69.6971 48.9381 69.8595 48.1496L70.0682 47.2219C70.0682 47.1987 70.1146 47.1523 70.1842 47.1523C70.2306 47.1523 70.2769 47.1987 70.3001 47.2451L70.5089 48.1728C70.6712 48.9613 71.2974 49.5643 72.0627 49.7266L72.9904 49.9122C73.0368 49.9122 73.0832 49.9817 73.0832 50.0281C73.0832 50.0745 73.0368 50.1209 72.9904 50.1441L72.0627 50.3528C71.2742 50.5152 70.6712 51.1182 70.5089 51.9067L70.3001 52.8344C70.2769 52.904 70.2306 52.9271 70.1842 52.9271ZM67.9577 50.0513L68.352 50.1441C69.2101 50.3296 69.9059 51.0022 70.0914 51.8835L70.1842 52.2546L70.2769 51.8603C70.4625 51.0022 71.135 50.3064 72.0163 50.1209L72.4106 50.0281L72.0163 49.9354C71.1582 49.7498 70.4625 49.0773 70.2769 48.196L70.1842 47.8249L70.0914 48.2191C69.9059 49.0773 69.2333 49.773 68.352 49.9586L67.9577 50.0513Z" fill="white"/>
<path d="M52.4248 70.4106C52.3682 70.4106 52.3116 70.354 52.2833 70.2975L52.142 69.647C52.0288 69.1097 51.6329 68.7138 51.0956 68.6007L50.4451 68.4593C50.3886 68.4593 50.332 68.3744 50.332 68.3179C50.332 68.2613 50.3886 68.2048 50.4451 68.1765L51.0956 68.0351C51.6329 67.922 52.0288 67.526 52.142 66.9887L52.2833 66.3383C52.2833 66.2817 52.3682 66.2252 52.4248 66.2252C52.4813 66.2252 52.5379 66.2817 52.5661 66.3383L52.7076 66.9887C52.8207 67.526 53.2449 67.922 53.7539 68.0351L54.4044 68.1765C54.4609 68.1765 54.5175 68.2613 54.5175 68.3179C54.5175 68.3744 54.4609 68.431 54.4044 68.4593L53.7539 68.6007C53.2166 68.7138 52.8207 69.1097 52.7076 69.647L52.5661 70.2975C52.5661 70.354 52.5096 70.4106 52.4248 70.4106ZM51.1521 68.3179C51.8026 68.4593 52.2834 68.94 52.4248 69.5905C52.5662 68.9683 53.0469 68.4593 53.6974 68.3179C53.0752 68.1765 52.5662 67.6957 52.4248 67.0453C52.3116 67.6674 51.8026 68.1765 51.1521 68.3179Z" fill="white"/>
<path d="M49.348 14.2299C48.4956 14.2466 47.6366 13.9223 47.0005 13.3663C46.3865 13.9468 45.5408 14.3044 44.6885 14.321C43.8362 14.3377 42.9771 14.0134 42.341 13.4574C41.727 14.0379 40.8814 14.3955 40.029 14.4122C38.8925 14.4344 37.8018 13.8873 37.1579 12.9335C37.042 12.8221 37.0955 12.6505 37.2069 12.5346C37.3183 12.4188 37.4899 12.4723 37.6058 12.5837C38.2475 13.4238 39.1087 13.8617 40.0747 13.8428C40.8702 13.8273 41.6591 13.4708 42.1594 12.8925C42.2151 12.8346 42.2708 12.7767 42.3845 12.7744C42.4413 12.7733 42.556 12.8279 42.614 12.8836C43.1933 13.4408 43.9387 13.7673 44.7342 13.7517C45.5297 13.7361 46.3186 13.3796 46.8189 12.8014C46.9303 12.6855 47.1008 12.6822 47.2166 12.7936C47.796 13.3507 48.5414 13.6772 49.3369 13.6617C50.1324 13.6461 50.9213 13.2896 51.4216 12.7114C51.533 12.5955 51.7034 12.5922 51.8193 12.7036C51.9352 12.815 51.9385 12.9855 51.8271 13.1014C51.2154 13.7955 50.314 14.211 49.348 14.2299Z" fill="white"/>
<path d="M74.4424 36.2962C73.6477 36.2962 72.853 35.9783 72.2702 35.4485C71.6874 35.9783 70.8927 36.2962 70.098 36.2962C69.3033 36.2962 68.5086 35.9783 67.9258 35.4485C67.343 35.9783 66.5483 36.2962 65.7536 36.2962C64.694 36.2962 63.6874 35.7664 63.1046 34.8657C62.9987 34.7597 63.0517 34.6008 63.1576 34.4948C63.2636 34.3889 63.4225 34.4418 63.5285 34.5478C64.1113 35.3425 64.906 35.7664 65.8066 35.7664C66.5483 35.7664 67.2901 35.4485 67.7669 34.9187C67.8199 34.8657 67.8728 34.8127 67.9788 34.8127C68.0318 34.8127 68.1377 34.8657 68.1907 34.9187C68.7205 35.4485 69.4093 35.7664 70.151 35.7664C70.8927 35.7664 71.6344 35.4485 72.1113 34.9187C72.2172 34.8127 72.3762 34.8127 72.4821 34.9187C73.0119 35.4485 73.7007 35.7664 74.4424 35.7664C75.1841 35.7664 75.9258 35.4485 76.4026 34.9187C76.5086 34.8127 76.6675 34.8127 76.7735 34.9187C76.8795 35.0246 76.8795 35.1836 76.7735 35.2895C76.1907 35.9253 75.343 36.2962 74.4424 36.2962Z" fill="white"/>
<path d="M35.4971 8.47681C34.335 8.47681 33.3779 7.51975 33.3779 6.35761C33.3779 5.19546 34.335 4.2384 35.4971 4.2384C36.6593 4.2384 37.6163 5.19546 37.6163 6.35761C37.6163 7.51975 36.6593 8.47681 35.4971 8.47681ZM35.4971 4.61439C34.5059 4.61439 33.7197 5.40055 33.7197 6.39179C33.7197 7.38303 34.5059 8.16919 35.4971 8.16919C36.4884 8.16919 37.2745 7.38303 37.2745 6.39179C37.2745 5.40055 36.4884 4.61439 35.4971 4.61439Z" fill="white"/>
<path d="M4.87461 42.0662C3.07329 42.0662 1.58984 40.5828 1.58984 38.7814C1.58984 36.9801 3.07329 35.4967 4.87461 35.4967C6.67594 35.4967 8.15938 36.9801 8.15938 38.7814C8.15938 40.5828 6.67594 42.0662 4.87461 42.0662ZM4.87461 36.0795C3.33819 36.0795 2.11965 37.298 2.11965 38.8344C2.11965 40.3708 3.33819 41.5894 4.87461 41.5894C6.41104 41.5894 7.62958 40.3708 7.62958 38.8344C7.62958 37.298 6.41104 36.0795 4.87461 36.0795Z" fill="white"/>
<rect x="12.1855" y="18.543" width="56.1589" height="42.3841" fill="white"/>
<path d="M48.8687 48.4535C48.6653 48.996 48.4279 49.3605 48.1567 49.547C47.9024 49.7166 47.6226 49.8013 47.3175 49.8013C47.0801 49.8013 46.9021 49.742 46.7834 49.6233C46.6817 49.4877 46.6309 49.3181 46.6309 49.1147C46.6309 48.9113 46.6732 48.6993 46.758 48.4789L52.7342 32.3814C52.802 32.195 52.963 32.0509 53.2173 31.9491C53.4886 31.8305 53.7938 31.7711 54.1328 31.7711C54.5058 31.7711 54.8364 31.8305 55.1246 31.9491C55.4298 32.0678 55.6163 32.2373 55.6841 32.4577L61.5077 48.5807C61.5416 48.7502 61.5585 48.8774 61.5585 48.9621C61.5585 49.1995 61.4738 49.4029 61.3042 49.5725C61.1517 49.725 60.9058 49.8013 60.5668 49.8013C60.2107 49.8013 59.8462 49.7081 59.4732 49.5216C59.1172 49.3351 58.846 48.9791 58.6595 48.4535L57.3117 44.9695H50.1657L48.8687 48.4535ZM53.8531 34.7719H53.7005L50.5726 43.6472H56.9302L53.8531 34.7719Z" fill="#0F123F"/>
<path d="M38 29L43.1962 50H32.8038L38 29Z" fill="#4778EC"/>
<path d="M19.7727 37.2132C19.3997 37.2132 19.12 37.1115 18.9335 36.9081C18.764 36.7046 18.6792 36.3825 18.6792 35.9417V34.4159C18.6792 34.1277 18.7131 33.9158 18.7809 33.7801C18.8657 33.6445 19.0267 33.5004 19.2641 33.3478C20.1287 32.7714 20.9595 32.3645 21.7563 32.1271C22.5701 31.8898 23.4516 31.7711 24.401 31.7711C26.0795 31.7711 27.3171 32.2034 28.1139 33.0681C28.9277 33.9158 29.3346 34.9923 29.3346 36.2977C29.3346 37.9422 28.6734 39.7224 27.351 41.6381C26.0455 43.537 23.7568 45.8087 20.4848 48.4535H27.1221V46.8768C27.1221 46.2834 27.2323 45.8596 27.4527 45.6053C27.6901 45.351 28.0291 45.2238 28.4699 45.2238C28.8429 45.2238 29.1142 45.3256 29.2837 45.529C29.4702 45.7324 29.5634 46.0546 29.5634 46.4954V48.9876C29.5634 49.2758 29.4363 49.4877 29.182 49.6233C28.9277 49.742 28.5462 49.8013 28.0376 49.8013H19.0098C18.8063 49.8013 18.6453 49.7335 18.5266 49.5979C18.4249 49.4623 18.374 49.2927 18.374 49.0893C18.374 48.7332 18.5012 48.445 18.7555 48.2246L19.1115 47.894C22.0445 45.1645 24.0026 42.8927 24.9859 41.0787C25.9693 39.2477 26.4609 37.7812 26.4609 36.6792C26.4609 35.7128 26.249 34.8736 25.8251 34.1616C25.4183 33.4326 24.6723 33.0681 23.5873 33.0681C22.7735 33.0681 21.9512 33.2885 21.1205 33.7293V35.5603C21.1205 36.1706 21.0188 36.6029 20.8153 36.8572C20.6119 37.0946 20.2644 37.2132 19.7727 37.2132Z" fill="#0F123F"/>
</svg>
