<svg width="44" height="80" viewBox="0 0 44 80" fill="none" xmlns="http://www.w3.org/2000/svg">
<path d="M21.7653 50.1091C22.9849 50.1091 23.6416 51.4417 22.8676 52.2918L23.8058 52.3147C24.486 50.9592 23.4071 49.3739 21.7653 49.3739C20.1469 49.3739 19.0915 50.9132 19.7013 52.2458L20.6395 52.2688C19.9124 51.3957 20.5457 50.1091 21.7653 50.1091Z" fill="#E0973F"/>
<path d="M43.9997 45.583C43.3899 45.6979 47.8227 44.8708 23.8291 49.3739C23.2662 46.5709 15.714 10.5916 15.5264 9.69558L18.3878 0H30.5136C30.537 0.0229753 43.9997 45.56 43.9997 45.583Z" fill="#2A6291"/>
<path d="M23.8297 49.3509H20.1709L20.64 47.0994H23.3607L23.8297 49.3509Z" fill="#2A6291"/>
<path d="M21.7183 51.2809C21.2961 51.2809 20.9443 50.9363 20.9443 50.5227V47.3981C20.9443 46.6629 21.7887 46.6169 21.7183 46.6399C22.1405 46.6399 22.4923 46.9845 22.4923 47.3981V50.5227C22.4923 50.9363 22.1405 51.2809 21.7183 51.2809Z" fill="#E0973F"/>
<path d="M20.1706 49.3509L0 45.583L13.4861 0H30.5139L20.1706 49.3509Z" fill="#0091C8"/>
<path d="M36.0966 65.8931C36.0966 73.6818 29.6467 80 21.6958 80C13.7448 80 7.29492 73.6818 7.29492 65.8931C7.29492 58.1045 13.7448 51.7863 21.6958 51.7863C29.6467 51.7863 36.0966 58.1045 36.0966 65.8931Z" fill="#FFB10F"/>
<path d="M33.2349 66.0769C33.2349 65.9161 33.2584 65.6404 33.188 64.4916C33.6571 65.6634 34.8063 65.7323 34.8532 65.7783C34.8532 65.7553 34.8767 64.0321 33.0238 63.7105C32.9535 63.3429 32.8596 62.9753 32.7424 62.6077C33.3522 63.4348 34.4545 63.4118 34.4545 63.4118C34.4311 63.3888 34.22 61.7806 32.3906 61.6657C32.2264 61.2751 32.0387 60.9075 31.8277 60.5399C32.5782 61.39 33.7274 61.2062 33.7509 61.2062C33.7509 61.2062 33.4929 60.448 32.8362 60.0344C32.1795 59.6438 31.3586 59.7587 31.3586 59.7587C31.1006 59.3911 30.8426 59.0235 30.5611 58.7019C31.4289 59.2303 32.4375 58.8167 32.4375 58.8167C32.414 58.8167 31.5931 57.3693 29.8341 57.9437C29.4588 57.5761 29.0835 57.2544 28.6613 56.9557C29.6464 57.2774 30.5377 56.6341 30.5377 56.6341C30.5142 56.6341 29.365 55.4394 27.817 56.3814C27.4652 56.1746 27.1134 55.9908 26.7616 55.807C27.6997 55.8529 28.3799 55.1407 28.3799 55.1177C28.333 55.1177 27.043 54.1528 25.6827 55.3475C25.1901 55.1637 24.6507 55.0258 24.1347 54.9109C25.3309 54.865 25.8469 53.8541 25.8703 53.8311C25.8469 53.8311 24.2285 53.2108 23.2669 54.7731C22.8447 54.7271 22.446 54.7042 22.0004 54.6812C23.1262 54.4055 23.4076 53.3946 23.4545 53.3486C23.4311 53.3486 21.7189 53.004 21.0388 54.7042C20.7573 54.7271 20.4993 54.7501 20.2179 54.7961C20.8511 54.2676 20.9449 53.4405 20.9449 53.4175C20.898 53.4405 19.397 53.4176 18.9513 55.0488C18.5057 55.1637 18.0835 55.3015 17.6614 55.4623C18.2243 54.7961 18.107 53.9 18.107 53.8771C18.0601 53.923 16.559 54.2447 16.559 55.9448C16.1837 56.1516 15.8085 56.3584 15.4332 56.5881C15.8319 55.807 15.4801 54.9339 15.4801 54.9339C15.4567 54.9799 14.0963 55.6462 14.495 57.3004C14.284 57.4842 14.0494 57.668 13.8618 57.8748C14.0025 57.1395 13.5803 56.4503 13.5803 56.4503C13.5569 56.4962 12.3842 57.3463 12.9471 58.8627C12.7125 59.1384 12.5014 59.4371 12.2904 59.7358C12.2904 58.9546 11.7509 58.3572 11.7275 58.3572C11.7275 58.4032 10.6955 59.483 11.6102 60.8615C11.3991 61.2521 11.2349 61.6427 11.0707 62.0563C10.93 61.1832 10.1795 60.7237 10.1795 60.7007C10.1795 60.7467 9.42894 62.0563 10.7189 63.205C10.6251 63.6186 10.5313 64.0551 10.4844 64.4916C10.156 63.6645 9.26477 63.3199 9.24131 63.3199C9.26477 63.3659 8.84259 64.8363 10.3906 65.6404C10.3906 65.9161 10.3906 66.2148 10.414 66.5135C9.94494 65.8931 9.12404 65.7093 9.10059 65.7093C9.12404 65.7553 8.95986 67.2257 10.5547 67.8001C10.6017 68.0988 10.672 68.4204 10.7658 68.7191C10.2029 67.9379 9.1944 67.892 9.17095 67.892C9.1944 67.915 9.28822 69.5462 11.1176 69.7989C11.2818 70.1895 11.446 70.5801 11.6571 70.9477C10.8596 70.1665 9.85112 70.4193 9.80421 70.3963C9.82766 70.4193 10.3202 72.0046 12.1496 71.7978C12.6187 72.533 12.9471 72.8546 13.1112 73.1074C12.0793 72.3722 11.0707 72.9006 11.0004 72.9006C11.0238 72.9006 11.9385 74.371 13.6741 73.6818C13.9556 73.9575 14.2605 74.2332 14.5889 74.4859C13.5334 74.0494 12.6891 74.6697 12.6422 74.6927C12.6656 74.6927 13.768 75.9793 15.3863 75.0603C15.6912 75.2671 16.0196 75.4738 16.3479 75.6347C16.4183 75.7036 16.5121 75.7495 16.5825 75.8185C15.3394 75.4968 14.6123 76.3699 14.542 76.3928C14.542 76.3928 15.2221 76.8523 15.9961 76.7834C16.7701 76.7145 17.333 76.1401 17.333 76.1171C17.7083 76.278 18.107 76.4158 18.5057 76.5307C18.623 76.5996 18.7637 76.6685 18.881 76.7145C17.591 76.6915 17.0985 77.7024 17.0515 77.7484C17.0515 77.7484 17.8255 78.0471 18.5526 77.7943C19.2797 77.5416 19.7019 76.8523 19.7019 76.8294C20.124 76.8983 20.5697 76.9672 21.0153 76.9902C21.1091 77.0132 21.2264 77.0361 21.3202 77.0361C20.0771 77.3118 19.8426 78.4147 19.7957 78.4836C19.8191 78.4836 21.5313 78.7363 22.1411 77.0132C22.4929 77.0132 22.8682 76.9672 23.22 76.9213C22.3756 77.4267 22.2584 78.4147 22.2584 78.4147C22.3053 78.3917 23.8767 78.4606 24.2989 76.7145C24.9321 76.5766 25.5654 76.3699 26.1518 76.1401C25.4012 76.8064 25.5185 77.8403 25.5185 77.8633C25.5419 77.8403 27.1603 77.4957 27.1134 75.7036C28.0281 75.2211 28.4737 74.8535 28.5441 74.8075C27.6997 75.7495 28.1688 76.7834 28.1688 76.8523C28.1688 76.8523 29.7402 76.0482 29.1773 74.3021C29.7168 73.8426 29.9279 73.5899 30.35 73.1993C29.7637 74.3251 30.4673 75.1981 30.4908 75.2671C30.4908 75.2441 31.8277 74.1413 30.8426 72.556C31.0771 72.2573 31.2882 71.9586 31.4758 71.637C31.2882 72.6249 32.0153 73.3831 32.0153 73.4061C32.0153 73.3831 33.0942 72.1654 31.9684 70.7409C32.1795 70.3274 32.3671 69.8908 32.5078 69.4543C32.4609 70.5801 33.3756 71.1085 33.3991 71.1774C33.3991 71.1545 34.22 69.707 32.7893 68.5353C33.0004 67.7082 32.9769 67.5014 33.0942 66.904C33.2584 68.1447 34.3373 68.4893 34.4076 68.5353C34.4076 68.5353 34.5953 67.7541 34.2434 67.0878C33.9854 66.3756 33.2349 66.054 33.2349 66.0769ZM33.0473 66.1459C31.4289 66.904 31.8277 68.3515 31.8042 68.4204C31.8042 68.4204 32.5078 68.1907 32.93 67.5933C32.8831 67.892 32.8127 68.1907 32.7424 68.4893C30.9833 68.811 30.9364 70.3963 30.913 70.4193C30.913 70.4193 31.8042 70.3274 32.3437 69.73C32.2264 70.0287 32.0857 70.3274 31.9449 70.626C30.1155 70.5571 29.7402 72.1424 29.7168 72.1654C29.7168 72.1654 30.655 72.2573 31.3117 71.7289C31.1475 71.9816 30.9599 72.2573 30.7722 72.487C29.0132 72.2113 28.4503 73.6358 28.4034 73.6818C28.4034 73.6818 29.107 73.8656 29.7637 73.6358C29.5526 73.8426 29.3415 74.0264 29.1304 74.2102C27.4886 73.5209 26.5974 74.7846 26.5505 74.8075C26.5505 74.8075 27.2306 75.1752 27.9812 75.0603C27.6997 75.2441 27.4183 75.4049 27.1368 75.5427C25.7061 74.4399 24.4396 75.4738 24.4161 75.4738C24.4396 75.4738 25.1198 76.1171 26.011 76.0482C25.495 76.255 24.9556 76.4158 24.3927 76.5307C24.2989 76.3928 23.8532 75.8644 23.22 75.6806C22.4695 75.4738 21.7189 75.7955 21.7189 75.7955C21.7424 75.8185 22.2584 76.5996 23.1965 76.7145C22.8447 76.7604 22.5164 76.7834 22.1646 76.7834C21.2498 75.29 19.7488 75.7725 19.7019 75.7725C19.7019 75.7725 19.9833 76.3699 20.5462 76.7145C20.2648 76.6915 20.0068 76.6456 19.7253 76.5996C19.1624 74.9684 17.6848 75.1292 17.6144 75.0832C17.6144 75.0832 17.7317 75.7036 18.2008 76.1861C17.9428 76.0942 17.6614 76.0023 17.4034 75.8874C17.2626 74.1642 15.7616 73.9804 15.7147 73.9345C15.7147 73.9345 15.6912 74.6237 16.043 75.2211C15.8554 75.1062 15.6677 74.9913 15.5036 74.8765C15.8085 73.1533 14.3309 72.556 14.3074 72.533C14.3074 72.533 14.0729 73.3831 14.4481 74.0953C14.237 73.9115 14.0025 73.7047 13.8149 73.498C14.3778 71.8437 13.0174 71.0626 12.994 71.0166C12.994 71.0166 12.6891 71.6829 12.8298 72.3951C12.6422 72.1654 12.478 71.9127 12.3138 71.6599C13.2989 70.1895 12.1731 69.0637 12.1731 69.0407C12.1731 69.0407 11.6102 69.73 11.6805 70.5341C11.5398 70.2584 11.4225 69.9827 11.3053 69.707C12.6422 68.4893 11.7978 67.1568 11.7978 67.1108C11.7978 67.1108 11.0004 67.6852 10.9535 68.6502C10.8831 68.3974 10.8127 68.1217 10.7658 67.869C10.8127 67.892 11.5398 67.4784 11.7978 66.7662C12.0558 66.054 11.7978 65.2958 11.7978 65.2958C11.7744 65.3188 10.7189 65.8702 10.6955 67.0649C10.672 66.9959 10.6486 66.927 10.6251 66.8581C10.5782 66.4675 10.5782 66.0999 10.5782 65.7093C10.5782 65.7093 11.3522 65.4336 11.7275 64.7673C12.1027 64.1011 11.962 63.3199 11.962 63.3199C11.9385 63.3429 10.9066 63.6875 10.6486 64.7214C10.6955 64.2389 10.7658 63.7794 10.8831 63.3429C10.8831 63.3429 11.704 63.251 12.2434 62.6996C12.7829 62.1482 12.8298 61.344 12.8298 61.344C12.8063 61.367 11.6102 61.4589 11.1176 62.5617C11.1176 62.4928 11.3991 61.6887 11.7509 60.9994C11.7744 61.0453 12.6187 61.1602 13.2754 60.7467C13.9321 60.3331 14.1667 59.5749 14.1667 59.5749C14.1432 59.5749 12.9471 59.3911 12.1965 60.3561C12.22 60.2642 12.2434 60.1953 12.2669 60.1034C12.5014 59.7358 12.7594 59.3681 13.0409 59.0235C13.0643 59.0924 13.8852 59.3911 14.5889 59.1154C15.3159 58.8167 15.7147 58.1275 15.7147 58.1275C15.6912 58.1275 14.5654 57.7139 13.6272 58.5181C13.6741 58.4262 13.7445 58.3343 13.768 58.2194C14.026 57.9667 14.284 57.7139 14.5654 57.4842C14.5654 57.5071 15.3159 57.8977 16.0665 57.7369C16.817 57.5761 17.3095 56.9328 17.3095 56.9328C17.2626 56.9328 16.2776 56.3584 15.2456 56.9557C15.6677 56.6571 16.1134 56.3814 16.5825 56.1516C16.5825 56.1516 17.1923 56.703 17.9663 56.726C18.7402 56.749 19.3735 56.2435 19.3735 56.2435C19.3266 56.2205 18.5292 55.4394 17.3564 55.784C17.849 55.5772 18.365 55.3934 18.9044 55.2556C18.9044 55.3015 19.3735 55.9678 20.1006 56.1746C20.8511 56.3814 21.5782 56.0367 21.5782 56.0367C21.5547 56.0138 20.898 55.0258 19.6784 55.1177C19.7253 55.0947 19.7722 55.0718 19.8191 55.0488C20.2413 54.9799 20.64 54.9339 21.0857 54.888C21.93 56.4273 23.4311 56.0138 23.478 56.0367C23.478 56.0367 23.1496 55.2326 22.3991 54.888C22.704 54.9109 22.9854 54.9339 23.2669 54.9569C23.8298 56.6111 25.4247 56.4503 25.4481 56.4733C25.4481 56.4733 25.2605 55.6921 24.6507 55.2326C24.9556 55.3245 25.284 55.4164 25.5654 55.5083C25.6358 57.3004 27.301 57.5531 27.301 57.5761C27.2776 57.5531 27.3479 56.5652 26.5974 55.9448C26.9727 56.1286 27.3479 56.3124 27.6997 56.5422C27.4652 58.3113 28.9897 58.8167 29.0132 58.8627C29.0132 58.8627 29.2243 57.9896 28.7552 57.2774C29.0835 57.5301 29.3884 57.8058 29.6933 58.0815C29.0366 59.7358 30.397 60.5858 30.397 60.6318C30.397 60.6318 30.8191 59.8047 30.5142 59.0005C30.7488 59.2992 30.9833 59.5979 31.1944 59.9196C30.2093 61.39 31.3117 62.4239 31.3117 62.4928C31.3117 62.4928 31.8746 61.8265 31.8277 61.0224C31.9449 61.2521 32.0622 61.4819 32.156 61.7346C30.913 63.0212 31.8511 64.3538 31.8511 64.3768C31.8511 64.3538 32.5313 63.7794 32.5782 62.9523C32.6486 63.251 32.7189 63.5267 32.7893 63.8483C31.4055 64.9511 32.1326 66.3067 32.1326 66.3526C32.1326 66.3526 32.7189 65.985 32.9769 65.3647C33.0473 65.5945 33.0473 65.8702 33.0473 66.1459Z" fill="#FFEC03"/>
<path opacity="0.74" d="M0 45.583L11.4925 47.7427C21.0853 37.7025 22.5394 12.8202 22.6333 0H13.4861L0 45.583Z" fill="#40ACD6"/>
<path d="M30.889 65.8931C30.889 70.8558 26.7845 74.8765 21.7184 74.8765C16.6523 74.8765 12.5479 70.8558 12.5479 65.8931C12.5479 60.9305 16.6523 56.9098 21.7184 56.9098C26.7845 56.9098 30.889 60.9305 30.889 65.8931Z" fill="#FFEC03"/>
<path d="M24.5793 74.44L13.6965 61.5049C13.5793 61.7117 13.462 61.9414 13.3447 62.1712L23.8287 74.6467C24.0867 74.5778 24.3447 74.5089 24.5793 74.44Z" fill="#FFEC03"/>
<path d="M27.91 72.51L16.2767 58.6559C15.5731 59.1614 14.9633 59.7588 14.4238 60.425L25.7756 73.9345C26.5496 73.5669 27.2767 73.0844 27.91 72.51Z" fill="#FFEC03"/>
<path d="M29.5044 70.649L18.4575 57.4842C18.223 57.5761 18.0119 57.668 17.7773 57.7599L29.0822 71.2234C29.223 71.0396 29.3637 70.8558 29.5044 70.649Z" fill="#FFEC03"/>
<path d="M30.3719 68.857L20.4039 57.0017C20.1459 57.0477 19.8644 57.0936 19.6064 57.1396L30.067 69.5922C30.1843 69.3624 30.2781 69.1097 30.3719 68.857Z" fill="#FFEC03"/>
</svg>
