<svg width="151" height="151" viewBox="0 0 151 151" fill="none" xmlns="http://www.w3.org/2000/svg">
<rect width="151" height="151" rx="75.5" fill="#AFD46B"/>
<path d="M46 137.9C45.8 137.9 45.6 137.7 45.5 137.5L44.8 134.3C44.2 131.7 42.2 129.6 39.5 129L36.4 128.4C36.2 128.4 36 128.1 36 127.9C36 127.7 36.2 127.5 36.4 127.4L39.6 126.7C42.2 126.1 44.3 124.1 44.9 121.4L45.6 118.2C45.6 118 45.9 117.8 46.1 117.8C46.3 117.8 46.5 118 46.6 118.2L47.3 121.4C47.9 124 49.9 126.1 52.6 126.7L55.8 127.4C56 127.4 56.2 127.7 56.2 127.9C56.2 128.1 56 128.3 55.8 128.4L52.5 129C49.9 129.6 47.8 131.6 47.2 134.3L46.5 137.5C46.5 137.7 46.3 137.9 46 137.9ZM38.9 127.9L39.8 128.1C42.8 128.7 45.2 131.1 45.8 134.1L46 135L46.2 134.1C46.8 131.1 49.2 128.7 52.2 128.1L53.1 127.9L52.2 127.7C49.2 127.1 46.8 124.7 46.2 121.7L46 120.8L45.8 121.7C45.2 124.7 42.8 127.1 39.8 127.7L38.9 127.9Z" fill="white"/>
<path d="M132.472 99.9C132.384 99.9 132.297 99.8124 132.253 99.7249L131.859 97.9739C131.553 96.4855 130.414 95.3474 128.926 95.041L127.175 94.647C127.088 94.647 127 94.5157 127 94.4281C127 94.3406 127.088 94.253 127.175 94.2092L128.926 93.8153C130.414 93.5088 131.553 92.3707 131.859 90.8823L132.253 89.1313C132.253 89.0876 132.341 89 132.472 89C132.559 89 132.647 89.0876 132.691 89.1751L133.085 90.9261C133.391 92.4145 134.573 93.5526 136.018 93.859L137.769 94.2092C137.856 94.2092 137.944 94.3406 137.944 94.4281C137.944 94.5157 137.856 94.6032 137.769 94.647L136.018 95.041C134.529 95.3474 133.391 96.4855 133.085 97.9739L132.691 99.7249C132.647 99.8562 132.559 99.9 132.472 99.9ZM128.269 94.4719L129.014 94.647C130.633 94.9972 131.947 96.2667 132.297 97.9301L132.472 98.6305L132.647 97.8863C132.997 96.2667 134.267 94.9534 135.93 94.6032L136.674 94.4281L135.93 94.253C134.31 93.9028 132.997 92.6333 132.647 90.9699L132.472 90.2695L132.297 91.0137C131.947 92.6333 130.677 93.9466 129.014 94.2968L128.269 94.4719Z" fill="white"/>
<path d="M81.6502 138.9C81.5434 138.9 81.4367 138.793 81.3833 138.686L81.1164 137.459C80.9029 136.445 80.1556 135.697 79.1414 135.484L77.9137 135.217C77.8069 135.217 77.7002 135.057 77.7002 134.95C77.7002 134.843 77.8069 134.736 77.9137 134.683L79.1414 134.416C80.1556 134.203 80.9029 133.455 81.1164 132.441L81.3833 131.214C81.3833 131.107 81.5434 131 81.6502 131C81.757 131 81.8637 131.107 81.9171 131.214L82.184 132.441C82.3975 133.455 83.1982 134.203 84.159 134.416L85.3867 134.683C85.4934 134.683 85.6002 134.843 85.6002 134.95C85.6002 135.057 85.4934 135.164 85.3867 135.217L84.159 135.484C83.1448 135.697 82.3975 136.445 82.184 137.459L81.9171 138.686C81.9171 138.793 81.8103 138.9 81.6502 138.9ZM79.2482 134.95C80.4759 135.217 81.3833 136.124 81.6502 137.352C81.9171 136.178 82.8245 135.217 84.0522 134.95C82.8779 134.683 81.9171 133.776 81.6502 132.548C81.4367 133.722 80.4759 134.683 79.2482 134.95Z" fill="white"/>
<path d="M73.1379 17.5668C71.5291 17.5982 69.9077 16.9862 68.707 15.9367C67.5481 17.0323 65.9519 17.7073 64.3431 17.7388C62.7343 17.7702 61.1129 17.1582 59.9122 16.1087C58.7533 17.2043 57.1571 17.8793 55.5483 17.9108C53.4033 17.9527 51.3445 16.9201 50.129 15.1198C49.9103 14.9095 50.0113 14.5856 50.2216 14.3669C50.4319 14.1482 50.7558 14.2492 50.9745 14.4595C52.1857 16.0452 53.8113 16.8718 55.6346 16.8361C57.1362 16.8068 58.6251 16.1339 59.5694 15.0425C59.6746 14.9331 59.7797 14.8238 59.9942 14.8196C60.1015 14.8175 60.3181 14.9205 60.4275 15.0257C61.521 16.0773 62.9278 16.6935 64.4294 16.6641C65.9309 16.6348 67.4199 15.9619 68.3642 14.8705C68.5745 14.6518 68.8963 14.6455 69.115 14.8558C70.2085 15.9074 71.6154 16.5236 73.1169 16.4942C74.6185 16.4649 76.1074 15.792 77.0518 14.7006C77.2621 14.4819 77.5838 14.4756 77.8025 14.6859C78.0212 14.8962 78.0275 15.218 77.8172 15.4367C76.6626 16.7468 74.9612 17.5311 73.1379 17.5668Z" fill="white"/>
<path d="M140.509 68.509C139.009 68.509 137.509 67.909 136.409 66.909C135.309 67.909 133.809 68.509 132.309 68.509C130.809 68.509 129.309 67.909 128.209 66.909C127.109 67.909 125.609 68.509 124.109 68.509C122.109 68.509 120.209 67.509 119.109 65.809C118.909 65.609 119.009 65.309 119.209 65.109C119.409 64.909 119.709 65.009 119.909 65.209C121.009 66.709 122.509 67.509 124.209 67.509C125.609 67.509 127.009 66.909 127.909 65.909C128.009 65.809 128.109 65.709 128.309 65.709C128.409 65.709 128.609 65.809 128.709 65.909C129.709 66.909 131.009 67.509 132.409 67.509C133.809 67.509 135.209 66.909 136.109 65.909C136.309 65.709 136.609 65.709 136.809 65.909C137.809 66.909 139.109 67.509 140.509 67.509C141.909 67.509 143.309 66.909 144.209 65.909C144.409 65.709 144.709 65.709 144.909 65.909C145.109 66.109 145.109 66.409 144.909 66.609C143.809 67.809 142.209 68.509 140.509 68.509Z" fill="white"/>
<path d="M92 16C89.8065 16 88 14.1935 88 12C88 9.80645 89.8065 8 92 8C94.1935 8 96 9.80645 96 12C96 14.1935 94.1935 16 92 16ZM92 8.70968C90.129 8.70968 88.6452 10.1935 88.6452 12.0645C88.6452 13.9355 90.129 15.4194 92 15.4194C93.871 15.4194 95.3548 13.9355 95.3548 12.0645C95.3548 10.1935 93.871 8.70968 92 8.70968Z" fill="white"/>
<path d="M16.2 77.4C12.8 77.4 10 74.6 10 71.2C10 67.8 12.8 65 16.2 65C19.6 65 22.4 67.8 22.4 71.2C22.4 74.6 19.6 77.4 16.2 77.4ZM16.2 66.1C13.3 66.1 11 68.4 11 71.3C11 74.2 13.3 76.5 16.2 76.5C19.1 76.5 21.4 74.2 21.4 71.3C21.4 68.4 19.1 66.1 16.2 66.1Z" fill="white"/>
<rect x="23" y="35" width="106" height="80" fill="white"/>
<path d="M34.2396 91.456C33.8556 92.48 33.4076 93.168 32.8956 93.52C32.4156 93.84 31.8876 94 31.3116 94C30.8636 94 30.5276 93.888 30.3036 93.664C30.1116 93.408 30.0156 93.088 30.0156 92.704C30.0156 92.32 30.0956 91.92 30.2556 91.504L41.5356 61.12C41.6636 60.768 41.9676 60.496 42.4476 60.304C42.9596 60.08 43.5356 59.968 44.1756 59.968C44.8796 59.968 45.5036 60.08 46.0476 60.304C46.6236 60.528 46.9756 60.848 47.1036 61.264L58.0956 91.696C58.1596 92.016 58.1916 92.256 58.1916 92.416C58.1916 92.864 58.0316 93.248 57.7116 93.568C57.4236 93.856 56.9596 94 56.3196 94C55.6476 94 54.9596 93.824 54.2556 93.472C53.5836 93.12 53.0716 92.448 52.7196 91.456L50.1756 84.88H36.6876L34.2396 91.456ZM43.6476 65.632H43.3596L37.4556 82.384H49.4556L43.6476 65.632Z" fill="#0F123F"/>
<path d="M84.9183 68.32C83.9902 68.32 83.2863 68.08 82.8063 67.6C82.3583 67.12 82.1343 66.32 82.1343 65.2V62.512H70.3742V74.032H77.3343C81.1423 74.032 84.0703 74.8 86.1183 76.336C88.1663 77.872 89.1903 80.384 89.1903 83.872C89.1903 86.4 88.5343 88.432 87.2223 89.968C85.9103 91.472 84.3422 92.528 82.5182 93.136C80.6942 93.712 78.9342 94 77.2383 94H67.3983C66.6623 94 66.1022 93.808 65.7183 93.424C65.3662 93.04 65.1903 92.432 65.1903 91.6V62.368C65.1903 61.536 65.3662 60.928 65.7183 60.544C66.1022 60.16 66.6623 59.968 67.3983 59.968H84.1022C85.0942 59.968 85.8143 60.096 86.2623 60.352C86.7423 60.608 86.9823 61.072 86.9823 61.744V65.92C86.9823 66.752 86.8063 67.36 86.4543 67.744C86.1343 68.128 85.6223 68.32 84.9183 68.32ZM70.3742 91.456H76.6143C78.5023 91.456 80.1663 90.848 81.6063 89.632C83.0462 88.416 83.7663 86.496 83.7663 83.872C83.7663 79.008 81.3022 76.576 76.3742 76.576H70.3742V91.456Z" fill="#0F123F"/>
<path d="M96.2215 62.368C96.2215 61.536 96.3975 60.928 96.7495 60.544C97.1335 60.16 97.6935 59.968 98.4295 59.968H108.27C115.374 59.968 118.925 62.816 118.925 68.512C118.925 70.112 118.429 71.616 117.438 73.024C116.478 74.4 115.166 75.296 113.502 75.712V75.952C115.934 76.368 117.742 77.296 118.925 78.736C120.109 80.144 120.701 81.84 120.701 83.824C120.701 87.696 119.438 90.368 116.91 91.84C114.413 93.28 111.613 94 108.509 94H98.4295C97.6935 94 97.1335 93.808 96.7495 93.424C96.3975 93.04 96.2215 92.432 96.2215 91.6V62.368ZM101.406 74.896H106.925C107.95 74.896 108.958 74.688 109.95 74.272C110.974 73.824 111.822 73.12 112.493 72.16C113.165 71.168 113.502 69.904 113.502 68.368C113.502 66.288 112.782 64.8 111.341 63.904C109.901 62.976 108.302 62.512 106.542 62.512H101.406V74.896ZM101.406 91.456H107.838C109.726 91.456 111.438 90.912 112.974 89.824C114.51 88.704 115.278 86.864 115.278 84.304C115.278 82.704 114.878 81.392 114.077 80.368C113.277 79.344 112.27 78.608 111.053 78.16C109.837 77.68 108.605 77.44 107.357 77.44H101.406V91.456Z" fill="#0F123F"/>
<rect x="37" y="35" width="3" height="80" fill="#4778EC"/>
<rect x="62" y="35" width="3" height="80" fill="#4778EC"/>
<rect x="87" y="35" width="3" height="80" fill="#4778EC"/>
<rect x="112" y="35" width="3" height="80" fill="#4778EC"/>
</svg>
