<svg width="151" height="151" viewBox="0 0 151 151" fill="none" xmlns="http://www.w3.org/2000/svg">
<rect width="151" height="151" rx="75.5" fill="#F7E787"/>
<path d="M46 137.9C45.8 137.9 45.6 137.7 45.5 137.5L44.8 134.3C44.2 131.7 42.2 129.6 39.5 129L36.4 128.4C36.2 128.4 36 128.1 36 127.9C36 127.7 36.2 127.5 36.4 127.4L39.6 126.7C42.2 126.1 44.3 124.1 44.9 121.4L45.6 118.2C45.6 118 45.9 117.8 46.1 117.8C46.3 117.8 46.5 118 46.6 118.2L47.3 121.4C47.9 124 49.9 126.1 52.6 126.7L55.8 127.4C56 127.4 56.2 127.7 56.2 127.9C56.2 128.1 56 128.3 55.8 128.4L52.5 129C49.9 129.6 47.8 131.6 47.2 134.3L46.5 137.5C46.5 137.7 46.3 137.9 46 137.9ZM38.9 127.9L39.8 128.1C42.8 128.7 45.2 131.1 45.8 134.1L46 135L46.2 134.1C46.8 131.1 49.2 128.7 52.2 128.1L53.1 127.9L52.2 127.7C49.2 127.1 46.8 124.7 46.2 121.7L46 120.8L45.8 121.7C45.2 124.7 42.8 127.1 39.8 127.7L38.9 127.9Z" fill="white"/>
<path d="M132.472 99.9C132.384 99.9 132.297 99.8124 132.253 99.7249L131.859 97.9739C131.553 96.4855 130.414 95.3474 128.926 95.041L127.175 94.647C127.088 94.647 127 94.5157 127 94.4281C127 94.3406 127.088 94.253 127.175 94.2092L128.926 93.8153C130.414 93.5088 131.553 92.3707 131.859 90.8823L132.253 89.1313C132.253 89.0876 132.341 89 132.472 89C132.559 89 132.647 89.0876 132.691 89.1751L133.085 90.9261C133.391 92.4145 134.573 93.5526 136.018 93.859L137.769 94.2092C137.856 94.2092 137.944 94.3406 137.944 94.4281C137.944 94.5157 137.856 94.6032 137.769 94.647L136.018 95.041C134.529 95.3474 133.391 96.4855 133.085 97.9739L132.691 99.7249C132.647 99.8562 132.559 99.9 132.472 99.9ZM128.269 94.4719L129.014 94.647C130.633 94.9972 131.947 96.2667 132.297 97.9301L132.472 98.6305L132.647 97.8863C132.997 96.2667 134.267 94.9534 135.93 94.6032L136.674 94.4281L135.93 94.253C134.31 93.9028 132.997 92.6333 132.647 90.9699L132.472 90.2695L132.297 91.0137C131.947 92.6333 130.677 93.9466 129.014 94.2968L128.269 94.4719Z" fill="white"/>
<path d="M81.6502 138.9C81.5434 138.9 81.4367 138.793 81.3833 138.686L81.1164 137.459C80.9029 136.445 80.1556 135.697 79.1414 135.484L77.9137 135.217C77.8069 135.217 77.7002 135.057 77.7002 134.95C77.7002 134.843 77.8069 134.736 77.9137 134.683L79.1414 134.416C80.1556 134.203 80.9029 133.455 81.1164 132.441L81.3833 131.214C81.3833 131.107 81.5434 131 81.6502 131C81.757 131 81.8637 131.107 81.9171 131.214L82.184 132.441C82.3975 133.455 83.1982 134.203 84.159 134.416L85.3867 134.683C85.4934 134.683 85.6002 134.843 85.6002 134.95C85.6002 135.057 85.4934 135.164 85.3867 135.217L84.159 135.484C83.1448 135.697 82.3975 136.445 82.184 137.459L81.9171 138.686C81.9171 138.793 81.8103 138.9 81.6502 138.9ZM79.2482 134.95C80.4759 135.217 81.3833 136.124 81.6502 137.352C81.9171 136.178 82.8245 135.217 84.0522 134.95C82.8779 134.683 81.9171 133.776 81.6502 132.548C81.4367 133.722 80.4759 134.683 79.2482 134.95Z" fill="white"/>
<path d="M73.1379 17.5667C71.5291 17.5982 69.9077 16.9861 68.707 15.9367C67.5481 17.0323 65.9519 17.7073 64.3431 17.7387C62.7343 17.7702 61.1129 17.1581 59.9122 16.1087C58.7533 17.2043 57.1571 17.8793 55.5483 17.9107C53.4033 17.9527 51.3445 16.92 50.129 15.1198C49.9103 14.9094 50.0113 14.5856 50.2216 14.3669C50.4319 14.1482 50.7558 14.2491 50.9745 14.4594C52.1857 16.0452 53.8113 16.8717 55.6346 16.8361C57.1362 16.8067 58.6251 16.1338 59.5694 15.0424C59.6746 14.9331 59.7797 14.8237 59.9942 14.8195C60.1015 14.8174 60.3181 14.9205 60.4275 15.0256C61.521 16.0772 62.9278 16.6935 64.4294 16.6641C65.9309 16.6347 67.4199 15.9618 68.3642 14.8704C68.5745 14.6517 68.8963 14.6454 69.115 14.8557C70.2085 15.9073 71.6154 16.5236 73.1169 16.4942C74.6185 16.4648 76.1074 15.7919 77.0518 14.7005C77.2621 14.4818 77.5838 14.4755 77.8025 14.6858C78.0212 14.8961 78.0275 15.2179 77.8172 15.4366C76.6626 16.7467 74.9612 17.5311 73.1379 17.5667Z" fill="white"/>
<path d="M140.509 68.509C139.009 68.509 137.509 67.909 136.409 66.909C135.309 67.909 133.809 68.509 132.309 68.509C130.809 68.509 129.309 67.909 128.209 66.909C127.109 67.909 125.609 68.509 124.109 68.509C122.109 68.509 120.209 67.509 119.109 65.809C118.909 65.609 119.009 65.309 119.209 65.109C119.409 64.909 119.709 65.009 119.909 65.209C121.009 66.709 122.509 67.509 124.209 67.509C125.609 67.509 127.009 66.909 127.909 65.909C128.009 65.809 128.109 65.709 128.309 65.709C128.409 65.709 128.609 65.809 128.709 65.909C129.709 66.909 131.009 67.509 132.409 67.509C133.809 67.509 135.209 66.909 136.109 65.909C136.309 65.709 136.609 65.709 136.809 65.909C137.809 66.909 139.109 67.509 140.509 67.509C141.909 67.509 143.309 66.909 144.209 65.909C144.409 65.709 144.709 65.709 144.909 65.909C145.109 66.109 145.109 66.409 144.909 66.609C143.809 67.809 142.209 68.509 140.509 68.509Z" fill="white"/>
<path d="M92 16C89.8065 16 88 14.1935 88 12C88 9.80645 89.8065 8 92 8C94.1935 8 96 9.80645 96 12C96 14.1935 94.1935 16 92 16ZM92 8.70968C90.129 8.70968 88.6452 10.1935 88.6452 12.0645C88.6452 13.9355 90.129 15.4194 92 15.4194C93.871 15.4194 95.3548 13.9355 95.3548 12.0645C95.3548 10.1935 93.871 8.70968 92 8.70968Z" fill="white"/>
<path d="M16.2 77.4C12.8 77.4 10 74.6 10 71.2C10 67.8 12.8 65 16.2 65C19.6 65 22.4 67.8 22.4 71.2C22.4 74.6 19.6 77.4 16.2 77.4ZM16.2 66.1C13.3 66.1 11 68.4 11 71.3C11 74.2 13.3 76.5 16.2 76.5C19.1 76.5 21.4 74.2 21.4 71.3C21.4 68.4 19.1 66.1 16.2 66.1Z" fill="white"/>
<g clip-path="url(#clip0_302_5388)">
<path d="M108 24.8403H104.432C104.162 24.8403 104 24.6944 104 24.5C104 24.3056 104.162 24.1111 104.432 24.1111H107.622V21.3889C107.568 21.1458 107.784 21 108 21C108.216 21 108.432 21.1458 108.432 21.3889V24.5C108.378 24.6944 108.216 24.8403 108 24.8403Z" fill="white"/>
<path d="M108 28C107.784 28 107.567 27.8542 107.567 27.6111V24.5C107.567 24.3056 107.73 24.1111 108 24.1111H111.567C111.784 24.1111 112 24.2569 112 24.5C112 24.6944 111.838 24.8889 111.567 24.8889H108.378V27.6597C108.378 27.8542 108.216 28 108 28Z" fill="white"/>
</g>
<path d="M96.8792 54.6965L73.4174 77.6071L97.3097 100.089L120.124 77.9592L96.8792 54.6965Z" fill="#366FC9"/>
<path d="M124 123H77.9375L123.57 78.0353L124 123Z" fill="#CEB3FE"/>
<path d="M73.417 77.6071L28 32H120.126L73.417 77.6071Z" fill="#F7BB37"/>
<path d="M73.417 77.6071L28 122.786L28 32L73.417 77.6071Z" fill="#AA60FB"/>
<path d="M50.8161 100.089L28 122.786L74.4933 123L97.3094 100.089H50.8161Z" fill="#AFD46B"/>
<path d="M73.4173 77.6071L50.8164 100.089H97.3097L73.4173 77.6071Z" fill="#38B0F1"/>
<path d="M100.753 54.6965L124 78.0353L124 32L100.753 54.6965Z" fill="#F45B4B"/>
<ellipse cx="94.0804" cy="45.4894" rx="2.79821" ry="2.78353" fill="url(#paint0_radial_302_5388)" fill-opacity="0.7"/>
<ellipse cx="100.538" cy="43.7765" rx="1.50673" ry="1.49882" fill="url(#paint1_radial_302_5388)" fill-opacity="0.7"/>
<defs>
<radialGradient id="paint0_radial_302_5388" cx="0" cy="0" r="1" gradientUnits="userSpaceOnUse" gradientTransform="translate(94.2957 45.4894) rotate(16.3082) scale(3.81259 2.90138)">
<stop stop-color="white"/>
<stop offset="1" stop-color="white" stop-opacity="0"/>
</radialGradient>
<radialGradient id="paint1_radial_302_5388" cx="0" cy="0" r="1" gradientUnits="userSpaceOnUse" gradientTransform="translate(100.654 43.7765) rotate(16.3082) scale(2.05293 1.56228)">
<stop stop-color="white"/>
<stop offset="1" stop-color="white" stop-opacity="0"/>
</radialGradient>
<clipPath id="clip0_302_5388">
<rect width="8" height="7" fill="white" transform="translate(104 21)"/>
</clipPath>
</defs>
</svg>
