<svg width="58" height="80" viewBox="0 0 58 80" fill="none" xmlns="http://www.w3.org/2000/svg">
<g clip-path="url(#clip0_131_10087)">
<path d="M49.0742 0L39.4429 22.0587H19.5098L28.365 0H49.0742Z" fill="#AB322F"/>
<path d="M40.36 18.2555H18.7688C17.3576 18.2555 16.1934 19.3469 16.1934 20.6697V33.5676H42.9354V20.6697C42.9354 19.3138 41.7712 18.2555 40.36 18.2555ZM41.0303 22.9847H17.6046V21.9926C17.6046 20.9343 18.5218 20.0414 19.6861 20.0414H38.9841C40.1131 20.0414 41.0656 20.9012 41.0656 21.9926V22.9847H41.0303Z" fill="#F28F0E"/>
<path d="M10.1963 0L19.5102 22.0587H39.4433L30.3763 0H10.1963Z" fill="#FA352C"/>
<path d="M24.1316 22.0587L13.9357 0H12.7715L22.9673 22.0587H24.1316Z" fill="#FCE0E0"/>
<path d="M28.4363 22.0587L18.2404 0H17.0762L27.272 22.0587H28.4363Z" fill="#FCE0E0"/>
<path d="M33.1979 22.0587L23.002 0H21.873L32.0689 22.0587H33.1979Z" fill="#FCE0E0"/>
<path d="M37.4324 22.0587L27.2365 0H26.0723L36.2681 22.0587H37.4324Z" fill="#FCE0E0"/>
<path d="M54.9075 64.9879C62.0628 51.5569 56.254 35.2209 41.933 28.5006C27.6121 21.7803 10.2021 27.2204 3.04673 40.6514C-4.10862 54.0825 1.70024 70.4184 16.0212 77.1388C30.3421 83.8591 47.7521 78.419 54.9075 64.9879Z" fill="#FFB10F"/>
<path d="M52.3204 36.6432C55.2486 40.8764 56.942 45.9363 56.942 51.3601C56.942 66.3745 43.9591 78.5448 27.942 78.5448C18.3812 78.5448 9.91404 74.2125 4.62207 67.532C9.77292 75.0393 18.7693 80 29.0004 80C45.0174 80 58.0004 67.8297 58.0004 52.8152C58.0004 46.7631 55.8836 41.174 52.3204 36.6432Z" fill="#FF930F"/>
<path d="M50.1385 62.7224C55.9766 51.7772 51.2439 38.468 39.5679 32.9954C27.8918 27.5228 13.6939 31.9592 7.85583 42.9044C2.01781 53.8496 6.75046 67.1588 18.4265 72.6314C30.1026 78.104 44.3005 73.6676 50.1385 62.7224Z" fill="#FFDC01"/>
<path d="M26.1053 67.8959C27.0226 68.5904 27.2696 69.7148 27.2696 69.7148C27.2696 69.7148 26.0348 69.7479 25.0822 69.0534C24.1649 68.3589 23.918 67.2344 23.918 67.2344C23.918 67.2344 25.188 67.2014 26.1053 67.8959Z" fill="#FFF375"/>
<path d="M24.9779 69.6817C26.1068 69.3179 27.271 69.7148 27.271 69.7148C27.271 69.7148 26.636 70.7069 25.5071 71.0707C24.3781 71.4345 23.2139 71.0377 23.2139 71.0377C23.2139 71.0377 23.8842 70.0455 24.9779 69.6817Z" fill="#FFF375"/>
<path d="M22.5091 66.9698C23.3206 67.7635 23.3911 68.921 23.3911 68.921C23.3911 68.921 22.1563 68.7888 21.3449 67.995C20.5335 67.2013 20.4629 66.0438 20.4629 66.0438C20.4629 66.0438 21.6977 66.1761 22.5091 66.9698Z" fill="#FFF375"/>
<path d="M21.1328 68.5903C22.297 68.3588 23.3907 68.9211 23.3907 68.9211C23.3907 68.9211 22.6145 69.814 21.4503 70.0455C20.2861 70.277 19.1924 69.7148 19.1924 69.7148C19.1924 69.7148 19.9685 68.8218 21.1328 68.5903Z" fill="#FFF375"/>
<path d="M19.6508 65.68C20.3211 66.5729 20.18 67.7304 20.18 67.7304C20.18 67.7304 18.9805 67.4328 18.3101 66.5068C17.6398 65.6139 17.7809 64.4564 17.7809 64.4564C17.7809 64.4564 18.9805 64.754 19.6508 65.68Z" fill="#FFF375"/>
<path d="M18.0279 67.069C19.2274 67.0359 20.2153 67.7304 20.2153 67.7304C20.2153 67.7304 19.298 68.5242 18.0985 68.5572C16.899 68.5903 15.9111 67.8958 15.9111 67.8958C15.9111 67.8958 16.8284 67.1021 18.0279 67.069Z" fill="#FFF375"/>
<path d="M17.0049 63.6626C17.4282 64.6878 17.0049 65.7792 17.0049 65.7792C17.0049 65.7792 15.9112 65.217 15.5231 64.1918C15.0998 63.1666 15.5231 62.0752 15.5231 62.0752C15.5231 62.0752 16.5815 62.6374 17.0049 63.6626Z" fill="#FFF375"/>
<path d="M15.0645 64.6549C16.2288 64.8864 17.0049 65.7793 17.0049 65.7793C17.0049 65.7793 15.9113 66.3415 14.747 66.11C13.5828 65.8785 12.8066 64.9856 12.8066 64.9856C12.8066 64.9856 13.9003 64.4233 15.0645 64.6549Z" fill="#FFF375"/>
<path d="M14.9941 61.3477C15.1352 62.439 14.4296 63.3981 14.4296 63.3981C14.4296 63.3981 13.5123 62.6044 13.3712 61.513C13.2301 60.4217 13.9357 59.4626 13.9357 59.4626C13.9357 59.4626 14.853 60.2563 14.9941 61.3477Z" fill="#FFF375"/>
<path d="M12.842 61.8768C13.9004 62.3398 14.4296 63.3981 14.4296 63.3981C14.4296 63.3981 13.2301 63.6957 12.1364 63.2327C11.078 62.7697 10.5488 61.7114 10.5488 61.7114C10.5488 61.7114 11.7836 61.4138 12.842 61.8768Z" fill="#FFF375"/>
<path d="M13.3007 58.4043C13.1948 59.4957 12.3128 60.3225 12.3128 60.3225C12.3128 60.3225 11.6073 59.3634 11.6778 58.3051C11.7837 57.2138 12.6656 56.387 12.6656 56.387C12.6656 56.387 13.3712 57.313 13.3007 58.4043Z" fill="#FFF375"/>
<path d="M11.077 58.5366C12.0296 59.198 12.3118 60.3224 12.3118 60.3224C12.3118 60.3224 11.077 60.3886 10.1244 59.7271C9.17189 59.0657 8.88965 57.9413 8.88965 57.9413C8.88965 57.9413 10.1244 57.8751 11.077 58.5366Z" fill="#FFF375"/>
<path d="M12.4186 55.6263C12.1363 56.6846 11.1132 57.3791 11.1132 57.3791C11.1132 57.3791 10.5487 56.3539 10.831 55.2956C11.1132 54.2373 12.1363 53.5428 12.1363 53.5428C12.1363 53.5428 12.7008 54.568 12.4186 55.6263Z" fill="#FFF375"/>
<path d="M10.1958 55.4278C11.0072 56.2216 11.113 57.3791 11.113 57.3791C11.113 57.3791 9.87825 57.2468 9.03153 56.4861C8.2201 55.6924 8.11426 54.5349 8.11426 54.5349C8.11426 54.5349 9.34905 54.6341 10.1958 55.4278Z" fill="#FFF375"/>
<path d="M12.3126 52.5176C11.7482 53.4767 10.5839 53.9066 10.5839 53.9066C10.5839 53.9066 10.337 52.7822 10.8662 51.8231C11.4306 50.864 12.5949 50.4341 12.5949 50.4341C12.5949 50.4341 12.8771 51.5585 12.3126 52.5176Z" fill="#FFF375"/>
<path d="M10.1957 51.823C10.7955 52.7821 10.5838 53.9065 10.5838 53.9065C10.5838 53.9065 9.41959 53.5097 8.81983 52.5837C8.22007 51.6246 8.43175 50.5002 8.43175 50.5002C8.43175 50.5002 9.63127 50.897 10.1957 51.823Z" fill="#FFF375"/>
<path d="M12.9123 49.3758C12.1362 50.2026 10.9014 50.3679 10.9014 50.3679C10.9014 50.3679 10.9366 49.2104 11.7128 48.3836C12.489 47.5568 13.7238 47.3915 13.7238 47.3915C13.7238 47.3915 13.6885 48.549 12.9123 49.3758Z" fill="#FFF375"/>
<path d="M11.0427 48.2513C11.3955 49.3096 10.8663 50.3679 10.8663 50.3679C10.8663 50.3679 9.80793 49.7396 9.49042 48.6813C9.13762 47.623 9.66681 46.5647 9.66681 46.5647C9.66681 46.5647 10.6899 47.2261 11.0427 48.2513Z" fill="#FFF375"/>
<path d="M14.1113 46.7962C13.1587 47.4246 11.8887 47.3254 11.8887 47.3254C11.8887 47.3254 12.2062 46.2009 13.1587 45.5726C14.1113 44.9442 15.3814 45.0434 15.3814 45.0434C15.3814 45.0434 15.0639 46.1679 14.1113 46.7962Z" fill="#FFF375"/>
<path d="M12.5591 45.308C12.6297 46.3993 11.8888 47.3253 11.8888 47.3253C11.8888 47.3253 11.0421 46.4986 10.9715 45.4072C10.901 44.3158 11.6419 43.3898 11.6419 43.3898C11.6419 43.3898 12.4886 44.2166 12.5591 45.308Z" fill="#FFF375"/>
<path d="M15.6291 44.4482C14.5707 44.9442 13.3359 44.6466 13.3359 44.6466C13.3359 44.6466 13.8299 43.5883 14.8883 43.0922C15.9466 42.5961 17.1814 42.8938 17.1814 42.8938C17.1814 42.8938 16.6875 43.9852 15.6291 44.4482Z" fill="#FFF375"/>
<path d="M14.3583 42.7615C14.2525 43.8529 13.3352 44.6466 13.3352 44.6466C13.3352 44.6466 12.6296 43.6875 12.7354 42.5961C12.8413 41.5048 13.7585 40.7111 13.7585 40.7111C13.7585 40.7111 14.4641 41.7032 14.3583 42.7615Z" fill="#FFF375"/>
<path d="M32.5275 67.7636C31.6102 68.4581 31.3633 69.5825 31.3633 69.5825C31.3633 69.5825 32.5981 69.6156 33.5506 68.9211C34.4679 68.2266 34.7149 67.1022 34.7149 67.1022C34.7149 67.1022 33.4448 67.0691 32.5275 67.7636Z" fill="#FFF375"/>
<path d="M33.6565 69.5164C32.5275 69.1526 31.3633 69.5495 31.3633 69.5495C31.3633 69.5495 31.9983 70.5416 33.1273 70.9054C34.2562 71.2692 35.4205 70.8723 35.4205 70.8723C35.4205 70.8723 34.7501 69.8802 33.6565 69.5164Z" fill="#FFF375"/>
<path d="M35.6681 66.9699C34.8567 67.7636 34.7861 68.9211 34.7861 68.9211C34.7861 68.9211 36.0209 68.7888 36.8324 67.9951C37.6438 67.2014 37.7144 66.0439 37.7144 66.0439C37.7144 66.0439 36.4796 66.1762 35.6681 66.9699Z" fill="#FFF375"/>
<path d="M37.044 68.5903C35.8798 68.3588 34.7861 68.9211 34.7861 68.9211C34.7861 68.9211 35.5623 69.814 36.7265 70.0455C37.8908 70.277 38.9844 69.7148 38.9844 69.7148C38.9844 69.7148 38.2083 68.8218 37.044 68.5903Z" fill="#FFF375"/>
<path d="M38.526 65.5478C37.8556 66.4407 37.9968 67.5982 37.9968 67.5982C37.9968 67.5982 39.1963 67.3006 39.8666 66.3746C40.5369 65.4817 40.3958 64.3242 40.3958 64.3242C40.3958 64.3242 39.1963 64.6549 38.526 65.5478Z" fill="#FFF375"/>
<path d="M40.1483 66.9368C38.9488 66.9037 37.9609 67.5982 37.9609 67.5982C37.9609 67.5982 38.8782 68.392 40.0777 68.425C41.2772 68.4581 42.2651 67.7636 42.2651 67.7636C42.2651 67.7636 41.3125 67.003 40.1483 66.9368Z" fill="#FFF375"/>
<path d="M41.0661 63.5966C40.6427 64.6218 41.0661 65.7132 41.0661 65.7132C41.0661 65.7132 42.1598 65.1509 42.5478 64.1257C42.9712 63.1005 42.5478 62.0092 42.5478 62.0092C42.5478 62.0092 41.4894 62.5714 41.0661 63.5966Z" fill="#FFF375"/>
<path d="M43.0419 64.5887C41.8777 64.8203 41.1016 65.7132 41.1016 65.7132C41.1016 65.7132 42.1952 66.2754 43.3595 66.0439C44.5237 65.8124 45.2998 64.9195 45.2998 64.9195C45.2998 64.9195 44.1709 64.3572 43.0419 64.5887Z" fill="#FFF375"/>
<path d="M43.1827 61.1162C43.0416 62.2076 43.7472 63.1666 43.7472 63.1666C43.7472 63.1666 44.6645 62.3729 44.8056 61.2816C44.9467 60.1902 44.2411 59.2311 44.2411 59.2311C44.2411 59.2311 43.3238 60.0249 43.1827 61.1162Z" fill="#FFF375"/>
<path d="M45.3347 61.6453C44.2763 62.1083 43.7471 63.1666 43.7471 63.1666C43.7471 63.1666 44.9466 63.4643 46.0403 63.0013C47.0987 62.5383 47.6278 61.48 47.6278 61.48C47.6278 61.48 46.3931 61.1823 45.3347 61.6453Z" fill="#FFF375"/>
<path d="M44.6988 58.3712C44.8047 59.4626 45.6867 60.2894 45.6867 60.2894C45.6867 60.2894 46.3923 59.3303 46.3217 58.272C46.2159 57.1807 45.3339 56.3539 45.3339 56.3539C45.3339 56.3539 44.593 57.2799 44.6988 58.3712Z" fill="#FFF375"/>
<path d="M46.9213 58.4705C45.9688 59.1319 45.6865 60.2563 45.6865 60.2563C45.6865 60.2563 46.9213 60.3225 47.8739 59.661C48.8264 58.9996 49.1087 57.8752 49.1087 57.8752C49.1087 57.8752 47.8739 57.8421 46.9213 58.4705Z" fill="#FFF375"/>
<path d="M45.581 55.5601C45.8632 56.6184 46.8863 57.3129 46.8863 57.3129C46.8863 57.3129 47.4508 56.2877 47.1686 55.2294C46.8863 54.1711 45.8632 53.4766 45.8632 53.4766C45.8632 53.4766 45.2987 54.5018 45.581 55.5601Z" fill="#FFF375"/>
<path d="M47.803 55.3617C46.9916 56.1554 46.8857 57.3129 46.8857 57.3129C46.8857 57.3129 48.1205 57.1806 48.9672 56.42C49.7787 55.6263 49.8845 54.4688 49.8845 54.4688C49.8845 54.4688 48.6145 54.568 47.803 55.3617Z" fill="#FFF375"/>
<path d="M45.6868 52.5507C46.2513 53.5097 47.4155 53.9397 47.4155 53.9397C47.4155 53.9397 47.6624 52.8152 47.1333 51.8562C46.5688 50.8971 45.4045 50.4672 45.4045 50.4672C45.4045 50.4672 45.1223 51.5916 45.6868 52.5507Z" fill="#FFF375"/>
<path d="M47.7681 51.8892C47.1683 52.8483 47.38 53.9727 47.38 53.9727C47.38 53.9727 48.5442 53.5759 49.144 52.6499C49.7438 51.6908 49.5321 50.5663 49.5321 50.5663C49.5321 50.5663 48.3678 50.9301 47.7681 51.8892Z" fill="#FFF375"/>
<path d="M45.0517 49.4088C45.8278 50.2356 47.0626 50.401 47.0626 50.401C47.0626 50.401 47.0273 49.2435 46.2512 48.4167C45.475 47.5899 44.2402 47.4246 44.2402 47.4246C44.2402 47.4246 44.2755 48.6151 45.0517 49.4088Z" fill="#FFF375"/>
<path d="M46.9221 48.2844C46.5693 49.3427 47.0985 50.401 47.0985 50.401C47.0985 50.401 48.1568 49.7726 48.4744 48.7144C48.8272 47.6561 48.298 46.5978 48.298 46.5978C48.298 46.5978 47.2396 47.2592 46.9221 48.2844Z" fill="#FFF375"/>
<path d="M43.8882 46.8954C44.8408 47.5238 46.1109 47.4246 46.1109 47.4246C46.1109 47.4246 45.7933 46.3001 44.8408 45.6718C43.8882 45.0434 42.6182 45.1426 42.6182 45.1426C42.6182 45.1426 42.9004 46.2671 43.8882 46.8954Z" fill="#FFF375"/>
<path d="M45.4051 45.4072C45.3346 46.4986 46.0754 47.4246 46.0754 47.4246C46.0754 47.4246 46.9222 46.5978 46.9927 45.5064C47.0633 44.4151 46.3224 43.4891 46.3224 43.4891C46.3224 43.4891 45.4757 44.3159 45.4051 45.4072Z" fill="#FFF375"/>
<path d="M42.2652 44.5804C43.3236 45.0765 44.5584 44.7789 44.5584 44.7789C44.5584 44.7789 44.0645 43.7206 43.0061 43.2245C41.9477 42.7284 40.7129 43.0261 40.7129 43.0261C40.7129 43.0261 41.2068 44.0843 42.2652 44.5804Z" fill="#FFF375"/>
<path d="M43.5352 42.8938C43.6411 43.9851 44.5584 44.7788 44.5584 44.7788C44.5584 44.7788 45.2639 43.8198 45.1581 42.7284C45.0523 41.637 44.135 40.8433 44.135 40.8433C44.135 40.8433 43.4294 41.8024 43.5352 42.8938Z" fill="#FFF375"/>
<path d="M41.4183 41.2402C41.383 41.2733 41.3125 41.3394 41.2419 41.3725C41.2066 41.3725 41.2066 41.4056 41.1713 41.4056C44.8757 44.382 47.2042 48.6483 47.2042 53.4106C47.2042 62.3399 39.0193 69.5825 28.9292 69.5825C18.8392 69.5825 10.6543 62.3399 10.6543 53.4106C10.6543 48.8467 12.8064 44.7458 16.2285 41.8025C16.1227 41.7694 16.0168 41.7363 15.9463 41.7032C12.5241 44.6797 10.3721 48.8467 10.3721 53.4106C10.3721 62.4722 18.6981 69.8471 28.9292 69.8471C39.1604 69.8471 47.4864 62.4722 47.4864 53.4106C47.5217 48.5821 45.158 44.2497 41.4183 41.2402Z" fill="#FFF375"/>
<path d="M18.0987 42.3977C16.9345 42.6292 15.8408 42.1001 15.8408 42.1001C15.8408 42.1001 16.617 41.1741 17.7812 40.9426C18.9454 40.7111 20.0391 41.2402 20.0391 41.2402C20.0391 41.2402 19.2277 42.1662 18.0987 42.3977Z" fill="#FFF375"/>
<path d="M17.2873 40.4796C16.8992 41.5048 15.8055 42.1001 15.8055 42.1001C15.8055 42.1001 15.3822 41.0087 15.7702 39.9835C16.1583 38.9583 17.252 38.363 17.252 38.363C17.252 38.363 17.7106 39.4543 17.2873 40.4796Z" fill="#FFF375"/>
<path d="M39.9365 42.3977C41.1007 42.6292 42.1944 42.1001 42.1944 42.1001C42.1944 42.1001 41.4182 41.1741 40.254 40.9426C39.0898 40.7111 37.9961 41.2402 37.9961 41.2402C37.9961 41.2402 38.7722 42.1662 39.9365 42.3977Z" fill="#FFF375"/>
<path d="M40.7126 40.4796C41.1007 41.5048 42.1944 42.1001 42.1944 42.1001C42.1944 42.1001 42.6177 41.0087 42.2296 39.9835C41.8416 38.9583 40.7479 38.363 40.7479 38.363C40.7479 38.363 40.3245 39.4543 40.7126 40.4796Z" fill="#FFF375"/>
</g>
<defs>
<clipPath id="clip0_131_10087">
<rect width="58" height="80" fill="white"/>
</clipPath>
</defs>
</svg>
