<svg width="43" height="80" viewBox="0 0 43 80" fill="none" xmlns="http://www.w3.org/2000/svg">
<path d="M22.6659 29.119H20.334V42.9428H22.6659V29.119Z" fill="#FFB10F"/>
<path d="M25.2404 44.5232H17.7783C17.7783 43.6512 18.5059 42.9246 19.42 42.9246H23.6174C24.4942 42.9428 25.2404 43.6512 25.2404 44.5232Z" fill="#FFDC01"/>
<path d="M38.0195 73.9147H5L6.86551 46.1036H36.3406L38.0195 73.9147Z" fill="#893003"/>
<path d="M36.3399 46.1036H6.86486L6.75293 47.7566C13.7672 50.3906 25.0722 55.9128 29.3629 65.2317C31.0605 68.9192 32.2918 71.7348 33.2059 73.9147H38.0189L36.3399 46.1036Z" fill="#7A2B03"/>
<path d="M36.7135 44.5232H6.30566V46.1036H36.7135V44.5232Z" fill="#FFB10F"/>
<path d="M41.0414 78.3106H1.95898V75.3678C1.95898 74.5686 2.63057 73.9146 3.45139 73.9146H39.549C40.3698 73.9146 41.0414 74.5686 41.0414 75.3678V78.3106Z" fill="#FFB10F"/>
<path d="M39.5491 73.9146H33.1504C33.9712 73.9146 34.6428 74.5686 34.6428 75.3678V78.3106H41.0415V75.3678C41.0415 74.5686 40.3699 73.9146 39.5491 73.9146Z" fill="#FFA30F"/>
<path d="M43 78.2743H0V80H43V78.2743Z" fill="#D67205"/>
<path d="M43 79.455H0V79.9818H43V79.455Z" fill="#BD6504"/>
<path d="M20.334 32.2979L21.6585 31.753L22.6659 32.1526V29.119H20.334V32.2979Z" fill="#E09C0D"/>
<path d="M33.1686 34.2961L21.6398 29.7911L10.2042 34.4777L11.0437 22.4342L2.92871 13.297L14.9612 10.3361L21.3786 0L27.9825 10.2271L40.071 12.9882L32.1239 22.2525L33.1686 34.2961Z" fill="#FFDC01"/>
<path d="M12.0324 33.733C18.5617 26.7212 22.871 15.4223 23.0949 2.6158L21.3786 0L14.9612 10.3361L2.92871 13.297L11.0437 22.4342L10.2042 34.4777L12.0324 33.733Z" fill="#FFDC01"/>
<path d="M21.3598 26.703L16.0804 19.5277C16.0244 19.455 16.0431 19.3279 16.1177 19.2734C16.1923 19.2189 16.3229 19.2371 16.3789 19.3097L21.6583 26.485C21.7142 26.5577 21.6956 26.6848 21.621 26.7393C21.5277 26.7938 21.4157 26.7757 21.3598 26.703Z" fill="#FFF8A4"/>
<path d="M26.8819 29.228L15.1292 13.951C15.0733 13.8783 15.0919 13.7512 15.1665 13.6967C15.2412 13.6422 15.3717 13.6603 15.4277 13.733L27.1804 29.01C27.2364 29.0827 27.2177 29.2098 27.1431 29.2643C27.0685 29.3188 26.9565 29.3007 26.8819 29.228Z" fill="#FFF8A4"/>
<path d="M30.6682 30.8083L18.7103 14.2961C18.6543 14.2234 18.673 14.0963 18.7476 14.0418C18.8222 13.9873 18.9528 14.0054 19.0088 14.0781L30.9667 30.5903C31.0226 30.663 31.004 30.7902 30.9294 30.8447C30.8361 30.9173 30.7242 30.8992 30.6682 30.8083Z" fill="#FFF8A4"/>
<path d="M27.3487 20.8901L19.2337 9.62761C19.1777 9.55495 19.1964 9.4278 19.271 9.3733C19.3456 9.3188 19.4762 9.33697 19.5322 9.40963L27.6472 20.6721C27.7031 20.7448 27.6845 20.8719 27.6099 20.9264C27.5166 20.9991 27.4046 20.9628 27.3487 20.8901Z" fill="#FFF8A4"/>
<path d="M26.8823 15.0227L23.9348 10.7538C23.8788 10.663 23.8975 10.554 23.9908 10.4995C24.084 10.445 24.196 10.4632 24.2519 10.554L27.1994 14.8229C27.2554 14.9137 27.2368 15.0227 27.1435 15.0772C27.0502 15.1317 26.9383 15.1135 26.8823 15.0227Z" fill="#FFF8A4"/>
<path d="M29.6052 61.2171H15.5206C15.5206 61.7257 15.1102 62.1254 14.5879 62.1254V68.7557C15.1102 68.7557 15.5206 69.1553 15.5206 69.664H29.6052C29.6052 69.1553 30.0157 68.7557 30.538 68.7557V62.1254C30.0157 62.1254 29.6052 61.7076 29.6052 61.2171Z" fill="#FFCC00"/>
<path d="M15.5205 61.2171C15.5205 61.2353 15.5205 61.2716 15.5205 61.2898L22.3296 69.664H23.281L16.416 61.2171H15.5205Z" fill="#F9C569"/>
<path d="M14.5879 62.1254V62.5795L20.3523 69.664H20.8373L14.6998 62.1254C14.6439 62.1254 14.6252 62.1254 14.5879 62.1254Z" fill="#F9C569"/>
<path d="M18.1699 61.2171L25.0536 69.6458H25.52L18.655 61.2171H18.1699Z" fill="#F9C569"/>
<path d="M19.998 61.2171L26.8818 69.6458H27.5907L20.7069 61.2171H19.998Z" fill="#F9C569"/>
<path d="M31.8817 75.0954H27.5911C27.3486 75.0954 27.3486 74.7321 27.5911 74.7321H31.8817C31.9937 74.7321 32.0683 74.8047 32.0683 74.9137C32.0683 75.0227 31.9937 75.0954 31.8817 75.0954Z" fill="#F9C569"/>
<path d="M25.6319 75.0954H21.8635C21.621 75.0954 21.621 74.7321 21.8635 74.7321H25.6319C25.7438 74.7321 25.8184 74.8047 25.8184 74.9137C25.8184 75.0227 25.7251 75.0954 25.6319 75.0954Z" fill="#F9C569"/>
<path d="M19.9981 75.0954H3.71216C3.46964 75.0954 3.46964 74.7321 3.71216 74.7321H19.9981C20.11 74.7321 20.1846 74.8047 20.1846 74.9137C20.1846 75.0227 20.11 75.0954 19.9981 75.0954Z" fill="#F9C569"/>
</svg>
