<svg width="16" height="20" viewBox="0 0 16 20" xmlns="http://www.w3.org/2000/svg">
<path fill="#4778EC" d="M15.954 6.87173C15.954 6.56404 15.954 6.35891 15.954 6.15379C15.7468 2.87173 13.1568 0.205067 9.84173 -6.10352e-05C9.22014 -6.10352e-05 8.59856 -6.10352e-05 8.08057 -6.10352e-05C6.52662 -6.10352e-05 4.35108 0.205067 2.90072 0.307631C1.45036 0.410195 0.414388 1.43584 0.310791 2.76917C0.207194 4.4102 0 7.58968 0 9.94866C0 12.2051 0.207194 15.3846 0.310791 17.1281C0.414388 18.4615 1.45036 19.5897 2.79712 19.6922C4.24748 19.7948 6.42302 19.9999 7.97698 19.9999C9.53093 19.9999 11.7065 19.7948 13.1568 19.6922C14.5036 19.5897 15.5396 18.4615 15.6432 17.1281C15.7468 15.4871 15.954 12.3076 15.954 9.94866C16.0576 9.12814 15.954 8.1025 15.954 6.87173ZM10.5669 13.0256L7.97698 15.5897C7.87338 15.6922 7.76978 15.6922 7.76978 15.7948C7.66619 15.7948 7.56259 15.8974 7.45899 15.8974C7.35539 15.8974 7.2518 15.8974 7.1482 15.7948C7.0446 15.7948 6.94101 15.6922 6.94101 15.5897L4.35108 13.0256C4.04029 12.7179 4.04029 12.2051 4.35108 11.8974C4.66187 11.5897 5.17986 11.5897 5.49065 11.8974L6.73381 13.1281V9.94866C6.73381 9.5384 7.0446 9.12814 7.56259 9.12814C8.08057 9.12814 8.39137 9.43584 8.39137 9.94866V13.2307L9.63453 11.9999C9.94532 11.6922 10.4633 11.6922 10.7741 11.9999C10.8777 12.3076 10.8777 12.7179 10.5669 13.0256ZM11.0849 6.05122C10.3597 6.05122 9.84173 5.43584 9.84173 4.82045V1.5384C12.2245 1.74353 14.1928 3.58968 14.4 6.05122H11.0849Z"/>
</svg>
