<svg width="20" height="14" viewBox="0 0 20 14" fill="none" xmlns="http://www.w3.org/2000/svg">
<path fill-rule="evenodd" clip-rule="evenodd" d="M4.46663 0.813957C6.8194 0.603591 9.18704 0.621953 11.5363 0.868785L12.144 0.932638C13.3039 1.05451 14.2375 1.93433 14.4317 3.07943L17.71 1.33767C17.9322 1.21964 18.1987 1.22085 18.4198 1.34091C18.6409 1.46097 18.7871 1.68388 18.809 1.9345L18.8339 2.21834C19.1129 5.40001 19.1129 8.59999 18.8339 11.7817L18.809 12.0655C18.7871 12.3161 18.6409 12.539 18.4198 12.6591C18.1987 12.7791 17.9322 12.7804 17.71 12.6623L14.4317 10.9206C14.2375 12.0657 13.3039 12.9455 12.144 13.0674L11.5363 13.1312C9.18704 13.3781 6.81941 13.3964 4.46663 13.1861L2.88484 13.0446C1.69295 12.9381 0.72992 12.0275 0.556811 10.8434C0.184188 8.2947 0.184188 5.70532 0.556811 3.15658C0.72992 1.97251 1.69294 1.06196 2.88484 0.955387L4.46663 0.813957ZM14.6167 9.36662C14.6969 9.37922 14.7764 9.40517 14.8522 9.44541L17.4072 10.8029C17.5885 8.27086 17.5885 5.72914 17.4072 3.19714L14.8522 4.55459C14.7764 4.59483 14.6969 4.62078 14.6167 4.63338C14.7568 6.20801 14.7568 7.79199 14.6167 9.36662Z" fill="white"/>
</svg>
